0
SECTION
2
HEADER
9
$INSUNITS
70
4
9
$ACADVER
1
AC1014
9
$HANDSEED
5
FFFF
0
ENDSEC
0
SECTION
2
TABLES
0
TABLE
2
VPORT
5
8
100
AcDbSymbolTable
0
ENDTAB
0
TABLE
2
LTYPE
5
5
100
AcDbSymbolTable
0
LTYPE
5
14
100
AcDbSymbolTableRecord
100
AcDbLinetypeTableRecord
2
BYBLOCK
70
0
0
LTYPE
5
15
100
AcDbSymbolTableRecord
100
AcDbLinetypeTableRecord
2
BYLAYER
70
0
0
ENDTAB
0
TABLE
2
LAYER
5
2
100
AcDbSymbolTable
70
2
0
LAYER
5
50
100
AcDbSymbolTableRecord
100
AcDbLayerTableRecord
2
0
70
0
6
CONTINUOUS
0
ENDTAB
0
TABLE
2
STYLE
5
3
100
AcDbSymbolTable
70
1
0
STYLE
5
11
100
AcDbSymbolTableRecord
100
AcDbTextStyleTableRecord
2
STANDARD
70
0
0
ENDTAB
0
TABLE
2
VIEW
5
6
100
AcDbSymbolTable
70
0
0
ENDTAB
0
TABLE
2
UCS
5
7
100
AcDbSymbolTable
70
0
0
ENDTAB
0
TABLE
2
APPID
5
9
100
AcDbSymbolTable
70
2
0
APPID
5
12
100
AcDbSymbolTableRecord
100
AcDbRegAppTableRecord
2
ACAD
70
0
0
ENDTAB
0
TABLE
2
DIMSTYLE
5
A
100
AcDbSymbolTable
70
1
0
ENDTAB
0
TABLE
2
BLOCK_RECORD
5
1
100
AcDbSymbolTable
70
1
0
BLOCK_RECORD
5
1F
100
AcDbSymbolTableRecord
100
AcDbBlockTableRecord
2
*MODEL_SPACE
0
BLOCK_RECORD
5
1B
100
AcDbSymbolTableRecord
100
AcDbBlockTableRecord
2
*PAPER_SPACE
0
ENDTAB
0
ENDSEC
0
SECTION
2
BLOCKS
0
BLOCK
5
20
100
AcDbEntity
100
AcDbBlockBegin
2
*MODEL_SPACE
0
ENDBLK
5
21
100
AcDbEntity
100
AcDbBlockEnd
0
BLOCK
5
1C
100
AcDbEntity
100
AcDbBlockBegin
2
*PAPER_SPACE
0
ENDBLK
5
1D
100
AcDbEntity
100
AcDbBlockEnd
0
ENDSEC
0
SECTION
2
ENTITIES
0
LINE
5
100
100
AcDbEntity
8
0
100
AcDbLine
10
37
20
-98.100000000000009
30
0
11
37
21
-104.99999999999999
31
0
0
LINE
5
101
100
AcDbEntity
8
0
100
AcDbLine
10
37
20
-104.99999999999999
30
0
11
44.642857142857146
21
-104.99999999999999
31
0
0
LINE
5
102
100
AcDbEntity
8
0
100
AcDbLine
10
44.642857142857146
20
-104.99999999999999
30
0
11
44.642857142857146
21
-109
31
0
0
LINE
5
103
100
AcDbEntity
8
0
100
AcDbLine
10
44.642857142857146
20
-109
30
0
11
62.500000000000007
21
-109
31
0
0
LINE
5
104
100
AcDbEntity
8
0
100
AcDbLine
10
62.500000000000007
20
-109
30
0
11
62.5
21
-104.99999999999999
31
0
0
LINE
5
105
100
AcDbEntity
8
0
100
AcDbLine
10
62.5
20
-104.99999999999999
30
0
11
80.357142857142861
21
-104.99999999999999
31
0
0
LINE
5
106
100
AcDbEntity
8
0
100
AcDbLine
10
80.357142857142861
20
-104.99999999999999
30
0
11
80.357142857142847
21
-109
31
0
0
LINE
5
107
100
AcDbEntity
8
0
100
AcDbLine
10
80.357142857142847
20
-109
30
0
11
98.214285714285708
21
-109
31
0
0
LINE
5
108
100
AcDbEntity
8
0
100
AcDbLine
10
98.214285714285708
20
-109
30
0
11
98.214285714285722
21
-104.99999999999999
31
0
0
LINE
5
109
100
AcDbEntity
8
0
100
AcDbLine
10
98.214285714285722
20
-104.99999999999999
30
0
11
116.07142857142858
21
-104.99999999999999
31
0
0
LINE
5
110
100
AcDbEntity
8
0
100
AcDbLine
10
116.07142857142858
20
-104.99999999999999
30
0
11
116.07142857142858
21
-109
31
0
0
LINE
5
111
100
AcDbEntity
8
0
100
AcDbLine
10
116.07142857142858
20
-109
30
0
11
124.99999999999999
21
-109
31
0
0
LINE
5
112
100
AcDbEntity
8
0
100
AcDbLine
10
124.99999999999999
20
-109
30
0
11
124.99999999999999
21
-98.100000000000023
31
0
0
LINE
5
113
100
AcDbEntity
8
0
100
AcDbLine
10
124.99999999999999
20
-98.100000000000023
30
0
11
121
21
-98.100000000000023
31
0
0
LINE
5
114
100
AcDbEntity
8
0
100
AcDbLine
10
121
20
-98.100000000000023
30
0
11
121
21
-76.300000000000026
31
0
0
LINE
5
115
100
AcDbEntity
8
0
100
AcDbLine
10
121
20
-76.300000000000026
30
0
11
124.99999999999999
21
-76.300000000000026
31
0
0
LINE
5
116
100
AcDbEntity
8
0
100
AcDbLine
10
124.99999999999999
20
-76.300000000000026
30
0
11
124.99999999999999
21
-54.500000000000021
31
0
0
LINE
5
117
100
AcDbEntity
8
0
100
AcDbLine
10
124.99999999999999
20
-54.500000000000021
30
0
11
121
21
-54.500000000000021
31
0
0
LINE
5
118
100
AcDbEntity
8
0
100
AcDbLine
10
121
20
-54.500000000000021
30
0
11
121
21
-32.700000000000024
31
0
0
LINE
5
119
100
AcDbEntity
8
0
100
AcDbLine
10
121
20
-32.700000000000024
30
0
11
124.99999999999999
21
-32.700000000000024
31
0
0
LINE
5
120
100
AcDbEntity
8
0
100
AcDbLine
10
124.99999999999999
20
-32.700000000000024
30
0
11
124.99999999999999
21
-10.900000000000025
31
0
0
LINE
5
121
100
AcDbEntity
8
0
100
AcDbLine
10
124.99999999999999
20
-10.900000000000025
30
0
11
121
21
-10.90000000000002
31
0
0
LINE
5
122
100
AcDbEntity
8
0
100
AcDbLine
10
121
20
-10.90000000000002
30
0
11
121
21
10.899999999999981
31
0
0
LINE
5
123
100
AcDbEntity
8
0
100
AcDbLine
10
121
20
10.899999999999981
30
0
11
124.99999999999999
21
10.899999999999981
31
0
0
LINE
5
124
100
AcDbEntity
8
0
100
AcDbLine
10
124.99999999999999
20
10.899999999999981
30
0
11
124.99999999999999
21
32.699999999999982
31
0
0
LINE
5
125
100
AcDbEntity
8
0
100
AcDbLine
10
124.99999999999999
20
32.699999999999982
30
0
11
121
21
32.699999999999989
31
0
0
LINE
5
126
100
AcDbEntity
8
0
100
AcDbLine
10
121
20
32.699999999999989
30
0
11
121
21
54.499999999999993
31
0
0
LINE
5
127
100
AcDbEntity
8
0
100
AcDbLine
10
121
20
54.499999999999993
30
0
11
124.99999999999999
21
54.499999999999993
31
0
0
LINE
5
128
100
AcDbEntity
8
0
100
AcDbLine
10
124.99999999999999
20
54.499999999999993
30
0
11
124.99999999999999
21
76.299999999999983
31
0
0
LINE
5
129
100
AcDbEntity
8
0
100
AcDbLine
10
124.99999999999999
20
76.299999999999983
30
0
11
121
21
76.299999999999983
31
0
0
LINE
5
130
100
AcDbEntity
8
0
100
AcDbLine
10
121
20
76.299999999999983
30
0
11
121.00000000000001
21
88.999999999999986
31
0
0
LINE
5
131
100
AcDbEntity
8
0
100
AcDbLine
10
121.00000000000001
20
88.999999999999986
30
0
11
116.07142857142858
21
88.999999999999986
31
0
0
LINE
5
132
100
AcDbEntity
8
0
100
AcDbLine
10
116.07142857142858
20
88.999999999999986
30
0
11
116.07142857142858
21
92.999999999999986
31
0
0
LINE
5
133
100
AcDbEntity
8
0
100
AcDbLine
10
116.07142857142858
20
92.999999999999986
30
0
11
121.00000000000001
21
92.999999999999986
31
0
0
LINE
5
134
100
AcDbEntity
8
0
100
AcDbLine
10
121.00000000000001
20
92.999999999999986
30
0
11
121
21
98.099999999999994
31
0
0
LINE
5
135
100
AcDbEntity
8
0
100
AcDbLine
10
121
20
98.099999999999994
30
0
11
124.99999999999999
21
98.099999999999994
31
0
0
LINE
5
136
100
AcDbEntity
8
0
100
AcDbLine
10
124.99999999999999
20
98.099999999999994
30
0
11
124.99999999999999
21
109
31
0
0
LINE
5
137
100
AcDbEntity
8
0
100
AcDbLine
10
124.99999999999999
20
109
30
0
11
116.0714285714286
21
109
31
0
0
LINE
5
138
100
AcDbEntity
8
0
100
AcDbLine
10
116.0714285714286
20
109
30
0
11
116.0714285714286
21
104.99999999999999
31
0
0
LINE
5
139
100
AcDbEntity
8
0
100
AcDbLine
10
116.0714285714286
20
104.99999999999999
30
0
11
98.214285714285722
21
104.99999999999999
31
0
0
LINE
5
140
100
AcDbEntity
8
0
100
AcDbLine
10
98.214285714285722
20
104.99999999999999
30
0
11
98.214285714285722
21
109
31
0
0
LINE
5
141
100
AcDbEntity
8
0
100
AcDbLine
10
98.214285714285722
20
109
30
0
11
80.357142857142861
21
109
31
0
0
LINE
5
142
100
AcDbEntity
8
0
100
AcDbLine
10
80.357142857142861
20
109
30
0
11
80.357142857142861
21
104.99999999999999
31
0
0
LINE
5
143
100
AcDbEntity
8
0
100
AcDbLine
10
80.357142857142861
20
104.99999999999999
30
0
11
62.500000000000014
21
104.99999999999999
31
0
0
LINE
5
144
100
AcDbEntity
8
0
100
AcDbLine
10
62.500000000000014
20
104.99999999999999
30
0
11
62.500000000000007
21
109
31
0
0
LINE
5
145
100
AcDbEntity
8
0
100
AcDbLine
10
62.500000000000007
20
109
30
0
11
44.64285714285716
21
109
31
0
0
LINE
5
146
100
AcDbEntity
8
0
100
AcDbLine
10
44.64285714285716
20
109
30
0
11
44.642857142857153
21
104.99999999999999
31
0
0
LINE
5
147
100
AcDbEntity
8
0
100
AcDbLine
10
44.642857142857153
20
104.99999999999999
30
0
11
26.785714285714299
21
104.99999999999999
31
0
0
LINE
5
148
100
AcDbEntity
8
0
100
AcDbLine
10
26.785714285714299
20
104.99999999999999
30
0
11
26.785714285714299
21
109
31
0
0
LINE
5
149
100
AcDbEntity
8
0
100
AcDbLine
10
26.785714285714299
20
109
30
0
11
8.9285714285714377
21
109
31
0
0
LINE
5
150
100
AcDbEntity
8
0
100
AcDbLine
10
8.9285714285714377
20
109
30
0
11
8.9285714285714342
21
104.99999999999999
31
0
0
LINE
5
151
100
AcDbEntity
8
0
100
AcDbLine
10
8.9285714285714342
20
104.99999999999999
30
0
11
-8.9285714285714199
21
104.99999999999999
31
0
0
LINE
5
152
100
AcDbEntity
8
0
100
AcDbLine
10
-8.9285714285714199
20
104.99999999999999
30
0
11
-8.9285714285714199
21
109
31
0
0
LINE
5
153
100
AcDbEntity
8
0
100
AcDbLine
10
-8.9285714285714199
20
109
30
0
11
-26.785714285714274
21
109
31
0
0
LINE
5
154
100
AcDbEntity
8
0
100
AcDbLine
10
-26.785714285714274
20
109
30
0
11
-26.785714285714278
21
104.99999999999999
31
0
0
LINE
5
155
100
AcDbEntity
8
0
100
AcDbLine
10
-26.785714285714278
20
104.99999999999999
30
0
11
-44.642857142857139
21
104.99999999999999
31
0
0
LINE
5
156
100
AcDbEntity
8
0
100
AcDbLine
10
-44.642857142857139
20
104.99999999999999
30
0
11
-44.642857142857139
21
109
31
0
0
LINE
5
157
100
AcDbEntity
8
0
100
AcDbLine
10
-44.642857142857139
20
109
30
0
11
-62.499999999999993
21
109
31
0
0
LINE
5
158
100
AcDbEntity
8
0
100
AcDbLine
10
-62.499999999999993
20
109
30
0
11
-62.5
21
104.99999999999999
31
0
0
LINE
5
159
100
AcDbEntity
8
0
100
AcDbLine
10
-62.5
20
104.99999999999999
30
0
11
-80.357142857142847
21
104.99999999999999
31
0
0
LINE
5
160
100
AcDbEntity
8
0
100
AcDbLine
10
-80.357142857142847
20
104.99999999999999
30
0
11
-80.357142857142847
21
109
31
0
0
LINE
5
161
100
AcDbEntity
8
0
100
AcDbLine
10
-80.357142857142847
20
109
30
0
11
-98.214285714285708
21
109
31
0
0
LINE
5
162
100
AcDbEntity
8
0
100
AcDbLine
10
-98.214285714285708
20
109
30
0
11
-98.214285714285708
21
104.99999999999999
31
0
0
LINE
5
163
100
AcDbEntity
8
0
100
AcDbLine
10
-98.214285714285708
20
104.99999999999999
30
0
11
-116.07142857142858
21
104.99999999999999
31
0
0
LINE
5
164
100
AcDbEntity
8
0
100
AcDbLine
10
-116.07142857142858
20
104.99999999999999
30
0
11
-116.07142857142858
21
109
31
0
0
LINE
5
165
100
AcDbEntity
8
0
100
AcDbLine
10
-116.07142857142858
20
109
30
0
11
-125.00000000000001
21
109
31
0
0
LINE
5
166
100
AcDbEntity
8
0
100
AcDbLine
10
-125.00000000000001
20
109
30
0
11
-125.00000000000001
21
98.100000000000009
31
0
0
LINE
5
167
100
AcDbEntity
8
0
100
AcDbLine
10
-125.00000000000001
20
98.100000000000009
30
0
11
-121
21
98.100000000000009
31
0
0
LINE
5
168
100
AcDbEntity
8
0
100
AcDbLine
10
-121
20
98.100000000000009
30
0
11
-121
21
92.999999999999986
31
0
0
LINE
5
169
100
AcDbEntity
8
0
100
AcDbLine
10
-121
20
92.999999999999986
30
0
11
-116.07142857142858
21
92.999999999999986
31
0
0
LINE
5
170
100
AcDbEntity
8
0
100
AcDbLine
10
-116.07142857142858
20
92.999999999999986
30
0
11
-116.07142857142858
21
88.999999999999986
31
0
0
LINE
5
171
100
AcDbEntity
8
0
100
AcDbLine
10
-116.07142857142858
20
88.999999999999986
30
0
11
-121
21
88.999999999999986
31
0
0
LINE
5
172
100
AcDbEntity
8
0
100
AcDbLine
10
-121
20
88.999999999999986
30
0
11
-121
21
76.299999999999997
31
0
0
LINE
5
173
100
AcDbEntity
8
0
100
AcDbLine
10
-121
20
76.299999999999997
30
0
11
-125.00000000000001
21
76.299999999999997
31
0
0
LINE
5
174
100
AcDbEntity
8
0
100
AcDbLine
10
-125.00000000000001
20
76.299999999999997
30
0
11
-125
21
54.499999999999993
31
0
0
LINE
5
175
100
AcDbEntity
8
0
100
AcDbLine
10
-125
20
54.499999999999993
30
0
11
-121
21
54.499999999999993
31
0
0
LINE
5
176
100
AcDbEntity
8
0
100
AcDbLine
10
-121
20
54.499999999999993
30
0
11
-121
21
32.699999999999996
31
0
0
LINE
5
177
100
AcDbEntity
8
0
100
AcDbLine
10
-121
20
32.699999999999996
30
0
11
-125
21
32.699999999999996
31
0
0
LINE
5
178
100
AcDbEntity
8
0
100
AcDbLine
10
-125
20
32.699999999999996
30
0
11
-125
21
10.899999999999999
31
0
0
LINE
5
179
100
AcDbEntity
8
0
100
AcDbLine
10
-125
20
10.899999999999999
30
0
11
-121
21
10.899999999999997
31
0
0
LINE
5
180
100
AcDbEntity
8
0
100
AcDbLine
10
-121
20
10.899999999999997
30
0
11
-121
21
-10.900000000000006
31
0
0
LINE
5
181
100
AcDbEntity
8
0
100
AcDbLine
10
-121
20
-10.900000000000006
30
0
11
-124.99999999999999
21
-10.900000000000006
31
0
0
LINE
5
182
100
AcDbEntity
8
0
100
AcDbLine
10
-124.99999999999999
20
-10.900000000000006
30
0
11
-124.99999999999999
21
-32.700000000000017
31
0
0
LINE
5
183
100
AcDbEntity
8
0
100
AcDbLine
10
-124.99999999999999
20
-32.700000000000017
30
0
11
-121
21
-32.70000000000001
31
0
0
LINE
5
184
100
AcDbEntity
8
0
100
AcDbLine
10
-121
20
-32.70000000000001
30
0
11
-121
21
-54.500000000000014
31
0
0
LINE
5
185
100
AcDbEntity
8
0
100
AcDbLine
10
-121
20
-54.500000000000014
30
0
11
-124.99999999999999
21
-54.500000000000014
31
0
0
LINE
5
186
100
AcDbEntity
8
0
100
AcDbLine
10
-124.99999999999999
20
-54.500000000000014
30
0
11
-124.99999999999997
21
-76.300000000000011
31
0
0
LINE
5
187
100
AcDbEntity
8
0
100
AcDbLine
10
-124.99999999999997
20
-76.300000000000011
30
0
11
-121
21
-76.300000000000011
31
0
0
LINE
5
188
100
AcDbEntity
8
0
100
AcDbLine
10
-121
20
-76.300000000000011
30
0
11
-121
21
-98.100000000000009
31
0
0
LINE
5
189
100
AcDbEntity
8
0
100
AcDbLine
10
-121
20
-98.100000000000009
30
0
11
-124.99999999999997
21
-98.100000000000009
31
0
0
LINE
5
190
100
AcDbEntity
8
0
100
AcDbLine
10
-124.99999999999997
20
-98.100000000000009
30
0
11
-124.99999999999997
21
-109
31
0
0
LINE
5
191
100
AcDbEntity
8
0
100
AcDbLine
10
-124.99999999999997
20
-109
30
0
11
-116.0714285714286
21
-109
31
0
0
LINE
5
192
100
AcDbEntity
8
0
100
AcDbLine
10
-116.0714285714286
20
-109
30
0
11
-116.07142857142858
21
-104.99999999999999
31
0
0
LINE
5
193
100
AcDbEntity
8
0
100
AcDbLine
10
-116.07142857142858
20
-104.99999999999999
30
0
11
-98.214285714285722
21
-104.99999999999999
31
0
0
LINE
5
194
100
AcDbEntity
8
0
100
AcDbLine
10
-98.214285714285722
20
-104.99999999999999
30
0
11
-98.214285714285722
21
-109
31
0
0
LINE
5
195
100
AcDbEntity
8
0
100
AcDbLine
10
-98.214285714285722
20
-109
30
0
11
-80.357142857142861
21
-109
31
0
0
LINE
5
196
100
AcDbEntity
8
0
100
AcDbLine
10
-80.357142857142861
20
-109
30
0
11
-80.357142857142861
21
-104.99999999999999
31
0
0
LINE
5
197
100
AcDbEntity
8
0
100
AcDbLine
10
-80.357142857142861
20
-104.99999999999999
30
0
11
-62.500000000000007
21
-104.99999999999999
31
0
0
LINE
5
198
100
AcDbEntity
8
0
100
AcDbLine
10
-62.500000000000007
20
-104.99999999999999
30
0
11
-62.5
21
-109
31
0
0
LINE
5
199
100
AcDbEntity
8
0
100
AcDbLine
10
-62.5
20
-109
30
0
11
-44.642857142857146
21
-109
31
0
0
LINE
5
200
100
AcDbEntity
8
0
100
AcDbLine
10
-44.642857142857146
20
-109
30
0
11
-44.642857142857146
21
-104.99999999999999
31
0
0
LINE
5
201
100
AcDbEntity
8
0
100
AcDbLine
10
-44.642857142857146
20
-104.99999999999999
30
0
11
-37
21
-104.99999999999999
31
0
0
LINE
5
202
100
AcDbEntity
8
0
100
AcDbLine
10
-37
20
-104.99999999999999
30
0
11
-37
21
-98.100000000000009
31
0
0
LINE
5
203
100
AcDbEntity
8
0
100
AcDbLine
10
-33
20
-104.99999999999999
30
0
11
-26.785714285714299
21
-104.99999999999999
31
0
0
LINE
5
204
100
AcDbEntity
8
0
100
AcDbLine
10
-26.785714285714299
20
-104.99999999999999
30
0
11
-26.785714285714292
21
-109
31
0
0
LINE
5
205
100
AcDbEntity
8
0
100
AcDbLine
10
-26.785714285714292
20
-109
30
0
11
-8.9285714285714324
21
-109
31
0
0
LINE
5
206
100
AcDbEntity
8
0
100
AcDbLine
10
-8.9285714285714324
20
-109
30
0
11
-8.9285714285714306
21
-104.99999999999999
31
0
0
LINE
5
207
100
AcDbEntity
8
0
100
AcDbLine
10
-8.9285714285714306
20
-104.99999999999999
30
0
11
8.9285714285714199
21
-104.99999999999999
31
0
0
LINE
5
208
100
AcDbEntity
8
0
100
AcDbLine
10
8.9285714285714199
20
-104.99999999999999
30
0
11
8.9285714285714253
21
-109
31
0
0
LINE
5
209
100
AcDbEntity
8
0
100
AcDbLine
10
8.9285714285714253
20
-109
30
0
11
26.785714285714285
21
-109
31
0
0
LINE
5
210
100
AcDbEntity
8
0
100
AcDbLine
10
26.785714285714285
20
-109
30
0
11
26.785714285714288
21
-104.99999999999999
31
0
0
LWPOLYLINE
5
211
100
AcDbEntity
8
0
100
AcDbPolyline
90
4
70
1
43
0.0
10
33
20
76.300000000000011
10
37
20
76.300000000000011
10
37
20
92.999999999999986
10
33
20
92.999999999999986
0
LWPOLYLINE
5
212
100
AcDbEntity
8
0
100
AcDbPolyline
90
4
70
1
43
0.0
10
98.214285714285722
20
88.999999999999986
10
98.214285714285722
20
92.999999999999986
10
80.357142857142847
20
92.999999999999986
10
80.357142857142861
20
88.999999999999986
0
LWPOLYLINE
5
213
100
AcDbEntity
8
0
100
AcDbPolyline
90
4
70
1
43
0.0
10
-98.214285714285722
20
92.999999999999986
10
-98.214285714285722
20
88.999999999999986
10
-80.357142857142861
20
88.999999999999986
10
-80.357142857142861
20
92.999999999999986
0
LWPOLYLINE
5
214
100
AcDbEntity
8
0
100
AcDbPolyline
90
4
70
1
43
0.0
10
-62.5
20
92.999999999999986
10
-62.5
20
88.999999999999986
10
-44.642857142857146
20
88.999999999999986
10
-44.642857142857146
20
92.999999999999986
0
LWPOLYLINE
5
215
100
AcDbEntity
8
0
100
AcDbPolyline
90
4
70
1
43
0.0
10
-26.785714285714288
20
92.999999999999986
10
-26.785714285714288
20
88.999999999999986
10
-8.9285714285714288
20
88.999999999999986
10
-8.9285714285714324
20
92.999999999999986
0
LWPOLYLINE
5
216
100
AcDbEntity
8
0
100
AcDbPolyline
90
4
70
1
43
0.0
10
8.9285714285714235
20
92.999999999999986
10
8.9285714285714324
20
88.999999999999986
10
26.785714285714288
20
88.999999999999986
10
26.785714285714288
20
92.999999999999986
0
LWPOLYLINE
5
217
100
AcDbEntity
8
0
100
AcDbPolyline
90
4
70
1
43
0.0
10
44.642857142857153
20
92.999999999999986
10
44.642857142857146
20
88.999999999999986
10
62.5
20
88.999999999999986
10
62.5
20
92.999999999999986
0
LWPOLYLINE
5
218
100
AcDbEntity
8
0
100
AcDbPolyline
90
4
70
1
43
0.0
10
-37
20
76.300000000000011
10
-33
20
76.300000000000011
10
-33
20
92.999999999999986
10
-37
20
92.999999999999986
0
LINE
5
219
100
AcDbEntity
8
0
100
AcDbLine
10
-33
20
-98.100000000000009
30
0
11
-33
21
-104.99999999999999
31
0
0
LINE
5
220
100
AcDbEntity
8
0
100
AcDbLine
10
33
20
-104.99999999999999
30
0
11
33
21
-98.100000000000009
31
0
0
LINE
5
221
100
AcDbEntity
8
0
100
AcDbLine
10
-37
20
21.300000000000008
30
0
11
-33
21
21.300000000000008
31
0
0
LINE
5
222
100
AcDbEntity
8
0
100
AcDbLine
10
-33
20
-21.300000000000008
30
0
11
-37
21
-21.300000000000008
31
0
0
LINE
5
223
100
AcDbEntity
8
0
100
AcDbLine
10
33
20
-98.100000000000009
30
0
11
37
21
-98.100000000000009
31
0
0
LINE
5
224
100
AcDbEntity
8
0
100
AcDbLine
10
-37
20
-98.100000000000009
30
0
11
-33
21
-98.100000000000009
31
0
0
LINE
5
225
100
AcDbEntity
8
0
100
AcDbLine
10
37
20
-21.300000000000008
30
0
11
33
21
-21.300000000000008
31
0
0
LINE
5
226
100
AcDbEntity
8
0
100
AcDbLine
10
33
20
21.300000000000008
30
0
11
37
21
21.300000000000008
31
0
0
LINE
5
227
100
AcDbEntity
8
0
100
AcDbLine
10
26.785714285714288
20
-104.99999999999999
30
0
11
33
21
-104.99999999999999
31
0
0
LINE
5
228
100
AcDbEntity
8
0
100
AcDbLine
10
33
20
-21.300000000000008
30
0
11
33
21
21.300000000000008
31
0
0
LINE
5
229
100
AcDbEntity
8
0
100
AcDbLine
10
37
20
21.300000000000008
30
0
11
37
21
-21.300000000000008
31
0
0
LINE
5
230
100
AcDbEntity
8
0
100
AcDbLine
10
-37
20
-21.300000000000008
30
0
11
-37
21
21.300000000000008
31
0
0
LINE
5
231
100
AcDbEntity
8
0
100
AcDbLine
10
-33
20
21.300000000000008
30
0
11
-33
21
-21.300000000000008
31
0
0
ENDSEC
0
SECTION
2
OBJECTS
0
DICTIONARY
5
C
100
AcDbDictionary
3
ACAD_GROUP
350
D
3
ACAD_MLINESTYLE
350
17
0
DICTIONARY
5
D
100
AcDbDictionary
0
DICTIONARY
5
1A
330
C
100
AcDbDictionary
0
DICTIONARY
5
17
100
AcDbDictionary
0
ENDSEC
0
EOF
