0
SECTION
2
HEADER
9
$INSUNITS
70
4
9
$ACADVER
1
AC1014
9
$HANDSEED
5
FFFF
0
ENDSEC
0
SECTION
2
TABLES
0
TABLE
2
VPORT
5
8
100
AcDbSymbolTable
0
ENDTAB
0
TABLE
2
LTYPE
5
5
100
AcDbSymbolTable
0
LTYPE
5
14
100
AcDbSymbolTableRecord
100
AcDbLinetypeTableRecord
2
BYBLOCK
70
0
0
LTYPE
5
15
100
AcDbSymbolTableRecord
100
AcDbLinetypeTableRecord
2
BYLAYER
70
0
0
ENDTAB
0
TABLE
2
LAYER
5
2
100
AcDbSymbolTable
70
2
0
LAYER
5
50
100
AcDbSymbolTableRecord
100
AcDbLayerTableRecord
2
0
70
0
6
CONTINUOUS
0
ENDTAB
0
TABLE
2
STYLE
5
3
100
AcDbSymbolTable
70
1
0
STYLE
5
11
100
AcDbSymbolTableRecord
100
AcDbTextStyleTableRecord
2
STANDARD
70
0
0
ENDTAB
0
TABLE
2
VIEW
5
6
100
AcDbSymbolTable
70
0
0
ENDTAB
0
TABLE
2
UCS
5
7
100
AcDbSymbolTable
70
0
0
ENDTAB
0
TABLE
2
APPID
5
9
100
AcDbSymbolTable
70
2
0
APPID
5
12
100
AcDbSymbolTableRecord
100
AcDbRegAppTableRecord
2
ACAD
70
0
0
ENDTAB
0
TABLE
2
DIMSTYLE
5
A
100
AcDbSymbolTable
70
1
0
ENDTAB
0
TABLE
2
BLOCK_RECORD
5
1
100
AcDbSymbolTable
70
1
0
BLOCK_RECORD
5
1F
100
AcDbSymbolTableRecord
100
AcDbBlockTableRecord
2
*MODEL_SPACE
0
BLOCK_RECORD
5
1B
100
AcDbSymbolTableRecord
100
AcDbBlockTableRecord
2
*PAPER_SPACE
0
ENDTAB
0
ENDSEC
0
SECTION
2
BLOCKS
0
BLOCK
5
20
100
AcDbEntity
100
AcDbBlockBegin
2
*MODEL_SPACE
0
ENDBLK
5
21
100
AcDbEntity
100
AcDbBlockEnd
0
BLOCK
5
1C
100
AcDbEntity
100
AcDbBlockBegin
2
*PAPER_SPACE
0
ENDBLK
5
1D
100
AcDbEntity
100
AcDbBlockEnd
0
ENDSEC
0
SECTION
2
ENTITIES
0
LINE
5
100
100
AcDbEntity
8
0
100
AcDbLine
10
-96.999999999999972
20
70
30
0
11
-108.99999999999997
21
70
31
0
0
LINE
5
101
100
AcDbEntity
8
0
100
AcDbLine
10
-108.99999999999997
20
70
30
0
11
-108.99999999999997
21
64.166666666666742
31
0
0
LINE
5
102
100
AcDbEntity
8
0
100
AcDbLine
10
-108.99999999999997
20
64.166666666666742
30
0
11
-104.99999999999997
21
64.166666666666714
31
0
0
LINE
5
103
100
AcDbEntity
8
0
100
AcDbLine
10
-104.99999999999997
20
64.166666666666714
30
0
11
-104.99999999999989
21
52.500000000000057
31
0
0
LINE
5
104
100
AcDbEntity
8
0
100
AcDbLine
10
-104.99999999999989
20
52.500000000000057
30
0
11
-108.99999999999997
21
52.500000000000078
31
0
0
LINE
5
105
100
AcDbEntity
8
0
100
AcDbLine
10
-108.99999999999997
20
52.500000000000078
30
0
11
-108.99999999999997
21
40.833333333333414
31
0
0
LINE
5
106
100
AcDbEntity
8
0
100
AcDbLine
10
-108.99999999999997
20
40.833333333333414
30
0
11
-104.99999999999997
21
40.833333333333393
31
0
0
LINE
5
107
100
AcDbEntity
8
0
100
AcDbLine
10
-104.99999999999997
20
40.833333333333393
30
0
11
-104.99999999999989
21
29.166666666666728
31
0
0
LINE
5
108
100
AcDbEntity
8
0
100
AcDbLine
10
-104.99999999999989
20
29.166666666666728
30
0
11
-108.99999999999997
21
29.16666666666675
31
0
0
LINE
5
109
100
AcDbEntity
8
0
100
AcDbLine
10
-108.99999999999997
20
29.16666666666675
30
0
11
-108.99999999999997
21
17.500000000000071
31
0
0
LINE
5
110
100
AcDbEntity
8
0
100
AcDbLine
10
-108.99999999999997
20
17.500000000000071
30
0
11
-104.99999999999997
21
17.500000000000057
31
0
0
LINE
5
111
100
AcDbEntity
8
0
100
AcDbLine
10
-104.99999999999997
20
17.500000000000057
30
0
11
-104.99999999999989
21
5.8333333333333925
31
0
0
LINE
5
112
100
AcDbEntity
8
0
100
AcDbLine
10
-104.99999999999989
20
5.8333333333333917
30
0
11
-108.99999999999997
21
5.8333333333334103
31
0
0
LINE
5
113
100
AcDbEntity
8
0
100
AcDbLine
10
-108.99999999999997
20
5.8333333333334103
30
0
11
-108.99999999999997
21
0
31
0
0
LINE
5
114
100
AcDbEntity
8
0
100
AcDbLine
10
-108.99999999999997
20
0
30
0
11
-98.100000000000009
21
0
31
0
0
LINE
5
115
100
AcDbEntity
8
0
100
AcDbLine
10
76.300000000000011
20
34.999999999999986
30
0
11
76.300000000000011
21
0
31
0
0
LINE
5
116
100
AcDbEntity
8
0
100
AcDbLine
10
92.999999999999986
20
29.166666666666686
30
0
11
88.999999999999915
21
29.166666666666679
31
0
0
LINE
5
117
100
AcDbEntity
8
0
100
AcDbLine
10
88.999999999999915
20
29.166666666666679
30
0
11
88.999999999999972
21
40.83333333333335
31
0
0
LINE
5
118
100
AcDbEntity
8
0
100
AcDbLine
10
88.999999999999972
20
40.83333333333335
30
0
11
92.999999999999986
21
40.83333333333335
31
0
0
LINE
5
119
100
AcDbEntity
8
0
100
AcDbLine
10
92.999999999999986
20
40.83333333333335
30
0
11
92.999999999999986
21
70
31
0
0
LINE
5
120
100
AcDbEntity
8
0
100
AcDbLine
10
92.999999999999986
20
0
30
0
11
92.999999999999986
21
29.166666666666671
31
0
0
LINE
5
121
100
AcDbEntity
8
0
100
AcDbLine
10
76.300000000000011
20
0
30
0
11
92.999999999999986
21
0
31
0
0
LINE
5
122
100
AcDbEntity
8
0
100
AcDbLine
10
11.300000000000008
20
34.999999999999986
30
0
11
76.300000000000011
21
34.999999999999986
31
0
0
LINE
5
123
100
AcDbEntity
8
0
100
AcDbLine
10
11.300000000000008
20
0
30
0
11
11.300000000000008
21
34.999999999999986
31
0
0
LINE
5
124
100
AcDbEntity
8
0
100
AcDbLine
10
-11.300000000000008
20
34.999999999999986
30
0
11
-11.300000000000008
21
0
31
0
0
LINE
5
125
100
AcDbEntity
8
0
100
AcDbLine
10
-76.300000000000011
20
34.999999999999986
30
0
11
-11.300000000000008
21
34.999999999999986
31
0
0
LINE
5
126
100
AcDbEntity
8
0
100
AcDbLine
10
-76.300000000000011
20
4.0000000000000036
30
0
11
-76.300000000000011
21
34.999999999999986
31
0
0
LINE
5
127
100
AcDbEntity
8
0
100
AcDbLine
10
-98.100000000000009
20
4.0000000000000036
30
0
11
-76.300000000000011
21
4.0000000000000036
31
0
0
LINE
5
128
100
AcDbEntity
8
0
100
AcDbLine
10
-98.100000000000009
20
0
30
0
11
-98.100000000000009
21
4.0000000000000036
31
0
0
LINE
5
129
100
AcDbEntity
8
0
100
AcDbLine
10
-11.300000000000008
20
0
30
0
11
11.300000000000008
21
0
31
0
0
LINE
5
130
100
AcDbEntity
8
0
100
AcDbLine
10
-36.999999999999972
20
54
30
0
11
-96.999999999999972
21
53.999999999999986
31
0
0
LINE
5
131
100
AcDbEntity
8
0
100
AcDbLine
10
-96.999999999999972
20
53.999999999999986
30
0
11
-96.999999999999972
21
70
31
0
0
LINE
5
132
100
AcDbEntity
8
0
100
AcDbLine
10
-36.999999999999972
20
70
30
0
11
-36.999999999999972
21
54
31
0
0
LINE
5
133
100
AcDbEntity
8
0
100
AcDbLine
10
92.999999999999986
20
70
30
0
11
-36.999999999999972
21
70
31
0
0
ENDSEC
0
SECTION
2
OBJECTS
0
DICTIONARY
5
C
100
AcDbDictionary
3
ACAD_GROUP
350
D
3
ACAD_MLINESTYLE
350
17
0
DICTIONARY
5
D
100
AcDbDictionary
0
DICTIONARY
5
1A
330
C
100
AcDbDictionary
0
DICTIONARY
5
17
100
AcDbDictionary
0
ENDSEC
0
EOF
