0
SECTION
2
HEADER
9
$INSUNITS
70
4
9
$ACADVER
1
AC1014
9
$HANDSEED
5
FFFF
0
ENDSEC
0
SECTION
2
TABLES
0
TABLE
2
VPORT
5
8
100
AcDbSymbolTable
0
ENDTAB
0
TABLE
2
LTYPE
5
5
100
AcDbSymbolTable
0
LTYPE
5
14
100
AcDbSymbolTableRecord
100
AcDbLinetypeTableRecord
2
BYBLOCK
70
0
0
LTYPE
5
15
100
AcDbSymbolTableRecord
100
AcDbLinetypeTableRecord
2
BYLAYER
70
0
0
ENDTAB
0
TABLE
2
LAYER
5
2
100
AcDbSymbolTable
70
2
0
LAYER
5
50
100
AcDbSymbolTableRecord
100
AcDbLayerTableRecord
2
0
70
0
6
CONTINUOUS
0
ENDTAB
0
TABLE
2
STYLE
5
3
100
AcDbSymbolTable
70
1
0
STYLE
5
11
100
AcDbSymbolTableRecord
100
AcDbTextStyleTableRecord
2
STANDARD
70
0
0
ENDTAB
0
TABLE
2
VIEW
5
6
100
AcDbSymbolTable
70
0
0
ENDTAB
0
TABLE
2
UCS
5
7
100
AcDbSymbolTable
70
0
0
ENDTAB
0
TABLE
2
APPID
5
9
100
AcDbSymbolTable
70
2
0
APPID
5
12
100
AcDbSymbolTableRecord
100
AcDbRegAppTableRecord
2
ACAD
70
0
0
ENDTAB
0
TABLE
2
DIMSTYLE
5
A
100
AcDbSymbolTable
70
1
0
ENDTAB
0
TABLE
2
BLOCK_RECORD
5
1
100
AcDbSymbolTable
70
1
0
BLOCK_RECORD
5
1F
100
AcDbSymbolTableRecord
100
AcDbBlockTableRecord
2
*MODEL_SPACE
0
BLOCK_RECORD
5
1B
100
AcDbSymbolTableRecord
100
AcDbBlockTableRecord
2
*PAPER_SPACE
0
ENDTAB
0
ENDSEC
0
SECTION
2
BLOCKS
0
BLOCK
5
20
100
AcDbEntity
100
AcDbBlockBegin
2
*MODEL_SPACE
0
ENDBLK
5
21
100
AcDbEntity
100
AcDbBlockEnd
0
BLOCK
5
1C
100
AcDbEntity
100
AcDbBlockBegin
2
*PAPER_SPACE
0
ENDBLK
5
1D
100
AcDbEntity
100
AcDbBlockEnd
0
ENDSEC
0
SECTION
2
ENTITIES
0
LINE
5
100
100
AcDbEntity
8
0
100
AcDbLine
10
92.999999999999986
20
70
30
0
11
-109
21
70
31
0
0
LINE
5
101
100
AcDbEntity
8
0
100
AcDbLine
10
-109
20
70
30
0
11
-109
21
64.166666666666728
31
0
0
LINE
5
102
100
AcDbEntity
8
0
100
AcDbLine
10
-109
20
64.166666666666728
30
0
11
-104.99999999999997
21
64.166666666666714
31
0
0
LINE
5
103
100
AcDbEntity
8
0
100
AcDbLine
10
-104.99999999999997
20
64.166666666666714
30
0
11
-104.99999999999989
21
52.500000000000057
31
0
0
LINE
5
104
100
AcDbEntity
8
0
100
AcDbLine
10
-104.99999999999989
20
52.500000000000057
30
0
11
-109
21
52.500000000000057
31
0
0
LINE
5
105
100
AcDbEntity
8
0
100
AcDbLine
10
-109
20
52.500000000000057
30
0
11
-109
21
40.833333333333385
31
0
0
LINE
5
106
100
AcDbEntity
8
0
100
AcDbLine
10
-109
20
40.833333333333385
30
0
11
-104.99999999999997
21
40.833333333333393
31
0
0
LINE
5
107
100
AcDbEntity
8
0
100
AcDbLine
10
-104.99999999999997
20
40.833333333333393
30
0
11
-104.99999999999989
21
29.166666666666728
31
0
0
LINE
5
108
100
AcDbEntity
8
0
100
AcDbLine
10
-104.99999999999989
20
29.166666666666728
30
0
11
-109
21
29.166666666666721
31
0
0
LINE
5
109
100
AcDbEntity
8
0
100
AcDbLine
10
-109
20
29.166666666666721
30
0
11
-109
21
17.500000000000053
31
0
0
LINE
5
110
100
AcDbEntity
8
0
100
AcDbLine
10
-109
20
17.500000000000053
30
0
11
-104.99999999999997
21
17.500000000000057
31
0
0
LINE
5
111
100
AcDbEntity
8
0
100
AcDbLine
10
-104.99999999999997
20
17.500000000000057
30
0
11
-104.99999999999989
21
5.8333333333333925
31
0
0
LINE
5
112
100
AcDbEntity
8
0
100
AcDbLine
10
-104.99999999999989
20
5.8333333333333917
30
0
11
-109
21
5.8333333333333881
31
0
0
LINE
5
113
100
AcDbEntity
8
0
100
AcDbLine
10
-109
20
5.8333333333333881
30
0
11
-109
21
0
31
0
0
LINE
5
114
100
AcDbEntity
8
0
100
AcDbLine
10
-109
20
0
30
0
11
-98.100000000000009
21
0
31
0
0
LINE
5
115
100
AcDbEntity
8
0
100
AcDbLine
10
76.300000000000011
20
35
30
0
11
76.300000000000011
21
0
31
0
0
LINE
5
116
100
AcDbEntity
8
0
100
AcDbLine
10
92.999999999999986
20
29.166666666666686
30
0
11
88.999999999999901
21
29.166666666666682
31
0
0
LINE
5
117
100
AcDbEntity
8
0
100
AcDbLine
10
88.999999999999901
20
29.166666666666682
30
0
11
88.999999999999986
21
40.83333333333335
31
0
0
LINE
5
118
100
AcDbEntity
8
0
100
AcDbLine
10
88.999999999999986
20
40.83333333333335
30
0
11
92.999999999999986
21
40.83333333333335
31
0
0
LINE
5
119
100
AcDbEntity
8
0
100
AcDbLine
10
92.999999999999986
20
40.83333333333335
30
0
11
92.999999999999986
21
70
31
0
0
LINE
5
120
100
AcDbEntity
8
0
100
AcDbLine
10
-81.750000000000099
20
52.999999999999972
30
0
11
-81.750000000000099
21
60.999999999999979
31
0
0
LINE
5
121
100
AcDbEntity
8
0
100
AcDbLine
10
-31.750000000000114
20
60.999999999999979
30
0
11
-31.750000000000107
21
52.999999999999979
31
0
0
LINE
5
122
100
AcDbEntity
8
0
100
AcDbLine
10
-31.750000000000107
20
52.999999999999979
30
0
11
-81.750000000000099
21
52.999999999999972
31
0
0
LINE
5
123
100
AcDbEntity
8
0
100
AcDbLine
10
92.999999999999986
20
0
30
0
11
92.999999999999986
21
29.166666666666682
31
0
0
LINE
5
124
100
AcDbEntity
8
0
100
AcDbLine
10
76.300000000000011
20
0
30
0
11
92.999999999999986
21
0
31
0
0
LINE
5
125
100
AcDbEntity
8
0
100
AcDbLine
10
21.300000000000008
20
35
30
0
11
76.300000000000011
21
35
31
0
0
LINE
5
126
100
AcDbEntity
8
0
100
AcDbLine
10
21.300000000000008
20
0
30
0
11
21.300000000000008
21
35
31
0
0
LINE
5
127
100
AcDbEntity
8
0
100
AcDbLine
10
-21.300000000000008
20
35
30
0
11
-21.300000000000008
21
0
31
0
0
LINE
5
128
100
AcDbEntity
8
0
100
AcDbLine
10
-76.300000000000011
20
35
30
0
11
-21.300000000000008
21
35
31
0
0
LINE
5
129
100
AcDbEntity
8
0
100
AcDbLine
10
-76.300000000000011
20
3.9999999999999991
30
0
11
-76.300000000000011
21
35
31
0
0
LINE
5
130
100
AcDbEntity
8
0
100
AcDbLine
10
-98.100000000000009
20
3.9999999999999991
30
0
11
-76.300000000000011
21
3.9999999999999991
31
0
0
LINE
5
131
100
AcDbEntity
8
0
100
AcDbLine
10
-98.100000000000009
20
0
30
0
11
-98.100000000000009
21
3.9999999999999991
31
0
0
LINE
5
132
100
AcDbEntity
8
0
100
AcDbLine
10
-81.750000000000099
20
60.999999999999979
30
0
11
-31.750000000000114
21
60.999999999999979
31
0
0
LINE
5
133
100
AcDbEntity
8
0
100
AcDbLine
10
-21.300000000000008
20
0
30
0
11
21.300000000000008
21
0
31
0
0
ENDSEC
0
SECTION
2
OBJECTS
0
DICTIONARY
5
C
100
AcDbDictionary
3
ACAD_GROUP
350
D
3
ACAD_MLINESTYLE
350
17
0
DICTIONARY
5
D
100
AcDbDictionary
0
DICTIONARY
5
1A
330
C
100
AcDbDictionary
0
DICTIONARY
5
17
100
AcDbDictionary
0
ENDSEC
0
EOF
