0
SECTION
2
HEADER
9
$INSUNITS
70
4
9
$ACADVER
1
AC1014
9
$HANDSEED
5
FFFF
0
ENDSEC
0
SECTION
2
TABLES
0
TABLE
2
VPORT
5
8
100
AcDbSymbolTable
0
ENDTAB
0
TABLE
2
LTYPE
5
5
100
AcDbSymbolTable
0
LTYPE
5
14
100
AcDbSymbolTableRecord
100
AcDbLinetypeTableRecord
2
BYBLOCK
70
0
0
LTYPE
5
15
100
AcDbSymbolTableRecord
100
AcDbLinetypeTableRecord
2
BYLAYER
70
0
0
ENDTAB
0
TABLE
2
LAYER
5
2
100
AcDbSymbolTable
70
2
0
LAYER
5
50
100
AcDbSymbolTableRecord
100
AcDbLayerTableRecord
2
0
70
0
6
CONTINUOUS
0
ENDTAB
0
TABLE
2
STYLE
5
3
100
AcDbSymbolTable
70
1
0
STYLE
5
11
100
AcDbSymbolTableRecord
100
AcDbTextStyleTableRecord
2
STANDARD
70
0
0
ENDTAB
0
TABLE
2
VIEW
5
6
100
AcDbSymbolTable
70
0
0
ENDTAB
0
TABLE
2
UCS
5
7
100
AcDbSymbolTable
70
0
0
ENDTAB
0
TABLE
2
APPID
5
9
100
AcDbSymbolTable
70
2
0
APPID
5
12
100
AcDbSymbolTableRecord
100
AcDbRegAppTableRecord
2
ACAD
70
0
0
ENDTAB
0
TABLE
2
DIMSTYLE
5
A
100
AcDbSymbolTable
70
1
0
ENDTAB
0
TABLE
2
BLOCK_RECORD
5
1
100
AcDbSymbolTable
70
1
0
BLOCK_RECORD
5
1F
100
AcDbSymbolTableRecord
100
AcDbBlockTableRecord
2
*MODEL_SPACE
0
BLOCK_RECORD
5
1B
100
AcDbSymbolTableRecord
100
AcDbBlockTableRecord
2
*PAPER_SPACE
0
ENDTAB
0
ENDSEC
0
SECTION
2
BLOCKS
0
BLOCK
5
20
100
AcDbEntity
100
AcDbBlockBegin
2
*MODEL_SPACE
0
ENDBLK
5
21
100
AcDbEntity
100
AcDbBlockEnd
0
BLOCK
5
1C
100
AcDbEntity
100
AcDbBlockBegin
2
*PAPER_SPACE
0
ENDBLK
5
1D
100
AcDbEntity
100
AcDbBlockEnd
0
ENDSEC
0
SECTION
2
ENTITIES
0
LWPOLYLINE
5
100
100
AcDbEntity
8
0
100
AcDbPolyline
90
88
70
1
43
0.0
10
88.999999999999986
20
109.16666666666561
10
88.999999999999986
20
119.99999999999993
10
120.00000000000011
20
120
10
120.00000000000011
20
70
10
116.07142857142858
20
70
10
116.07142857142873
20
74
10
98.214285714285865
20
74
10
98.214285714285722
20
70
10
88.999999999999986
20
70
10
88.999999999999986
20
80.833333333332277
10
85
20
80.833333333332277
10
85
20
70
10
80.35714285714289
20
70
10
80.357142857142989
20
74
10
62.500000000000135
20
74
10
62.500000000000114
20
70
10
60
20
70
10
60
20
80.833333333332277
10
56
20
80.833333333332277
10
56
20
70
10
44.642857142857153
20
70
10
44.642857142857267
20
74
10
31
20
74
10
31
20
80.833333333332277
10
26.999999999999996
20
80.833333333332277
10
26.999999999999996
20
74
10
26.785714285714413
20
74
10
26.785714285714299
20
70
10
8.9285714285714413
20
70
10
8.9285714285715567
20
74
10
1.9999999999999996
20
74
10
2
20
80.833333333332277
10
-2
20
80.833333333332277
10
-1.9999999999999996
20
74
10
-8.9285714285712992
20
74
10
-8.9285714285714199
20
70
10
-26.785714285714278
20
70
10
-26.785714285714164
20
74
10
-26.999999999999996
20
74
10
-26.999999999999996
20
80.833333333332277
10
-31
20
80.833333333332277
10
-31
20
74
10
-44.642857142857018
20
74
10
-44.642857142857039
20
70
10
-56
20
70
10
-56
20
80.833333333332277
10
-60
20
80.833333333332277
10
-60
20
70
10
-62.499999999999893
20
70
10
-62.499999999999872
20
74
10
-80.357142857142719
20
74
10
-80.357142857142847
20
70
10
-85
20
70
10
-85
20
80.833333333332277
10
-88.999999999999986
20
80.833333333332277
10
-88.999999999999986
20
70
10
-98.214285714285708
20
70
10
-98.21428571428558
20
74
10
-116.07142857142846
20
74
10
-116.07142857142858
20
70
10
-119.99999999999989
20
70
10
-119.99999999999989
20
120.00000000000003
10
-88.999999999999986
20
120.00000000000003
10
-88.999999999999986
20
109.16666666666561
10
-85
20
109.16666666666561
10
-85
20
119.99999999999993
10
-60
20
119.99999999999993
10
-60
20
109.16666666666561
10
-56
20
109.16666666666561
10
-56
20
119.99999999999993
10
-30.999999999999996
20
120.00000000000001
10
-31
20
109.16666666666561
10
-26.999999999999996
20
109.16666666666561
10
-26.999999999999996
20
119.99999999999993
10
-1.9999999999999929
20
120.00000000000001
10
-2
20
109.16666666666561
10
2
20
109.16666666666561
10
2.0000000000000018
20
119.99999999999993
10
26.999999999999993
20
120.00000000000001
10
26.999999999999996
20
109.16666666666561
10
31
20
109.16666666666561
10
31
20
119.99999999999993
10
55.999999999999979
20
120.00000000000001
10
56
20
109.16666666666561
10
60
20
109.16666666666561
10
60
20
119.99999999999993
10
85
20
120
10
85
20
109.16666666666561
0
ENDSEC
0
SECTION
2
OBJECTS
0
DICTIONARY
5
C
100
AcDbDictionary
3
ACAD_GROUP
350
D
3
ACAD_MLINESTYLE
350
17
0
DICTIONARY
5
D
100
AcDbDictionary
0
DICTIONARY
5
1A
330
C
100
AcDbDictionary
0
DICTIONARY
5
17
100
AcDbDictionary
0
ENDSEC
0
EOF
