0
SECTION
2
HEADER
9
$INSUNITS
70
4
9
$ACADVER
1
AC1014
9
$HANDSEED
5
FFFF
0
ENDSEC
0
SECTION
2
TABLES
0
TABLE
2
VPORT
5
8
100
AcDbSymbolTable
0
ENDTAB
0
TABLE
2
LTYPE
5
5
100
AcDbSymbolTable
0
LTYPE
5
14
100
AcDbSymbolTableRecord
100
AcDbLinetypeTableRecord
2
BYBLOCK
70
0
0
LTYPE
5
15
100
AcDbSymbolTableRecord
100
AcDbLinetypeTableRecord
2
BYLAYER
70
0
0
ENDTAB
0
TABLE
2
LAYER
5
2
100
AcDbSymbolTable
70
2
0
LAYER
5
50
100
AcDbSymbolTableRecord
100
AcDbLayerTableRecord
2
0
70
0
6
CONTINUOUS
0
ENDTAB
0
TABLE
2
STYLE
5
3
100
AcDbSymbolTable
70
1
0
STYLE
5
11
100
AcDbSymbolTableRecord
100
AcDbTextStyleTableRecord
2
STANDARD
70
0
0
ENDTAB
0
TABLE
2
VIEW
5
6
100
AcDbSymbolTable
70
0
0
ENDTAB
0
TABLE
2
UCS
5
7
100
AcDbSymbolTable
70
0
0
ENDTAB
0
TABLE
2
APPID
5
9
100
AcDbSymbolTable
70
2
0
APPID
5
12
100
AcDbSymbolTableRecord
100
AcDbRegAppTableRecord
2
ACAD
70
0
0
ENDTAB
0
TABLE
2
DIMSTYLE
5
A
100
AcDbSymbolTable
70
1
0
ENDTAB
0
TABLE
2
BLOCK_RECORD
5
1
100
AcDbSymbolTable
70
1
0
BLOCK_RECORD
5
1F
100
AcDbSymbolTableRecord
100
AcDbBlockTableRecord
2
*MODEL_SPACE
0
BLOCK_RECORD
5
1B
100
AcDbSymbolTableRecord
100
AcDbBlockTableRecord
2
*PAPER_SPACE
0
ENDTAB
0
ENDSEC
0
SECTION
2
BLOCKS
0
BLOCK
5
20
100
AcDbEntity
100
AcDbBlockBegin
2
*MODEL_SPACE
0
ENDBLK
5
21
100
AcDbEntity
100
AcDbBlockEnd
0
BLOCK
5
1C
100
AcDbEntity
100
AcDbBlockBegin
2
*PAPER_SPACE
0
ENDBLK
5
1D
100
AcDbEntity
100
AcDbBlockEnd
0
ENDSEC
0
SECTION
2
ENTITIES
0
LWPOLYLINE
5
100
100
AcDbEntity
8
0
100
AcDbPolyline
90
4
70
1
43
0.0
10
-17.750000000000018
20
-46.750000000000107
10
-17.750000000000018
20
-66.750000000000099
10
-11.250000000000007
20
-66.750000000000099
10
-11.25000000000005
20
-46.750000000000099
0
LWPOLYLINE
5
101
100
AcDbEntity
8
0
100
AcDbPolyline
90
4
70
1
43
0.0
10
11.249999999999979
20
-46.750000000000107
10
11.249999999999979
20
-66.750000000000099
10
17.749999999999989
20
-66.750000000000099
10
17.749999999999947
20
-46.750000000000099
0
LINE
5
102
100
AcDbEntity
8
0
100
AcDbLine
10
-8.9285714285715567
20
-105.00000000000001
30
0
11
-1.9999999999999996
21
-105.00000000000001
31
0
0
LINE
5
103
100
AcDbEntity
8
0
100
AcDbLine
10
-16
20
88.000000000000028
30
0
11
-119.99999999999986
21
88.000000000000028
31
0
0
LINE
5
104
100
AcDbEntity
8
0
100
AcDbLine
10
119.99999999999986
20
88.000000000000043
30
0
11
15.999999999999996
21
88.000000000000028
31
0
0
ARC
5
105
100
AcDbEntity
8
0
100
AcDbCircle
10
0
20
88.000000000000028
30
0
40
16
210
0
220
0
230
1
100
AcDbArc
50
-180
51
0
0
LINE
5
106
100
AcDbEntity
8
0
100
AcDbLine
10
-60
20
-101.00000000000001
30
0
11
-60
21
-84.299999999999997
31
0
0
LINE
5
107
100
AcDbEntity
8
0
100
AcDbLine
10
-60
20
-84.299999999999997
30
0
11
-56
21
-84.299999999999997
31
0
0
LINE
5
108
100
AcDbEntity
8
0
100
AcDbLine
10
-56
20
-84.299999999999997
30
0
11
-56
21
-101.00000000000001
31
0
0
LINE
5
109
100
AcDbEntity
8
0
100
AcDbLine
10
60
20
-101.00000000000001
30
0
11
62.499999999999872
21
-101.00000000000001
31
0
0
LINE
5
110
100
AcDbEntity
8
0
100
AcDbLine
10
-44.642857142857267
20
-101.00000000000001
30
0
11
-44.642857142857267
21
-105.00000000000001
31
0
0
LINE
5
111
100
AcDbEntity
8
0
100
AcDbLine
10
-31
20
-105.00000000000001
30
0
11
-31
21
-84.299999999999997
31
0
0
LINE
5
112
100
AcDbEntity
8
0
100
AcDbLine
10
-31
20
-84.299999999999997
30
0
11
-26.999999999999996
21
-84.299999999999997
31
0
0
LINE
5
113
100
AcDbEntity
8
0
100
AcDbLine
10
-26.999999999999996
20
-84.299999999999997
30
0
11
-26.999999999999993
21
-105.0000000000003
31
0
0
LINE
5
114
100
AcDbEntity
8
0
100
AcDbLine
10
-26.999999999999993
20
-105.0000000000003
30
0
11
-26.785714285714313
21
-105.00000000000001
31
0
0
LINE
5
115
100
AcDbEntity
8
0
100
AcDbLine
10
-26.785714285714313
20
-105.00000000000001
30
0
11
-26.785714285714413
21
-101.00000000000001
31
0
0
LINE
5
116
100
AcDbEntity
8
0
100
AcDbLine
10
-26.785714285714413
20
-101.00000000000001
30
0
11
-8.9285714285715567
21
-101.00000000000001
31
0
0
LINE
5
117
100
AcDbEntity
8
0
100
AcDbLine
10
-8.9285714285715567
20
-101.00000000000001
30
0
11
-8.9285714285714572
21
-105.00000000000001
31
0
0
LINE
5
118
100
AcDbEntity
8
0
100
AcDbLine
10
-2
20
-105.00000000000001
30
0
11
-2
21
-84.299999999999997
31
0
0
LINE
5
119
100
AcDbEntity
8
0
100
AcDbLine
10
-2
20
-84.299999999999997
30
0
11
2
21
-84.299999999999997
31
0
0
LINE
5
120
100
AcDbEntity
8
0
100
AcDbLine
10
2
20
-84.299999999999997
30
0
11
1.9999999999999929
21
-105.00000000000026
31
0
0
LINE
5
121
100
AcDbEntity
8
0
100
AcDbLine
10
1.9999999999999929
20
-105.00000000000026
30
0
11
8.9285714285714022
21
-105.00000000000001
31
0
0
LINE
5
122
100
AcDbEntity
8
0
100
AcDbLine
10
8.9285714285714022
20
-105.00000000000001
30
0
11
8.9285714285712992
21
-101.00000000000001
31
0
0
LINE
5
123
100
AcDbEntity
8
0
100
AcDbLine
10
8.9285714285712992
20
-101.00000000000001
30
0
11
26.785714285714164
21
-101.00000000000001
31
0
0
LINE
5
124
100
AcDbEntity
8
0
100
AcDbLine
10
26.785714285714164
20
-101.00000000000001
30
0
11
26.785714285714256
21
-105.00000000000001
31
0
0
LINE
5
125
100
AcDbEntity
8
0
100
AcDbLine
10
26.785714285714256
20
-105.00000000000001
30
0
11
26.999999999999996
21
-105.00000000000001
31
0
0
LINE
5
126
100
AcDbEntity
8
0
100
AcDbLine
10
26.999999999999996
20
-105.00000000000001
30
0
11
26.999999999999996
21
-84.299999999999997
31
0
0
LINE
5
127
100
AcDbEntity
8
0
100
AcDbLine
10
26.999999999999996
20
-84.299999999999997
30
0
11
31
21
-84.299999999999997
31
0
0
LINE
5
128
100
AcDbEntity
8
0
100
AcDbLine
10
31
20
-84.299999999999997
30
0
11
30.999999999999996
21
-105.00000000000017
31
0
0
LINE
5
129
100
AcDbEntity
8
0
100
AcDbLine
10
30.999999999999996
20
-105.00000000000017
30
0
11
44.642857142857117
21
-105.00000000000001
31
0
0
LINE
5
130
100
AcDbEntity
8
0
100
AcDbLine
10
44.642857142857117
20
-105.00000000000001
30
0
11
44.642857142857018
21
-101.00000000000001
31
0
0
LINE
5
131
100
AcDbEntity
8
0
100
AcDbLine
10
44.642857142857018
20
-101.00000000000001
30
0
11
56
21
-101.00000000000001
31
0
0
LINE
5
132
100
AcDbEntity
8
0
100
AcDbLine
10
56
20
-101.00000000000001
30
0
11
56
21
-84.299999999999997
31
0
0
LINE
5
133
100
AcDbEntity
8
0
100
AcDbLine
10
56
20
-84.299999999999997
30
0
11
60
21
-84.299999999999997
31
0
0
LINE
5
134
100
AcDbEntity
8
0
100
AcDbLine
10
60
20
-84.299999999999997
30
0
11
60
21
-101.00000000000001
31
0
0
LINE
5
135
100
AcDbEntity
8
0
100
AcDbLine
10
80.357142857142833
20
-105.00000000000001
30
0
11
80.357142857142719
21
-101.00000000000001
31
0
0
LINE
5
136
100
AcDbEntity
8
0
100
AcDbLine
10
80.357142857142719
20
-101.00000000000001
30
0
11
85
21
-101.00000000000001
31
0
0
LINE
5
137
100
AcDbEntity
8
0
100
AcDbLine
10
85
20
-101.00000000000001
30
0
11
85
21
-84.299999999999997
31
0
0
LINE
5
138
100
AcDbEntity
8
0
100
AcDbLine
10
85
20
-84.299999999999997
30
0
11
88.999999999999986
21
-84.299999999999997
31
0
0
LINE
5
139
100
AcDbEntity
8
0
100
AcDbLine
10
88.999999999999986
20
-84.299999999999997
30
0
11
88.999999999999986
21
-101.00000000000001
31
0
0
LINE
5
140
100
AcDbEntity
8
0
100
AcDbLine
10
88.999999999999986
20
-101.00000000000001
30
0
11
98.21428571428558
21
-101.00000000000001
31
0
0
LINE
5
141
100
AcDbEntity
8
0
100
AcDbLine
10
98.21428571428558
20
-101.00000000000001
30
0
11
98.214285714285694
21
-105.00000000000001
31
0
0
LINE
5
142
100
AcDbEntity
8
0
100
AcDbLine
10
98.214285714285694
20
-105.00000000000001
30
0
11
116.07142857142856
21
-105.00000000000001
31
0
0
LINE
5
143
100
AcDbEntity
8
0
100
AcDbLine
10
116.07142857142856
20
-105.00000000000001
30
0
11
116.07142857142846
21
-101.00000000000001
31
0
0
LINE
5
144
100
AcDbEntity
8
0
100
AcDbLine
10
116.07142857142846
20
-101.00000000000001
30
0
11
119.99999999999989
21
-101.00000000000001
31
0
0
LINE
5
145
100
AcDbEntity
8
0
100
AcDbLine
10
119.99999999999989
20
-101.00000000000001
30
0
11
119.99999999999986
21
88.000000000000043
31
0
0
LINE
5
146
100
AcDbEntity
8
0
100
AcDbLine
10
-119.99999999999986
20
88.000000000000028
30
0
11
-120.00000000000011
21
-101.00000000000003
31
0
0
LINE
5
147
100
AcDbEntity
8
0
100
AcDbLine
10
-120.00000000000011
20
-101.00000000000003
30
0
11
-116.07142857142873
21
-101.00000000000001
31
0
0
LINE
5
148
100
AcDbEntity
8
0
100
AcDbLine
10
-116.07142857142873
20
-101.00000000000001
30
0
11
-116.07142857142861
21
-105.00000000000001
31
0
0
LINE
5
149
100
AcDbEntity
8
0
100
AcDbLine
10
-116.07142857142861
20
-105.00000000000001
30
0
11
-98.214285714285751
21
-105.00000000000001
31
0
0
LINE
5
150
100
AcDbEntity
8
0
100
AcDbLine
10
-98.214285714285751
20
-105.00000000000001
30
0
11
-98.214285714285865
21
-101.00000000000001
31
0
0
LINE
5
151
100
AcDbEntity
8
0
100
AcDbLine
10
-98.214285714285865
20
-101.00000000000001
30
0
11
-88.999999999999986
21
-101.00000000000001
31
0
0
LINE
5
152
100
AcDbEntity
8
0
100
AcDbLine
10
-88.999999999999986
20
-101.00000000000001
30
0
11
-88.999999999999986
21
-84.299999999999997
31
0
0
LINE
5
153
100
AcDbEntity
8
0
100
AcDbLine
10
-88.999999999999986
20
-84.299999999999997
30
0
11
-85
21
-84.299999999999997
31
0
0
LINE
5
154
100
AcDbEntity
8
0
100
AcDbLine
10
-85
20
-84.299999999999997
30
0
11
-85
21
-101.00000000000001
31
0
0
LINE
5
155
100
AcDbEntity
8
0
100
AcDbLine
10
-85
20
-101.00000000000001
30
0
11
-80.357142857142989
21
-101.00000000000001
31
0
0
LINE
5
156
100
AcDbEntity
8
0
100
AcDbLine
10
-80.357142857142989
20
-101.00000000000001
30
0
11
-80.35714285714289
21
-105.00000000000001
31
0
0
LINE
5
157
100
AcDbEntity
8
0
100
AcDbLine
10
-80.35714285714289
20
-105.00000000000001
30
0
11
-62.500000000000135
21
-105.00000000000001
31
0
0
LINE
5
158
100
AcDbEntity
8
0
100
AcDbLine
10
-88.999999999999986
20
-62.500000000000007
30
0
11
-88.999999999999986
21
-18.899999999999999
31
0
0
LINE
5
159
100
AcDbEntity
8
0
100
AcDbLine
10
-88.999999999999986
20
-18.899999999999999
30
0
11
-85
21
-18.899999999999999
31
0
0
LINE
5
160
100
AcDbEntity
8
0
100
AcDbLine
10
-85
20
-18.899999999999999
30
0
11
-85
21
-62.500000000000007
31
0
0
LINE
5
161
100
AcDbEntity
8
0
100
AcDbLine
10
-85
20
-62.500000000000007
30
0
11
-88.999999999999986
21
-62.500000000000007
31
0
0
LINE
5
162
100
AcDbEntity
8
0
100
AcDbLine
10
-88.999999999999986
20
2.8999999999999915
30
0
11
-88.999999999999986
21
46.499999999999972
31
0
0
LINE
5
163
100
AcDbEntity
8
0
100
AcDbLine
10
-88.999999999999986
20
46.499999999999972
30
0
11
-85
21
46.499999999999972
31
0
0
LINE
5
164
100
AcDbEntity
8
0
100
AcDbLine
10
-85
20
46.499999999999972
30
0
11
-85
21
2.8999999999999915
31
0
0
LINE
5
165
100
AcDbEntity
8
0
100
AcDbLine
10
-85
20
2.8999999999999915
30
0
11
-88.999999999999986
21
2.8999999999999915
31
0
0
LWPOLYLINE
5
166
100
AcDbEntity
8
0
100
AcDbPolyline
90
4
70
1
43
0.0
10
-31
20
-18.899999999999999
10
-31
20
-62.500000000000007
10
-26.999999999999996
20
-62.500000000000007
10
-26.999999999999996
20
-18.899999999999999
0
LWPOLYLINE
5
167
100
AcDbEntity
8
0
100
AcDbPolyline
90
4
70
1
43
0.0
10
-31
20
46.499999999999972
10
-31
20
2.8999999999999915
10
-26.999999999999996
20
2.8999999999999915
10
-26.999999999999996
20
46.499999999999972
0
LWPOLYLINE
5
168
100
AcDbEntity
8
0
100
AcDbPolyline
90
4
70
1
43
0.0
10
26.999999999999996
20
-18.899999999999999
10
26.999999999999996
20
-62.500000000000007
10
31
20
-62.500000000000007
10
31
20
-18.899999999999999
0
LWPOLYLINE
5
169
100
AcDbEntity
8
0
100
AcDbPolyline
90
4
70
1
43
0.0
10
26.999999999999996
20
46.499999999999972
10
26.999999999999996
20
2.8999999999999915
10
31
20
2.8999999999999915
10
31
20
46.499999999999972
0
LINE
5
170
100
AcDbEntity
8
0
100
AcDbLine
10
85
20
-62.500000000000007
30
0
11
85
21
-18.899999999999999
31
0
0
LINE
5
171
100
AcDbEntity
8
0
100
AcDbLine
10
85
20
-18.899999999999999
30
0
11
88.999999999999986
21
-18.899999999999999
31
0
0
LINE
5
172
100
AcDbEntity
8
0
100
AcDbLine
10
88.999999999999986
20
-18.899999999999999
30
0
11
88.999999999999986
21
-62.500000000000007
31
0
0
LINE
5
173
100
AcDbEntity
8
0
100
AcDbLine
10
88.999999999999986
20
-62.500000000000007
30
0
11
85
21
-62.500000000000007
31
0
0
LINE
5
174
100
AcDbEntity
8
0
100
AcDbLine
10
85
20
2.8999999999999915
30
0
11
85
21
46.499999999999972
31
0
0
LINE
5
175
100
AcDbEntity
8
0
100
AcDbLine
10
85
20
46.499999999999972
30
0
11
88.999999999999986
21
46.499999999999972
31
0
0
LINE
5
176
100
AcDbEntity
8
0
100
AcDbLine
10
88.999999999999986
20
46.499999999999972
30
0
11
88.999999999999986
21
2.8999999999999915
31
0
0
LINE
5
177
100
AcDbEntity
8
0
100
AcDbLine
10
88.999999999999986
20
2.8999999999999915
30
0
11
85
21
2.8999999999999915
31
0
0
CIRCLE
5
178
100
AcDbEntity
8
0
100
AcDbCircle
10
103.99999999999991
20
3.4999999999997868
30
0
40
1.9999999999999929
210
0
220
-0
230
1
0
CIRCLE
5
179
100
AcDbEntity
8
0
100
AcDbCircle
10
103.99999999999991
20
-32.500000000000227
30
0
40
1.9999999999999929
210
0
220
-0
230
1
0
CIRCLE
5
180
100
AcDbEntity
8
0
100
AcDbCircle
10
-115.99999999999983
20
-32.500000000000249
30
0
40
1.9999999999999929
210
0
220
-0
230
1
0
CIRCLE
5
181
100
AcDbEntity
8
0
100
AcDbCircle
10
103.99999999999991
20
-8.5000000000002167
30
0
40
1.9999999999999929
210
0
220
-0
230
1
0
CIRCLE
5
182
100
AcDbEntity
8
0
100
AcDbCircle
10
-103.99999999999984
20
-32.500000000000249
30
0
40
1.9999999999999929
210
0
220
-0
230
1
0
CIRCLE
5
183
100
AcDbEntity
8
0
100
AcDbCircle
10
-115.99999999999983
20
-20.500000000000238
30
0
40
1.9999999999999929
210
0
220
-0
230
1
0
CIRCLE
5
184
100
AcDbEntity
8
0
100
AcDbCircle
10
-103.99999999999984
20
-20.500000000000238
30
0
40
1.9999999999999929
210
0
220
-0
230
1
0
CIRCLE
5
185
100
AcDbEntity
8
0
100
AcDbCircle
10
115.99999999999991
20
-20.50000000000022
30
0
40
1.9999999999999929
210
0
220
-0
230
1
0
CIRCLE
5
186
100
AcDbEntity
8
0
100
AcDbCircle
10
103.99999999999991
20
-20.50000000000022
30
0
40
1.9999999999999929
210
0
220
-0
230
1
0
CIRCLE
5
187
100
AcDbEntity
8
0
100
AcDbCircle
10
115.99999999999991
20
-32.500000000000227
30
0
40
1.9999999999999929
210
0
220
-0
230
1
0
CIRCLE
5
188
100
AcDbEntity
8
0
100
AcDbCircle
10
-103.99999999999984
20
-8.500000000000238
30
0
40
1.9999999999999929
210
0
220
-0
230
1
0
CIRCLE
5
189
100
AcDbEntity
8
0
100
AcDbCircle
10
115.99999999999991
20
-68.500000000000242
30
0
40
1.9999999999999929
210
0
220
-0
230
1
0
CIRCLE
5
190
100
AcDbEntity
8
0
100
AcDbCircle
10
103.99999999999991
20
-56.500000000000234
30
0
40
1.9999999999999929
210
0
220
-0
230
1
0
CIRCLE
5
191
100
AcDbEntity
8
0
100
AcDbCircle
10
115.99999999999991
20
-56.500000000000234
30
0
40
1.9999999999999929
210
0
220
-0
230
1
0
CIRCLE
5
192
100
AcDbEntity
8
0
100
AcDbCircle
10
-115.99999999999983
20
-68.500000000000256
30
0
40
1.9999999999999929
210
0
220
-0
230
1
0
CIRCLE
5
193
100
AcDbEntity
8
0
100
AcDbCircle
10
-115.99999999999983
20
-44.500000000000249
30
0
40
1.9999999999999929
210
0
220
-0
230
1
0
CIRCLE
5
194
100
AcDbEntity
8
0
100
AcDbCircle
10
103.99999999999991
20
-44.500000000000234
30
0
40
1.9999999999999929
210
0
220
-0
230
1
0
CIRCLE
5
195
100
AcDbEntity
8
0
100
AcDbCircle
10
-103.99999999999984
20
-68.500000000000256
30
0
40
1.9999999999999929
210
0
220
-0
230
1
0
CIRCLE
5
196
100
AcDbEntity
8
0
100
AcDbCircle
10
-103.99999999999984
20
-44.500000000000249
30
0
40
1.9999999999999929
210
0
220
-0
230
1
0
CIRCLE
5
197
100
AcDbEntity
8
0
100
AcDbCircle
10
-103.99999999999984
20
-56.500000000000256
30
0
40
1.9999999999999929
210
0
220
-0
230
1
0
CIRCLE
5
198
100
AcDbEntity
8
0
100
AcDbCircle
10
103.99999999999991
20
-68.500000000000242
30
0
40
1.9999999999999929
210
0
220
-0
230
1
0
CIRCLE
5
199
100
AcDbEntity
8
0
100
AcDbCircle
10
115.99999999999991
20
-44.500000000000234
30
0
40
1.9999999999999929
210
0
220
-0
230
1
0
CIRCLE
5
200
100
AcDbEntity
8
0
100
AcDbCircle
10
-115.99999999999983
20
-56.500000000000256
30
0
40
1.9999999999999929
210
0
220
-0
230
1
0
CIRCLE
5
201
100
AcDbEntity
8
0
100
AcDbCircle
10
-103.99999999999984
20
-80.50000000000027
30
0
40
1.9999999999999929
210
0
220
-0
230
1
0
LWPOLYLINE
5
202
100
AcDbEntity
8
0
100
AcDbPolyline
90
4
70
1
43
0.0
10
69.249999999999972
20
-66.750000000000099
10
75.749999999999986
20
-66.750000000000099
10
75.749999999999943
20
-46.750000000000099
10
69.249999999999986
20
-46.750000000000107
0
CIRCLE
5
203
100
AcDbEntity
8
0
100
AcDbCircle
10
-103.99999999999984
20
39.49999999999978
30
0
40
1.9999999999999929
210
0
220
-0
230
1
0
LWPOLYLINE
5
204
100
AcDbEntity
8
0
100
AcDbPolyline
90
4
70
1
43
0.0
10
40.249999999999979
20
-46.750000000000107
10
40.249999999999972
20
-66.750000000000099
10
46.749999999999979
20
-66.750000000000099
10
46.749999999999936
20
-46.750000000000099
0
CIRCLE
5
205
100
AcDbEntity
8
0
100
AcDbCircle
10
103.99999999999991
20
51.499999999999801
30
0
40
1.9999999999999929
210
0
220
-0
230
1
0
CIRCLE
5
206
100
AcDbEntity
8
0
100
AcDbCircle
10
115.99999999999991
20
51.499999999999801
30
0
40
1.9999999999999929
210
0
220
-0
230
1
0
CIRCLE
5
207
100
AcDbEntity
8
0
100
AcDbCircle
10
-115.99999999999983
20
-80.50000000000027
30
0
40
1.9999999999999929
210
0
220
-0
230
1
0
CIRCLE
5
208
100
AcDbEntity
8
0
100
AcDbCircle
10
115.99999999999991
20
-80.500000000000256
30
0
40
1.9999999999999929
210
0
220
-0
230
1
0
CIRCLE
5
209
100
AcDbEntity
8
0
100
AcDbCircle
10
103.99999999999991
20
-80.500000000000256
30
0
40
1.9999999999999929
210
0
220
-0
230
1
0
CIRCLE
5
210
100
AcDbEntity
8
0
100
AcDbCircle
10
-115.99999999999983
20
39.49999999999978
30
0
40
1.9999999999999929
210
0
220
-0
230
1
0
CIRCLE
5
211
100
AcDbEntity
8
0
100
AcDbCircle
10
115.99999999999991
20
39.499999999999801
30
0
40
1.9999999999999929
210
0
220
-0
230
1
0
CIRCLE
5
212
100
AcDbEntity
8
0
100
AcDbCircle
10
103.99999999999991
20
39.499999999999801
30
0
40
1.9999999999999929
210
0
220
-0
230
1
0
CIRCLE
5
213
100
AcDbEntity
8
0
100
AcDbCircle
10
-103.99999999999984
20
27.49999999999978
30
0
40
1.9999999999999929
210
0
220
-0
230
1
0
CIRCLE
5
214
100
AcDbEntity
8
0
100
AcDbCircle
10
115.99999999999991
20
15.499999999999792
30
0
40
1.9999999999999929
210
0
220
-0
230
1
0
CIRCLE
5
215
100
AcDbEntity
8
0
100
AcDbCircle
10
-103.99999999999984
20
3.4999999999997655
30
0
40
1.9999999999999929
210
0
220
-0
230
1
0
CIRCLE
5
216
100
AcDbEntity
8
0
100
AcDbCircle
10
103.99999999999991
20
27.499999999999794
30
0
40
1.9999999999999929
210
0
220
-0
230
1
0
CIRCLE
5
217
100
AcDbEntity
8
0
100
AcDbCircle
10
103.99999999999991
20
15.499999999999792
30
0
40
1.9999999999999929
210
0
220
-0
230
1
0
CIRCLE
5
218
100
AcDbEntity
8
0
100
AcDbCircle
10
-115.99999999999983
20
15.499999999999769
30
0
40
1.9999999999999929
210
0
220
-0
230
1
0
CIRCLE
5
219
100
AcDbEntity
8
0
100
AcDbCircle
10
115.99999999999991
20
3.4999999999997868
30
0
40
1.9999999999999929
210
0
220
-0
230
1
0
CIRCLE
5
220
100
AcDbEntity
8
0
100
AcDbCircle
10
-115.99999999999983
20
27.49999999999978
30
0
40
1.9999999999999929
210
0
220
-0
230
1
0
CIRCLE
5
221
100
AcDbEntity
8
0
100
AcDbCircle
10
115.99999999999991
20
27.499999999999794
30
0
40
1.9999999999999929
210
0
220
-0
230
1
0
CIRCLE
5
222
100
AcDbEntity
8
0
100
AcDbCircle
10
-103.99999999999984
20
15.499999999999769
30
0
40
1.9999999999999929
210
0
220
-0
230
1
0
CIRCLE
5
223
100
AcDbEntity
8
0
100
AcDbCircle
10
-115.99999999999983
20
3.4999999999997655
30
0
40
1.9999999999999929
210
0
220
-0
230
1
0
LWPOLYLINE
5
224
100
AcDbEntity
8
0
100
AcDbPolyline
90
4
70
1
43
0.0
10
-75.750000000000014
20
-46.750000000000107
10
-75.750000000000028
20
-66.750000000000099
10
-69.250000000000014
20
-66.750000000000099
10
-69.250000000000057
20
-46.750000000000099
0
CIRCLE
5
225
100
AcDbEntity
8
0
100
AcDbCircle
10
115.99999999999991
20
-8.5000000000002167
30
0
40
1.9999999999999929
210
0
220
-0
230
1
0
LWPOLYLINE
5
226
100
AcDbEntity
8
0
100
AcDbPolyline
90
4
70
1
43
0.0
10
-46.750000000000014
20
-46.750000000000107
10
-46.750000000000028
20
-66.750000000000099
10
-40.250000000000014
20
-66.750000000000099
10
-40.250000000000057
20
-46.750000000000099
0
CIRCLE
5
227
100
AcDbEntity
8
0
100
AcDbCircle
10
-103.99999999999984
20
63.499999999999794
30
0
40
1.9999999999999929
210
0
220
-0
230
1
0
CIRCLE
5
228
100
AcDbEntity
8
0
100
AcDbCircle
10
-115.99999999999983
20
-8.500000000000238
30
0
40
1.9999999999999929
210
0
220
-0
230
1
0
CIRCLE
5
229
100
AcDbEntity
8
0
100
AcDbCircle
10
103.99999999999991
20
63.499999999999808
30
0
40
1.9999999999999929
210
0
220
-0
230
1
0
CIRCLE
5
230
100
AcDbEntity
8
0
100
AcDbCircle
10
115.99999999999991
20
63.499999999999808
30
0
40
1.9999999999999929
210
0
220
-0
230
1
0
CIRCLE
5
231
100
AcDbEntity
8
0
100
AcDbCircle
10
-115.99999999999983
20
63.499999999999794
30
0
40
1.9999999999999929
210
0
220
-0
230
1
0
CIRCLE
5
232
100
AcDbEntity
8
0
100
AcDbCircle
10
-103.99999999999984
20
51.49999999999978
30
0
40
1.9999999999999929
210
0
220
-0
230
1
0
CIRCLE
5
233
100
AcDbEntity
8
0
100
AcDbCircle
10
-115.99999999999983
20
51.49999999999978
30
0
40
1.9999999999999929
210
0
220
-0
230
1
0
LWPOLYLINE
5
234
100
AcDbEntity
8
0
100
AcDbPolyline
90
4
70
1
43
0.0
10
56
20
46.499999999999972
10
56
20
2.8999999999999915
10
60
20
2.8999999999999915
10
60
20
46.499999999999972
0
LWPOLYLINE
5
235
100
AcDbEntity
8
0
100
AcDbPolyline
90
4
70
1
43
0.0
10
56
20
-18.899999999999999
10
56
20
-62.500000000000007
10
60
20
-62.500000000000007
10
60
20
-18.899999999999999
0
LWPOLYLINE
5
236
100
AcDbEntity
8
0
100
AcDbPolyline
90
4
70
1
43
0.0
10
-2
20
46.499999999999972
10
-2
20
2.8999999999999915
10
2
20
2.8999999999999915
10
2
20
46.499999999999972
0
LWPOLYLINE
5
237
100
AcDbEntity
8
0
100
AcDbPolyline
90
4
70
1
43
0.0
10
-2
20
-18.899999999999999
10
-2
20
-62.500000000000007
10
2
20
-62.500000000000007
10
2
20
-18.899999999999999
0
LWPOLYLINE
5
238
100
AcDbEntity
8
0
100
AcDbPolyline
90
4
70
1
43
0.0
10
-60
20
46.499999999999972
10
-60
20
2.8999999999999915
10
-56
20
2.8999999999999915
10
-56
20
46.499999999999972
0
LWPOLYLINE
5
239
100
AcDbEntity
8
0
100
AcDbPolyline
90
4
70
1
43
0.0
10
-60
20
-18.899999999999999
10
-60
20
-62.500000000000007
10
-56
20
-62.500000000000007
10
-56
20
-18.899999999999999
0
LINE
5
240
100
AcDbEntity
8
0
100
AcDbLine
10
62.499999999999872
20
-101.00000000000001
30
0
11
62.499999999999872
21
-105.00000000000001
31
0
0
LINE
5
241
100
AcDbEntity
8
0
100
AcDbLine
10
62.499999999999872
20
-105.00000000000001
30
0
11
80.357142857142833
21
-105.00000000000001
31
0
0
LINE
5
242
100
AcDbEntity
8
0
100
AcDbLine
10
-62.500000000000135
20
-105.00000000000001
30
0
11
-62.500000000000135
21
-101.00000000000001
31
0
0
LINE
5
243
100
AcDbEntity
8
0
100
AcDbLine
10
-62.500000000000135
20
-101.00000000000001
30
0
11
-60
21
-101.00000000000001
31
0
0
LINE
5
244
100
AcDbEntity
8
0
100
AcDbLine
10
-56
20
-101.00000000000001
30
0
11
-44.642857142857267
21
-101.00000000000001
31
0
0
LINE
5
245
100
AcDbEntity
8
0
100
AcDbLine
10
-44.642857142857267
20
-105.00000000000001
30
0
11
-31
21
-105.00000000000001
31
0
0
ENDSEC
0
SECTION
2
OBJECTS
0
DICTIONARY
5
C
100
AcDbDictionary
3
ACAD_GROUP
350
D
3
ACAD_MLINESTYLE
350
17
0
DICTIONARY
5
D
100
AcDbDictionary
0
DICTIONARY
5
1A
330
C
100
AcDbDictionary
0
DICTIONARY
5
17
100
AcDbDictionary
0
ENDSEC
0
EOF
