0
SECTION
2
HEADER
9
$INSUNITS
70
4
9
$ACADVER
1
AC1014
9
$HANDSEED
5
FFFF
0
ENDSEC
0
SECTION
2
TABLES
0
TABLE
2
VPORT
5
8
100
AcDbSymbolTable
0
ENDTAB
0
TABLE
2
LTYPE
5
5
100
AcDbSymbolTable
0
LTYPE
5
14
100
AcDbSymbolTableRecord
100
AcDbLinetypeTableRecord
2
BYBLOCK
70
0
0
LTYPE
5
15
100
AcDbSymbolTableRecord
100
AcDbLinetypeTableRecord
2
BYLAYER
70
0
0
ENDTAB
0
TABLE
2
LAYER
5
2
100
AcDbSymbolTable
70
2
0
LAYER
5
50
100
AcDbSymbolTableRecord
100
AcDbLayerTableRecord
2
0
70
0
6
CONTINUOUS
0
ENDTAB
0
TABLE
2
STYLE
5
3
100
AcDbSymbolTable
70
1
0
STYLE
5
11
100
AcDbSymbolTableRecord
100
AcDbTextStyleTableRecord
2
STANDARD
70
0
0
ENDTAB
0
TABLE
2
VIEW
5
6
100
AcDbSymbolTable
70
0
0
ENDTAB
0
TABLE
2
UCS
5
7
100
AcDbSymbolTable
70
0
0
ENDTAB
0
TABLE
2
APPID
5
9
100
AcDbSymbolTable
70
2
0
APPID
5
12
100
AcDbSymbolTableRecord
100
AcDbRegAppTableRecord
2
ACAD
70
0
0
ENDTAB
0
TABLE
2
DIMSTYLE
5
A
100
AcDbSymbolTable
70
1
0
ENDTAB
0
TABLE
2
BLOCK_RECORD
5
1
100
AcDbSymbolTable
70
1
0
BLOCK_RECORD
5
1F
100
AcDbSymbolTableRecord
100
AcDbBlockTableRecord
2
*MODEL_SPACE
0
BLOCK_RECORD
5
1B
100
AcDbSymbolTableRecord
100
AcDbBlockTableRecord
2
*PAPER_SPACE
0
ENDTAB
0
ENDSEC
0
SECTION
2
BLOCKS
0
BLOCK
5
20
100
AcDbEntity
100
AcDbBlockBegin
2
*MODEL_SPACE
0
ENDBLK
5
21
100
AcDbEntity
100
AcDbBlockEnd
0
BLOCK
5
1C
100
AcDbEntity
100
AcDbBlockBegin
2
*PAPER_SPACE
0
ENDBLK
5
1D
100
AcDbEntity
100
AcDbBlockEnd
0
ENDSEC
0
SECTION
2
ENTITIES
0
LINE
5
100
100
AcDbEntity
8
0
100
AcDbLine
10
36.5
20
-97.200000000000003
30
0
11
36.5
21
-104.99999999999999
31
0
0
LINE
5
101
100
AcDbEntity
8
0
100
AcDbLine
10
36.5
20
-104.99999999999999
30
0
11
44.642857142857146
21
-104.99999999999999
31
0
0
LINE
5
102
100
AcDbEntity
8
0
100
AcDbLine
10
44.642857142857146
20
-104.99999999999999
30
0
11
44.642857142857181
21
-108.00000000000003
31
0
0
LINE
5
103
100
AcDbEntity
8
0
100
AcDbLine
10
44.642857142857181
20
-108.00000000000003
30
0
11
62.500000000000036
21
-108.00000000000003
31
0
0
LINE
5
104
100
AcDbEntity
8
0
100
AcDbLine
10
62.500000000000036
20
-108.00000000000003
30
0
11
62.5
21
-104.99999999999999
31
0
0
LINE
5
105
100
AcDbEntity
8
0
100
AcDbLine
10
62.5
20
-104.99999999999999
30
0
11
80.357142857142861
21
-104.99999999999999
31
0
0
LINE
5
106
100
AcDbEntity
8
0
100
AcDbLine
10
80.357142857142861
20
-104.99999999999999
30
0
11
80.357142857142904
21
-108.00000000000003
31
0
0
LINE
5
107
100
AcDbEntity
8
0
100
AcDbLine
10
80.357142857142904
20
-108.00000000000003
30
0
11
98.214285714285765
21
-108.00000000000003
31
0
0
LINE
5
108
100
AcDbEntity
8
0
100
AcDbLine
10
98.214285714285765
20
-108.00000000000003
30
0
11
98.214285714285722
21
-104.99999999999999
31
0
0
LINE
5
109
100
AcDbEntity
8
0
100
AcDbLine
10
98.214285714285722
20
-104.99999999999999
30
0
11
116.07142857142858
21
-104.99999999999999
31
0
0
LINE
5
110
100
AcDbEntity
8
0
100
AcDbLine
10
116.07142857142858
20
-104.99999999999999
30
0
11
116.07142857142861
21
-108.00000000000003
31
0
0
LINE
5
111
100
AcDbEntity
8
0
100
AcDbLine
10
116.07142857142861
20
-108.00000000000003
30
0
11
125
21
-108.00000000000003
31
0
0
LINE
5
112
100
AcDbEntity
8
0
100
AcDbLine
10
125
20
-108.00000000000003
30
0
11
125
21
-97.200000000000074
31
0
0
LINE
5
113
100
AcDbEntity
8
0
100
AcDbLine
10
125
20
-97.200000000000074
30
0
11
122
21
-97.20000000000006
31
0
0
LINE
5
114
100
AcDbEntity
8
0
100
AcDbLine
10
122
20
-97.20000000000006
30
0
11
122
21
-75.600000000000065
31
0
0
LINE
5
115
100
AcDbEntity
8
0
100
AcDbLine
10
122
20
-75.600000000000065
30
0
11
125
21
-75.600000000000065
31
0
0
LINE
5
116
100
AcDbEntity
8
0
100
AcDbLine
10
125
20
-75.600000000000065
30
0
11
125
21
-54.000000000000064
31
0
0
LINE
5
117
100
AcDbEntity
8
0
100
AcDbLine
10
125
20
-54.000000000000064
30
0
11
122
21
-54.000000000000057
31
0
0
LINE
5
118
100
AcDbEntity
8
0
100
AcDbLine
10
122
20
-54.000000000000057
30
0
11
122
21
-32.400000000000063
31
0
0
LINE
5
119
100
AcDbEntity
8
0
100
AcDbLine
10
122
20
-32.400000000000063
30
0
11
125
21
-32.400000000000063
31
0
0
LINE
5
120
100
AcDbEntity
8
0
100
AcDbLine
10
125
20
-32.400000000000063
30
0
11
125
21
-10.800000000000063
31
0
0
LINE
5
121
100
AcDbEntity
8
0
100
AcDbLine
10
125
20
-10.800000000000063
30
0
11
122
21
-10.800000000000061
31
0
0
LINE
5
122
100
AcDbEntity
8
0
100
AcDbLine
10
122
20
-10.800000000000061
30
0
11
122
21
10.79999999999994
31
0
0
LINE
5
123
100
AcDbEntity
8
0
100
AcDbLine
10
122
20
10.79999999999994
30
0
11
125
21
10.799999999999939
31
0
0
LINE
5
124
100
AcDbEntity
8
0
100
AcDbLine
10
125
20
10.799999999999939
30
0
11
125
21
32.399999999999942
31
0
0
LINE
5
125
100
AcDbEntity
8
0
100
AcDbLine
10
125
20
32.399999999999942
30
0
11
122
21
32.399999999999942
31
0
0
LINE
5
126
100
AcDbEntity
8
0
100
AcDbLine
10
122
20
32.399999999999942
30
0
11
122
21
53.999999999999943
31
0
0
LINE
5
127
100
AcDbEntity
8
0
100
AcDbLine
10
122
20
53.999999999999943
30
0
11
125
21
53.999999999999943
31
0
0
LINE
5
128
100
AcDbEntity
8
0
100
AcDbLine
10
125
20
53.999999999999943
30
0
11
125
21
75.599999999999937
31
0
0
LINE
5
129
100
AcDbEntity
8
0
100
AcDbLine
10
125
20
75.599999999999937
30
0
11
122
21
75.599999999999952
31
0
0
LINE
5
130
100
AcDbEntity
8
0
100
AcDbLine
10
122
20
75.599999999999952
30
0
11
122
21
90
31
0
0
LINE
5
131
100
AcDbEntity
8
0
100
AcDbLine
10
122
20
90
30
0
11
116.07142857142858
21
90
31
0
0
LINE
5
132
100
AcDbEntity
8
0
100
AcDbLine
10
116.07142857142858
20
90
30
0
11
116.07142857142858
21
92.999999999999986
31
0
0
LINE
5
133
100
AcDbEntity
8
0
100
AcDbLine
10
116.07142857142858
20
92.999999999999986
30
0
11
122
21
93
31
0
0
LINE
5
134
100
AcDbEntity
8
0
100
AcDbLine
10
122
20
93
30
0
11
122
21
97.19999999999996
31
0
0
LINE
5
135
100
AcDbEntity
8
0
100
AcDbLine
10
122
20
97.19999999999996
30
0
11
125
21
97.199999999999932
31
0
0
LINE
5
136
100
AcDbEntity
8
0
100
AcDbLine
10
125
20
97.199999999999932
30
0
11
125
21
107.99999999999999
31
0
0
LINE
5
137
100
AcDbEntity
8
0
100
AcDbLine
10
125
20
107.99999999999999
30
0
11
116.07142857142863
21
107.99999999999999
31
0
0
LINE
5
138
100
AcDbEntity
8
0
100
AcDbLine
10
116.07142857142863
20
107.99999999999999
30
0
11
116.0714285714286
21
104.99999999999999
31
0
0
LINE
5
139
100
AcDbEntity
8
0
100
AcDbLine
10
116.0714285714286
20
104.99999999999999
30
0
11
98.214285714285722
21
104.99999999999999
31
0
0
LINE
5
140
100
AcDbEntity
8
0
100
AcDbLine
10
98.214285714285722
20
104.99999999999999
30
0
11
98.214285714285765
21
107.99999999999999
31
0
0
LINE
5
141
100
AcDbEntity
8
0
100
AcDbLine
10
98.214285714285765
20
107.99999999999999
30
0
11
80.357142857142904
21
107.99999999999999
31
0
0
LINE
5
142
100
AcDbEntity
8
0
100
AcDbLine
10
80.357142857142904
20
107.99999999999999
30
0
11
80.357142857142861
21
104.99999999999999
31
0
0
LINE
5
143
100
AcDbEntity
8
0
100
AcDbLine
10
80.357142857142861
20
104.99999999999999
30
0
11
62.500000000000014
21
104.99999999999999
31
0
0
LINE
5
144
100
AcDbEntity
8
0
100
AcDbLine
10
62.500000000000014
20
104.99999999999999
30
0
11
62.500000000000057
21
107.99999999999999
31
0
0
LINE
5
145
100
AcDbEntity
8
0
100
AcDbLine
10
62.500000000000057
20
107.99999999999999
30
0
11
44.642857142857189
21
107.99999999999999
31
0
0
LINE
5
146
100
AcDbEntity
8
0
100
AcDbLine
10
44.642857142857189
20
107.99999999999999
30
0
11
44.642857142857153
21
104.99999999999999
31
0
0
LINE
5
147
100
AcDbEntity
8
0
100
AcDbLine
10
44.642857142857153
20
104.99999999999999
30
0
11
26.785714285714299
21
104.99999999999999
31
0
0
LINE
5
148
100
AcDbEntity
8
0
100
AcDbLine
10
26.785714285714299
20
104.99999999999999
30
0
11
26.785714285714334
21
107.99999999999999
31
0
0
LINE
5
149
100
AcDbEntity
8
0
100
AcDbLine
10
26.785714285714334
20
107.99999999999999
30
0
11
8.9285714285714732
21
107.99999999999999
31
0
0
LINE
5
150
100
AcDbEntity
8
0
100
AcDbLine
10
8.9285714285714732
20
107.99999999999999
30
0
11
8.9285714285714342
21
104.99999999999999
31
0
0
LINE
5
151
100
AcDbEntity
8
0
100
AcDbLine
10
8.9285714285714342
20
104.99999999999999
30
0
11
-8.9285714285714199
21
104.99999999999999
31
0
0
LINE
5
152
100
AcDbEntity
8
0
100
AcDbLine
10
-8.9285714285714199
20
104.99999999999999
30
0
11
-8.9285714285713826
21
107.99999999999999
31
0
0
LINE
5
153
100
AcDbEntity
8
0
100
AcDbLine
10
-8.9285714285713826
20
107.99999999999999
30
0
11
-26.785714285714242
21
107.99999999999999
31
0
0
LINE
5
154
100
AcDbEntity
8
0
100
AcDbLine
10
-26.785714285714242
20
107.99999999999999
30
0
11
-26.785714285714278
21
104.99999999999999
31
0
0
LINE
5
155
100
AcDbEntity
8
0
100
AcDbLine
10
-26.785714285714278
20
104.99999999999999
30
0
11
-44.642857142857139
21
104.99999999999999
31
0
0
LINE
5
156
100
AcDbEntity
8
0
100
AcDbLine
10
-44.642857142857139
20
104.99999999999999
30
0
11
-44.642857142857096
21
107.99999999999999
31
0
0
LINE
5
157
100
AcDbEntity
8
0
100
AcDbLine
10
-44.642857142857096
20
107.99999999999999
30
0
11
-62.499999999999964
21
107.99999999999999
31
0
0
LINE
5
158
100
AcDbEntity
8
0
100
AcDbLine
10
-62.499999999999964
20
107.99999999999999
30
0
11
-62.5
21
104.99999999999999
31
0
0
LINE
5
159
100
AcDbEntity
8
0
100
AcDbLine
10
-62.5
20
104.99999999999999
30
0
11
-80.357142857142847
21
104.99999999999999
31
0
0
LINE
5
160
100
AcDbEntity
8
0
100
AcDbLine
10
-80.357142857142847
20
104.99999999999999
30
0
11
-80.357142857142804
21
107.99999999999999
31
0
0
LINE
5
161
100
AcDbEntity
8
0
100
AcDbLine
10
-80.357142857142804
20
107.99999999999999
30
0
11
-98.21428571428568
21
107.99999999999999
31
0
0
LINE
5
162
100
AcDbEntity
8
0
100
AcDbLine
10
-98.21428571428568
20
107.99999999999999
30
0
11
-98.214285714285708
21
104.99999999999999
31
0
0
LINE
5
163
100
AcDbEntity
8
0
100
AcDbLine
10
-98.214285714285708
20
104.99999999999999
30
0
11
-116.07142857142858
21
104.99999999999999
31
0
0
LINE
5
164
100
AcDbEntity
8
0
100
AcDbLine
10
-116.07142857142858
20
104.99999999999999
30
0
11
-116.07142857142854
21
107.99999999999999
31
0
0
LINE
5
165
100
AcDbEntity
8
0
100
AcDbLine
10
-116.07142857142854
20
107.99999999999999
30
0
11
-125
21
107.99999999999999
31
0
0
LINE
5
166
100
AcDbEntity
8
0
100
AcDbLine
10
-125
20
107.99999999999999
30
0
11
-125
21
97.199999999999974
31
0
0
LINE
5
167
100
AcDbEntity
8
0
100
AcDbLine
10
-125
20
97.199999999999974
30
0
11
-122
21
97.199999999999974
31
0
0
LINE
5
168
100
AcDbEntity
8
0
100
AcDbLine
10
-122
20
97.199999999999974
30
0
11
-122
21
93
31
0
0
LINE
5
169
100
AcDbEntity
8
0
100
AcDbLine
10
-122
20
93
30
0
11
-116.07142857142858
21
92.999999999999986
31
0
0
LINE
5
170
100
AcDbEntity
8
0
100
AcDbLine
10
-116.07142857142858
20
92.999999999999986
30
0
11
-116.07142857142858
21
90
31
0
0
LINE
5
171
100
AcDbEntity
8
0
100
AcDbLine
10
-116.07142857142858
20
90
30
0
11
-122
21
90
31
0
0
LINE
5
172
100
AcDbEntity
8
0
100
AcDbLine
10
-122
20
90
30
0
11
-122
21
75.599999999999966
31
0
0
LINE
5
173
100
AcDbEntity
8
0
100
AcDbLine
10
-122
20
75.599999999999966
30
0
11
-124.99999999999999
21
75.599999999999966
31
0
0
LINE
5
174
100
AcDbEntity
8
0
100
AcDbLine
10
-124.99999999999999
20
75.599999999999966
30
0
11
-124.99999999999999
21
53.999999999999957
31
0
0
LINE
5
175
100
AcDbEntity
8
0
100
AcDbLine
10
-124.99999999999999
20
53.999999999999957
30
0
11
-122
21
53.999999999999957
31
0
0
LINE
5
176
100
AcDbEntity
8
0
100
AcDbLine
10
-122
20
53.999999999999957
30
0
11
-122
21
32.399999999999956
31
0
0
LINE
5
177
100
AcDbEntity
8
0
100
AcDbLine
10
-122
20
32.399999999999956
30
0
11
-124.99999999999997
21
32.399999999999956
31
0
0
LINE
5
178
100
AcDbEntity
8
0
100
AcDbLine
10
-124.99999999999997
20
32.399999999999956
30
0
11
-124.99999999999997
21
10.799999999999951
31
0
0
LINE
5
179
100
AcDbEntity
8
0
100
AcDbLine
10
-124.99999999999997
20
10.799999999999951
30
0
11
-122
21
10.799999999999955
31
0
0
LINE
5
180
100
AcDbEntity
8
0
100
AcDbLine
10
-122
20
10.799999999999955
30
0
11
-122
21
-10.800000000000047
31
0
0
LINE
5
181
100
AcDbEntity
8
0
100
AcDbLine
10
-122
20
-10.800000000000047
30
0
11
-124.99999999999994
21
-10.800000000000047
31
0
0
LINE
5
182
100
AcDbEntity
8
0
100
AcDbLine
10
-124.99999999999994
20
-10.800000000000047
30
0
11
-124.99999999999994
21
-32.400000000000048
31
0
0
LINE
5
183
100
AcDbEntity
8
0
100
AcDbLine
10
-124.99999999999994
20
-32.400000000000048
30
0
11
-122
21
-32.400000000000048
31
0
0
LINE
5
184
100
AcDbEntity
8
0
100
AcDbLine
10
-122
20
-32.400000000000048
30
0
11
-122
21
-54.00000000000005
31
0
0
LINE
5
185
100
AcDbEntity
8
0
100
AcDbLine
10
-122
20
-54.00000000000005
30
0
11
-124.99999999999993
21
-54.00000000000005
31
0
0
LINE
5
186
100
AcDbEntity
8
0
100
AcDbLine
10
-124.99999999999993
20
-54.00000000000005
30
0
11
-124.99999999999993
21
-75.600000000000051
31
0
0
LINE
5
187
100
AcDbEntity
8
0
100
AcDbLine
10
-124.99999999999993
20
-75.600000000000051
30
0
11
-122
21
-75.600000000000051
31
0
0
LINE
5
188
100
AcDbEntity
8
0
100
AcDbLine
10
-122
20
-75.600000000000051
30
0
11
-122
21
-97.200000000000045
31
0
0
LINE
5
189
100
AcDbEntity
8
0
100
AcDbLine
10
-122
20
-97.200000000000045
30
0
11
-124.99999999999991
21
-97.200000000000045
31
0
0
LINE
5
190
100
AcDbEntity
8
0
100
AcDbLine
10
-124.99999999999991
20
-97.200000000000045
30
0
11
-124.99999999999991
21
-108.00000000000003
31
0
0
LINE
5
191
100
AcDbEntity
8
0
100
AcDbLine
10
-124.99999999999991
20
-108.00000000000003
30
0
11
-116.07142857142854
21
-108.00000000000003
31
0
0
LINE
5
192
100
AcDbEntity
8
0
100
AcDbLine
10
-116.07142857142854
20
-108.00000000000003
30
0
11
-116.07142857142858
21
-104.99999999999999
31
0
0
LINE
5
193
100
AcDbEntity
8
0
100
AcDbLine
10
-116.07142857142858
20
-104.99999999999999
30
0
11
-98.214285714285722
21
-104.99999999999999
31
0
0
LINE
5
194
100
AcDbEntity
8
0
100
AcDbLine
10
-98.214285714285722
20
-104.99999999999999
30
0
11
-98.214285714285694
21
-108.00000000000003
31
0
0
LINE
5
195
100
AcDbEntity
8
0
100
AcDbLine
10
-98.214285714285694
20
-108.00000000000003
30
0
11
-80.357142857142833
21
-108.00000000000003
31
0
0
LINE
5
196
100
AcDbEntity
8
0
100
AcDbLine
10
-80.357142857142833
20
-108.00000000000003
30
0
11
-80.357142857142861
21
-104.99999999999999
31
0
0
LINE
5
197
100
AcDbEntity
8
0
100
AcDbLine
10
-80.357142857142861
20
-104.99999999999999
30
0
11
-62.500000000000007
21
-104.99999999999999
31
0
0
LINE
5
198
100
AcDbEntity
8
0
100
AcDbLine
10
-62.500000000000007
20
-104.99999999999999
30
0
11
-62.499999999999964
21
-108.00000000000003
31
0
0
LINE
5
199
100
AcDbEntity
8
0
100
AcDbLine
10
-62.499999999999964
20
-108.00000000000003
30
0
11
-44.64285714285711
21
-108.00000000000003
31
0
0
LINE
5
200
100
AcDbEntity
8
0
100
AcDbLine
10
-44.64285714285711
20
-108.00000000000003
30
0
11
-44.642857142857146
21
-104.99999999999999
31
0
0
LINE
5
201
100
AcDbEntity
8
0
100
AcDbLine
10
-44.642857142857146
20
-104.99999999999999
30
0
11
-36.499999999999993
21
-104.99999999999999
31
0
0
LINE
5
202
100
AcDbEntity
8
0
100
AcDbLine
10
-36.499999999999993
20
-104.99999999999999
30
0
11
-36.499999999999993
21
-97.200000000000003
31
0
0
LINE
5
203
100
AcDbEntity
8
0
100
AcDbLine
10
-33.5
20
-104.99999999999999
30
0
11
-26.785714285714299
21
-104.99999999999999
31
0
0
LINE
5
204
100
AcDbEntity
8
0
100
AcDbLine
10
-26.785714285714299
20
-104.99999999999999
30
0
11
-26.785714285714256
21
-108.00000000000003
31
0
0
LINE
5
205
100
AcDbEntity
8
0
100
AcDbLine
10
-26.785714285714256
20
-108.00000000000003
30
0
11
-8.9285714285713951
21
-108.00000000000003
31
0
0
LINE
5
206
100
AcDbEntity
8
0
100
AcDbLine
10
-8.9285714285713951
20
-108.00000000000003
30
0
11
-8.9285714285714306
21
-104.99999999999999
31
0
0
LINE
5
207
100
AcDbEntity
8
0
100
AcDbLine
10
-8.9285714285714306
20
-104.99999999999999
30
0
11
8.9285714285714199
21
-104.99999999999999
31
0
0
LINE
5
208
100
AcDbEntity
8
0
100
AcDbLine
10
8.9285714285714199
20
-104.99999999999999
30
0
11
8.9285714285714608
21
-108.00000000000003
31
0
0
LINE
5
209
100
AcDbEntity
8
0
100
AcDbLine
10
8.9285714285714608
20
-108.00000000000003
30
0
11
26.785714285714324
21
-108.00000000000003
31
0
0
LINE
5
210
100
AcDbEntity
8
0
100
AcDbLine
10
26.785714285714324
20
-108.00000000000003
30
0
11
26.785714285714288
21
-104.99999999999999
31
0
0
LWPOLYLINE
5
211
100
AcDbEntity
8
0
100
AcDbPolyline
90
4
70
1
43
0.0
10
33.5
20
75.600000000000009
10
36.5
20
75.600000000000009
10
36.5
20
92.999999999999986
10
33.5
20
92.999999999999986
0
LWPOLYLINE
5
212
100
AcDbEntity
8
0
100
AcDbPolyline
90
4
70
1
43
0.0
10
98.214285714285722
20
90
10
98.214285714285722
20
92.999999999999986
10
80.357142857142847
20
92.999999999999986
10
80.357142857142861
20
90
0
LWPOLYLINE
5
213
100
AcDbEntity
8
0
100
AcDbPolyline
90
4
70
1
43
0.0
10
-98.214285714285722
20
92.999999999999986
10
-98.214285714285722
20
90
10
-80.357142857142861
20
90
10
-80.357142857142861
20
92.999999999999986
0
LWPOLYLINE
5
214
100
AcDbEntity
8
0
100
AcDbPolyline
90
4
70
1
43
0.0
10
-62.5
20
92.999999999999986
10
-62.5
20
90
10
-44.642857142857146
20
90
10
-44.642857142857146
20
92.999999999999986
0
LWPOLYLINE
5
215
100
AcDbEntity
8
0
100
AcDbPolyline
90
4
70
1
43
0.0
10
-26.785714285714288
20
92.999999999999986
10
-26.785714285714288
20
90
10
-8.9285714285714288
20
90
10
-8.9285714285714324
20
92.999999999999986
0
LWPOLYLINE
5
216
100
AcDbEntity
8
0
100
AcDbPolyline
90
4
70
1
43
0.0
10
8.9285714285714235
20
92.999999999999986
10
8.9285714285714324
20
90
10
26.785714285714288
20
90
10
26.785714285714288
20
92.999999999999986
0
LWPOLYLINE
5
217
100
AcDbEntity
8
0
100
AcDbPolyline
90
4
70
1
43
0.0
10
44.642857142857153
20
92.999999999999986
10
44.642857142857146
20
90
10
62.5
20
90
10
62.5
20
92.999999999999986
0
LWPOLYLINE
5
218
100
AcDbEntity
8
0
100
AcDbPolyline
90
4
70
1
43
0.0
10
-36.499999999999993
20
75.600000000000009
10
-33.5
20
75.600000000000009
10
-33.5
20
92.999999999999986
10
-36.499999999999993
20
92.999999999999986
0
LINE
5
219
100
AcDbEntity
8
0
100
AcDbLine
10
-33.5
20
-97.200000000000003
30
0
11
-33.5
21
-104.99999999999999
31
0
0
LINE
5
220
100
AcDbEntity
8
0
100
AcDbLine
10
33.5
20
-104.99999999999999
30
0
11
33.5
21
-97.200000000000003
31
0
0
LINE
5
221
100
AcDbEntity
8
0
100
AcDbLine
10
-36.499999999999993
20
20.600000000000005
30
0
11
-33.5
21
20.600000000000005
31
0
0
LINE
5
222
100
AcDbEntity
8
0
100
AcDbLine
10
-33.5
20
-20.600000000000005
30
0
11
-36.499999999999993
21
-20.600000000000005
31
0
0
LINE
5
223
100
AcDbEntity
8
0
100
AcDbLine
10
33.5
20
-97.200000000000003
30
0
11
36.5
21
-97.200000000000003
31
0
0
LINE
5
224
100
AcDbEntity
8
0
100
AcDbLine
10
-36.499999999999993
20
-97.200000000000003
30
0
11
-33.5
21
-97.200000000000003
31
0
0
LINE
5
225
100
AcDbEntity
8
0
100
AcDbLine
10
36.5
20
-20.600000000000005
30
0
11
33.5
21
-20.600000000000005
31
0
0
LINE
5
226
100
AcDbEntity
8
0
100
AcDbLine
10
33.5
20
20.600000000000005
30
0
11
36.5
21
20.600000000000005
31
0
0
LINE
5
227
100
AcDbEntity
8
0
100
AcDbLine
10
26.785714285714288
20
-104.99999999999999
30
0
11
33.5
21
-104.99999999999999
31
0
0
LINE
5
228
100
AcDbEntity
8
0
100
AcDbLine
10
33.5
20
-20.600000000000005
30
0
11
33.5
21
20.600000000000005
31
0
0
LINE
5
229
100
AcDbEntity
8
0
100
AcDbLine
10
36.5
20
20.600000000000005
30
0
11
36.5
21
-20.600000000000005
31
0
0
LINE
5
230
100
AcDbEntity
8
0
100
AcDbLine
10
-36.499999999999993
20
-20.600000000000005
30
0
11
-36.499999999999993
21
20.600000000000005
31
0
0
LINE
5
231
100
AcDbEntity
8
0
100
AcDbLine
10
-33.5
20
20.600000000000005
30
0
11
-33.5
21
-20.600000000000005
31
0
0
ENDSEC
0
SECTION
2
OBJECTS
0
DICTIONARY
5
C
100
AcDbDictionary
3
ACAD_GROUP
350
D
3
ACAD_MLINESTYLE
350
17
0
DICTIONARY
5
D
100
AcDbDictionary
0
DICTIONARY
5
1A
330
C
100
AcDbDictionary
0
DICTIONARY
5
17
100
AcDbDictionary
0
ENDSEC
0
EOF
