0
SECTION
2
HEADER
9
$INSUNITS
70
4
9
$ACADVER
1
AC1014
9
$HANDSEED
5
FFFF
0
ENDSEC
0
SECTION
2
TABLES
0
TABLE
2
VPORT
5
8
100
AcDbSymbolTable
0
ENDTAB
0
TABLE
2
LTYPE
5
5
100
AcDbSymbolTable
0
LTYPE
5
14
100
AcDbSymbolTableRecord
100
AcDbLinetypeTableRecord
2
BYBLOCK
70
0
0
LTYPE
5
15
100
AcDbSymbolTableRecord
100
AcDbLinetypeTableRecord
2
BYLAYER
70
0
0
ENDTAB
0
TABLE
2
LAYER
5
2
100
AcDbSymbolTable
70
2
0
LAYER
5
50
100
AcDbSymbolTableRecord
100
AcDbLayerTableRecord
2
0
70
0
6
CONTINUOUS
0
ENDTAB
0
TABLE
2
STYLE
5
3
100
AcDbSymbolTable
70
1
0
STYLE
5
11
100
AcDbSymbolTableRecord
100
AcDbTextStyleTableRecord
2
STANDARD
70
0
0
ENDTAB
0
TABLE
2
VIEW
5
6
100
AcDbSymbolTable
70
0
0
ENDTAB
0
TABLE
2
UCS
5
7
100
AcDbSymbolTable
70
0
0
ENDTAB
0
TABLE
2
APPID
5
9
100
AcDbSymbolTable
70
2
0
APPID
5
12
100
AcDbSymbolTableRecord
100
AcDbRegAppTableRecord
2
ACAD
70
0
0
ENDTAB
0
TABLE
2
DIMSTYLE
5
A
100
AcDbSymbolTable
70
1
0
ENDTAB
0
TABLE
2
BLOCK_RECORD
5
1
100
AcDbSymbolTable
70
1
0
BLOCK_RECORD
5
1F
100
AcDbSymbolTableRecord
100
AcDbBlockTableRecord
2
*MODEL_SPACE
0
BLOCK_RECORD
5
1B
100
AcDbSymbolTableRecord
100
AcDbBlockTableRecord
2
*PAPER_SPACE
0
ENDTAB
0
ENDSEC
0
SECTION
2
BLOCKS
0
BLOCK
5
20
100
AcDbEntity
100
AcDbBlockBegin
2
*MODEL_SPACE
0
ENDBLK
5
21
100
AcDbEntity
100
AcDbBlockEnd
0
BLOCK
5
1C
100
AcDbEntity
100
AcDbBlockBegin
2
*PAPER_SPACE
0
ENDBLK
5
1D
100
AcDbEntity
100
AcDbBlockEnd
0
ENDSEC
0
SECTION
2
ENTITIES
0
LINE
5
100
100
AcDbEntity
8
0
100
AcDbLine
10
-33.5
20
5.8333333333333677
30
0
11
-33.5
21
0
31
0
0
LWPOLYLINE
5
101
100
AcDbEntity
8
0
100
AcDbPolyline
90
4
70
1
43
0.0
10
-36.5
20
64.1666666666667
10
-33.5
20
64.1666666666667
10
-33.5
20
70
10
-36.5
20
70
0
LINE
5
102
100
AcDbEntity
8
0
100
AcDbLine
10
-36.5
20
0
30
0
11
-36.5
21
5.8333333333333677
31
0
0
LWPOLYLINE
5
103
100
AcDbEntity
8
0
100
AcDbPolyline
90
4
70
1
43
0.0
10
-36.5
20
40.833333333333364
10
-33.5
20
40.833333333333364
10
-33.5
20
52.500000000000036
10
-36.5
20
52.500000000000036
0
LWPOLYLINE
5
104
100
AcDbEntity
8
0
100
AcDbPolyline
90
4
70
1
43
0.0
10
-36.5
20
17.500000000000032
10
-33.5
20
17.500000000000032
10
-33.5
20
29.1666666666667
10
-36.5
20
29.1666666666667
0
LINE
5
105
100
AcDbEntity
8
0
100
AcDbLine
10
125
20
160.99999999999994
30
0
11
-124.99999999999993
21
160.99999999999994
31
0
0
LINE
5
106
100
AcDbEntity
8
0
100
AcDbLine
10
-122
20
155.83333333333331
30
0
11
-122
21
127.49999999999999
31
0
0
LINE
5
107
100
AcDbEntity
8
0
100
AcDbLine
10
-122
20
127.49999999999999
30
0
11
-125
21
127.49999999999999
31
0
0
LINE
5
108
100
AcDbEntity
8
0
100
AcDbLine
10
-125
20
127.49999999999999
30
0
11
-125
21
99.166666666666643
31
0
0
LINE
5
109
100
AcDbEntity
8
0
100
AcDbLine
10
-125
20
99.166666666666643
30
0
11
-122
21
99.166666666666643
31
0
0
LINE
5
110
100
AcDbEntity
8
0
100
AcDbLine
10
-122
20
99.166666666666643
30
0
11
-122
21
70.8333333333333
31
0
0
LINE
5
111
100
AcDbEntity
8
0
100
AcDbLine
10
-122
20
70.8333333333333
30
0
11
-125
21
70.8333333333333
31
0
0
LINE
5
112
100
AcDbEntity
8
0
100
AcDbLine
10
-125
20
70.8333333333333
30
0
11
-125
21
42.499999999999964
31
0
0
LINE
5
113
100
AcDbEntity
8
0
100
AcDbLine
10
-125
20
42.499999999999964
30
0
11
-122
21
42.499999999999964
31
0
0
LINE
5
114
100
AcDbEntity
8
0
100
AcDbLine
10
-122
20
42.499999999999964
30
0
11
-122
21
14.166666666666634
31
0
0
LINE
5
115
100
AcDbEntity
8
0
100
AcDbLine
10
-122
20
14.166666666666634
30
0
11
-125
21
14.166666666666636
31
0
0
LINE
5
116
100
AcDbEntity
8
0
100
AcDbLine
10
-125
20
14.166666666666636
30
0
11
-125
21
3.0000000000000004
31
0
0
LINE
5
117
100
AcDbEntity
8
0
100
AcDbLine
10
-125
20
3.0000000000000004
30
0
11
-116.07142857142861
21
3.0000000000000004
31
0
0
LINE
5
118
100
AcDbEntity
8
0
100
AcDbLine
10
-116.07142857142861
20
3.0000000000000004
30
0
11
-116.0714285714286
21
0
31
0
0
LINE
5
119
100
AcDbEntity
8
0
100
AcDbLine
10
-116.0714285714286
20
0
30
0
11
-98.214285714285722
21
0
31
0
0
LINE
5
120
100
AcDbEntity
8
0
100
AcDbLine
10
-98.214285714285722
20
0
30
0
11
-98.214285714285765
21
3.0000000000000004
31
0
0
LINE
5
121
100
AcDbEntity
8
0
100
AcDbLine
10
-98.214285714285765
20
3.0000000000000004
30
0
11
-80.357142857142904
21
3.0000000000000004
31
0
0
LINE
5
122
100
AcDbEntity
8
0
100
AcDbLine
10
-80.357142857142904
20
3.0000000000000004
30
0
11
-80.35714285714289
21
0
31
0
0
LINE
5
123
100
AcDbEntity
8
0
100
AcDbLine
10
-80.35714285714289
20
0
30
0
11
-62.500000000000028
21
0
31
0
0
LINE
5
124
100
AcDbEntity
8
0
100
AcDbLine
10
-62.500000000000028
20
0
30
0
11
-62.500000000000036
21
3.0000000000000004
31
0
0
LINE
5
125
100
AcDbEntity
8
0
100
AcDbLine
10
-62.500000000000036
20
3.0000000000000004
30
0
11
-44.642857142857181
21
3.0000000000000004
31
0
0
LINE
5
126
100
AcDbEntity
8
0
100
AcDbLine
10
-44.642857142857181
20
3.0000000000000004
30
0
11
-44.64285714285716
21
0
31
0
0
LINE
5
127
100
AcDbEntity
8
0
100
AcDbLine
10
-36.5
20
5.8333333333333677
30
0
11
-33.5
21
5.8333333333333677
31
0
0
LINE
5
128
100
AcDbEntity
8
0
100
AcDbLine
10
-33.5
20
0
30
0
11
-26.785714285714306
21
0
31
0
0
LINE
5
129
100
AcDbEntity
8
0
100
AcDbLine
10
-26.785714285714306
20
0
30
0
11
-26.785714285714324
21
3.0000000000000004
31
0
0
LINE
5
130
100
AcDbEntity
8
0
100
AcDbLine
10
-26.785714285714324
20
3.0000000000000004
30
0
11
-8.928571428571459
21
3.0000000000000004
31
0
0
LINE
5
131
100
AcDbEntity
8
0
100
AcDbLine
10
-8.928571428571459
20
3.0000000000000004
30
0
11
-8.9285714285714484
21
0
31
0
0
LINE
5
132
100
AcDbEntity
8
0
100
AcDbLine
10
-8.9285714285714484
20
0
30
0
11
8.9285714285714075
21
0
31
0
0
LINE
5
133
100
AcDbEntity
8
0
100
AcDbLine
10
8.9285714285714075
20
0
30
0
11
8.928571428571388
21
3.0000000000000004
31
0
0
LINE
5
134
100
AcDbEntity
8
0
100
AcDbLine
10
8.928571428571388
20
3.0000000000000004
30
0
11
26.785714285714253
21
3.0000000000000004
31
0
0
LINE
5
135
100
AcDbEntity
8
0
100
AcDbLine
10
26.785714285714253
20
3.0000000000000004
30
0
11
26.785714285714267
21
0
31
0
0
LINE
5
136
100
AcDbEntity
8
0
100
AcDbLine
10
33.5
20
0
30
0
11
33.5
21
5.8333333333333659
31
0
0
LINE
5
137
100
AcDbEntity
8
0
100
AcDbLine
10
33.5
20
5.8333333333333659
30
0
11
36.499999999999993
21
5.8333333333333659
31
0
0
LINE
5
138
100
AcDbEntity
8
0
100
AcDbLine
10
36.499999999999993
20
5.8333333333333659
30
0
11
36.499999999999993
21
0
31
0
0
LINE
5
139
100
AcDbEntity
8
0
100
AcDbLine
10
36.499999999999993
20
0
30
0
11
44.642857142857125
21
0
31
0
0
LINE
5
140
100
AcDbEntity
8
0
100
AcDbLine
10
44.642857142857125
20
0
30
0
11
44.642857142857117
21
3.0000000000000004
31
0
0
LINE
5
141
100
AcDbEntity
8
0
100
AcDbLine
10
44.642857142857117
20
3.0000000000000004
30
0
11
62.499999999999964
21
3.0000000000000004
31
0
0
LINE
5
142
100
AcDbEntity
8
0
100
AcDbLine
10
62.499999999999964
20
3.0000000000000004
30
0
11
62.499999999999986
21
0
31
0
0
LINE
5
143
100
AcDbEntity
8
0
100
AcDbLine
10
62.499999999999986
20
0
30
0
11
80.357142857142847
21
0
31
0
0
LINE
5
144
100
AcDbEntity
8
0
100
AcDbLine
10
80.357142857142847
20
0
30
0
11
80.357142857142804
21
3.0000000000000004
31
0
0
LINE
5
145
100
AcDbEntity
8
0
100
AcDbLine
10
80.357142857142804
20
3.0000000000000004
30
0
11
98.214285714285694
21
3.0000000000000004
31
0
0
LINE
5
146
100
AcDbEntity
8
0
100
AcDbLine
10
98.214285714285694
20
3.0000000000000004
30
0
11
98.214285714285708
21
0
31
0
0
LINE
5
147
100
AcDbEntity
8
0
100
AcDbLine
10
98.214285714285708
20
0
30
0
11
116.07142857142858
21
0
31
0
0
LINE
5
148
100
AcDbEntity
8
0
100
AcDbLine
10
116.07142857142858
20
0
30
0
11
116.07142857142854
21
3.0000000000000004
31
0
0
LINE
5
149
100
AcDbEntity
8
0
100
AcDbLine
10
116.07142857142854
20
3.0000000000000004
30
0
11
124.99999999999989
21
3.0000000000000004
31
0
0
LINE
5
150
100
AcDbEntity
8
0
100
AcDbLine
10
124.99999999999989
20
3.0000000000000004
30
0
11
125
21
14.166666666666622
31
0
0
LINE
5
151
100
AcDbEntity
8
0
100
AcDbLine
10
125
20
14.166666666666622
30
0
11
122
21
14.166666666666615
31
0
0
LINE
5
152
100
AcDbEntity
8
0
100
AcDbLine
10
122
20
14.166666666666615
30
0
11
122
21
42.499999999999972
31
0
0
LINE
5
153
100
AcDbEntity
8
0
100
AcDbLine
10
122
20
42.499999999999972
30
0
11
125
21
42.499999999999964
31
0
0
LINE
5
154
100
AcDbEntity
8
0
100
AcDbLine
10
125
20
42.499999999999964
30
0
11
125
21
70.833333333333286
31
0
0
LINE
5
155
100
AcDbEntity
8
0
100
AcDbLine
10
125
20
70.833333333333286
30
0
11
122
21
70.833333333333286
31
0
0
LINE
5
156
100
AcDbEntity
8
0
100
AcDbLine
10
122
20
70.833333333333286
30
0
11
122
21
99.166666666666643
31
0
0
LINE
5
157
100
AcDbEntity
8
0
100
AcDbLine
10
122
20
99.166666666666643
30
0
11
125
21
99.166666666666643
31
0
0
LINE
5
158
100
AcDbEntity
8
0
100
AcDbLine
10
125
20
99.166666666666643
30
0
11
125
21
127.49999999999997
31
0
0
LINE
5
159
100
AcDbEntity
8
0
100
AcDbLine
10
125
20
127.49999999999997
30
0
11
122
21
127.49999999999994
31
0
0
LINE
5
160
100
AcDbEntity
8
0
100
AcDbLine
10
122
20
127.49999999999994
30
0
11
122
21
155.83333333333331
31
0
0
LWPOLYLINE
5
161
100
AcDbEntity
8
0
100
AcDbPolyline
90
4
70
1
43
0.0
10
36.499999999999993
20
29.1666666666667
10
33.5
20
29.1666666666667
10
33.5
20
17.500000000000032
10
36.499999999999993
20
17.500000000000032
0
LWPOLYLINE
5
162
100
AcDbEntity
8
0
100
AcDbPolyline
90
4
70
1
43
0.0
10
36.499999999999993
20
52.500000000000036
10
33.5
20
52.500000000000036
10
33.5
20
40.833333333333364
10
36.499999999999993
20
40.833333333333364
0
LWPOLYLINE
5
163
100
AcDbEntity
8
0
100
AcDbPolyline
90
4
70
1
43
0.0
10
36.499999999999993
20
70
10
33.5
20
70
10
33.5
20
64.1666666666667
10
36.499999999999993
20
64.1666666666667
0
LWPOLYLINE
5
164
100
AcDbEntity
8
0
100
AcDbPolyline
90
4
70
1
43
0.0
10
69.000000000000014
20
35.000000000000007
10
69.000000000000014
20
23.000000000000007
10
101.00000000000001
20
23.000000000000007
10
101.00000000000001
20
35.000000000000007
0
CIRCLE
5
165
100
AcDbEntity
8
0
100
AcDbCircle
10
0
20
14.000000000000002
30
0
40
4
210
0
220
0
230
1
0
CIRCLE
5
166
100
AcDbEntity
8
0
100
AcDbCircle
10
-53.571428571428577
20
14.000000000000002
30
0
40
4.0000000000000036
210
0
220
0
230
1
0
CIRCLE
5
167
100
AcDbEntity
8
0
100
AcDbCircle
10
53.571428571428577
20
14.000000000000002
30
0
40
4.0000000000000036
210
0
220
0
230
1
0
CIRCLE
5
168
100
AcDbEntity
8
0
100
AcDbCircle
10
-107.14285714285715
20
14.000000000000002
30
0
40
4.0000000000000036
210
0
220
0
230
1
0
CIRCLE
5
169
100
AcDbEntity
8
0
100
AcDbCircle
10
107.14285714285715
20
14.000000000000002
30
0
40
4.0000000000000036
210
0
220
0
230
1
0
CIRCLE
5
170
100
AcDbEntity
8
0
100
AcDbCircle
10
61.571428571428577
20
14.000000000000002
30
0
40
2.0000000000000018
210
0
220
0
230
1
0
CIRCLE
5
171
100
AcDbEntity
8
0
100
AcDbCircle
10
45.571428571428584
20
14.000000000000004
30
0
40
2.0000000000000018
210
0
220
0
230
1
0
CIRCLE
5
172
100
AcDbEntity
8
0
100
AcDbCircle
10
47.9145743219362
20
19.656854249492383
30
0
40
2.0000000000000018
210
0
220
0
230
1
0
CIRCLE
5
173
100
AcDbEntity
8
0
100
AcDbCircle
10
59.228282820920967
20
8.3431457505076203
30
0
40
2.0000000000000018
210
0
220
0
230
1
0
CIRCLE
5
174
100
AcDbEntity
8
0
100
AcDbCircle
10
47.9145743219362
20
8.3431457505076203
30
0
40
2.0000000000000018
210
0
220
0
230
1
0
CIRCLE
5
175
100
AcDbEntity
8
0
100
AcDbCircle
10
59.228282820920974
20
19.65685424949239
30
0
40
2.0000000000000018
210
0
220
0
230
1
0
CIRCLE
5
176
100
AcDbEntity
8
0
100
AcDbCircle
10
53.571428571428598
20
22.000000000000011
30
0
40
2.0000000000000018
210
0
220
0
230
1
0
CIRCLE
5
177
100
AcDbEntity
8
0
100
AcDbCircle
10
53.571428571428577
20
6.0000000000000009
30
0
40
2.0000000000000018
210
0
220
0
230
1
0
LINE
5
178
100
AcDbEntity
8
0
100
AcDbLine
10
-44.64285714285716
20
0
30
0
11
-36.5
21
0
31
0
0
LINE
5
179
100
AcDbEntity
8
0
100
AcDbLine
10
26.785714285714267
20
0
30
0
11
33.5
21
0
31
0
0
LINE
5
180
100
AcDbEntity
8
0
100
AcDbLine
10
-124.99999999999993
20
160.99999999999994
30
0
11
-125
21
155.83333333333334
31
0
0
LINE
5
181
100
AcDbEntity
8
0
100
AcDbLine
10
-125
20
155.83333333333334
30
0
11
-122
21
155.83333333333331
31
0
0
LINE
5
182
100
AcDbEntity
8
0
100
AcDbLine
10
122
20
155.83333333333331
30
0
11
125
21
155.83333333333334
31
0
0
LINE
5
183
100
AcDbEntity
8
0
100
AcDbLine
10
125
20
155.83333333333334
30
0
11
125
21
160.99999999999994
31
0
0
CIRCLE
5
184
100
AcDbEntity
8
0
100
AcDbCircle
10
-47.9145743219362
20
8.3431457505076256
30
0
40
2.0000000000000018
210
0
220
0
230
1
0
CIRCLE
5
185
100
AcDbEntity
8
0
100
AcDbCircle
10
-59.228282820920967
20
19.656854249492383
30
0
40
2.0000000000000018
210
0
220
0
230
1
0
CIRCLE
5
186
100
AcDbEntity
8
0
100
AcDbCircle
10
0
20
6.0000000894069672
30
0
40
1.9999999999999996
210
0
220
0
230
1
0
CIRCLE
5
187
100
AcDbEntity
8
0
100
AcDbCircle
10
9.7971742836868706e-16
20
21.999999910593036
30
0
40
1.9999999999999996
210
0
220
0
230
1
0
CIRCLE
5
188
100
AcDbEntity
8
0
100
AcDbCircle
10
-5.6568541862721089
20
19.65685418627211
30
0
40
1.9999999999999996
210
0
220
0
230
1
0
CIRCLE
5
189
100
AcDbEntity
8
0
100
AcDbCircle
10
5.6568541862721089
20
8.343145813727892
30
0
40
1.9999999999999996
210
0
220
0
230
1
0
CIRCLE
5
190
100
AcDbEntity
8
0
100
AcDbCircle
10
-53.571428571428577
20
22
30
0
40
2.0000000000000018
210
0
220
0
230
1
0
CIRCLE
5
191
100
AcDbEntity
8
0
100
AcDbCircle
10
-53.571428571428577
20
6.0000000000000009
30
0
40
2.0000000000000018
210
0
220
0
230
1
0
CIRCLE
5
192
100
AcDbEntity
8
0
100
AcDbCircle
10
-45.571428571428577
20
14.000000000000004
30
0
40
2.0000000000000018
210
0
220
0
230
1
0
CIRCLE
5
193
100
AcDbEntity
8
0
100
AcDbCircle
10
-61.571428571428577
20
14.000000000000004
30
0
40
2.0000000000000018
210
0
220
0
230
1
0
CIRCLE
5
194
100
AcDbEntity
8
0
100
AcDbCircle
10
-5.6568541862721089
20
8.343145813727892
30
0
40
1.9999999999999996
210
0
220
0
230
1
0
CIRCLE
5
195
100
AcDbEntity
8
0
100
AcDbCircle
10
5.6568541862721089
20
19.65685418627211
30
0
40
1.9999999999999996
210
0
220
0
230
1
0
CIRCLE
5
196
100
AcDbEntity
8
0
100
AcDbCircle
10
7.9999999105930346
20
14.000000000000002
30
0
40
1.9999999999999996
210
0
220
0
230
1
0
CIRCLE
5
197
100
AcDbEntity
8
0
100
AcDbCircle
10
-7.9999999105930346
20
14.000000000000002
30
0
40
1.9999999999999996
210
0
220
0
230
1
0
CIRCLE
5
198
100
AcDbEntity
8
0
100
AcDbCircle
10
-59.228282820920967
20
8.3431457505076256
30
0
40
2.0000000000000018
210
0
220
0
230
1
0
CIRCLE
5
199
100
AcDbEntity
8
0
100
AcDbCircle
10
-47.914574321936186
20
19.656854249492383
30
0
40
2.0000000000000018
210
0
220
0
230
1
0
ENDSEC
0
SECTION
2
OBJECTS
0
DICTIONARY
5
C
100
AcDbDictionary
3
ACAD_GROUP
350
D
3
ACAD_MLINESTYLE
350
17
0
DICTIONARY
5
D
100
AcDbDictionary
0
DICTIONARY
5
1A
330
C
100
AcDbDictionary
0
DICTIONARY
5
17
100
AcDbDictionary
0
ENDSEC
0
EOF
