0
SECTION
2
HEADER
9
$INSUNITS
70
4
9
$ACADVER
1
AC1014
9
$HANDSEED
5
FFFF
0
ENDSEC
0
SECTION
2
TABLES
0
TABLE
2
VPORT
5
8
100
AcDbSymbolTable
0
ENDTAB
0
TABLE
2
LTYPE
5
5
100
AcDbSymbolTable
0
LTYPE
5
14
100
AcDbSymbolTableRecord
100
AcDbLinetypeTableRecord
2
BYBLOCK
70
0
0
LTYPE
5
15
100
AcDbSymbolTableRecord
100
AcDbLinetypeTableRecord
2
BYLAYER
70
0
0
ENDTAB
0
TABLE
2
LAYER
5
2
100
AcDbSymbolTable
70
2
0
LAYER
5
50
100
AcDbSymbolTableRecord
100
AcDbLayerTableRecord
2
0
70
0
6
CONTINUOUS
0
ENDTAB
0
TABLE
2
STYLE
5
3
100
AcDbSymbolTable
70
1
0
STYLE
5
11
100
AcDbSymbolTableRecord
100
AcDbTextStyleTableRecord
2
STANDARD
70
0
0
ENDTAB
0
TABLE
2
VIEW
5
6
100
AcDbSymbolTable
70
0
0
ENDTAB
0
TABLE
2
UCS
5
7
100
AcDbSymbolTable
70
0
0
ENDTAB
0
TABLE
2
APPID
5
9
100
AcDbSymbolTable
70
2
0
APPID
5
12
100
AcDbSymbolTableRecord
100
AcDbRegAppTableRecord
2
ACAD
70
0
0
ENDTAB
0
TABLE
2
DIMSTYLE
5
A
100
AcDbSymbolTable
70
1
0
ENDTAB
0
TABLE
2
BLOCK_RECORD
5
1
100
AcDbSymbolTable
70
1
0
BLOCK_RECORD
5
1F
100
AcDbSymbolTableRecord
100
AcDbBlockTableRecord
2
*MODEL_SPACE
0
BLOCK_RECORD
5
1B
100
AcDbSymbolTableRecord
100
AcDbBlockTableRecord
2
*PAPER_SPACE
0
ENDTAB
0
ENDSEC
0
SECTION
2
BLOCKS
0
BLOCK
5
20
100
AcDbEntity
100
AcDbBlockBegin
2
*MODEL_SPACE
0
ENDBLK
5
21
100
AcDbEntity
100
AcDbBlockEnd
0
BLOCK
5
1C
100
AcDbEntity
100
AcDbBlockBegin
2
*PAPER_SPACE
0
ENDBLK
5
1D
100
AcDbEntity
100
AcDbBlockEnd
0
ENDSEC
0
SECTION
2
ENTITIES
0
LWPOLYLINE
5
100
100
AcDbEntity
8
0
100
AcDbPolyline
90
4
70
1
43
0.0
10
-17.249999999999925
20
-46.500000000000135
10
-17.249999999999982
20
-66.500000000000128
10
-10.749999999999995
20
-66.500000000000142
10
-10.75000000000003
20
-46.500000000000128
0
LWPOLYLINE
5
101
100
AcDbEntity
8
0
100
AcDbPolyline
90
4
70
1
43
0.0
10
10.750000000000064
20
-46.500000000000135
10
10.750000000000007
20
-66.500000000000128
10
17.249999999999993
20
-66.500000000000142
10
17.249999999999957
20
-46.500000000000128
0
LINE
5
102
100
AcDbEntity
8
0
100
AcDbLine
10
-26.500000000000004
20
-105.0000000000003
30
0
11
-26.285714285714331
21
-105.00000000000001
31
0
0
LINE
5
103
100
AcDbEntity
8
0
100
AcDbLine
10
-16
20
89.000000000000057
30
0
11
-121.49999999999994
21
89.000000000000057
31
0
0
LINE
5
104
100
AcDbEntity
8
0
100
AcDbLine
10
121.49999999999994
20
89.000000000000071
30
0
11
15.999999999999996
21
89.000000000000057
31
0
0
ARC
5
105
100
AcDbEntity
8
0
100
AcDbCircle
10
0
20
89.000000000000057
30
0
40
16
210
0
220
0
230
1
100
AcDbArc
50
-180
51
0
0
LINE
5
106
100
AcDbEntity
8
0
100
AcDbLine
10
-57.5
20
-102.00000000000001
30
0
11
-57.5
21
-83.100000000000009
31
0
0
LINE
5
107
100
AcDbEntity
8
0
100
AcDbLine
10
-57.5
20
-83.100000000000009
30
0
11
-54.499999999999993
21
-83.100000000000009
31
0
0
LINE
5
108
100
AcDbEntity
8
0
100
AcDbLine
10
-54.499999999999993
20
-83.100000000000009
30
0
11
-54.499999999999993
21
-102.00000000000001
31
0
0
LINE
5
109
100
AcDbEntity
8
0
100
AcDbLine
10
-26.285714285714334
20
-102.00000000000001
30
0
11
-8.4285714285714697
21
-102.00000000000001
31
0
0
LINE
5
110
100
AcDbEntity
8
0
100
AcDbLine
10
-44.142857142857181
20
-102.00000000000001
30
0
11
-44.142857142857181
21
-105.00000000000001
31
0
0
LINE
5
111
100
AcDbEntity
8
0
100
AcDbLine
10
-29.499999999999996
20
-105.00000000000001
30
0
11
-29.499999999999996
21
-83.100000000000009
31
0
0
LINE
5
112
100
AcDbEntity
8
0
100
AcDbLine
10
-29.499999999999996
20
-83.100000000000009
30
0
11
-26.5
21
-83.100000000000009
31
0
0
LINE
5
113
100
AcDbEntity
8
0
100
AcDbLine
10
-26.5
20
-83.100000000000009
30
0
11
-26.500000000000004
21
-105.0000000000003
31
0
0
LINE
5
114
100
AcDbEntity
8
0
100
AcDbLine
10
-8.4285714285714697
20
-102.00000000000001
30
0
11
-8.4285714285714697
21
-105.00000000000001
31
0
0
LINE
5
115
100
AcDbEntity
8
0
100
AcDbLine
10
-1.5000000000000002
20
-105.00000000000001
30
0
11
-1.5000000000000002
21
-83.100000000000009
31
0
0
LINE
5
116
100
AcDbEntity
8
0
100
AcDbLine
10
-1.5000000000000002
20
-83.100000000000009
30
0
11
1.5000000000000002
21
-83.100000000000009
31
0
0
LINE
5
117
100
AcDbEntity
8
0
100
AcDbLine
10
1.5000000000000002
20
-83.100000000000009
30
0
11
1.5000000000000036
21
-105.00000000000023
31
0
0
LINE
5
118
100
AcDbEntity
8
0
100
AcDbLine
10
1.5000000000000036
20
-105.00000000000023
30
0
11
9.428571428571388
21
-105.00000000000001
31
0
0
LINE
5
119
100
AcDbEntity
8
0
100
AcDbLine
10
9.428571428571388
20
-105.00000000000001
30
0
11
9.4285714285713862
21
-102.00000000000001
31
0
0
LINE
5
120
100
AcDbEntity
8
0
100
AcDbLine
10
9.4285714285713862
20
-102.00000000000001
30
0
11
26.5
21
-102.00000000000001
31
0
0
LINE
5
121
100
AcDbEntity
8
0
100
AcDbLine
10
26.5
20
-102.00000000000001
30
0
11
26.5
21
-83.100000000000009
31
0
0
LINE
5
122
100
AcDbEntity
8
0
100
AcDbLine
10
26.5
20
-83.100000000000009
30
0
11
29.499999999999996
21
-83.100000000000009
31
0
0
LINE
5
123
100
AcDbEntity
8
0
100
AcDbLine
10
29.499999999999996
20
-83.100000000000009
30
0
11
29.499999999999993
21
-105.00000000000016
31
0
0
LINE
5
124
100
AcDbEntity
8
0
100
AcDbLine
10
29.499999999999993
20
-105.00000000000016
30
0
11
45.14285714285711
21
-105.00000000000001
31
0
0
LINE
5
125
100
AcDbEntity
8
0
100
AcDbLine
10
45.14285714285711
20
-105.00000000000001
30
0
11
45.14285714285711
21
-102.00000000000001
31
0
0
LINE
5
126
100
AcDbEntity
8
0
100
AcDbLine
10
45.14285714285711
20
-102.00000000000001
30
0
11
54.499999999999993
21
-102.00000000000001
31
0
0
LINE
5
127
100
AcDbEntity
8
0
100
AcDbLine
10
54.499999999999993
20
-102.00000000000001
30
0
11
54.499999999999993
21
-83.100000000000009
31
0
0
LINE
5
128
100
AcDbEntity
8
0
100
AcDbLine
10
54.499999999999993
20
-83.100000000000009
30
0
11
57.5
21
-83.100000000000009
31
0
0
LINE
5
129
100
AcDbEntity
8
0
100
AcDbLine
10
57.5
20
-83.100000000000009
30
0
11
57.5
21
-102.00000000000001
31
0
0
LINE
5
130
100
AcDbEntity
8
0
100
AcDbLine
10
80.857142857142819
20
-105.00000000000001
30
0
11
80.857142857142819
21
-102.00000000000001
31
0
0
LINE
5
131
100
AcDbEntity
8
0
100
AcDbLine
10
80.857142857142819
20
-102.00000000000001
30
0
11
82.499999999999986
21
-102.00000000000001
31
0
0
LINE
5
132
100
AcDbEntity
8
0
100
AcDbLine
10
82.499999999999986
20
-102.00000000000001
30
0
11
82.499999999999986
21
-83.100000000000009
31
0
0
LINE
5
133
100
AcDbEntity
8
0
100
AcDbLine
10
82.499999999999986
20
-83.100000000000009
30
0
11
85.499999999999986
21
-83.100000000000009
31
0
0
LINE
5
134
100
AcDbEntity
8
0
100
AcDbLine
10
85.499999999999986
20
-83.100000000000009
30
0
11
85.499999999999986
21
-102.00000000000001
31
0
0
LINE
5
135
100
AcDbEntity
8
0
100
AcDbLine
10
85.499999999999986
20
-102.00000000000001
30
0
11
98.71428571428568
21
-102.00000000000001
31
0
0
LINE
5
136
100
AcDbEntity
8
0
100
AcDbLine
10
98.71428571428568
20
-102.00000000000001
30
0
11
98.71428571428568
21
-105.00000000000001
31
0
0
LINE
5
137
100
AcDbEntity
8
0
100
AcDbLine
10
98.71428571428568
20
-105.00000000000001
30
0
11
116.57142857142856
21
-105.00000000000001
31
0
0
LINE
5
138
100
AcDbEntity
8
0
100
AcDbLine
10
116.57142857142856
20
-105.00000000000001
30
0
11
116.57142857142856
21
-102.00000000000001
31
0
0
LINE
5
139
100
AcDbEntity
8
0
100
AcDbLine
10
116.57142857142856
20
-102.00000000000001
30
0
11
121.49999999999999
21
-102.00000000000001
31
0
0
LINE
5
140
100
AcDbEntity
8
0
100
AcDbLine
10
121.49999999999999
20
-102.00000000000001
30
0
11
121.49999999999994
21
89.000000000000071
31
0
0
LINE
5
141
100
AcDbEntity
8
0
100
AcDbLine
10
-121.49999999999994
20
89.000000000000057
30
0
11
-121.49999999999999
21
-105.0000000000005
31
0
0
LINE
5
142
100
AcDbEntity
8
0
100
AcDbLine
10
-115.57142857142863
20
-102.00000000000001
30
0
11
-115.57142857142863
21
-105.00000000000001
31
0
0
LINE
5
143
100
AcDbEntity
8
0
100
AcDbLine
10
-115.57142857142863
20
-105.00000000000001
30
0
11
-97.714285714285751
21
-105.00000000000001
31
0
0
LINE
5
144
100
AcDbEntity
8
0
100
AcDbLine
10
-97.714285714285751
20
-105.00000000000001
30
0
11
-97.714285714285751
21
-102.00000000000001
31
0
0
LINE
5
145
100
AcDbEntity
8
0
100
AcDbLine
10
-97.714285714285751
20
-102.00000000000001
30
0
11
-85.499999999999986
21
-102.00000000000001
31
0
0
LINE
5
146
100
AcDbEntity
8
0
100
AcDbLine
10
-85.499999999999986
20
-102.00000000000001
30
0
11
-85.499999999999986
21
-83.100000000000009
31
0
0
LINE
5
147
100
AcDbEntity
8
0
100
AcDbLine
10
-85.499999999999986
20
-83.100000000000009
30
0
11
-82.499999999999986
21
-83.100000000000009
31
0
0
LINE
5
148
100
AcDbEntity
8
0
100
AcDbLine
10
-82.499999999999986
20
-83.100000000000009
30
0
11
-82.499999999999986
21
-102.00000000000001
31
0
0
LINE
5
149
100
AcDbEntity
8
0
100
AcDbLine
10
-82.499999999999986
20
-102.00000000000001
30
0
11
-79.857142857142918
21
-102.00000000000001
31
0
0
LINE
5
150
100
AcDbEntity
8
0
100
AcDbLine
10
-79.857142857142918
20
-102.00000000000001
30
0
11
-79.857142857142918
21
-105.00000000000001
31
0
0
LINE
5
151
100
AcDbEntity
8
0
100
AcDbLine
10
-79.857142857142918
20
-105.00000000000001
30
0
11
-62.000000000000043
21
-105.00000000000001
31
0
0
LINE
5
152
100
AcDbEntity
8
0
100
AcDbLine
10
-85.499999999999986
20
-61.5
30
0
11
-85.499999999999986
21
-18.300000000000001
31
0
0
LINE
5
153
100
AcDbEntity
8
0
100
AcDbLine
10
-85.499999999999986
20
-18.300000000000001
30
0
11
-82.499999999999986
21
-18.300000000000001
31
0
0
LINE
5
154
100
AcDbEntity
8
0
100
AcDbLine
10
-82.499999999999986
20
-18.300000000000001
30
0
11
-82.499999999999986
21
-61.5
31
0
0
LINE
5
155
100
AcDbEntity
8
0
100
AcDbLine
10
-82.499999999999986
20
-61.5
30
0
11
-85.499999999999986
21
-61.5
31
0
0
LINE
5
156
100
AcDbEntity
8
0
100
AcDbLine
10
-85.499999999999986
20
3.3000000000000007
30
0
11
-85.499999999999986
21
46.499999999999972
31
0
0
LINE
5
157
100
AcDbEntity
8
0
100
AcDbLine
10
-85.499999999999986
20
46.499999999999972
30
0
11
-82.499999999999986
21
46.499999999999972
31
0
0
LINE
5
158
100
AcDbEntity
8
0
100
AcDbLine
10
-82.499999999999986
20
46.499999999999972
30
0
11
-82.499999999999986
21
3.3000000000000007
31
0
0
LINE
5
159
100
AcDbEntity
8
0
100
AcDbLine
10
-82.499999999999986
20
3.3000000000000007
30
0
11
-85.499999999999986
21
3.3000000000000007
31
0
0
LWPOLYLINE
5
160
100
AcDbEntity
8
0
100
AcDbPolyline
90
4
70
1
43
0.0
10
-29.499999999999996
20
-18.300000000000001
10
-29.499999999999996
20
-61.5
10
-26.5
20
-61.5
10
-26.5
20
-18.300000000000001
0
LWPOLYLINE
5
161
100
AcDbEntity
8
0
100
AcDbPolyline
90
4
70
1
43
0.0
10
-29.499999999999996
20
46.499999999999972
10
-29.499999999999996
20
3.3000000000000007
10
-26.5
20
3.3000000000000007
10
-26.5
20
46.499999999999972
0
LWPOLYLINE
5
162
100
AcDbEntity
8
0
100
AcDbPolyline
90
4
70
1
43
0.0
10
26.5
20
-18.300000000000001
10
26.5
20
-61.5
10
29.499999999999996
20
-61.5
10
29.499999999999996
20
-18.300000000000001
0
LWPOLYLINE
5
163
100
AcDbEntity
8
0
100
AcDbPolyline
90
4
70
1
43
0.0
10
26.5
20
46.499999999999972
10
26.5
20
3.3000000000000007
10
29.499999999999996
20
3.3000000000000007
10
29.499999999999996
20
46.499999999999972
0
LINE
5
164
100
AcDbEntity
8
0
100
AcDbLine
10
82.499999999999986
20
-61.5
30
0
11
82.499999999999986
21
-18.300000000000001
31
0
0
LINE
5
165
100
AcDbEntity
8
0
100
AcDbLine
10
82.499999999999986
20
-18.300000000000001
30
0
11
85.499999999999986
21
-18.300000000000001
31
0
0
LINE
5
166
100
AcDbEntity
8
0
100
AcDbLine
10
85.499999999999986
20
-18.300000000000001
30
0
11
85.499999999999986
21
-61.5
31
0
0
LINE
5
167
100
AcDbEntity
8
0
100
AcDbLine
10
85.499999999999986
20
-61.5
30
0
11
82.499999999999986
21
-61.5
31
0
0
LINE
5
168
100
AcDbEntity
8
0
100
AcDbLine
10
82.499999999999986
20
3.3000000000000007
30
0
11
82.499999999999986
21
46.499999999999972
31
0
0
LINE
5
169
100
AcDbEntity
8
0
100
AcDbLine
10
82.499999999999986
20
46.499999999999972
30
0
11
85.499999999999986
21
46.499999999999972
31
0
0
LINE
5
170
100
AcDbEntity
8
0
100
AcDbLine
10
85.499999999999986
20
46.499999999999972
30
0
11
85.499999999999986
21
3.3000000000000007
31
0
0
LINE
5
171
100
AcDbEntity
8
0
100
AcDbLine
10
85.499999999999986
20
3.3000000000000007
30
0
11
82.499999999999986
21
3.3000000000000007
31
0
0
CIRCLE
5
172
100
AcDbEntity
8
0
100
AcDbCircle
10
-115.49999999999997
20
-32.000000000000227
30
0
40
1.9999999999999929
210
0
220
-0
230
1
0
CIRCLE
5
173
100
AcDbEntity
8
0
100
AcDbCircle
10
103.5
20
-8.0000000000002043
30
0
40
1.9999999999999929
210
0
220
-0
230
1
0
CIRCLE
5
174
100
AcDbEntity
8
0
100
AcDbCircle
10
-115.49999999999997
20
-20.00000000000022
30
0
40
1.9999999999999929
210
0
220
-0
230
1
0
CIRCLE
5
175
100
AcDbEntity
8
0
100
AcDbCircle
10
115.49999999999999
20
-20.000000000000206
30
0
40
1.9999999999999929
210
0
220
-0
230
1
0
CIRCLE
5
176
100
AcDbEntity
8
0
100
AcDbCircle
10
115.49999999999999
20
-32.000000000000213
30
0
40
1.9999999999999929
210
0
220
-0
230
1
0
CIRCLE
5
177
100
AcDbEntity
8
0
100
AcDbCircle
10
-103.49999999999997
20
-8.0000000000002167
30
0
40
1.9999999999999929
210
0
220
-0
230
1
0
CIRCLE
5
178
100
AcDbEntity
8
0
100
AcDbCircle
10
115.49999999999999
20
-68.000000000000227
30
0
40
1.9999999999999929
210
0
220
-0
230
1
0
CIRCLE
5
179
100
AcDbEntity
8
0
100
AcDbCircle
10
115.49999999999999
20
-56.00000000000022
30
0
40
1.9999999999999929
210
0
220
-0
230
1
0
CIRCLE
5
180
100
AcDbEntity
8
0
100
AcDbCircle
10
-115.49999999999997
20
-68.000000000000227
30
0
40
1.9999999999999929
210
0
220
-0
230
1
0
CIRCLE
5
181
100
AcDbEntity
8
0
100
AcDbCircle
10
-115.49999999999997
20
-44.000000000000227
30
0
40
1.9999999999999929
210
0
220
-0
230
1
0
CIRCLE
5
182
100
AcDbEntity
8
0
100
AcDbCircle
10
-103.49999999999997
20
-68.000000000000227
30
0
40
1.9999999999999929
210
0
220
-0
230
1
0
CIRCLE
5
183
100
AcDbEntity
8
0
100
AcDbCircle
10
103.5
20
-68.000000000000227
30
0
40
1.9999999999999929
210
0
220
-0
230
1
0
CIRCLE
5
184
100
AcDbEntity
8
0
100
AcDbCircle
10
115.49999999999999
20
-44.000000000000213
30
0
40
1.9999999999999929
210
0
220
-0
230
1
0
CIRCLE
5
185
100
AcDbEntity
8
0
100
AcDbCircle
10
-115.49999999999997
20
-56.000000000000234
30
0
40
1.9999999999999929
210
0
220
-0
230
1
0
CIRCLE
5
186
100
AcDbEntity
8
0
100
AcDbCircle
10
-103.49999999999997
20
-80.000000000000256
30
0
40
1.9999999999999929
210
0
220
-0
230
1
0
LWPOLYLINE
5
187
100
AcDbEntity
8
0
100
AcDbPolyline
90
4
70
1
43
0.0
10
66.75
20
-66.500000000000128
10
73.25
20
-66.500000000000142
10
73.249999999999957
20
-46.500000000000128
10
66.750000000000057
20
-46.500000000000135
0
LWPOLYLINE
5
188
100
AcDbEntity
8
0
100
AcDbPolyline
90
4
70
1
43
0.0
10
38.750000000000064
20
-46.500000000000135
10
38.750000000000007
20
-66.500000000000128
10
45.249999999999993
20
-66.500000000000142
10
45.249999999999957
20
-46.500000000000128
0
CIRCLE
5
189
100
AcDbEntity
8
0
100
AcDbCircle
10
103.5
20
51.999999999999815
30
0
40
1.9999999999999929
210
0
220
-0
230
1
0
CIRCLE
5
190
100
AcDbEntity
8
0
100
AcDbCircle
10
115.49999999999999
20
51.999999999999815
30
0
40
1.9999999999999929
210
0
220
-0
230
1
0
CIRCLE
5
191
100
AcDbEntity
8
0
100
AcDbCircle
10
-115.49999999999997
20
-80.000000000000256
30
0
40
1.9999999999999929
210
0
220
-0
230
1
0
CIRCLE
5
192
100
AcDbEntity
8
0
100
AcDbCircle
10
115.49999999999999
20
-80.000000000000227
30
0
40
1.9999999999999929
210
0
220
-0
230
1
0
CIRCLE
5
193
100
AcDbEntity
8
0
100
AcDbCircle
10
103.5
20
-80.000000000000227
30
0
40
1.9999999999999929
210
0
220
-0
230
1
0
CIRCLE
5
194
100
AcDbEntity
8
0
100
AcDbCircle
10
-115.49999999999997
20
39.999999999999801
30
0
40
1.9999999999999929
210
0
220
-0
230
1
0
CIRCLE
5
195
100
AcDbEntity
8
0
100
AcDbCircle
10
115.49999999999999
20
39.999999999999815
30
0
40
1.9999999999999929
210
0
220
-0
230
1
0
CIRCLE
5
196
100
AcDbEntity
8
0
100
AcDbCircle
10
115.49999999999999
20
15.999999999999803
30
0
40
1.9999999999999929
210
0
220
-0
230
1
0
CIRCLE
5
197
100
AcDbEntity
8
0
100
AcDbCircle
10
-115.49999999999997
20
15.999999999999792
30
0
40
1.9999999999999929
210
0
220
-0
230
1
0
CIRCLE
5
198
100
AcDbEntity
8
0
100
AcDbCircle
10
115.49999999999999
20
3.9999999999998002
30
0
40
1.9999999999999929
210
0
220
-0
230
1
0
CIRCLE
5
199
100
AcDbEntity
8
0
100
AcDbCircle
10
-115.49999999999997
20
27.999999999999797
30
0
40
1.9999999999999929
210
0
220
-0
230
1
0
CIRCLE
5
200
100
AcDbEntity
8
0
100
AcDbCircle
10
115.49999999999999
20
27.999999999999812
30
0
40
1.9999999999999929
210
0
220
-0
230
1
0
CIRCLE
5
201
100
AcDbEntity
8
0
100
AcDbCircle
10
-115.49999999999997
20
3.9999999999997877
30
0
40
1.9999999999999929
210
0
220
-0
230
1
0
LWPOLYLINE
5
202
100
AcDbEntity
8
0
100
AcDbPolyline
90
4
70
1
43
0.0
10
-73.249999999999943
20
-46.500000000000135
10
-73.25
20
-66.500000000000128
10
-66.75
20
-66.500000000000142
10
-66.750000000000043
20
-46.500000000000128
0
CIRCLE
5
203
100
AcDbEntity
8
0
100
AcDbCircle
10
115.49999999999999
20
-8.0000000000002043
30
0
40
1.9999999999999929
210
0
220
-0
230
1
0
LWPOLYLINE
5
204
100
AcDbEntity
8
0
100
AcDbPolyline
90
4
70
1
43
0.0
10
-45.249999999999929
20
-46.500000000000135
10
-45.249999999999986
20
-66.500000000000128
10
-38.75
20
-66.500000000000142
10
-38.750000000000036
20
-46.500000000000128
0
CIRCLE
5
205
100
AcDbEntity
8
0
100
AcDbCircle
10
-103.49999999999997
20
63.999999999999815
30
0
40
1.9999999999999929
210
0
220
-0
230
1
0
CIRCLE
5
206
100
AcDbEntity
8
0
100
AcDbCircle
10
-115.49999999999997
20
-8.0000000000002167
30
0
40
1.9999999999999929
210
0
220
-0
230
1
0
CIRCLE
5
207
100
AcDbEntity
8
0
100
AcDbCircle
10
103.5
20
63.999999999999829
30
0
40
1.9999999999999929
210
0
220
-0
230
1
0
CIRCLE
5
208
100
AcDbEntity
8
0
100
AcDbCircle
10
115.49999999999999
20
63.999999999999829
30
0
40
1.9999999999999929
210
0
220
-0
230
1
0
CIRCLE
5
209
100
AcDbEntity
8
0
100
AcDbCircle
10
-115.49999999999997
20
63.999999999999815
30
0
40
1.9999999999999929
210
0
220
-0
230
1
0
CIRCLE
5
210
100
AcDbEntity
8
0
100
AcDbCircle
10
-103.49999999999997
20
51.999999999999808
30
0
40
1.9999999999999929
210
0
220
-0
230
1
0
CIRCLE
5
211
100
AcDbEntity
8
0
100
AcDbCircle
10
-115.49999999999997
20
51.999999999999808
30
0
40
1.9999999999999929
210
0
220
-0
230
1
0
LWPOLYLINE
5
212
100
AcDbEntity
8
0
100
AcDbPolyline
90
4
70
1
43
0.0
10
54.499999999999993
20
46.499999999999972
10
54.499999999999993
20
3.3000000000000007
10
57.5
20
3.3000000000000007
10
57.5
20
46.499999999999972
0
LWPOLYLINE
5
213
100
AcDbEntity
8
0
100
AcDbPolyline
90
4
70
1
43
0.0
10
54.499999999999993
20
-18.300000000000001
10
54.499999999999993
20
-61.5
10
57.5
20
-61.5
10
57.5
20
-18.300000000000001
0
LWPOLYLINE
5
214
100
AcDbEntity
8
0
100
AcDbPolyline
90
4
70
1
43
0.0
10
-1.5000000000000002
20
46.499999999999972
10
-1.5000000000000002
20
3.3000000000000007
10
1.5000000000000002
20
3.3000000000000007
10
1.5000000000000002
20
46.499999999999972
0
LWPOLYLINE
5
215
100
AcDbEntity
8
0
100
AcDbPolyline
90
4
70
1
43
0.0
10
-1.5000000000000002
20
-18.300000000000001
10
-1.5000000000000002
20
-61.5
10
1.5000000000000002
20
-61.5
10
1.5000000000000002
20
-18.300000000000001
0
LWPOLYLINE
5
216
100
AcDbEntity
8
0
100
AcDbPolyline
90
4
70
1
43
0.0
10
-57.5
20
46.499999999999972
10
-57.5
20
3.3000000000000007
10
-54.499999999999993
20
3.3000000000000007
10
-54.499999999999993
20
46.499999999999972
0
LWPOLYLINE
5
217
100
AcDbEntity
8
0
100
AcDbPolyline
90
4
70
1
43
0.0
10
-57.5
20
-18.300000000000001
10
-57.5
20
-61.5
10
-54.499999999999993
20
-61.5
10
-54.499999999999993
20
-18.300000000000001
0
LINE
5
218
100
AcDbEntity
8
0
100
AcDbLine
10
-44.142857142857181
20
-105.00000000000001
30
0
11
-29.499999999999996
21
-105.00000000000001
31
0
0
LINE
5
219
100
AcDbEntity
8
0
100
AcDbLine
10
62.999999999999964
20
-102.00000000000001
30
0
11
62.999999999999964
21
-105.00000000000001
31
0
0
LINE
5
220
100
AcDbEntity
8
0
100
AcDbLine
10
62.999999999999964
20
-105.00000000000001
30
0
11
80.857142857142819
21
-105.00000000000001
31
0
0
LINE
5
221
100
AcDbEntity
8
0
100
AcDbLine
10
-62.000000000000043
20
-105.00000000000001
30
0
11
-62.000000000000043
21
-102.00000000000001
31
0
0
LINE
5
222
100
AcDbEntity
8
0
100
AcDbLine
10
-62.000000000000043
20
-102.00000000000001
30
0
11
-57.5
21
-102.00000000000001
31
0
0
CIRCLE
5
223
100
AcDbEntity
8
0
100
AcDbCircle
10
-103.49999999999997
20
39.999999999999801
30
0
40
1.9999999999999929
210
0
220
-0
230
1
0
CIRCLE
5
224
100
AcDbEntity
8
0
100
AcDbCircle
10
103.5
20
15.999999999999803
30
0
40
1.9999999999999929
210
0
220
-0
230
1
0
CIRCLE
5
225
100
AcDbEntity
8
0
100
AcDbCircle
10
103.5
20
39.999999999999815
30
0
40
1.9999999999999929
210
0
220
-0
230
1
0
CIRCLE
5
226
100
AcDbEntity
8
0
100
AcDbCircle
10
-103.49999999999997
20
27.999999999999797
30
0
40
1.9999999999999929
210
0
220
-0
230
1
0
CIRCLE
5
227
100
AcDbEntity
8
0
100
AcDbCircle
10
103.5
20
-44.000000000000213
30
0
40
1.9999999999999929
210
0
220
-0
230
1
0
CIRCLE
5
228
100
AcDbEntity
8
0
100
AcDbCircle
10
-103.49999999999997
20
-44.000000000000227
30
0
40
1.9999999999999929
210
0
220
-0
230
1
0
CIRCLE
5
229
100
AcDbEntity
8
0
100
AcDbCircle
10
-103.49999999999997
20
3.9999999999997877
30
0
40
1.9999999999999929
210
0
220
-0
230
1
0
CIRCLE
5
230
100
AcDbEntity
8
0
100
AcDbCircle
10
103.5
20
-20.000000000000206
30
0
40
1.9999999999999929
210
0
220
-0
230
1
0
CIRCLE
5
231
100
AcDbEntity
8
0
100
AcDbCircle
10
-103.49999999999997
20
-56.000000000000234
30
0
40
1.9999999999999929
210
0
220
-0
230
1
0
CIRCLE
5
232
100
AcDbEntity
8
0
100
AcDbCircle
10
103.5
20
-56.00000000000022
30
0
40
1.9999999999999929
210
0
220
-0
230
1
0
CIRCLE
5
233
100
AcDbEntity
8
0
100
AcDbCircle
10
-103.49999999999997
20
-20.00000000000022
30
0
40
1.9999999999999929
210
0
220
-0
230
1
0
CIRCLE
5
234
100
AcDbEntity
8
0
100
AcDbCircle
10
103.5
20
3.9999999999998002
30
0
40
1.9999999999999929
210
0
220
-0
230
1
0
CIRCLE
5
235
100
AcDbEntity
8
0
100
AcDbCircle
10
-103.49999999999997
20
15.999999999999792
30
0
40
1.9999999999999929
210
0
220
-0
230
1
0
CIRCLE
5
236
100
AcDbEntity
8
0
100
AcDbCircle
10
103.5
20
27.999999999999812
30
0
40
1.9999999999999929
210
0
220
-0
230
1
0
CIRCLE
5
237
100
AcDbEntity
8
0
100
AcDbCircle
10
103.5
20
-32.000000000000213
30
0
40
1.9999999999999929
210
0
220
-0
230
1
0
CIRCLE
5
238
100
AcDbEntity
8
0
100
AcDbCircle
10
-103.49999999999997
20
-32.000000000000227
30
0
40
1.9999999999999929
210
0
220
-0
230
1
0
LINE
5
239
100
AcDbEntity
8
0
100
AcDbLine
10
57.5
20
-102.00000000000001
30
0
11
62.999999999999964
21
-102.00000000000001
31
0
0
LINE
5
240
100
AcDbEntity
8
0
100
AcDbLine
10
-26.285714285714331
20
-105.00000000000001
30
0
11
-26.285714285714334
21
-102.00000000000001
31
0
0
LINE
5
241
100
AcDbEntity
8
0
100
AcDbLine
10
-8.4285714285714697
20
-105.00000000000001
30
0
11
-1.5000000000000002
21
-105.00000000000001
31
0
0
LINE
5
242
100
AcDbEntity
8
0
100
AcDbLine
10
-121.49999999999999
20
-105.0000000000005
30
0
11
-120.5
21
-105.00000000000001
31
0
0
LINE
5
243
100
AcDbEntity
8
0
100
AcDbLine
10
-120.5
20
-105.00000000000001
30
0
11
-120.5
21
-102.00000000000001
31
0
0
LINE
5
244
100
AcDbEntity
8
0
100
AcDbLine
10
-120.5
20
-102.00000000000001
30
0
11
-115.57142857142863
21
-102.00000000000001
31
0
0
LINE
5
245
100
AcDbEntity
8
0
100
AcDbLine
10
-54.499999999999993
20
-102.00000000000001
30
0
11
-44.142857142857181
21
-102.00000000000001
31
0
0
ENDSEC
0
SECTION
2
OBJECTS
0
DICTIONARY
5
C
100
AcDbDictionary
3
ACAD_GROUP
350
D
3
ACAD_MLINESTYLE
350
17
0
DICTIONARY
5
D
100
AcDbDictionary
0
DICTIONARY
5
1A
330
C
100
AcDbDictionary
0
DICTIONARY
5
17
100
AcDbDictionary
0
ENDSEC
0
EOF
