0
SECTION
2
HEADER
9
$INSUNITS
70
4
9
$ACADVER
1
AC1014
9
$HANDSEED
5
FFFF
0
ENDSEC
0
SECTION
2
TABLES
0
TABLE
2
VPORT
5
8
100
AcDbSymbolTable
0
ENDTAB
0
TABLE
2
LTYPE
5
5
100
AcDbSymbolTable
0
LTYPE
5
14
100
AcDbSymbolTableRecord
100
AcDbLinetypeTableRecord
2
BYBLOCK
70
0
0
LTYPE
5
15
100
AcDbSymbolTableRecord
100
AcDbLinetypeTableRecord
2
BYLAYER
70
0
0
ENDTAB
0
TABLE
2
LAYER
5
2
100
AcDbSymbolTable
70
2
0
LAYER
5
50
100
AcDbSymbolTableRecord
100
AcDbLayerTableRecord
2
0
70
0
6
CONTINUOUS
0
ENDTAB
0
TABLE
2
STYLE
5
3
100
AcDbSymbolTable
70
1
0
STYLE
5
11
100
AcDbSymbolTableRecord
100
AcDbTextStyleTableRecord
2
STANDARD
70
0
0
ENDTAB
0
TABLE
2
VIEW
5
6
100
AcDbSymbolTable
70
0
0
ENDTAB
0
TABLE
2
UCS
5
7
100
AcDbSymbolTable
70
0
0
ENDTAB
0
TABLE
2
APPID
5
9
100
AcDbSymbolTable
70
2
0
APPID
5
12
100
AcDbSymbolTableRecord
100
AcDbRegAppTableRecord
2
ACAD
70
0
0
ENDTAB
0
TABLE
2
DIMSTYLE
5
A
100
AcDbSymbolTable
70
1
0
ENDTAB
0
TABLE
2
BLOCK_RECORD
5
1
100
AcDbSymbolTable
70
1
0
BLOCK_RECORD
5
1F
100
AcDbSymbolTableRecord
100
AcDbBlockTableRecord
2
*MODEL_SPACE
0
BLOCK_RECORD
5
1B
100
AcDbSymbolTableRecord
100
AcDbBlockTableRecord
2
*PAPER_SPACE
0
ENDTAB
0
ENDSEC
0
SECTION
2
BLOCKS
0
BLOCK
5
20
100
AcDbEntity
100
AcDbBlockBegin
2
*MODEL_SPACE
0
ENDBLK
5
21
100
AcDbEntity
100
AcDbBlockEnd
0
BLOCK
5
1C
100
AcDbEntity
100
AcDbBlockBegin
2
*PAPER_SPACE
0
ENDBLK
5
1D
100
AcDbEntity
100
AcDbBlockEnd
0
ENDSEC
0
SECTION
2
ENTITIES
0
LINE
5
100
100
AcDbEntity
8
0
100
AcDbLine
10
-98.999999999999943
20
70
30
0
11
-107.99999999999996
21
70
31
0
0
LINE
5
101
100
AcDbEntity
8
0
100
AcDbLine
10
-107.99999999999996
20
70
30
0
11
-107.99999999999996
21
64.166666666666771
31
0
0
LINE
5
102
100
AcDbEntity
8
0
100
AcDbLine
10
-107.99999999999996
20
64.166666666666771
30
0
11
-104.99999999999997
21
64.166666666666714
31
0
0
LINE
5
103
100
AcDbEntity
8
0
100
AcDbLine
10
-104.99999999999997
20
64.166666666666714
30
0
11
-104.99999999999989
21
52.500000000000057
31
0
0
LINE
5
104
100
AcDbEntity
8
0
100
AcDbLine
10
-104.99999999999989
20
52.500000000000057
30
0
11
-107.99999999999996
21
52.500000000000107
31
0
0
LINE
5
105
100
AcDbEntity
8
0
100
AcDbLine
10
-107.99999999999996
20
52.500000000000107
30
0
11
-107.99999999999996
21
40.833333333333435
31
0
0
LINE
5
106
100
AcDbEntity
8
0
100
AcDbLine
10
-107.99999999999996
20
40.833333333333435
30
0
11
-104.99999999999997
21
40.833333333333393
31
0
0
LINE
5
107
100
AcDbEntity
8
0
100
AcDbLine
10
-104.99999999999997
20
40.833333333333393
30
0
11
-104.99999999999989
21
29.166666666666728
31
0
0
LINE
5
108
100
AcDbEntity
8
0
100
AcDbLine
10
-104.99999999999989
20
29.166666666666728
30
0
11
-107.99999999999996
21
29.166666666666767
31
0
0
LINE
5
109
100
AcDbEntity
8
0
100
AcDbLine
10
-107.99999999999996
20
29.166666666666767
30
0
11
-107.99999999999996
21
17.500000000000099
31
0
0
LINE
5
110
100
AcDbEntity
8
0
100
AcDbLine
10
-107.99999999999996
20
17.500000000000099
30
0
11
-104.99999999999997
21
17.500000000000057
31
0
0
LINE
5
111
100
AcDbEntity
8
0
100
AcDbLine
10
-104.99999999999997
20
17.500000000000057
30
0
11
-104.99999999999989
21
5.8333333333333925
31
0
0
LINE
5
112
100
AcDbEntity
8
0
100
AcDbLine
10
-104.99999999999989
20
5.8333333333333917
30
0
11
-107.99999999999996
21
5.8333333333334281
31
0
0
LINE
5
113
100
AcDbEntity
8
0
100
AcDbLine
10
-107.99999999999996
20
5.8333333333334281
30
0
11
-107.99999999999996
21
0
31
0
0
LINE
5
114
100
AcDbEntity
8
0
100
AcDbLine
10
-107.99999999999996
20
0
30
0
11
-97.200000000000003
21
0
31
0
0
LINE
5
115
100
AcDbEntity
8
0
100
AcDbLine
10
75.600000000000009
20
34.999999999999986
30
0
11
75.600000000000009
21
0
31
0
0
LINE
5
116
100
AcDbEntity
8
0
100
AcDbLine
10
92.999999999999986
20
29.166666666666686
30
0
11
89.999999999999858
21
29.166666666666686
31
0
0
LINE
5
117
100
AcDbEntity
8
0
100
AcDbLine
10
89.999999999999858
20
29.166666666666686
30
0
11
89.999999999999915
21
40.833333333333357
31
0
0
LINE
5
118
100
AcDbEntity
8
0
100
AcDbLine
10
89.999999999999915
20
40.833333333333357
30
0
11
92.999999999999986
21
40.83333333333335
31
0
0
LINE
5
119
100
AcDbEntity
8
0
100
AcDbLine
10
92.999999999999986
20
40.83333333333335
30
0
11
92.999999999999986
21
70
31
0
0
LINE
5
120
100
AcDbEntity
8
0
100
AcDbLine
10
92.999999999999986
20
0
30
0
11
92.999999999999986
21
29.166666666666671
31
0
0
LINE
5
121
100
AcDbEntity
8
0
100
AcDbLine
10
75.600000000000009
20
0
30
0
11
92.999999999999986
21
0
31
0
0
LINE
5
122
100
AcDbEntity
8
0
100
AcDbLine
10
10.600000000000005
20
34.999999999999986
30
0
11
75.600000000000009
21
34.999999999999986
31
0
0
LINE
5
123
100
AcDbEntity
8
0
100
AcDbLine
10
10.600000000000005
20
0
30
0
11
10.600000000000005
21
34.999999999999986
31
0
0
LINE
5
124
100
AcDbEntity
8
0
100
AcDbLine
10
-10.600000000000005
20
34.999999999999986
30
0
11
-10.600000000000005
21
0
31
0
0
LINE
5
125
100
AcDbEntity
8
0
100
AcDbLine
10
-75.600000000000009
20
34.999999999999986
30
0
11
-10.600000000000005
21
34.999999999999986
31
0
0
LINE
5
126
100
AcDbEntity
8
0
100
AcDbLine
10
-75.600000000000009
20
2.9999999999999982
30
0
11
-75.600000000000009
21
34.999999999999986
31
0
0
LINE
5
127
100
AcDbEntity
8
0
100
AcDbLine
10
-97.200000000000003
20
2.9999999999999982
30
0
11
-75.600000000000009
21
2.9999999999999982
31
0
0
LINE
5
128
100
AcDbEntity
8
0
100
AcDbLine
10
-97.200000000000003
20
0
30
0
11
-97.200000000000003
21
2.9999999999999982
31
0
0
LINE
5
129
100
AcDbEntity
8
0
100
AcDbLine
10
-10.600000000000005
20
0
30
0
11
10.600000000000005
21
0
31
0
0
LINE
5
130
100
AcDbEntity
8
0
100
AcDbLine
10
-38.99999999999995
20
58
30
0
11
-98.999999999999943
21
57.999999999999979
31
0
0
LINE
5
131
100
AcDbEntity
8
0
100
AcDbLine
10
-98.999999999999943
20
57.999999999999979
30
0
11
-98.999999999999943
21
70
31
0
0
LINE
5
132
100
AcDbEntity
8
0
100
AcDbLine
10
-38.99999999999995
20
70
30
0
11
-38.99999999999995
21
58
31
0
0
LINE
5
133
100
AcDbEntity
8
0
100
AcDbLine
10
92.999999999999986
20
70
30
0
11
-38.99999999999995
21
70
31
0
0
ENDSEC
0
SECTION
2
OBJECTS
0
DICTIONARY
5
C
100
AcDbDictionary
3
ACAD_GROUP
350
D
3
ACAD_MLINESTYLE
350
17
0
DICTIONARY
5
D
100
AcDbDictionary
0
DICTIONARY
5
1A
330
C
100
AcDbDictionary
0
DICTIONARY
5
17
100
AcDbDictionary
0
ENDSEC
0
EOF
