0
SECTION
2
HEADER
9
$INSUNITS
70
4
9
$ACADVER
1
AC1014
9
$HANDSEED
5
FFFF
0
ENDSEC
0
SECTION
2
TABLES
0
TABLE
2
VPORT
5
8
100
AcDbSymbolTable
0
ENDTAB
0
TABLE
2
LTYPE
5
5
100
AcDbSymbolTable
0
LTYPE
5
14
100
AcDbSymbolTableRecord
100
AcDbLinetypeTableRecord
2
BYBLOCK
70
0
0
LTYPE
5
15
100
AcDbSymbolTableRecord
100
AcDbLinetypeTableRecord
2
BYLAYER
70
0
0
ENDTAB
0
TABLE
2
LAYER
5
2
100
AcDbSymbolTable
70
2
0
LAYER
5
50
100
AcDbSymbolTableRecord
100
AcDbLayerTableRecord
2
0
70
0
6
CONTINUOUS
0
ENDTAB
0
TABLE
2
STYLE
5
3
100
AcDbSymbolTable
70
1
0
STYLE
5
11
100
AcDbSymbolTableRecord
100
AcDbTextStyleTableRecord
2
STANDARD
70
0
0
ENDTAB
0
TABLE
2
VIEW
5
6
100
AcDbSymbolTable
70
0
0
ENDTAB
0
TABLE
2
UCS
5
7
100
AcDbSymbolTable
70
0
0
ENDTAB
0
TABLE
2
APPID
5
9
100
AcDbSymbolTable
70
2
0
APPID
5
12
100
AcDbSymbolTableRecord
100
AcDbRegAppTableRecord
2
ACAD
70
0
0
ENDTAB
0
TABLE
2
DIMSTYLE
5
A
100
AcDbSymbolTable
70
1
0
ENDTAB
0
TABLE
2
BLOCK_RECORD
5
1
100
AcDbSymbolTable
70
1
0
BLOCK_RECORD
5
1F
100
AcDbSymbolTableRecord
100
AcDbBlockTableRecord
2
*MODEL_SPACE
0
BLOCK_RECORD
5
1B
100
AcDbSymbolTableRecord
100
AcDbBlockTableRecord
2
*PAPER_SPACE
0
ENDTAB
0
ENDSEC
0
SECTION
2
BLOCKS
0
BLOCK
5
20
100
AcDbEntity
100
AcDbBlockBegin
2
*MODEL_SPACE
0
ENDBLK
5
21
100
AcDbEntity
100
AcDbBlockEnd
0
BLOCK
5
1C
100
AcDbEntity
100
AcDbBlockBegin
2
*PAPER_SPACE
0
ENDBLK
5
1D
100
AcDbEntity
100
AcDbBlockEnd
0
ENDSEC
0
SECTION
2
ENTITIES
0
LINE
5
100
100
AcDbEntity
8
0
100
AcDbLine
10
116.07142857142863
20
3.0000000000000004
30
0
11
125
21
3.0000000000000004
31
0
0
LINE
5
101
100
AcDbEntity
8
0
100
AcDbLine
10
125
20
3.0000000000000004
30
0
11
125
21
14.166666666666636
31
0
0
LINE
5
102
100
AcDbEntity
8
0
100
AcDbLine
10
125
20
14.166666666666636
30
0
11
122
21
14.166666666666636
31
0
0
LINE
5
103
100
AcDbEntity
8
0
100
AcDbLine
10
122
20
14.166666666666636
30
0
11
122
21
42.499999999999964
31
0
0
LINE
5
104
100
AcDbEntity
8
0
100
AcDbLine
10
122
20
42.499999999999964
30
0
11
125
21
42.499999999999964
31
0
0
LINE
5
105
100
AcDbEntity
8
0
100
AcDbLine
10
125
20
42.499999999999964
30
0
11
125
21
70.8333333333333
31
0
0
LINE
5
106
100
AcDbEntity
8
0
100
AcDbLine
10
125
20
70.8333333333333
30
0
11
122
21
70.8333333333333
31
0
0
LINE
5
107
100
AcDbEntity
8
0
100
AcDbLine
10
122
20
70.8333333333333
30
0
11
122
21
99.166666666666643
31
0
0
LINE
5
108
100
AcDbEntity
8
0
100
AcDbLine
10
122
20
99.166666666666643
30
0
11
125
21
99.166666666666643
31
0
0
LINE
5
109
100
AcDbEntity
8
0
100
AcDbLine
10
125
20
99.166666666666643
30
0
11
125
21
127.49999999999999
31
0
0
LINE
5
110
100
AcDbEntity
8
0
100
AcDbLine
10
125
20
127.49999999999999
30
0
11
122
21
127.49999999999999
31
0
0
LINE
5
111
100
AcDbEntity
8
0
100
AcDbLine
10
122
20
127.49999999999999
30
0
11
122
21
155.83333333333331
31
0
0
LINE
5
112
100
AcDbEntity
8
0
100
AcDbLine
10
122
20
155.83333333333331
30
0
11
125
21
155.83333333333331
31
0
0
LINE
5
113
100
AcDbEntity
8
0
100
AcDbLine
10
125
20
155.83333333333331
30
0
11
125
21
167
31
0
0
LINE
5
114
100
AcDbEntity
8
0
100
AcDbLine
10
8.9285714285714199
20
170
30
0
11
-8.9285714285714377
21
170
31
0
0
LINE
5
115
100
AcDbEntity
8
0
100
AcDbLine
10
-125
20
167
30
0
11
-125
21
155.83333333333331
31
0
0
LINE
5
116
100
AcDbEntity
8
0
100
AcDbLine
10
-125
20
155.83333333333331
30
0
11
-122
21
155.83333333333331
31
0
0
LINE
5
117
100
AcDbEntity
8
0
100
AcDbLine
10
-122
20
155.83333333333331
30
0
11
-122
21
127.49999999999994
31
0
0
LINE
5
118
100
AcDbEntity
8
0
100
AcDbLine
10
-122
20
127.49999999999994
30
0
11
-125
21
127.49999999999997
31
0
0
LINE
5
119
100
AcDbEntity
8
0
100
AcDbLine
10
-125
20
127.49999999999997
30
0
11
-125
21
99.166666666666643
31
0
0
LINE
5
120
100
AcDbEntity
8
0
100
AcDbLine
10
-125
20
99.166666666666643
30
0
11
-122
21
99.166666666666643
31
0
0
LINE
5
121
100
AcDbEntity
8
0
100
AcDbLine
10
-122
20
99.166666666666643
30
0
11
-122
21
70.833333333333286
31
0
0
LINE
5
122
100
AcDbEntity
8
0
100
AcDbLine
10
-122
20
70.833333333333286
30
0
11
-125
21
70.833333333333286
31
0
0
LINE
5
123
100
AcDbEntity
8
0
100
AcDbLine
10
-125
20
70.833333333333286
30
0
11
-125
21
42.499999999999964
31
0
0
LINE
5
124
100
AcDbEntity
8
0
100
AcDbLine
10
-125
20
42.499999999999964
30
0
11
-122
21
42.499999999999972
31
0
0
LINE
5
125
100
AcDbEntity
8
0
100
AcDbLine
10
-122
20
42.499999999999972
30
0
11
-122
21
14.166666666666616
31
0
0
LINE
5
126
100
AcDbEntity
8
0
100
AcDbLine
10
-122
20
14.166666666666616
30
0
11
-125
21
14.166666666666622
31
0
0
LINE
5
127
100
AcDbEntity
8
0
100
AcDbLine
10
-125
20
14.166666666666622
30
0
11
-125
21
3.0000000000000004
31
0
0
LINE
5
128
100
AcDbEntity
8
0
100
AcDbLine
10
-125
20
3.0000000000000004
30
0
11
-116.07142857142854
21
3.0000000000000004
31
0
0
LINE
5
129
100
AcDbEntity
8
0
100
AcDbLine
10
-116.07142857142854
20
3.0000000000000004
30
0
11
-116.07142857142854
21
0
31
0
0
LINE
5
130
100
AcDbEntity
8
0
100
AcDbLine
10
-116.07142857142854
20
0
30
0
11
-98.214285714285694
21
0
31
0
0
LINE
5
131
100
AcDbEntity
8
0
100
AcDbLine
10
-98.214285714285694
20
0
30
0
11
-98.214285714285666
21
3.0000000000000004
31
0
0
LINE
5
132
100
AcDbEntity
8
0
100
AcDbLine
10
-98.214285714285666
20
3.0000000000000004
30
0
11
-80.357142857142804
21
3.0000000000000004
31
0
0
LINE
5
133
100
AcDbEntity
8
0
100
AcDbLine
10
-80.357142857142804
20
3.0000000000000004
30
0
11
-80.357142857142804
21
0
31
0
0
LINE
5
134
100
AcDbEntity
8
0
100
AcDbLine
10
-80.357142857142804
20
0
30
0
11
-62.499999999999964
21
0
31
0
0
LINE
5
135
100
AcDbEntity
8
0
100
AcDbLine
10
-62.499999999999964
20
0
30
0
11
-62.499999999999964
21
3.0000000000000004
31
0
0
LINE
5
136
100
AcDbEntity
8
0
100
AcDbLine
10
-62.499999999999964
20
3.0000000000000004
30
0
11
-44.642857142857117
21
3.0000000000000004
31
0
0
LINE
5
137
100
AcDbEntity
8
0
100
AcDbLine
10
-44.642857142857117
20
3.0000000000000004
30
0
11
-44.642857142857117
21
0
31
0
0
LINE
5
138
100
AcDbEntity
8
0
100
AcDbLine
10
-44.642857142857117
20
0
30
0
11
-26.785714285714253
21
0
31
0
0
LINE
5
139
100
AcDbEntity
8
0
100
AcDbLine
10
-26.785714285714253
20
0
30
0
11
-26.785714285714235
21
3.0000000000000004
31
0
0
LINE
5
140
100
AcDbEntity
8
0
100
AcDbLine
10
-26.785714285714235
20
3.0000000000000004
30
0
11
-8.928571428571388
21
3.0000000000000004
31
0
0
LINE
5
141
100
AcDbEntity
8
0
100
AcDbLine
10
-8.928571428571388
20
3.0000000000000004
30
0
11
-8.9285714285713951
21
0
31
0
0
LINE
5
142
100
AcDbEntity
8
0
100
AcDbLine
10
-8.9285714285713951
20
0
30
0
11
8.9285714285714608
21
0
31
0
0
LINE
5
143
100
AcDbEntity
8
0
100
AcDbLine
10
8.9285714285714608
20
0
30
0
11
8.9285714285714768
21
3.0000000000000004
31
0
0
LINE
5
144
100
AcDbEntity
8
0
100
AcDbLine
10
8.9285714285714768
20
3.0000000000000004
30
0
11
26.785714285714342
21
3.0000000000000004
31
0
0
LINE
5
145
100
AcDbEntity
8
0
100
AcDbLine
10
26.785714285714342
20
3.0000000000000004
30
0
11
26.785714285714324
21
0
31
0
0
LINE
5
146
100
AcDbEntity
8
0
100
AcDbLine
10
26.785714285714324
20
0
30
0
11
44.642857142857181
21
0
31
0
0
LINE
5
147
100
AcDbEntity
8
0
100
AcDbLine
10
44.642857142857181
20
0
30
0
11
44.642857142857189
21
3.0000000000000004
31
0
0
LINE
5
148
100
AcDbEntity
8
0
100
AcDbLine
10
44.642857142857189
20
3.0000000000000004
30
0
11
62.500000000000057
21
3.0000000000000004
31
0
0
LINE
5
149
100
AcDbEntity
8
0
100
AcDbLine
10
62.500000000000057
20
3.0000000000000004
30
0
11
62.500000000000036
21
0
31
0
0
LINE
5
150
100
AcDbEntity
8
0
100
AcDbLine
10
62.500000000000036
20
0
30
0
11
80.35714285714289
21
0
31
0
0
LINE
5
151
100
AcDbEntity
8
0
100
AcDbLine
10
80.35714285714289
20
0
30
0
11
80.357142857142904
21
3.0000000000000004
31
0
0
LINE
5
152
100
AcDbEntity
8
0
100
AcDbLine
10
80.357142857142904
20
3.0000000000000004
30
0
11
98.214285714285765
21
3.0000000000000004
31
0
0
LINE
5
153
100
AcDbEntity
8
0
100
AcDbLine
10
98.214285714285765
20
3.0000000000000004
30
0
11
98.214285714285765
21
0
31
0
0
LINE
5
154
100
AcDbEntity
8
0
100
AcDbLine
10
98.214285714285765
20
0
30
0
11
116.07142857142861
21
0
31
0
0
LINE
5
155
100
AcDbEntity
8
0
100
AcDbLine
10
116.07142857142861
20
0
30
0
11
116.07142857142863
21
3.0000000000000004
31
0
0
LWPOLYLINE
5
156
100
AcDbEntity
8
0
100
AcDbPolyline
90
4
70
1
43
0.0
10
25
20
95
10
-25
20
95
10
-25
20
75
10
25
20
75
0
LWPOLYLINE
5
157
100
AcDbEntity
8
0
100
AcDbPolyline
90
4
70
1
43
0.0
10
14.999999999999998
20
117.50000000000001
10
34.999999999999993
20
117.50000000000001
10
34.999999999999993
20
137.50000000000003
10
14.999999999999998
20
137.50000000000003
0
LWPOLYLINE
5
158
100
AcDbEntity
8
0
100
AcDbPolyline
90
4
70
1
43
0.0
10
-15.000000000000004
20
137.50000000000003
10
-35.000000000000007
20
137.50000000000003
10
-35
20
117.50000000000001
10
-15.000000000000002
20
117.50000000000001
0
LINE
5
159
100
AcDbEntity
8
0
100
AcDbLine
10
8.9285714285713702
20
167
30
0
11
8.9285714285714199
21
170
31
0
0
LINE
5
160
100
AcDbEntity
8
0
100
AcDbLine
10
-8.9285714285714377
20
170
30
0
11
-8.9285714285714857
21
167
31
0
0
LINE
5
161
100
AcDbEntity
8
0
100
AcDbLine
10
-8.9285714285714857
20
167
30
0
11
-26.785714285714342
21
167
31
0
0
LINE
5
162
100
AcDbEntity
8
0
100
AcDbLine
10
-26.785714285714342
20
167
30
0
11
-26.785714285714299
21
170
31
0
0
LINE
5
163
100
AcDbEntity
8
0
100
AcDbLine
10
-26.785714285714299
20
170
30
0
11
-44.642857142857153
21
170
31
0
0
LINE
5
164
100
AcDbEntity
8
0
100
AcDbLine
10
-44.642857142857153
20
170
30
0
11
-44.64285714285721
21
167
31
0
0
LINE
5
165
100
AcDbEntity
8
0
100
AcDbLine
10
-44.64285714285721
20
167
30
0
11
-62.500000000000064
21
167
31
0
0
LINE
5
166
100
AcDbEntity
8
0
100
AcDbLine
10
-62.500000000000064
20
167
30
0
11
-62.500000000000007
21
170
31
0
0
LINE
5
167
100
AcDbEntity
8
0
100
AcDbLine
10
-62.500000000000007
20
170
30
0
11
-80.357142857142861
21
170
31
0
0
LINE
5
168
100
AcDbEntity
8
0
100
AcDbLine
10
-80.357142857142861
20
170
30
0
11
-80.357142857142918
21
167
31
0
0
LINE
5
169
100
AcDbEntity
8
0
100
AcDbLine
10
-80.357142857142918
20
167
30
0
11
-125
21
167
31
0
0
LINE
5
170
100
AcDbEntity
8
0
100
AcDbLine
10
125
20
167
30
0
11
80.357142857142804
21
167
31
0
0
LINE
5
171
100
AcDbEntity
8
0
100
AcDbLine
10
80.357142857142804
20
167
30
0
11
80.357142857142847
21
170
31
0
0
LINE
5
172
100
AcDbEntity
8
0
100
AcDbLine
10
80.357142857142847
20
170
30
0
11
62.499999999999993
21
170
31
0
0
LINE
5
173
100
AcDbEntity
8
0
100
AcDbLine
10
62.499999999999993
20
170
30
0
11
62.499999999999936
21
167
31
0
0
LINE
5
174
100
AcDbEntity
8
0
100
AcDbLine
10
62.499999999999936
20
167
30
0
11
44.642857142857082
21
167
31
0
0
LINE
5
175
100
AcDbEntity
8
0
100
AcDbLine
10
44.642857142857082
20
167
30
0
11
44.642857142857139
21
170
31
0
0
LINE
5
176
100
AcDbEntity
8
0
100
AcDbLine
10
44.642857142857139
20
170
30
0
11
26.785714285714278
21
170
31
0
0
LINE
5
177
100
AcDbEntity
8
0
100
AcDbLine
10
26.785714285714278
20
170
30
0
11
26.785714285714235
21
167
31
0
0
LINE
5
178
100
AcDbEntity
8
0
100
AcDbLine
10
26.785714285714235
20
167
30
0
11
8.9285714285713702
21
167
31
0
0
ENDSEC
0
SECTION
2
OBJECTS
0
DICTIONARY
5
C
100
AcDbDictionary
3
ACAD_GROUP
350
D
3
ACAD_MLINESTYLE
350
17
0
DICTIONARY
5
D
100
AcDbDictionary
0
DICTIONARY
5
1A
330
C
100
AcDbDictionary
0
DICTIONARY
5
17
100
AcDbDictionary
0
ENDSEC
0
EOF
