0
SECTION
2
HEADER
9
$INSUNITS
70
4
9
$ACADVER
1
AC1014
9
$HANDSEED
5
FFFF
0
ENDSEC
0
SECTION
2
TABLES
0
TABLE
2
VPORT
5
8
100
AcDbSymbolTable
0
ENDTAB
0
TABLE
2
LTYPE
5
5
100
AcDbSymbolTable
0
LTYPE
5
14
100
AcDbSymbolTableRecord
100
AcDbLinetypeTableRecord
2
BYBLOCK
70
0
0
LTYPE
5
15
100
AcDbSymbolTableRecord
100
AcDbLinetypeTableRecord
2
BYLAYER
70
0
0
ENDTAB
0
TABLE
2
LAYER
5
2
100
AcDbSymbolTable
70
2
0
LAYER
5
50
100
AcDbSymbolTableRecord
100
AcDbLayerTableRecord
2
0
70
0
6
CONTINUOUS
0
ENDTAB
0
TABLE
2
STYLE
5
3
100
AcDbSymbolTable
70
1
0
STYLE
5
11
100
AcDbSymbolTableRecord
100
AcDbTextStyleTableRecord
2
STANDARD
70
0
0
ENDTAB
0
TABLE
2
VIEW
5
6
100
AcDbSymbolTable
70
0
0
ENDTAB
0
TABLE
2
UCS
5
7
100
AcDbSymbolTable
70
0
0
ENDTAB
0
TABLE
2
APPID
5
9
100
AcDbSymbolTable
70
2
0
APPID
5
12
100
AcDbSymbolTableRecord
100
AcDbRegAppTableRecord
2
ACAD
70
0
0
ENDTAB
0
TABLE
2
DIMSTYLE
5
A
100
AcDbSymbolTable
70
1
0
ENDTAB
0
TABLE
2
BLOCK_RECORD
5
1
100
AcDbSymbolTable
70
1
0
BLOCK_RECORD
5
1F
100
AcDbSymbolTableRecord
100
AcDbBlockTableRecord
2
*MODEL_SPACE
0
BLOCK_RECORD
5
1B
100
AcDbSymbolTableRecord
100
AcDbBlockTableRecord
2
*PAPER_SPACE
0
ENDTAB
0
ENDSEC
0
SECTION
2
BLOCKS
0
BLOCK
5
20
100
AcDbEntity
100
AcDbBlockBegin
2
*MODEL_SPACE
0
ENDBLK
5
21
100
AcDbEntity
100
AcDbBlockEnd
0
BLOCK
5
1C
100
AcDbEntity
100
AcDbBlockBegin
2
*PAPER_SPACE
0
ENDBLK
5
1D
100
AcDbEntity
100
AcDbBlockEnd
0
ENDSEC
0
SECTION
2
ENTITIES
0
CIRCLE
5
100
100
AcDbEntity
8
0
100
AcDbCircle
10
96
20
171.5
30
0
40
5.9999999999999964
210
0
220
0
230
1
0
LINE
5
101
100
AcDbEntity
8
0
100
AcDbLine
10
19.5
20
61.999999999999943
30
0
11
96.499999999999986
21
61.999999999999957
31
0
0
LINE
5
102
100
AcDbEntity
8
0
100
AcDbLine
10
96.499999999999986
20
61.999999999999957
30
0
11
96.499999999999972
21
7.9999999999999361
31
0
0
LINE
5
103
100
AcDbEntity
8
0
100
AcDbLine
10
96.499999999999972
20
7.9999999999999361
30
0
11
19.500000000000011
21
7.9999999999999378
31
0
0
LINE
5
104
100
AcDbEntity
8
0
100
AcDbLine
10
19.500000000000007
20
7.9999999999999378
30
0
11
19.5
21
61.999999999999943
31
0
0
LWPOLYLINE
5
105
100
AcDbEntity
8
0
100
AcDbPolyline
90
4
70
1
43
0.0
10
-92.999999999999986
20
127.50000000000003
10
-92.999999999999986
20
99.1666666666667
10
-90
20
99.166666666666714
10
-90
20
127.50000000000006
0
LWPOLYLINE
5
106
100
AcDbEntity
8
0
100
AcDbPolyline
90
4
70
1
43
0.0
10
-92.999999999999986
20
70.833333333333371
10
-92.999999999999986
20
42.500000000000036
10
-90
20
42.500000000000043
10
-90
20
70.833333333333385
0
LWPOLYLINE
5
107
100
AcDbEntity
8
0
100
AcDbPolyline
90
59
70
1
43
0.0
10
-97.200000000000045
20
3.0000000000000004
10
-105
20
3.0000000000000004
10
-105
20
14.166666666666625
10
-108
20
14.166666666666696
10
-108
20
42.500000000000014
10
-105
20
42.499999999999943
10
-105
20
70.8333333333333
10
-108
20
70.833333333333371
10
-108
20
99.166666666666686
10
-105
20
99.166666666666629
10
-105
20
127.49999999999997
10
-108
20
127.50000000000003
10
-108
20
155.83333333333337
10
-105
20
155.83333333333331
10
-105
20
170
10
-92.999999999999986
20
170
10
-92.999999999999986
20
155.83333333333337
10
-90
20
155.8333333333334
10
-90
20
170
10
84.094119100209326
20
170
42
-1.0647126674969143
10
108
20
171.5
10
108
20
170
10
105
20
170
10
105
20
155.83333333333331
10
108
20
155.83333333333337
10
108
20
127.50000000000003
10
105
20
127.49999999999997
10
105
20
99.166666666666629
10
108
20
99.166666666666686
10
108
20
70.833333333333371
10
105
20
70.8333333333333
10
105
20
42.499999999999943
10
108
20
42.500000000000014
10
108
20
14.166666666666694
10
105
20
14.166666666666625
10
105
20
3.0000000000000004
10
97.19999999999996
20
3.0000000000000004
10
97.199999999999974
20
0
10
75.599999999999966
20
0
10
75.599999999999966
20
3.0000000000000004
10
53.999999999999957
20
3.0000000000000004
10
53.999999999999972
20
0
10
32.399999999999963
20
0
10
32.399999999999956
20
3.0000000000000004
10
10.799999999999965
20
3.0000000000000004
10
10.799999999999963
20
0
10
-10.800000000000038
20
0
10
-10.800000000000036
20
3.0000000000000004
10
-32.400000000000041
20
3.0000000000000004
10
-32.400000000000041
20
0
10
-54.00000000000005
20
0
10
-54.00000000000005
20
3.0000000000000004
10
-75.600000000000037
20
3.0000000000000004
10
-75.600000000000037
20
0
10
-90
20
0
10
-90
20
14.166666666666714
10
-92.999999999999986
20
14.166666666666696
10
-92.999999999999986
20
0
10
-97.200000000000045
20
0
0
ENDSEC
0
SECTION
2
OBJECTS
0
DICTIONARY
5
C
100
AcDbDictionary
3
ACAD_GROUP
350
D
3
ACAD_MLINESTYLE
350
17
0
DICTIONARY
5
D
100
AcDbDictionary
0
DICTIONARY
5
1A
330
C
100
AcDbDictionary
0
DICTIONARY
5
17
100
AcDbDictionary
0
ENDSEC
0
EOF
