0
SECTION
2
HEADER
9
$INSUNITS
70
4
9
$ACADVER
1
AC1014
9
$HANDSEED
5
FFFF
0
ENDSEC
0
SECTION
2
TABLES
0
TABLE
2
VPORT
5
8
100
AcDbSymbolTable
0
ENDTAB
0
TABLE
2
LTYPE
5
5
100
AcDbSymbolTable
0
LTYPE
5
14
100
AcDbSymbolTableRecord
100
AcDbLinetypeTableRecord
2
BYBLOCK
70
0
0
LTYPE
5
15
100
AcDbSymbolTableRecord
100
AcDbLinetypeTableRecord
2
BYLAYER
70
0
0
ENDTAB
0
TABLE
2
LAYER
5
2
100
AcDbSymbolTable
70
2
0
LAYER
5
50
100
AcDbSymbolTableRecord
100
AcDbLayerTableRecord
2
0
70
0
6
CONTINUOUS
0
ENDTAB
0
TABLE
2
STYLE
5
3
100
AcDbSymbolTable
70
1
0
STYLE
5
11
100
AcDbSymbolTableRecord
100
AcDbTextStyleTableRecord
2
STANDARD
70
0
0
ENDTAB
0
TABLE
2
VIEW
5
6
100
AcDbSymbolTable
70
0
0
ENDTAB
0
TABLE
2
UCS
5
7
100
AcDbSymbolTable
70
0
0
ENDTAB
0
TABLE
2
APPID
5
9
100
AcDbSymbolTable
70
2
0
APPID
5
12
100
AcDbSymbolTableRecord
100
AcDbRegAppTableRecord
2
ACAD
70
0
0
ENDTAB
0
TABLE
2
DIMSTYLE
5
A
100
AcDbSymbolTable
70
1
0
ENDTAB
0
TABLE
2
BLOCK_RECORD
5
1
100
AcDbSymbolTable
70
1
0
BLOCK_RECORD
5
1F
100
AcDbSymbolTableRecord
100
AcDbBlockTableRecord
2
*MODEL_SPACE
0
BLOCK_RECORD
5
1B
100
AcDbSymbolTableRecord
100
AcDbBlockTableRecord
2
*PAPER_SPACE
0
ENDTAB
0
ENDSEC
0
SECTION
2
BLOCKS
0
BLOCK
5
20
100
AcDbEntity
100
AcDbBlockBegin
2
*MODEL_SPACE
0
ENDBLK
5
21
100
AcDbEntity
100
AcDbBlockEnd
0
BLOCK
5
1C
100
AcDbEntity
100
AcDbBlockBegin
2
*PAPER_SPACE
0
ENDBLK
5
1D
100
AcDbEntity
100
AcDbBlockEnd
0
ENDSEC
0
SECTION
2
ENTITIES
0
LINE
5
100
100
AcDbEntity
8
0
100
AcDbLine
10
85.499999999999986
20
119.99999999999993
30
0
11
85.499999999999986
21
109.16666666666589
31
0
0
LINE
5
101
100
AcDbEntity
8
0
100
AcDbLine
10
85.499999999999986
20
109.16666666666589
30
0
11
82.499999999999986
21
109.16666666666589
31
0
0
LINE
5
102
100
AcDbEntity
8
0
100
AcDbLine
10
82.499999999999986
20
109.16666666666589
30
0
11
82.5
21
120
31
0
0
LINE
5
103
100
AcDbEntity
8
0
100
AcDbLine
10
82.5
20
120
30
0
11
57.5
21
119.99999999999993
31
0
0
LINE
5
104
100
AcDbEntity
8
0
100
AcDbLine
10
57.5
20
119.99999999999993
30
0
11
57.5
21
109.16666666666589
31
0
0
LINE
5
105
100
AcDbEntity
8
0
100
AcDbLine
10
57.5
20
109.16666666666589
30
0
11
54.499999999999993
21
109.16666666666589
31
0
0
LINE
5
106
100
AcDbEntity
8
0
100
AcDbLine
10
54.499999999999993
20
109.16666666666589
30
0
11
54.499999999999993
21
120.00000000000001
31
0
0
LINE
5
107
100
AcDbEntity
8
0
100
AcDbLine
10
54.499999999999993
20
120.00000000000001
30
0
11
29.499999999999996
21
119.99999999999993
31
0
0
LINE
5
108
100
AcDbEntity
8
0
100
AcDbLine
10
29.499999999999996
20
119.99999999999993
30
0
11
29.499999999999996
21
109.16666666666589
31
0
0
LINE
5
109
100
AcDbEntity
8
0
100
AcDbLine
10
29.499999999999996
20
109.16666666666589
30
0
11
26.5
21
109.16666666666589
31
0
0
LINE
5
110
100
AcDbEntity
8
0
100
AcDbLine
10
26.5
20
109.16666666666589
30
0
11
26.500000000000004
21
120.00000000000001
31
0
0
LINE
5
111
100
AcDbEntity
8
0
100
AcDbLine
10
26.500000000000004
20
120.00000000000001
30
0
11
1.4999999999999991
21
119.99999999999993
31
0
0
LINE
5
112
100
AcDbEntity
8
0
100
AcDbLine
10
1.4999999999999991
20
119.99999999999993
30
0
11
1.5000000000000002
21
109.16666666666589
31
0
0
LINE
5
113
100
AcDbEntity
8
0
100
AcDbLine
10
1.5000000000000002
20
109.16666666666589
30
0
11
-1.5000000000000002
21
109.16666666666589
31
0
0
LINE
5
114
100
AcDbEntity
8
0
100
AcDbLine
10
-1.5000000000000002
20
109.16666666666589
30
0
11
-1.5000000000000036
21
120.00000000000001
31
0
0
LINE
5
115
100
AcDbEntity
8
0
100
AcDbLine
10
-1.5000000000000036
20
120.00000000000001
30
0
11
-26.5
21
119.99999999999993
31
0
0
LINE
5
116
100
AcDbEntity
8
0
100
AcDbLine
10
-26.5
20
119.99999999999993
30
0
11
-26.5
21
109.16666666666589
31
0
0
LINE
5
117
100
AcDbEntity
8
0
100
AcDbLine
10
-26.5
20
109.16666666666589
30
0
11
-29.499999999999996
21
109.16666666666589
31
0
0
LINE
5
118
100
AcDbEntity
8
0
100
AcDbLine
10
-29.499999999999996
20
109.16666666666589
30
0
11
-29.499999999999993
21
120.00000000000001
31
0
0
LINE
5
119
100
AcDbEntity
8
0
100
AcDbLine
10
-29.499999999999993
20
120.00000000000001
30
0
11
-54.499999999999993
21
119.99999999999993
31
0
0
LINE
5
120
100
AcDbEntity
8
0
100
AcDbLine
10
-54.499999999999993
20
119.99999999999993
30
0
11
-54.499999999999993
21
109.16666666666589
31
0
0
LINE
5
121
100
AcDbEntity
8
0
100
AcDbLine
10
-54.499999999999993
20
109.16666666666589
30
0
11
-57.5
21
109.16666666666589
31
0
0
LINE
5
122
100
AcDbEntity
8
0
100
AcDbLine
10
-57.5
20
109.16666666666589
30
0
11
-57.5
21
119.99999999999993
31
0
0
LINE
5
123
100
AcDbEntity
8
0
100
AcDbLine
10
-57.5
20
119.99999999999993
30
0
11
-82.499999999999986
21
119.99999999999993
31
0
0
LINE
5
124
100
AcDbEntity
8
0
100
AcDbLine
10
-82.499999999999986
20
119.99999999999993
30
0
11
-82.499999999999986
21
109.16666666666589
31
0
0
LINE
5
125
100
AcDbEntity
8
0
100
AcDbLine
10
-82.499999999999986
20
109.16666666666589
30
0
11
-85.499999999999986
21
109.16666666666589
31
0
0
LINE
5
126
100
AcDbEntity
8
0
100
AcDbLine
10
-85.499999999999986
20
109.16666666666589
30
0
11
-85.499999999999986
21
120.00000000000003
31
0
0
LINE
5
127
100
AcDbEntity
8
0
100
AcDbLine
10
-85.499999999999986
20
120.00000000000003
30
0
11
-121.00000000000001
21
120.00000000000003
31
0
0
LINE
5
128
100
AcDbEntity
8
0
100
AcDbLine
10
-121.00000000000001
20
120.00000000000003
30
0
11
-121.00000000000001
21
70
31
0
0
LINE
5
129
100
AcDbEntity
8
0
100
AcDbLine
10
-121.00000000000001
20
70
30
0
11
-116.07142857142858
21
70
31
0
0
LINE
5
130
100
AcDbEntity
8
0
100
AcDbLine
10
-116.07142857142858
20
70
30
0
11
-116.07142857142856
21
73
31
0
0
LINE
5
131
100
AcDbEntity
8
0
100
AcDbLine
10
-116.07142857142856
20
73
30
0
11
-98.214285714285708
21
73
31
0
0
LINE
5
132
100
AcDbEntity
8
0
100
AcDbLine
10
-98.214285714285708
20
73
30
0
11
-98.214285714285708
21
70
31
0
0
LINE
5
133
100
AcDbEntity
8
0
100
AcDbLine
10
-98.214285714285708
20
70
30
0
11
-85.5
21
70
31
0
0
LINE
5
134
100
AcDbEntity
8
0
100
AcDbLine
10
-85.5
20
70
30
0
11
-85.499999999999986
21
80.833333333332561
31
0
0
LINE
5
135
100
AcDbEntity
8
0
100
AcDbLine
10
-85.499999999999986
20
80.833333333332561
30
0
11
-82.499999999999986
21
80.833333333332561
31
0
0
LINE
5
136
100
AcDbEntity
8
0
100
AcDbLine
10
-82.499999999999986
20
80.833333333332561
30
0
11
-82.499999999999986
21
70
31
0
0
LINE
5
137
100
AcDbEntity
8
0
100
AcDbLine
10
-82.499999999999986
20
70
30
0
11
-80.357142857142847
21
70
31
0
0
LINE
5
138
100
AcDbEntity
8
0
100
AcDbLine
10
-80.357142857142847
20
70
30
0
11
-80.357142857142847
21
73
31
0
0
LINE
5
139
100
AcDbEntity
8
0
100
AcDbLine
10
-80.357142857142847
20
73
30
0
11
-62.499999999999993
21
73
31
0
0
LINE
5
140
100
AcDbEntity
8
0
100
AcDbLine
10
-57.5
20
80.833333333332561
30
0
11
-54.499999999999993
21
80.833333333332561
31
0
0
LINE
5
141
100
AcDbEntity
8
0
100
AcDbLine
10
-54.499999999999993
20
80.833333333332561
30
0
11
-54.499999999999993
21
70
31
0
0
LINE
5
142
100
AcDbEntity
8
0
100
AcDbLine
10
-62.500000000000085
20
70
30
0
11
-57.5
21
70
31
0
0
LINE
5
143
100
AcDbEntity
8
0
100
AcDbLine
10
-44.642857142857039
20
70
30
0
11
-44.642857142857125
21
73
31
0
0
LINE
5
144
100
AcDbEntity
8
0
100
AcDbLine
10
-44.642857142857125
20
73
30
0
11
-29.499999999999996
21
73
31
0
0
LINE
5
145
100
AcDbEntity
8
0
100
AcDbLine
10
-29.499999999999996
20
73
30
0
11
-29.499999999999996
21
80.833333333332561
31
0
0
LINE
5
146
100
AcDbEntity
8
0
100
AcDbLine
10
-29.499999999999996
20
80.833333333332561
30
0
11
-26.5
21
80.833333333332561
31
0
0
LINE
5
147
100
AcDbEntity
8
0
100
AcDbLine
10
-26.5
20
80.833333333332561
30
0
11
-26.5
21
70
31
0
0
LINE
5
148
100
AcDbEntity
8
0
100
AcDbLine
10
-26.5
20
70
30
0
11
-8.9285714285714199
21
70
31
0
0
LINE
5
149
100
AcDbEntity
8
0
100
AcDbLine
10
-8.9285714285714199
20
70
30
0
11
-8.9285714285714146
21
73
31
0
0
LINE
5
150
100
AcDbEntity
8
0
100
AcDbLine
10
-8.9285714285714146
20
73
30
0
11
-1.4999999999999991
21
73
31
0
0
LINE
5
151
100
AcDbEntity
8
0
100
AcDbLine
10
-1.4999999999999991
20
73
30
0
11
-1.5000000000000002
21
80.833333333332561
31
0
0
LINE
5
152
100
AcDbEntity
8
0
100
AcDbLine
10
-1.5000000000000002
20
80.833333333332561
30
0
11
1.5000000000000002
21
80.833333333332561
31
0
0
LINE
5
153
100
AcDbEntity
8
0
100
AcDbLine
10
1.5000000000000002
20
80.833333333332561
30
0
11
1.5000000000000002
21
73
31
0
0
LINE
5
154
100
AcDbEntity
8
0
100
AcDbLine
10
1.5000000000000002
20
73
30
0
11
8.9285714285714413
21
73
31
0
0
LINE
5
155
100
AcDbEntity
8
0
100
AcDbLine
10
8.9285714285714413
20
73
30
0
11
8.9285714285714413
21
70
31
0
0
LINE
5
156
100
AcDbEntity
8
0
100
AcDbLine
10
8.9285714285714413
20
70
30
0
11
26.5
21
70
31
0
0
LINE
5
157
100
AcDbEntity
8
0
100
AcDbLine
10
26.5
20
80.833333333332561
30
0
11
29.499999999999996
21
80.833333333332561
31
0
0
LINE
5
158
100
AcDbEntity
8
0
100
AcDbLine
10
29.499999999999996
20
80.833333333332561
30
0
11
29.499999999999996
21
73
31
0
0
LINE
5
159
100
AcDbEntity
8
0
100
AcDbLine
10
29.499999999999996
20
73
30
0
11
44.642857142857146
21
73
31
0
0
LINE
5
160
100
AcDbEntity
8
0
100
AcDbLine
10
44.642857142857146
20
73
30
0
11
44.642857142857153
21
70
31
0
0
LINE
5
161
100
AcDbEntity
8
0
100
AcDbLine
10
44.642857142857153
20
70
30
0
11
54.499999999999993
21
70
31
0
0
LINE
5
162
100
AcDbEntity
8
0
100
AcDbLine
10
54.499999999999993
20
70
30
0
11
54.499999999999993
21
80.833333333332561
31
0
0
LINE
5
163
100
AcDbEntity
8
0
100
AcDbLine
10
54.499999999999993
20
80.833333333332561
30
0
11
57.5
21
80.833333333332561
31
0
0
LINE
5
164
100
AcDbEntity
8
0
100
AcDbLine
10
57.5
20
80.833333333332561
30
0
11
57.5
21
70
31
0
0
LINE
5
165
100
AcDbEntity
8
0
100
AcDbLine
10
62.500000000000028
20
73
30
0
11
80.35714285714289
21
73
31
0
0
LINE
5
166
100
AcDbEntity
8
0
100
AcDbLine
10
80.35714285714289
20
73
30
0
11
80.35714285714289
21
70
31
0
0
LINE
5
167
100
AcDbEntity
8
0
100
AcDbLine
10
80.35714285714289
20
70
30
0
11
82.499999999999986
21
70
31
0
0
LINE
5
168
100
AcDbEntity
8
0
100
AcDbLine
10
82.499999999999986
20
70
30
0
11
82.499999999999986
21
80.833333333332561
31
0
0
LINE
5
169
100
AcDbEntity
8
0
100
AcDbLine
10
82.499999999999986
20
80.833333333332561
30
0
11
85.499999999999986
21
80.833333333332561
31
0
0
LINE
5
170
100
AcDbEntity
8
0
100
AcDbLine
10
85.499999999999986
20
80.833333333332561
30
0
11
85.499999999999986
21
70
31
0
0
LINE
5
171
100
AcDbEntity
8
0
100
AcDbLine
10
85.499999999999986
20
70
30
0
11
98.214285714285722
21
70
31
0
0
LINE
5
172
100
AcDbEntity
8
0
100
AcDbLine
10
98.214285714285722
20
70
30
0
11
98.214285714285765
21
73
31
0
0
LINE
5
173
100
AcDbEntity
8
0
100
AcDbLine
10
98.214285714285765
20
73
30
0
11
116.07142857142861
21
73
31
0
0
LINE
5
174
100
AcDbEntity
8
0
100
AcDbLine
10
116.07142857142861
20
73
30
0
11
116.07142857142858
21
70
31
0
0
LINE
5
175
100
AcDbEntity
8
0
100
AcDbLine
10
116.07142857142858
20
70
30
0
11
120.99999999999997
21
70
31
0
0
LINE
5
176
100
AcDbEntity
8
0
100
AcDbLine
10
120.99999999999997
20
70
30
0
11
120.99999999999997
21
120
31
0
0
LINE
5
177
100
AcDbEntity
8
0
100
AcDbLine
10
120.99999999999997
20
120
30
0
11
85.499999999999986
21
119.99999999999993
31
0
0
LINE
5
178
100
AcDbEntity
8
0
100
AcDbLine
10
-62.499999999999993
20
73
30
0
11
-62.500000000000085
21
70
31
0
0
LINE
5
179
100
AcDbEntity
8
0
100
AcDbLine
10
-57.5
20
70
30
0
11
-57.5
21
80.833333333332561
31
0
0
LINE
5
180
100
AcDbEntity
8
0
100
AcDbLine
10
57.5
20
70
30
0
11
62.499999999999922
21
70
31
0
0
LINE
5
181
100
AcDbEntity
8
0
100
AcDbLine
10
62.499999999999922
20
70
30
0
11
62.500000000000028
21
73
31
0
0
LINE
5
182
100
AcDbEntity
8
0
100
AcDbLine
10
26.5
20
70
30
0
11
26.5
21
80.833333333332561
31
0
0
LINE
5
183
100
AcDbEntity
8
0
100
AcDbLine
10
-54.499999999999993
20
70
30
0
11
-44.642857142857039
21
70
31
0
0
ENDSEC
0
SECTION
2
OBJECTS
0
DICTIONARY
5
C
100
AcDbDictionary
3
ACAD_GROUP
350
D
3
ACAD_MLINESTYLE
350
17
0
DICTIONARY
5
D
100
AcDbDictionary
0
DICTIONARY
5
1A
330
C
100
AcDbDictionary
0
DICTIONARY
5
17
100
AcDbDictionary
0
ENDSEC
0
EOF
