0
SECTION
2
HEADER
9
$INSUNITS
70
4
9
$ACADVER
1
AC1014
9
$HANDSEED
5
FFFF
0
ENDSEC
0
SECTION
2
TABLES
0
TABLE
2
VPORT
5
8
100
AcDbSymbolTable
0
ENDTAB
0
TABLE
2
LTYPE
5
5
100
AcDbSymbolTable
0
LTYPE
5
14
100
AcDbSymbolTableRecord
100
AcDbLinetypeTableRecord
2
BYBLOCK
70
0
0
LTYPE
5
15
100
AcDbSymbolTableRecord
100
AcDbLinetypeTableRecord
2
BYLAYER
70
0
0
ENDTAB
0
TABLE
2
LAYER
5
2
100
AcDbSymbolTable
70
2
0
LAYER
5
50
100
AcDbSymbolTableRecord
100
AcDbLayerTableRecord
2
0
70
0
6
CONTINUOUS
0
ENDTAB
0
TABLE
2
STYLE
5
3
100
AcDbSymbolTable
70
1
0
STYLE
5
11
100
AcDbSymbolTableRecord
100
AcDbTextStyleTableRecord
2
STANDARD
70
0
0
ENDTAB
0
TABLE
2
VIEW
5
6
100
AcDbSymbolTable
70
0
0
ENDTAB
0
TABLE
2
UCS
5
7
100
AcDbSymbolTable
70
0
0
ENDTAB
0
TABLE
2
APPID
5
9
100
AcDbSymbolTable
70
2
0
APPID
5
12
100
AcDbSymbolTableRecord
100
AcDbRegAppTableRecord
2
ACAD
70
0
0
ENDTAB
0
TABLE
2
DIMSTYLE
5
A
100
AcDbSymbolTable
70
1
0
ENDTAB
0
TABLE
2
BLOCK_RECORD
5
1
100
AcDbSymbolTable
70
1
0
BLOCK_RECORD
5
1F
100
AcDbSymbolTableRecord
100
AcDbBlockTableRecord
2
*MODEL_SPACE
0
BLOCK_RECORD
5
1B
100
AcDbSymbolTableRecord
100
AcDbBlockTableRecord
2
*PAPER_SPACE
0
ENDTAB
0
ENDSEC
0
SECTION
2
BLOCKS
0
BLOCK
5
20
100
AcDbEntity
100
AcDbBlockBegin
2
*MODEL_SPACE
0
ENDBLK
5
21
100
AcDbEntity
100
AcDbBlockEnd
0
BLOCK
5
1C
100
AcDbEntity
100
AcDbBlockBegin
2
*PAPER_SPACE
0
ENDBLK
5
1D
100
AcDbEntity
100
AcDbBlockEnd
0
ENDSEC
0
SECTION
2
ENTITIES
0
LINE
5
100
100
AcDbEntity
8
0
100
AcDbLine
10
36.499999999999993
20
40.833333333333293
30
0
11
33.5
21
40.833333333333293
31
0
0
LINE
5
101
100
AcDbEntity
8
0
100
AcDbLine
10
33.5
20
29.166666666666636
30
0
11
36.499999999999993
21
29.166666666666636
31
0
0
LINE
5
102
100
AcDbEntity
8
0
100
AcDbLine
10
26.785714285714285
20
3.0000000000000018
30
0
11
33.5
21
3.0000000000000018
31
0
0
LINE
5
103
100
AcDbEntity
8
0
100
AcDbLine
10
44.642857142857146
20
3.0000000000000018
30
0
11
44.642857142857146
21
0
31
0
0
LINE
5
104
100
AcDbEntity
8
0
100
AcDbLine
10
44.642857142857146
20
0
30
0
11
62.500000000000007
21
0
31
0
0
LINE
5
105
100
AcDbEntity
8
0
100
AcDbLine
10
62.500000000000007
20
0
30
0
11
62.5
21
3.0000000000000022
31
0
0
ARC
5
106
100
AcDbEntity
8
0
100
AcDbCircle
10
71.428571428571431
20
2.9999999999999964
30
0
40
8.9285714285714324
210
0
220
-0
230
1
100
AcDbArc
50
0
51
180
0
LINE
5
107
100
AcDbEntity
8
0
100
AcDbLine
10
80.357142857142861
20
3.0000000000000027
30
0
11
80.357142857142861
21
0
31
0
0
LINE
5
108
100
AcDbEntity
8
0
100
AcDbLine
10
80.357142857142861
20
0
30
0
11
98.214285714285722
21
0
31
0
0
LINE
5
109
100
AcDbEntity
8
0
100
AcDbLine
10
98.214285714285722
20
0
30
0
11
98.214285714285722
21
3.0000000000000018
31
0
0
LINE
5
110
100
AcDbEntity
8
0
100
AcDbLine
10
98.214285714285722
20
3.0000000000000018
30
0
11
116.07142857142858
21
3.0000000000000018
31
0
0
LINE
5
111
100
AcDbEntity
8
0
100
AcDbLine
10
116.07142857142858
20
3.0000000000000018
30
0
11
116.07142857142858
21
0
31
0
0
LINE
5
112
100
AcDbEntity
8
0
100
AcDbLine
10
116.07142857142858
20
0
30
0
11
125
21
0
31
0
0
LINE
5
113
100
AcDbEntity
8
0
100
AcDbLine
10
125
20
0
30
0
11
125
21
14.166666666666625
31
0
0
LINE
5
114
100
AcDbEntity
8
0
100
AcDbLine
10
125
20
14.166666666666625
30
0
11
122.00000000000001
21
14.166666666666792
31
0
0
LINE
5
115
100
AcDbEntity
8
0
100
AcDbLine
10
122.00000000000001
20
14.166666666666792
30
0
11
122.00000000000001
21
42.500000000000156
31
0
0
LINE
5
116
100
AcDbEntity
8
0
100
AcDbLine
10
122.00000000000001
20
42.500000000000156
30
0
11
125
21
42.499999999999986
31
0
0
LINE
5
117
100
AcDbEntity
8
0
100
AcDbLine
10
125
20
42.499999999999986
30
0
11
125
21
70.8333333333333
31
0
0
LINE
5
118
100
AcDbEntity
8
0
100
AcDbLine
10
125
20
70.8333333333333
30
0
11
122.00000000000001
21
70.833333333333456
31
0
0
LINE
5
119
100
AcDbEntity
8
0
100
AcDbLine
10
122.00000000000001
20
70.833333333333456
30
0
11
122.00000000000001
21
99.166666666666828
31
0
0
LINE
5
120
100
AcDbEntity
8
0
100
AcDbLine
10
122.00000000000001
20
99.166666666666828
30
0
11
125
21
99.166666666666643
31
0
0
LINE
5
121
100
AcDbEntity
8
0
100
AcDbLine
10
125
20
99.166666666666643
30
0
11
125
21
127.49999999999997
31
0
0
LINE
5
122
100
AcDbEntity
8
0
100
AcDbLine
10
125
20
127.49999999999997
30
0
11
122.00000000000001
21
127.50000000000013
31
0
0
LINE
5
123
100
AcDbEntity
8
0
100
AcDbLine
10
122.00000000000001
20
127.50000000000013
30
0
11
122.00000000000001
21
155.83333333333348
31
0
0
LINE
5
124
100
AcDbEntity
8
0
100
AcDbLine
10
122.00000000000001
20
155.83333333333348
30
0
11
125
21
155.83333333333331
31
0
0
LINE
5
125
100
AcDbEntity
8
0
100
AcDbLine
10
125
20
155.83333333333331
30
0
11
125
21
167
31
0
0
LINE
5
126
100
AcDbEntity
8
0
100
AcDbLine
10
-125
20
167
30
0
11
-125
21
155.83333333333331
31
0
0
LINE
5
127
100
AcDbEntity
8
0
100
AcDbLine
10
-125
20
155.83333333333331
30
0
11
-122.00000000000001
21
155.83333333333348
31
0
0
LINE
5
128
100
AcDbEntity
8
0
100
AcDbLine
10
-122.00000000000001
20
155.83333333333348
30
0
11
-122.00000000000001
21
127.50000000000014
31
0
0
LINE
5
129
100
AcDbEntity
8
0
100
AcDbLine
10
-122.00000000000001
20
127.50000000000014
30
0
11
-125
21
127.49999999999997
31
0
0
LINE
5
130
100
AcDbEntity
8
0
100
AcDbLine
10
-125
20
127.49999999999997
30
0
11
-125
21
99.166666666666643
31
0
0
LINE
5
131
100
AcDbEntity
8
0
100
AcDbLine
10
-125
20
99.166666666666643
30
0
11
-122.00000000000001
21
99.166666666666799
31
0
0
LINE
5
132
100
AcDbEntity
8
0
100
AcDbLine
10
-122.00000000000001
20
99.166666666666799
30
0
11
-122.00000000000001
21
70.833333333333485
31
0
0
LINE
5
133
100
AcDbEntity
8
0
100
AcDbLine
10
-122.00000000000001
20
70.833333333333485
30
0
11
-125
21
70.833333333333314
31
0
0
LINE
5
134
100
AcDbEntity
8
0
100
AcDbLine
10
-125
20
70.833333333333314
30
0
11
-125
21
42.499999999999986
31
0
0
LINE
5
135
100
AcDbEntity
8
0
100
AcDbLine
10
-125
20
42.499999999999986
30
0
11
-122.00000000000001
21
42.500000000000135
31
0
0
LINE
5
136
100
AcDbEntity
8
0
100
AcDbLine
10
-122.00000000000001
20
42.500000000000135
30
0
11
-122.00000000000001
21
14.166666666666817
31
0
0
LINE
5
137
100
AcDbEntity
8
0
100
AcDbLine
10
-122.00000000000001
20
14.166666666666817
30
0
11
-125
21
14.166666666666641
31
0
0
LINE
5
138
100
AcDbEntity
8
0
100
AcDbLine
10
-125
20
14.166666666666641
30
0
11
-125
21
0
31
0
0
LINE
5
139
100
AcDbEntity
8
0
100
AcDbLine
10
-125
20
0
30
0
11
-116.07142857142858
21
0
31
0
0
LINE
5
140
100
AcDbEntity
8
0
100
AcDbLine
10
-116.07142857142858
20
0
30
0
11
-116.07142857142858
21
3.0000000000000018
31
0
0
LINE
5
141
100
AcDbEntity
8
0
100
AcDbLine
10
-116.07142857142858
20
3.0000000000000018
30
0
11
-98.214285714285722
21
3.0000000000000018
31
0
0
LINE
5
142
100
AcDbEntity
8
0
100
AcDbLine
10
-98.214285714285722
20
3.0000000000000018
30
0
11
-98.214285714285722
21
0
31
0
0
LINE
5
143
100
AcDbEntity
8
0
100
AcDbLine
10
-98.214285714285722
20
0
30
0
11
-80.357142857142861
21
0
31
0
0
LINE
5
144
100
AcDbEntity
8
0
100
AcDbLine
10
-80.357142857142861
20
0
30
0
11
-80.357142857142847
21
2.9999999999945026
31
0
0
ARC
5
145
100
AcDbEntity
8
0
100
AcDbCircle
10
-71.428571428571416
20
2.9999999999945022
30
0
40
8.9285714285714235
210
0
220
-0
230
1
100
AcDbArc
50
0
51
180
0
LINE
5
146
100
AcDbEntity
8
0
100
AcDbLine
10
-62.5
20
2.9999999999945031
30
0
11
-62.5
21
0
31
0
0
LINE
5
147
100
AcDbEntity
8
0
100
AcDbLine
10
-62.5
20
0
30
0
11
-44.642857142857146
21
0
31
0
0
LINE
5
148
100
AcDbEntity
8
0
100
AcDbLine
10
-44.642857142857146
20
0
30
0
11
-44.642857142857153
21
3.0000000000000018
31
0
0
LINE
5
149
100
AcDbEntity
8
0
100
AcDbLine
10
-44.642857142857153
20
3.0000000000000018
30
0
11
-36.5
21
3.0000000000000018
31
0
0
LINE
5
150
100
AcDbEntity
8
0
100
AcDbLine
10
-26.785714285714288
20
3.0000000000000018
30
0
11
-26.785714285714285
21
0
31
0
0
LINE
5
151
100
AcDbEntity
8
0
100
AcDbLine
10
-26.785714285714285
20
0
30
0
11
-8.928571428571427
21
0
31
0
0
LINE
5
152
100
AcDbEntity
8
0
100
AcDbLine
10
-8.928571428571427
20
0
30
0
11
-8.9285714285714288
21
3.0000000000000027
31
0
0
ARC
5
153
100
AcDbEntity
8
0
100
AcDbCircle
10
-5.5511151231257827e-16
20
3.0000000000000022
30
0
40
8.928571428571427
210
-0
220
0
230
1
100
AcDbArc
50
0
51
180
0
LINE
5
154
100
AcDbEntity
8
0
100
AcDbLine
10
8.928571428571427
20
3.0000000000000031
30
0
11
8.9285714285714306
21
0
31
0
0
LINE
5
155
100
AcDbEntity
8
0
100
AcDbLine
10
8.9285714285714306
20
0
30
0
11
26.785714285714288
21
0
31
0
0
LINE
5
156
100
AcDbEntity
8
0
100
AcDbLine
10
26.785714285714288
20
0
30
0
11
26.785714285714285
21
3.0000000000000018
31
0
0
LINE
5
157
100
AcDbEntity
8
0
100
AcDbLine
10
-36.5
20
29.166666666666636
30
0
11
-33.5
21
29.166666666666636
31
0
0
LWPOLYLINE
5
158
100
AcDbEntity
8
0
100
AcDbPolyline
90
4
70
1
43
0.0
10
-36.5
20
40.833333333333293
10
-33.5
20
40.833333333333293
10
-33.5
20
70
10
-36.5
20
70
0
CIRCLE
5
159
100
AcDbEntity
8
0
100
AcDbCircle
10
-70
20
127.50000000000003
30
0
40
2.5
210
0
220
0
230
1
0
CIRCLE
5
160
100
AcDbEntity
8
0
100
AcDbCircle
10
14.000000000000004
20
127.50000000000003
30
0
40
2.5
210
0
220
0
230
1
0
CIRCLE
5
161
100
AcDbEntity
8
0
100
AcDbCircle
10
-13.999999999999986
20
127.50000000000003
30
0
40
2.5
210
0
220
0
230
1
0
CIRCLE
5
162
100
AcDbEntity
8
0
100
AcDbCircle
10
42
20
127.50000000000003
30
0
40
2.5
210
0
220
0
230
1
0
CIRCLE
5
163
100
AcDbEntity
8
0
100
AcDbCircle
10
-41.999999999999993
20
127.50000000000003
30
0
40
2.5
210
0
220
0
230
1
0
CIRCLE
5
164
100
AcDbEntity
8
0
100
AcDbCircle
10
70
20
127.50000000000003
30
0
40
2.5
210
0
220
0
230
1
0
LINE
5
165
100
AcDbEntity
8
0
100
AcDbLine
10
125
20
167
30
0
11
-125
21
167
31
0
0
LINE
5
166
100
AcDbEntity
8
0
100
AcDbLine
10
36.499999999999993
20
70
30
0
11
36.499999999999993
21
40.833333333333293
31
0
0
LINE
5
167
100
AcDbEntity
8
0
100
AcDbLine
10
33.5
20
3.0000000000000018
30
0
11
33.5
21
29.166666666666636
31
0
0
LINE
5
168
100
AcDbEntity
8
0
100
AcDbLine
10
-33.5
20
29.166666666666636
30
0
11
-33.5
21
3.0000000000000027
31
0
0
LINE
5
169
100
AcDbEntity
8
0
100
AcDbLine
10
-36.5
20
3.0000000000000018
30
0
11
-36.5
21
29.166666666666636
31
0
0
LINE
5
170
100
AcDbEntity
8
0
100
AcDbLine
10
36.499999999999993
20
29.166666666666636
30
0
11
36.499999999999993
21
3.0000000000000027
31
0
0
LINE
5
171
100
AcDbEntity
8
0
100
AcDbLine
10
-33.5
20
3.0000000000000027
30
0
11
-26.785714285714288
21
3.0000000000000018
31
0
0
LINE
5
172
100
AcDbEntity
8
0
100
AcDbLine
10
36.499999999999993
20
3.0000000000000027
30
0
11
44.642857142857146
21
3.0000000000000018
31
0
0
LINE
5
173
100
AcDbEntity
8
0
100
AcDbLine
10
33.5
20
40.833333333333293
30
0
11
33.5
21
70
31
0
0
LINE
5
174
100
AcDbEntity
8
0
100
AcDbLine
10
33.5
20
70
30
0
11
36.499999999999993
21
70
31
0
0
ENDSEC
0
SECTION
2
OBJECTS
0
DICTIONARY
5
C
100
AcDbDictionary
3
ACAD_GROUP
350
D
3
ACAD_MLINESTYLE
350
17
0
DICTIONARY
5
D
100
AcDbDictionary
0
DICTIONARY
5
1A
330
C
100
AcDbDictionary
0
DICTIONARY
5
17
100
AcDbDictionary
0
ENDSEC
0
EOF
