0
SECTION
2
HEADER
9
$INSUNITS
70
4
9
$ACADVER
1
AC1014
9
$HANDSEED
5
FFFF
0
ENDSEC
0
SECTION
2
TABLES
0
TABLE
2
VPORT
5
8
100
AcDbSymbolTable
0
ENDTAB
0
TABLE
2
LTYPE
5
5
100
AcDbSymbolTable
0
LTYPE
5
14
100
AcDbSymbolTableRecord
100
AcDbLinetypeTableRecord
2
BYBLOCK
70
0
0
LTYPE
5
15
100
AcDbSymbolTableRecord
100
AcDbLinetypeTableRecord
2
BYLAYER
70
0
0
ENDTAB
0
TABLE
2
LAYER
5
2
100
AcDbSymbolTable
70
2
0
LAYER
5
50
100
AcDbSymbolTableRecord
100
AcDbLayerTableRecord
2
0
70
0
6
CONTINUOUS
0
ENDTAB
0
TABLE
2
STYLE
5
3
100
AcDbSymbolTable
70
1
0
STYLE
5
11
100
AcDbSymbolTableRecord
100
AcDbTextStyleTableRecord
2
STANDARD
70
0
0
ENDTAB
0
TABLE
2
VIEW
5
6
100
AcDbSymbolTable
70
0
0
ENDTAB
0
TABLE
2
UCS
5
7
100
AcDbSymbolTable
70
0
0
ENDTAB
0
TABLE
2
APPID
5
9
100
AcDbSymbolTable
70
2
0
APPID
5
12
100
AcDbSymbolTableRecord
100
AcDbRegAppTableRecord
2
ACAD
70
0
0
ENDTAB
0
TABLE
2
DIMSTYLE
5
A
100
AcDbSymbolTable
70
1
0
ENDTAB
0
TABLE
2
BLOCK_RECORD
5
1
100
AcDbSymbolTable
70
1
0
BLOCK_RECORD
5
1F
100
AcDbSymbolTableRecord
100
AcDbBlockTableRecord
2
*MODEL_SPACE
0
BLOCK_RECORD
5
1B
100
AcDbSymbolTableRecord
100
AcDbBlockTableRecord
2
*PAPER_SPACE
0
ENDTAB
0
ENDSEC
0
SECTION
2
BLOCKS
0
BLOCK
5
20
100
AcDbEntity
100
AcDbBlockBegin
2
*MODEL_SPACE
0
ENDBLK
5
21
100
AcDbEntity
100
AcDbBlockEnd
0
BLOCK
5
1C
100
AcDbEntity
100
AcDbBlockBegin
2
*PAPER_SPACE
0
ENDBLK
5
1D
100
AcDbEntity
100
AcDbBlockEnd
0
ENDSEC
0
SECTION
2
ENTITIES
0
LINE
5
100
100
AcDbEntity
8
0
100
AcDbLine
10
-32
20
5.8333333333333739
30
0
11
-32
21
0
31
0
0
LWPOLYLINE
5
101
100
AcDbEntity
8
0
100
AcDbPolyline
90
4
70
1
43
0.0
10
-38
20
64.166666666666714
10
-32
20
64.166666666666714
10
-32
20
70
10
-38
20
70
0
LINE
5
102
100
AcDbEntity
8
0
100
AcDbLine
10
-38
20
0
30
0
11
-38
21
5.8333333333333739
31
0
0
LWPOLYLINE
5
103
100
AcDbEntity
8
0
100
AcDbPolyline
90
4
70
1
43
0.0
10
-38
20
40.833333333333385
10
-32
20
40.833333333333385
10
-32
20
52.500000000000043
10
-38
20
52.500000000000043
0
LWPOLYLINE
5
104
100
AcDbEntity
8
0
100
AcDbPolyline
90
4
70
1
43
0.0
10
-38
20
17.500000000000053
10
-32
20
17.500000000000053
10
-32
20
29.16666666666671
10
-38
20
29.16666666666671
0
LINE
5
105
100
AcDbEntity
8
0
100
AcDbLine
10
118.99999999999999
20
151.99999999999991
30
0
11
-118.99999999999999
21
151.99999999999991
31
0
0
LINE
5
106
100
AcDbEntity
8
0
100
AcDbLine
10
-118.99999999999999
20
151.99999999999991
30
0
11
-118.99999999999999
21
127.49999999999997
31
0
0
LINE
5
107
100
AcDbEntity
8
0
100
AcDbLine
10
-118.99999999999999
20
127.49999999999997
30
0
11
-125
21
127.49999999999999
31
0
0
LINE
5
108
100
AcDbEntity
8
0
100
AcDbLine
10
-125
20
127.49999999999999
30
0
11
-125
21
99.166666666666643
31
0
0
LINE
5
109
100
AcDbEntity
8
0
100
AcDbLine
10
-125
20
99.166666666666643
30
0
11
-118.99999999999999
21
99.166666666666629
31
0
0
LINE
5
110
100
AcDbEntity
8
0
100
AcDbLine
10
-118.99999999999999
20
99.166666666666629
30
0
11
-118.99999999999999
21
70.8333333333333
31
0
0
LINE
5
111
100
AcDbEntity
8
0
100
AcDbLine
10
-118.99999999999999
20
70.8333333333333
30
0
11
-125
21
70.8333333333333
31
0
0
LINE
5
112
100
AcDbEntity
8
0
100
AcDbLine
10
-125
20
70.8333333333333
30
0
11
-125
21
42.499999999999964
31
0
0
LINE
5
113
100
AcDbEntity
8
0
100
AcDbLine
10
-125
20
42.499999999999964
30
0
11
-118.99999999999999
21
42.499999999999943
31
0
0
LINE
5
114
100
AcDbEntity
8
0
100
AcDbLine
10
-118.99999999999999
20
42.499999999999943
30
0
11
-118.99999999999999
21
14.166666666666625
31
0
0
LINE
5
115
100
AcDbEntity
8
0
100
AcDbLine
10
-118.99999999999999
20
14.166666666666625
30
0
11
-125
21
14.166666666666636
31
0
0
LINE
5
116
100
AcDbEntity
8
0
100
AcDbLine
10
-125
20
14.166666666666636
30
0
11
-125
21
6.0000000000000009
31
0
0
LINE
5
117
100
AcDbEntity
8
0
100
AcDbLine
10
-125
20
6.0000000000000009
30
0
11
-116.0714285714286
21
6.0000000000000009
31
0
0
LINE
5
118
100
AcDbEntity
8
0
100
AcDbLine
10
-116.0714285714286
20
6.0000000000000009
30
0
11
-116.0714285714286
21
0
31
0
0
LINE
5
119
100
AcDbEntity
8
0
100
AcDbLine
10
-116.0714285714286
20
0
30
0
11
-98.214285714285722
21
0
31
0
0
LINE
5
120
100
AcDbEntity
8
0
100
AcDbLine
10
-98.214285714285722
20
0
30
0
11
-98.214285714285722
21
6.0000000000000009
31
0
0
LINE
5
121
100
AcDbEntity
8
0
100
AcDbLine
10
-98.214285714285722
20
6.0000000000000009
30
0
11
-80.357142857142861
21
6.0000000000000009
31
0
0
LINE
5
122
100
AcDbEntity
8
0
100
AcDbLine
10
-80.357142857142861
20
6.0000000000000009
30
0
11
-80.35714285714289
21
0
31
0
0
LINE
5
123
100
AcDbEntity
8
0
100
AcDbLine
10
-80.35714285714289
20
0
30
0
11
-62.500000000000028
21
0
31
0
0
LINE
5
124
100
AcDbEntity
8
0
100
AcDbLine
10
-62.500000000000028
20
0
30
0
11
-62.500000000000014
21
6.0000000000000009
31
0
0
LINE
5
125
100
AcDbEntity
8
0
100
AcDbLine
10
-62.500000000000014
20
6.0000000000000009
30
0
11
-44.642857142857153
21
6.0000000000000009
31
0
0
LINE
5
126
100
AcDbEntity
8
0
100
AcDbLine
10
-44.642857142857153
20
6.0000000000000009
30
0
11
-44.64285714285716
21
0
31
0
0
LINE
5
127
100
AcDbEntity
8
0
100
AcDbLine
10
-38
20
5.8333333333333739
30
0
11
-32
21
5.8333333333333739
31
0
0
LINE
5
128
100
AcDbEntity
8
0
100
AcDbLine
10
-32
20
0
30
0
11
-26.785714285714306
21
0
31
0
0
LINE
5
129
100
AcDbEntity
8
0
100
AcDbLine
10
-26.785714285714306
20
0
30
0
11
-26.785714285714306
21
6.0000000000000009
31
0
0
LINE
5
130
100
AcDbEntity
8
0
100
AcDbLine
10
-26.785714285714306
20
6.0000000000000009
30
0
11
-8.9285714285714413
21
6.0000000000000009
31
0
0
LINE
5
131
100
AcDbEntity
8
0
100
AcDbLine
10
-8.9285714285714413
20
6.0000000000000009
30
0
11
-8.9285714285714484
21
0
31
0
0
LINE
5
132
100
AcDbEntity
8
0
100
AcDbLine
10
-8.9285714285714484
20
0
30
0
11
8.9285714285714075
21
0
31
0
0
LINE
5
133
100
AcDbEntity
8
0
100
AcDbLine
10
8.9285714285714075
20
0
30
0
11
8.9285714285714057
21
6.0000000000000009
31
0
0
LINE
5
134
100
AcDbEntity
8
0
100
AcDbLine
10
8.9285714285714057
20
6.0000000000000009
30
0
11
26.78571428571427
21
6.0000000000000009
31
0
0
LINE
5
135
100
AcDbEntity
8
0
100
AcDbLine
10
26.78571428571427
20
6.0000000000000009
30
0
11
26.785714285714267
21
0
31
0
0
LINE
5
136
100
AcDbEntity
8
0
100
AcDbLine
10
32
20
0
30
0
11
32
21
5.8333333333333739
31
0
0
LINE
5
137
100
AcDbEntity
8
0
100
AcDbLine
10
32
20
5.8333333333333748
30
0
11
38
21
5.8333333333333748
31
0
0
LINE
5
138
100
AcDbEntity
8
0
100
AcDbLine
10
38
20
5.8333333333333739
30
0
11
38
21
0
31
0
0
LINE
5
139
100
AcDbEntity
8
0
100
AcDbLine
10
38
20
0
30
0
11
44.642857142857125
21
0
31
0
0
LINE
5
140
100
AcDbEntity
8
0
100
AcDbLine
10
44.642857142857125
20
0
30
0
11
44.642857142857153
21
6.0000000000000009
31
0
0
LINE
5
141
100
AcDbEntity
8
0
100
AcDbLine
10
44.642857142857153
20
6.0000000000000009
30
0
11
62.5
21
6.0000000000000009
31
0
0
LINE
5
142
100
AcDbEntity
8
0
100
AcDbLine
10
62.5
20
6.0000000000000009
30
0
11
62.499999999999986
21
0
31
0
0
LINE
5
143
100
AcDbEntity
8
0
100
AcDbLine
10
62.499999999999986
20
0
30
0
11
80.357142857142847
21
0
31
0
0
LINE
5
144
100
AcDbEntity
8
0
100
AcDbLine
10
80.357142857142847
20
0
30
0
11
80.357142857142847
21
6.0000000000000009
31
0
0
LINE
5
145
100
AcDbEntity
8
0
100
AcDbLine
10
80.357142857142847
20
6.0000000000000009
30
0
11
98.214285714285694
21
6.0000000000000009
31
0
0
LINE
5
146
100
AcDbEntity
8
0
100
AcDbLine
10
98.214285714285694
20
6.0000000000000009
30
0
11
98.214285714285708
21
0
31
0
0
LINE
5
147
100
AcDbEntity
8
0
100
AcDbLine
10
98.214285714285708
20
0
30
0
11
116.07142857142858
21
0
31
0
0
LINE
5
148
100
AcDbEntity
8
0
100
AcDbLine
10
116.07142857142858
20
0
30
0
11
116.07142857142858
21
6.0000000000000009
31
0
0
LINE
5
149
100
AcDbEntity
8
0
100
AcDbLine
10
116.07142857142858
20
6.0000000000000009
30
0
11
125
21
6.0000000000000009
31
0
0
LINE
5
150
100
AcDbEntity
8
0
100
AcDbLine
10
125
20
6.0000000000000009
30
0
11
125
21
14.166666666666622
31
0
0
LINE
5
151
100
AcDbEntity
8
0
100
AcDbLine
10
125
20
14.166666666666622
30
0
11
118.99999999999999
21
14.166666666666611
31
0
0
LINE
5
152
100
AcDbEntity
8
0
100
AcDbLine
10
118.99999999999999
20
14.166666666666611
30
0
11
118.99999999999999
21
42.499999999999957
31
0
0
LINE
5
153
100
AcDbEntity
8
0
100
AcDbLine
10
118.99999999999999
20
42.499999999999957
30
0
11
125
21
42.499999999999964
31
0
0
LINE
5
154
100
AcDbEntity
8
0
100
AcDbLine
10
125
20
42.499999999999964
30
0
11
125
21
70.833333333333286
31
0
0
LINE
5
155
100
AcDbEntity
8
0
100
AcDbLine
10
125
20
70.833333333333286
30
0
11
118.99999999999999
21
70.833333333333286
31
0
0
LINE
5
156
100
AcDbEntity
8
0
100
AcDbLine
10
118.99999999999999
20
70.833333333333286
30
0
11
118.99999999999999
21
99.166666666666629
31
0
0
LINE
5
157
100
AcDbEntity
8
0
100
AcDbLine
10
118.99999999999999
20
99.166666666666629
30
0
11
125
21
99.166666666666643
31
0
0
LINE
5
158
100
AcDbEntity
8
0
100
AcDbLine
10
125
20
99.166666666666643
30
0
11
125
21
127.49999999999997
31
0
0
LINE
5
159
100
AcDbEntity
8
0
100
AcDbLine
10
125
20
127.49999999999997
30
0
11
118.99999999999999
21
127.49999999999994
31
0
0
LINE
5
160
100
AcDbEntity
8
0
100
AcDbLine
10
118.99999999999999
20
127.49999999999994
30
0
11
118.99999999999999
21
151.99999999999991
31
0
0
LWPOLYLINE
5
161
100
AcDbEntity
8
0
100
AcDbPolyline
90
4
70
1
43
0.0
10
38
20
29.16666666666671
10
32
20
29.16666666666671
10
32
20
17.500000000000053
10
38
20
17.500000000000053
0
LWPOLYLINE
5
162
100
AcDbEntity
8
0
100
AcDbPolyline
90
4
70
1
43
0.0
10
38
20
52.500000000000043
10
32
20
52.500000000000043
10
32
20
40.833333333333385
10
38
20
40.833333333333385
0
LWPOLYLINE
5
163
100
AcDbEntity
8
0
100
AcDbPolyline
90
4
70
1
43
0.0
10
38
20
70
10
32
20
70
10
32
20
64.166666666666714
10
38
20
64.166666666666714
0
LWPOLYLINE
5
164
100
AcDbEntity
8
0
100
AcDbPolyline
90
4
70
1
43
0.0
10
69
20
41.000000000000007
10
69
20
29
10
101
20
29
10
101
20
41.000000000000007
0
CIRCLE
5
165
100
AcDbEntity
8
0
100
AcDbCircle
10
0
20
20
30
0
40
4
210
0
220
0
230
1
0
CIRCLE
5
166
100
AcDbEntity
8
0
100
AcDbCircle
10
-53.571428571428577
20
20
30
0
40
4.0000000000000036
210
0
220
0
230
1
0
CIRCLE
5
167
100
AcDbEntity
8
0
100
AcDbCircle
10
53.571428571428577
20
20
30
0
40
4.0000000000000036
210
0
220
0
230
1
0
CIRCLE
5
168
100
AcDbEntity
8
0
100
AcDbCircle
10
-107.14285714285715
20
20
30
0
40
4.0000000000000036
210
0
220
0
230
1
0
CIRCLE
5
169
100
AcDbEntity
8
0
100
AcDbCircle
10
107.14285714285715
20
20
30
0
40
4.0000000000000036
210
0
220
0
230
1
0
CIRCLE
5
170
100
AcDbEntity
8
0
100
AcDbCircle
10
61.571428571428584
20
20
30
0
40
2.0000000000000018
210
0
220
0
230
1
0
CIRCLE
5
171
100
AcDbEntity
8
0
100
AcDbCircle
10
45.571428571428577
20
20.000000000000004
30
0
40
2.0000000000000018
210
0
220
0
230
1
0
CIRCLE
5
172
100
AcDbEntity
8
0
100
AcDbCircle
10
47.9145743219362
20
25.656854249492373
30
0
40
2.0000000000000018
210
0
220
0
230
1
0
CIRCLE
5
173
100
AcDbEntity
8
0
100
AcDbCircle
10
59.228282820920953
20
14.34314575050762
30
0
40
2.0000000000000018
210
0
220
0
230
1
0
CIRCLE
5
174
100
AcDbEntity
8
0
100
AcDbCircle
10
47.914574321936207
20
14.34314575050762
30
0
40
2.0000000000000018
210
0
220
0
230
1
0
CIRCLE
5
175
100
AcDbEntity
8
0
100
AcDbCircle
10
59.228282820920953
20
25.656854249492376
30
0
40
2.0000000000000018
210
0
220
0
230
1
0
CIRCLE
5
176
100
AcDbEntity
8
0
100
AcDbCircle
10
53.571428571428598
20
28.000000000000004
30
0
40
2.0000000000000018
210
0
220
0
230
1
0
CIRCLE
5
177
100
AcDbEntity
8
0
100
AcDbCircle
10
53.571428571428577
20
12
30
0
40
2.0000000000000018
210
0
220
0
230
1
0
LINE
5
178
100
AcDbEntity
8
0
100
AcDbLine
10
-44.64285714285716
20
0
30
0
11
-38
21
0
31
0
0
LINE
5
179
100
AcDbEntity
8
0
100
AcDbLine
10
26.785714285714267
20
0
30
0
11
32
21
0
31
0
0
ENDSEC
0
SECTION
2
OBJECTS
0
DICTIONARY
5
C
100
AcDbDictionary
3
ACAD_GROUP
350
D
3
ACAD_MLINESTYLE
350
17
0
DICTIONARY
5
D
100
AcDbDictionary
0
DICTIONARY
5
1A
330
C
100
AcDbDictionary
0
DICTIONARY
5
17
100
AcDbDictionary
0
ENDSEC
0
EOF
