0
SECTION
2
HEADER
9
$INSUNITS
70
4
9
$ACADVER
1
AC1014
9
$HANDSEED
5
FFFF
0
ENDSEC
0
SECTION
2
TABLES
0
TABLE
2
VPORT
5
8
100
AcDbSymbolTable
0
ENDTAB
0
TABLE
2
LTYPE
5
5
100
AcDbSymbolTable
0
LTYPE
5
14
100
AcDbSymbolTableRecord
100
AcDbLinetypeTableRecord
2
BYBLOCK
70
0
0
LTYPE
5
15
100
AcDbSymbolTableRecord
100
AcDbLinetypeTableRecord
2
BYLAYER
70
0
0
ENDTAB
0
TABLE
2
LAYER
5
2
100
AcDbSymbolTable
70
2
0
LAYER
5
50
100
AcDbSymbolTableRecord
100
AcDbLayerTableRecord
2
0
70
0
6
CONTINUOUS
0
ENDTAB
0
TABLE
2
STYLE
5
3
100
AcDbSymbolTable
70
1
0
STYLE
5
11
100
AcDbSymbolTableRecord
100
AcDbTextStyleTableRecord
2
STANDARD
70
0
0
ENDTAB
0
TABLE
2
VIEW
5
6
100
AcDbSymbolTable
70
0
0
ENDTAB
0
TABLE
2
UCS
5
7
100
AcDbSymbolTable
70
0
0
ENDTAB
0
TABLE
2
APPID
5
9
100
AcDbSymbolTable
70
2
0
APPID
5
12
100
AcDbSymbolTableRecord
100
AcDbRegAppTableRecord
2
ACAD
70
0
0
ENDTAB
0
TABLE
2
DIMSTYLE
5
A
100
AcDbSymbolTable
70
1
0
ENDTAB
0
TABLE
2
BLOCK_RECORD
5
1
100
AcDbSymbolTable
70
1
0
BLOCK_RECORD
5
1F
100
AcDbSymbolTableRecord
100
AcDbBlockTableRecord
2
*MODEL_SPACE
0
BLOCK_RECORD
5
1B
100
AcDbSymbolTableRecord
100
AcDbBlockTableRecord
2
*PAPER_SPACE
0
ENDTAB
0
ENDSEC
0
SECTION
2
BLOCKS
0
BLOCK
5
20
100
AcDbEntity
100
AcDbBlockBegin
2
*MODEL_SPACE
0
ENDBLK
5
21
100
AcDbEntity
100
AcDbBlockEnd
0
BLOCK
5
1C
100
AcDbEntity
100
AcDbBlockBegin
2
*PAPER_SPACE
0
ENDBLK
5
1D
100
AcDbEntity
100
AcDbBlockEnd
0
ENDSEC
0
SECTION
2
ENTITIES
0
LINE
5
100
100
AcDbEntity
8
0
100
AcDbLine
10
96.000000000000014
20
119.99999999999994
30
0
11
96.000000000000014
21
109.1666666666666
31
0
0
LINE
5
101
100
AcDbEntity
8
0
100
AcDbLine
10
96.000000000000014
20
109.1666666666666
30
0
11
90
21
109.1666666666666
31
0
0
LINE
5
102
100
AcDbEntity
8
0
100
AcDbLine
10
90
20
109.1666666666666
30
0
11
90
21
120
31
0
0
LINE
5
103
100
AcDbEntity
8
0
100
AcDbLine
10
90
20
120
30
0
11
65
21
119.99999999999994
31
0
0
LINE
5
104
100
AcDbEntity
8
0
100
AcDbLine
10
65
20
119.99999999999994
30
0
11
65
21
109.1666666666666
31
0
0
LINE
5
105
100
AcDbEntity
8
0
100
AcDbLine
10
65
20
109.1666666666666
30
0
11
59
21
109.1666666666666
31
0
0
LINE
5
106
100
AcDbEntity
8
0
100
AcDbLine
10
59
20
109.1666666666666
30
0
11
59.000000000000021
21
120
31
0
0
LINE
5
107
100
AcDbEntity
8
0
100
AcDbLine
10
59.000000000000021
20
120
30
0
11
34
21
119.99999999999994
31
0
0
LINE
5
108
100
AcDbEntity
8
0
100
AcDbLine
10
34
20
119.99999999999994
30
0
11
34
21
109.1666666666666
31
0
0
LINE
5
109
100
AcDbEntity
8
0
100
AcDbLine
10
34
20
109.1666666666666
30
0
11
28
21
109.1666666666666
31
0
0
LINE
5
110
100
AcDbEntity
8
0
100
AcDbLine
10
28
20
109.1666666666666
30
0
11
28.000000000000007
21
120.00000000000001
31
0
0
LINE
5
111
100
AcDbEntity
8
0
100
AcDbLine
10
28.000000000000007
20
120.00000000000001
30
0
11
2.9999999999999982
21
119.99999999999994
31
0
0
LINE
5
112
100
AcDbEntity
8
0
100
AcDbLine
10
2.9999999999999982
20
119.99999999999994
30
0
11
3.0000000000000004
21
109.1666666666666
31
0
0
LINE
5
113
100
AcDbEntity
8
0
100
AcDbLine
10
3.0000000000000004
20
109.1666666666666
30
0
11
-3.0000000000000004
21
109.1666666666666
31
0
0
LINE
5
114
100
AcDbEntity
8
0
100
AcDbLine
10
-3.0000000000000004
20
109.1666666666666
30
0
11
-3.0000000000000071
21
120.00000000000001
31
0
0
LINE
5
115
100
AcDbEntity
8
0
100
AcDbLine
10
-3.0000000000000071
20
120.00000000000001
30
0
11
-28
21
119.99999999999994
31
0
0
LINE
5
116
100
AcDbEntity
8
0
100
AcDbLine
10
-28
20
119.99999999999994
30
0
11
-28
21
109.1666666666666
31
0
0
LINE
5
117
100
AcDbEntity
8
0
100
AcDbLine
10
-28
20
109.1666666666666
30
0
11
-34
21
109.1666666666666
31
0
0
LINE
5
118
100
AcDbEntity
8
0
100
AcDbLine
10
-34
20
109.1666666666666
30
0
11
-34
21
120.00000000000001
31
0
0
LINE
5
119
100
AcDbEntity
8
0
100
AcDbLine
10
-34
20
120.00000000000001
30
0
11
-59
21
119.99999999999994
31
0
0
LINE
5
120
100
AcDbEntity
8
0
100
AcDbLine
10
-59
20
119.99999999999994
30
0
11
-59
21
109.1666666666666
31
0
0
LINE
5
121
100
AcDbEntity
8
0
100
AcDbLine
10
-59
20
109.1666666666666
30
0
11
-65
21
109.1666666666666
31
0
0
LINE
5
122
100
AcDbEntity
8
0
100
AcDbLine
10
-65
20
109.1666666666666
30
0
11
-65
21
119.99999999999994
31
0
0
LINE
5
123
100
AcDbEntity
8
0
100
AcDbLine
10
-65
20
119.99999999999994
30
0
11
-90
21
119.99999999999994
31
0
0
LINE
5
124
100
AcDbEntity
8
0
100
AcDbLine
10
-90
20
119.99999999999994
30
0
11
-90
21
109.1666666666666
31
0
0
LINE
5
125
100
AcDbEntity
8
0
100
AcDbLine
10
-90
20
109.1666666666666
30
0
11
-96.000000000000014
21
109.1666666666666
31
0
0
LINE
5
126
100
AcDbEntity
8
0
100
AcDbLine
10
-96.000000000000014
20
109.1666666666666
30
0
11
-96.000000000000014
21
120.00000000000003
31
0
0
LINE
5
127
100
AcDbEntity
8
0
100
AcDbLine
10
-96.000000000000014
20
120.00000000000003
30
0
11
-118
21
120.00000000000003
31
0
0
LINE
5
128
100
AcDbEntity
8
0
100
AcDbLine
10
-118
20
120.00000000000003
30
0
11
-118
21
70
31
0
0
LINE
5
129
100
AcDbEntity
8
0
100
AcDbLine
10
-118
20
70
30
0
11
-116.07142857142858
21
70
31
0
0
LINE
5
130
100
AcDbEntity
8
0
100
AcDbLine
10
-116.07142857142858
20
70
30
0
11
-116.07142857142856
21
76
31
0
0
LINE
5
131
100
AcDbEntity
8
0
100
AcDbLine
10
-116.07142857142856
20
76
30
0
11
-98.214285714285694
21
76
31
0
0
LINE
5
132
100
AcDbEntity
8
0
100
AcDbLine
10
-98.214285714285694
20
76
30
0
11
-98.214285714285708
21
70
31
0
0
LINE
5
133
100
AcDbEntity
8
0
100
AcDbLine
10
-98.214285714285708
20
70
30
0
11
-96.000000000000014
21
70
31
0
0
LINE
5
134
100
AcDbEntity
8
0
100
AcDbLine
10
-96.000000000000014
20
70
30
0
11
-96.000000000000014
21
80.833333333333272
31
0
0
LINE
5
135
100
AcDbEntity
8
0
100
AcDbLine
10
-96.000000000000014
20
80.833333333333272
30
0
11
-90
21
80.833333333333272
31
0
0
LINE
5
136
100
AcDbEntity
8
0
100
AcDbLine
10
-90
20
80.833333333333272
30
0
11
-90
21
70
31
0
0
LINE
5
137
100
AcDbEntity
8
0
100
AcDbLine
10
-90
20
70
30
0
11
-80.357142857142847
21
70
31
0
0
LINE
5
138
100
AcDbEntity
8
0
100
AcDbLine
10
-80.357142857142847
20
70
30
0
11
-80.357142857142833
21
76
31
0
0
LINE
5
139
100
AcDbEntity
8
0
100
AcDbLine
10
-80.357142857142833
20
76
30
0
11
-65
21
76
31
0
0
LINE
5
140
100
AcDbEntity
8
0
100
AcDbLine
10
-65
20
80.833333333333272
30
0
11
-59
21
80.833333333333272
31
0
0
LINE
5
141
100
AcDbEntity
8
0
100
AcDbLine
10
-59
20
80.833333333333272
30
0
11
-59
21
70
31
0
0
LINE
5
142
100
AcDbEntity
8
0
100
AcDbLine
10
-59
20
70
30
0
11
-44.642857142857139
21
70
31
0
0
LINE
5
143
100
AcDbEntity
8
0
100
AcDbLine
10
-44.642857142857139
20
70
30
0
11
-44.642857142857117
21
76
31
0
0
LINE
5
144
100
AcDbEntity
8
0
100
AcDbLine
10
-44.642857142857117
20
76
30
0
11
-34
21
76
31
0
0
LINE
5
145
100
AcDbEntity
8
0
100
AcDbLine
10
-34
20
76
30
0
11
-34
21
80.833333333333272
31
0
0
LINE
5
146
100
AcDbEntity
8
0
100
AcDbLine
10
-34
20
80.833333333333272
30
0
11
-28
21
80.833333333333272
31
0
0
LINE
5
147
100
AcDbEntity
8
0
100
AcDbLine
10
-28
20
80.833333333333272
30
0
11
-28
21
76
31
0
0
LINE
5
148
100
AcDbEntity
8
0
100
AcDbLine
10
-28
20
76
30
0
11
-26.785714285714256
21
76
31
0
0
LINE
5
149
100
AcDbEntity
8
0
100
AcDbLine
10
-26.785714285714256
20
76
30
0
11
-26.785714285714278
21
70
31
0
0
LINE
5
150
100
AcDbEntity
8
0
100
AcDbLine
10
-26.785714285714278
20
70
30
0
11
-8.9285714285714199
21
70
31
0
0
LINE
5
151
100
AcDbEntity
8
0
100
AcDbLine
10
-8.9285714285714199
20
70
30
0
11
-8.9285714285714022
21
76
31
0
0
LINE
5
152
100
AcDbEntity
8
0
100
AcDbLine
10
-8.9285714285714022
20
76
30
0
11
-3.0000000000000004
21
76
31
0
0
LINE
5
153
100
AcDbEntity
8
0
100
AcDbLine
10
-3.0000000000000004
20
76
30
0
11
-3.0000000000000004
21
80.833333333333272
31
0
0
LINE
5
154
100
AcDbEntity
8
0
100
AcDbLine
10
-3.0000000000000004
20
80.833333333333272
30
0
11
3.0000000000000004
21
80.833333333333272
31
0
0
LINE
5
155
100
AcDbEntity
8
0
100
AcDbLine
10
3.0000000000000004
20
80.833333333333272
30
0
11
3.0000000000000004
21
76
31
0
0
LINE
5
156
100
AcDbEntity
8
0
100
AcDbLine
10
3.0000000000000004
20
76
30
0
11
8.928571428571459
21
76
31
0
0
LINE
5
157
100
AcDbEntity
8
0
100
AcDbLine
10
8.928571428571459
20
76
30
0
11
8.9285714285714413
21
70
31
0
0
LINE
5
158
100
AcDbEntity
8
0
100
AcDbLine
10
8.9285714285714413
20
70
30
0
11
26.785714285714299
21
70
31
0
0
LINE
5
159
100
AcDbEntity
8
0
100
AcDbLine
10
28
20
80.833333333333272
30
0
11
34
21
80.833333333333272
31
0
0
LINE
5
160
100
AcDbEntity
8
0
100
AcDbLine
10
34
20
80.833333333333272
30
0
11
34
21
76
31
0
0
LINE
5
161
100
AcDbEntity
8
0
100
AcDbLine
10
26.785714285714313
20
76
30
0
11
28
21
76
31
0
0
LINE
5
162
100
AcDbEntity
8
0
100
AcDbLine
10
44.642857142857167
20
76
30
0
11
44.642857142857153
21
70
31
0
0
LINE
5
163
100
AcDbEntity
8
0
100
AcDbLine
10
44.642857142857153
20
70
30
0
11
59
21
70
31
0
0
LINE
5
164
100
AcDbEntity
8
0
100
AcDbLine
10
59
20
70
30
0
11
59
21
80.833333333333272
31
0
0
LINE
5
165
100
AcDbEntity
8
0
100
AcDbLine
10
59
20
80.833333333333272
30
0
11
65
21
80.833333333333272
31
0
0
LINE
5
166
100
AcDbEntity
8
0
100
AcDbLine
10
65
20
80.833333333333272
30
0
11
65
21
76
31
0
0
LINE
5
167
100
AcDbEntity
8
0
100
AcDbLine
10
65
20
76
30
0
11
80.35714285714289
21
76
31
0
0
LINE
5
168
100
AcDbEntity
8
0
100
AcDbLine
10
80.35714285714289
20
76
30
0
11
80.35714285714289
21
70
31
0
0
LINE
5
169
100
AcDbEntity
8
0
100
AcDbLine
10
80.35714285714289
20
70
30
0
11
90
21
70
31
0
0
LINE
5
170
100
AcDbEntity
8
0
100
AcDbLine
10
90
20
70
30
0
11
90
21
80.833333333333272
31
0
0
LINE
5
171
100
AcDbEntity
8
0
100
AcDbLine
10
90
20
80.833333333333272
30
0
11
96.000000000000014
21
80.833333333333272
31
0
0
LINE
5
172
100
AcDbEntity
8
0
100
AcDbLine
10
96.000000000000014
20
80.833333333333272
30
0
11
96.000000000000014
21
70
31
0
0
LINE
5
173
100
AcDbEntity
8
0
100
AcDbLine
10
96.000000000000014
20
70
30
0
11
98.214285714285722
21
70
31
0
0
LINE
5
174
100
AcDbEntity
8
0
100
AcDbLine
10
98.214285714285722
20
70
30
0
11
98.214285714285751
21
76
31
0
0
LINE
5
175
100
AcDbEntity
8
0
100
AcDbLine
10
98.214285714285751
20
76
30
0
11
116.07142857142861
21
76
31
0
0
LINE
5
176
100
AcDbEntity
8
0
100
AcDbLine
10
116.07142857142861
20
76
30
0
11
116.07142857142858
21
70
31
0
0
LINE
5
177
100
AcDbEntity
8
0
100
AcDbLine
10
116.07142857142858
20
70
30
0
11
118
21
70
31
0
0
LINE
5
178
100
AcDbEntity
8
0
100
AcDbLine
10
118
20
70
30
0
11
118
21
120
31
0
0
LINE
5
179
100
AcDbEntity
8
0
100
AcDbLine
10
118
20
120
30
0
11
96.000000000000014
21
119.99999999999994
31
0
0
LINE
5
180
100
AcDbEntity
8
0
100
AcDbLine
10
-65
20
76
30
0
11
-65
21
80.833333333333272
31
0
0
LINE
5
181
100
AcDbEntity
8
0
100
AcDbLine
10
26.785714285714299
20
70
30
0
11
26.785714285714313
21
76
31
0
0
LINE
5
182
100
AcDbEntity
8
0
100
AcDbLine
10
28
20
76
30
0
11
28
21
80.833333333333272
31
0
0
LINE
5
183
100
AcDbEntity
8
0
100
AcDbLine
10
34
20
76
30
0
11
44.642857142857167
21
76
31
0
0
ENDSEC
0
SECTION
2
OBJECTS
0
DICTIONARY
5
C
100
AcDbDictionary
3
ACAD_GROUP
350
D
3
ACAD_MLINESTYLE
350
17
0
DICTIONARY
5
D
100
AcDbDictionary
0
DICTIONARY
5
1A
330
C
100
AcDbDictionary
0
DICTIONARY
5
17
100
AcDbDictionary
0
ENDSEC
0
EOF
