0
SECTION
2
HEADER
9
$INSUNITS
70
4
9
$ACADVER
1
AC1014
9
$HANDSEED
5
FFFF
0
ENDSEC
0
SECTION
2
TABLES
0
TABLE
2
VPORT
5
8
100
AcDbSymbolTable
0
ENDTAB
0
TABLE
2
LTYPE
5
5
100
AcDbSymbolTable
0
LTYPE
5
14
100
AcDbSymbolTableRecord
100
AcDbLinetypeTableRecord
2
BYBLOCK
70
0
0
LTYPE
5
15
100
AcDbSymbolTableRecord
100
AcDbLinetypeTableRecord
2
BYLAYER
70
0
0
ENDTAB
0
TABLE
2
LAYER
5
2
100
AcDbSymbolTable
70
2
0
LAYER
5
50
100
AcDbSymbolTableRecord
100
AcDbLayerTableRecord
2
0
70
0
6
CONTINUOUS
0
ENDTAB
0
TABLE
2
STYLE
5
3
100
AcDbSymbolTable
70
1
0
STYLE
5
11
100
AcDbSymbolTableRecord
100
AcDbTextStyleTableRecord
2
STANDARD
70
0
0
ENDTAB
0
TABLE
2
VIEW
5
6
100
AcDbSymbolTable
70
0
0
ENDTAB
0
TABLE
2
UCS
5
7
100
AcDbSymbolTable
70
0
0
ENDTAB
0
TABLE
2
APPID
5
9
100
AcDbSymbolTable
70
2
0
APPID
5
12
100
AcDbSymbolTableRecord
100
AcDbRegAppTableRecord
2
ACAD
70
0
0
ENDTAB
0
TABLE
2
DIMSTYLE
5
A
100
AcDbSymbolTable
70
1
0
ENDTAB
0
TABLE
2
BLOCK_RECORD
5
1
100
AcDbSymbolTable
70
1
0
BLOCK_RECORD
5
1F
100
AcDbSymbolTableRecord
100
AcDbBlockTableRecord
2
*MODEL_SPACE
0
BLOCK_RECORD
5
1B
100
AcDbSymbolTableRecord
100
AcDbBlockTableRecord
2
*PAPER_SPACE
0
ENDTAB
0
ENDSEC
0
SECTION
2
BLOCKS
0
BLOCK
5
20
100
AcDbEntity
100
AcDbBlockBegin
2
*MODEL_SPACE
0
ENDBLK
5
21
100
AcDbEntity
100
AcDbBlockEnd
0
BLOCK
5
1C
100
AcDbEntity
100
AcDbBlockBegin
2
*PAPER_SPACE
0
ENDBLK
5
1D
100
AcDbEntity
100
AcDbBlockEnd
0
ENDSEC
0
SECTION
2
ENTITIES
0
LWPOLYLINE
5
100
100
AcDbEntity
8
0
100
AcDbPolyline
90
84
70
1
43
0.0
10
125
20
6.0000000000000009
10
116.07142857142861
20
6.0000000000000009
10
116.07142857142861
20
0
10
98.214285714285765
20
0
10
98.214285714285751
20
6.0000000000000009
10
80.35714285714289
20
6.0000000000000009
10
80.35714285714289
20
0
10
62.500000000000036
20
0
10
62.500000000000028
20
6.0000000000000009
10
44.642857142857167
20
6.0000000000000009
10
44.642857142857181
20
0
10
26.785714285714324
20
0
10
26.785714285714306
20
6.0000000000000009
10
8.928571428571459
20
6.0000000000000009
10
8.9285714285714608
20
0
10
-8.9285714285713951
20
0
10
-8.9285714285714057
20
6.0000000000000009
10
-26.78571428571427
20
6.0000000000000009
10
-26.785714285714253
20
0
10
-44.642857142857117
20
0
10
-44.642857142857117
20
6.0000000000000009
10
-62.5
20
6.0000000000000009
10
-62.499999999999964
20
0
10
-80.357142857142804
20
0
10
-80.357142857142847
20
6.0000000000000009
10
-98.214285714285694
20
6.0000000000000009
10
-98.214285714285694
20
0
10
-116.07142857142854
20
0
10
-116.07142857142854
20
6.0000000000000009
10
-125
20
6.0000000000000009
10
-125
20
14.166666666666622
10
-118.99999999999999
20
14.166666666666611
10
-118.99999999999999
20
42.499999999999957
10
-125
20
42.499999999999964
10
-125
20
70.833333333333286
10
-118.99999999999999
20
70.833333333333286
10
-118.99999999999999
20
99.166666666666629
10
-125
20
99.166666666666643
10
-125
20
127.49999999999997
10
-118.99999999999999
20
127.49999999999994
10
-118.99999999999999
20
155.83333333333331
10
-125
20
155.83333333333331
10
-125
20
164
10
-116.07142857142858
20
164
10
-116.07142857142858
20
170
10
-98.214285714285751
20
170
10
-98.214285714285722
20
164
10
-80.35714285714289
20
164
10
-80.357142857142861
20
170
10
-62.500000000000007
20
170
10
-62.5
20
164
10
-44.642857142857153
20
164
10
-44.642857142857153
20
170
10
-26.785714285714299
20
170
10
-26.785714285714288
20
164
10
-8.9285714285714235
20
164
10
-8.9285714285714377
20
170
10
8.9285714285714199
20
170
10
8.9285714285714235
20
164
10
26.785714285714288
20
164
10
26.785714285714278
20
170
10
44.642857142857139
20
170
10
44.642857142857146
20
164
10
62.5
20
164
10
62.499999999999993
20
170
10
80.357142857142847
20
170
10
80.357142857142847
20
164
10
98.214285714285708
20
164
10
98.214285714285722
20
170
10
116.07142857142856
20
170
10
116.07142857142858
20
164
10
125
20
164
10
125
20
155.83333333333331
10
118.99999999999999
20
155.83333333333331
10
118.99999999999999
20
127.49999999999997
10
125
20
127.49999999999999
10
125
20
99.166666666666643
10
118.99999999999999
20
99.166666666666629
10
118.99999999999999
20
70.8333333333333
10
125
20
70.8333333333333
10
125
20
42.499999999999964
10
118.99999999999999
20
42.499999999999943
10
118.99999999999999
20
14.166666666666627
10
125
20
14.166666666666636
0
LWPOLYLINE
5
101
100
AcDbEntity
8
0
100
AcDbPolyline
90
4
70
1
43
0.0
10
25
20
95
10
-25
20
95
10
-25
20
75
10
25
20
75
0
LWPOLYLINE
5
102
100
AcDbEntity
8
0
100
AcDbPolyline
90
4
70
1
43
0.0
10
14.999999999999998
20
117.50000000000001
10
34.999999999999993
20
117.50000000000001
10
34.999999999999993
20
137.50000000000003
10
14.999999999999998
20
137.50000000000003
0
LWPOLYLINE
5
103
100
AcDbEntity
8
0
100
AcDbPolyline
90
4
70
1
43
0.0
10
-15.000000000000004
20
137.50000000000003
10
-35.000000000000007
20
137.50000000000003
10
-35
20
117.50000000000001
10
-15.000000000000002
20
117.50000000000001
0
ENDSEC
0
SECTION
2
OBJECTS
0
DICTIONARY
5
C
100
AcDbDictionary
3
ACAD_GROUP
350
D
3
ACAD_MLINESTYLE
350
17
0
DICTIONARY
5
D
100
AcDbDictionary
0
DICTIONARY
5
1A
330
C
100
AcDbDictionary
0
DICTIONARY
5
17
100
AcDbDictionary
0
ENDSEC
0
EOF
