0
SECTION
2
HEADER
9
$INSUNITS
70
4
9
$ACADVER
1
AC1014
9
$HANDSEED
5
FFFF
0
ENDSEC
0
SECTION
2
TABLES
0
TABLE
2
VPORT
5
8
100
AcDbSymbolTable
0
ENDTAB
0
TABLE
2
LTYPE
5
5
100
AcDbSymbolTable
0
LTYPE
5
14
100
AcDbSymbolTableRecord
100
AcDbLinetypeTableRecord
2
BYBLOCK
70
0
0
LTYPE
5
15
100
AcDbSymbolTableRecord
100
AcDbLinetypeTableRecord
2
BYLAYER
70
0
0
ENDTAB
0
TABLE
2
LAYER
5
2
100
AcDbSymbolTable
70
2
0
LAYER
5
50
100
AcDbSymbolTableRecord
100
AcDbLayerTableRecord
2
0
70
0
6
CONTINUOUS
0
ENDTAB
0
TABLE
2
STYLE
5
3
100
AcDbSymbolTable
70
1
0
STYLE
5
11
100
AcDbSymbolTableRecord
100
AcDbTextStyleTableRecord
2
STANDARD
70
0
0
ENDTAB
0
TABLE
2
VIEW
5
6
100
AcDbSymbolTable
70
0
0
ENDTAB
0
TABLE
2
UCS
5
7
100
AcDbSymbolTable
70
0
0
ENDTAB
0
TABLE
2
APPID
5
9
100
AcDbSymbolTable
70
2
0
APPID
5
12
100
AcDbSymbolTableRecord
100
AcDbRegAppTableRecord
2
ACAD
70
0
0
ENDTAB
0
TABLE
2
DIMSTYLE
5
A
100
AcDbSymbolTable
70
1
0
ENDTAB
0
TABLE
2
BLOCK_RECORD
5
1
100
AcDbSymbolTable
70
1
0
BLOCK_RECORD
5
1F
100
AcDbSymbolTableRecord
100
AcDbBlockTableRecord
2
*MODEL_SPACE
0
BLOCK_RECORD
5
1B
100
AcDbSymbolTableRecord
100
AcDbBlockTableRecord
2
*PAPER_SPACE
0
ENDTAB
0
ENDSEC
0
SECTION
2
BLOCKS
0
BLOCK
5
20
100
AcDbEntity
100
AcDbBlockBegin
2
*MODEL_SPACE
0
ENDBLK
5
21
100
AcDbEntity
100
AcDbBlockEnd
0
BLOCK
5
1C
100
AcDbEntity
100
AcDbBlockBegin
2
*PAPER_SPACE
0
ENDBLK
5
1D
100
AcDbEntity
100
AcDbBlockEnd
0
ENDSEC
0
SECTION
2
ENTITIES
0
CIRCLE
5
100
100
AcDbEntity
8
0
100
AcDbCircle
10
-61.000000000000014
20
40
30
0
40
12.5
210
0
220
0
230
1
0
CIRCLE
5
101
100
AcDbEntity
8
0
100
AcDbCircle
10
-87
20
173
30
0
40
12.000000000000011
210
-0
220
0
230
1
0
LWPOLYLINE
5
102
100
AcDbEntity
8
0
100
AcDbPolyline
90
4
70
1
43
0.0
10
92.999999999999986
20
42.500000000000036
10
92.999999999999986
20
70.833333333333357
10
87
20
70.833333333333357
10
87
20
42.500000000000036
0
LWPOLYLINE
5
103
100
AcDbEntity
8
0
100
AcDbPolyline
90
4
70
1
43
0.0
10
92.999999999999986
20
99.1666666666667
10
92.999999999999986
20
127.50000000000001
10
87
20
127.50000000000001
10
87
20
99.1666666666667
0
LWPOLYLINE
5
104
100
AcDbEntity
8
0
100
AcDbPolyline
90
59
70
1
43
0.0
10
105
20
14.166666666666607
10
105
20
6.0000000000000142
10
99.899999999999949
20
6.0000000000000009
10
99.899999999999949
20
0
10
92.999999999999986
20
0
10
92.999999999999986
20
14.166666666666679
10
87
20
14.166666666666687
10
87
20
0
10
77.699999999999946
20
0
10
77.699999999999946
20
6.0000000000000009
10
55.499999999999957
20
6.0000000000000009
10
55.499999999999957
20
0
10
33.299999999999955
20
0
10
33.299999999999955
20
6.0000000000000009
10
11.099999999999961
20
6.0000000000000009
10
11.099999999999961
20
0
10
-11.100000000000037
20
0
10
-11.100000000000039
20
6.0000000000000009
10
-33.300000000000026
20
6.0000000000000009
10
-33.300000000000033
20
0
10
-55.500000000000036
20
0
10
-55.500000000000036
20
6.0000000000000009
10
-77.700000000000017
20
6.0000000000000009
10
-77.700000000000031
20
0
10
-99.90000000000002
20
0
10
-99.90000000000002
20
6.0000000000000009
10
-105
20
6.0000000000000142
10
-105
20
14.166666666666607
10
-111
20
14.166666666666611
10
-111
20
42.499999999999943
10
-105
20
42.499999999999943
10
-105
20
70.833333333333272
10
-111
20
70.833333333333272
10
-111
20
99.166666666666629
10
-105
20
99.166666666666629
10
-105
20
127.49999999999997
10
-111
20
127.49999999999997
10
-111
20
155.83333333333331
10
-105
20
155.83333333333331
10
-105
20
170
10
-111
20
170
10
-111
20
173.00000000000006
42
-1.064712667496915
10
-63.188238200418674
20
170
10
87
20
170
10
87
20
155.83333333333337
10
92.999999999999986
20
155.83333333333337
10
92.999999999999986
20
170
10
105
20
170
10
105
20
155.83333333333331
10
111
20
155.83333333333331
10
111
20
127.49999999999997
10
105
20
127.49999999999997
10
105
20
99.166666666666629
10
111
20
99.166666666666629
10
111
20
70.833333333333272
10
105
20
70.833333333333272
10
105
20
42.499999999999943
10
111
20
42.499999999999943
10
111
20
14.166666666666611
0
ENDSEC
0
SECTION
2
OBJECTS
0
DICTIONARY
5
C
100
AcDbDictionary
3
ACAD_GROUP
350
D
3
ACAD_MLINESTYLE
350
17
0
DICTIONARY
5
D
100
AcDbDictionary
0
DICTIONARY
5
1A
330
C
100
AcDbDictionary
0
DICTIONARY
5
17
100
AcDbDictionary
0
ENDSEC
0
EOF
