0
SECTION
2
HEADER
9
$INSUNITS
70
4
9
$ACADVER
1
AC1014
9
$HANDSEED
5
FFFF
0
ENDSEC
0
SECTION
2
TABLES
0
TABLE
2
VPORT
5
8
100
AcDbSymbolTable
0
ENDTAB
0
TABLE
2
LTYPE
5
5
100
AcDbSymbolTable
0
LTYPE
5
14
100
AcDbSymbolTableRecord
100
AcDbLinetypeTableRecord
2
BYBLOCK
70
0
0
LTYPE
5
15
100
AcDbSymbolTableRecord
100
AcDbLinetypeTableRecord
2
BYLAYER
70
0
0
ENDTAB
0
TABLE
2
LAYER
5
2
100
AcDbSymbolTable
70
2
0
LAYER
5
50
100
AcDbSymbolTableRecord
100
AcDbLayerTableRecord
2
0
70
0
6
CONTINUOUS
0
ENDTAB
0
TABLE
2
STYLE
5
3
100
AcDbSymbolTable
70
1
0
STYLE
5
11
100
AcDbSymbolTableRecord
100
AcDbTextStyleTableRecord
2
STANDARD
70
0
0
ENDTAB
0
TABLE
2
VIEW
5
6
100
AcDbSymbolTable
70
0
0
ENDTAB
0
TABLE
2
UCS
5
7
100
AcDbSymbolTable
70
0
0
ENDTAB
0
TABLE
2
APPID
5
9
100
AcDbSymbolTable
70
2
0
APPID
5
12
100
AcDbSymbolTableRecord
100
AcDbRegAppTableRecord
2
ACAD
70
0
0
ENDTAB
0
TABLE
2
DIMSTYLE
5
A
100
AcDbSymbolTable
70
1
0
ENDTAB
0
TABLE
2
BLOCK_RECORD
5
1
100
AcDbSymbolTable
70
1
0
BLOCK_RECORD
5
1F
100
AcDbSymbolTableRecord
100
AcDbBlockTableRecord
2
*MODEL_SPACE
0
BLOCK_RECORD
5
1B
100
AcDbSymbolTableRecord
100
AcDbBlockTableRecord
2
*PAPER_SPACE
0
ENDTAB
0
ENDSEC
0
SECTION
2
BLOCKS
0
BLOCK
5
20
100
AcDbEntity
100
AcDbBlockBegin
2
*MODEL_SPACE
0
ENDBLK
5
21
100
AcDbEntity
100
AcDbBlockEnd
0
BLOCK
5
1C
100
AcDbEntity
100
AcDbBlockBegin
2
*PAPER_SPACE
0
ENDBLK
5
1D
100
AcDbEntity
100
AcDbBlockEnd
0
ENDSEC
0
SECTION
2
ENTITIES
0
LWPOLYLINE
5
100
100
AcDbEntity
8
0
100
AcDbPolyline
90
72
70
1
43
0.0
10
121.49999999999999
20
92.999999999999986
10
125
20
92.999999999999986
10
125
20
89.5
10
116.07142857142864
20
89.5
10
116.07142857142858
20
93
10
98.214285714285722
20
93
10
98.214285714285808
20
89.5
10
80.357142857142918
20
89.5
10
80.357142857142847
20
93
10
62.500000000000007
20
93
10
62.500000000000071
20
89.5
10
44.64285714285721
20
89.5
10
44.642857142857139
20
93
10
26.785714285714292
20
93
10
26.785714285714356
20
89.5
10
8.928571428571491
20
89.5
10
8.9285714285714235
20
93
10
9.9999999999999805
20
93
10
9.9999999999999822
20
99.5
10
-10.000000000000018
20
99.5
10
-10.000000000000018
20
93
10
-8.9285714285714253
20
93
10
-8.9285714285713613
20
89.5
10
-26.785714285714228
20
89.5
10
-26.785714285714292
20
93
10
-44.642857142857139
20
93
10
-44.642857142857075
20
89.5
10
-62.499999999999936
20
89.5
10
-62.500000000000007
20
93
10
-80.357142857142847
20
93
10
-80.357142857142776
20
89.5
10
-98.214285714285666
20
89.5
10
-98.214285714285722
20
93
10
-116.07142857142858
20
93
10
-116.0714285714285
20
89.5
10
-125
20
89.5
10
-125
20
92.999999999999986
10
-121.5
20
92.999999999999986
10
-121.5
20
105
10
-125
20
105
10
-125
20
108.5
10
-116.0714285714285
20
108.5
10
-116.07142857142858
20
105
10
-98.214285714285722
20
105
10
-98.214285714285666
20
108.5
10
-80.35714285714279
20
108.5
10
-80.357142857142861
20
105
10
-62.5
20
105
10
-62.499999999999936
20
108.5
10
-44.642857142857082
20
108.5
10
-44.642857142857146
20
105
10
-26.785714285714288
20
105
10
-26.785714285714221
20
108.5
10
-8.9285714285713649
20
108.5
10
-8.9285714285714288
20
105
10
8.9285714285714288
20
105
10
8.9285714285714946
20
108.5
10
26.785714285714356
20
108.5
10
26.785714285714288
20
105
10
44.642857142857146
20
105
10
44.64285714285721
20
108.5
10
62.500000000000064
20
108.5
10
62.5
20
105
10
80.357142857142861
20
105
10
80.357142857142932
20
108.5
10
98.214285714285808
20
108.5
10
98.214285714285722
20
105
10
116.07142857142858
20
105
10
116.07142857142864
20
108.5
10
125
20
108.5
10
125
20
105
10
121.5
20
105
0
ENDSEC
0
SECTION
2
OBJECTS
0
DICTIONARY
5
C
100
AcDbDictionary
3
ACAD_GROUP
350
D
3
ACAD_MLINESTYLE
350
17
0
DICTIONARY
5
D
100
AcDbDictionary
0
DICTIONARY
5
1A
330
C
100
AcDbDictionary
0
DICTIONARY
5
17
100
AcDbDictionary
0
ENDSEC
0
EOF
