0
SECTION
2
HEADER
9
$INSUNITS
70
4
9
$ACADVER
1
AC1014
9
$HANDSEED
5
FFFF
0
ENDSEC
0
SECTION
2
TABLES
0
TABLE
2
VPORT
5
8
100
AcDbSymbolTable
0
ENDTAB
0
TABLE
2
LTYPE
5
5
100
AcDbSymbolTable
0
LTYPE
5
14
100
AcDbSymbolTableRecord
100
AcDbLinetypeTableRecord
2
BYBLOCK
70
0
0
LTYPE
5
15
100
AcDbSymbolTableRecord
100
AcDbLinetypeTableRecord
2
BYLAYER
70
0
0
ENDTAB
0
TABLE
2
LAYER
5
2
100
AcDbSymbolTable
70
2
0
LAYER
5
50
100
AcDbSymbolTableRecord
100
AcDbLayerTableRecord
2
0
70
0
6
CONTINUOUS
0
ENDTAB
0
TABLE
2
STYLE
5
3
100
AcDbSymbolTable
70
1
0
STYLE
5
11
100
AcDbSymbolTableRecord
100
AcDbTextStyleTableRecord
2
STANDARD
70
0
0
ENDTAB
0
TABLE
2
VIEW
5
6
100
AcDbSymbolTable
70
0
0
ENDTAB
0
TABLE
2
UCS
5
7
100
AcDbSymbolTable
70
0
0
ENDTAB
0
TABLE
2
APPID
5
9
100
AcDbSymbolTable
70
2
0
APPID
5
12
100
AcDbSymbolTableRecord
100
AcDbRegAppTableRecord
2
ACAD
70
0
0
ENDTAB
0
TABLE
2
DIMSTYLE
5
A
100
AcDbSymbolTable
70
1
0
ENDTAB
0
TABLE
2
BLOCK_RECORD
5
1
100
AcDbSymbolTable
70
1
0
BLOCK_RECORD
5
1F
100
AcDbSymbolTableRecord
100
AcDbBlockTableRecord
2
*MODEL_SPACE
0
BLOCK_RECORD
5
1B
100
AcDbSymbolTableRecord
100
AcDbBlockTableRecord
2
*PAPER_SPACE
0
ENDTAB
0
ENDSEC
0
SECTION
2
BLOCKS
0
BLOCK
5
20
100
AcDbEntity
100
AcDbBlockBegin
2
*MODEL_SPACE
0
ENDBLK
5
21
100
AcDbEntity
100
AcDbBlockEnd
0
BLOCK
5
1C
100
AcDbEntity
100
AcDbBlockBegin
2
*PAPER_SPACE
0
ENDBLK
5
1D
100
AcDbEntity
100
AcDbBlockEnd
0
ENDSEC
0
SECTION
2
ENTITIES
0
LINE
5
100
100
AcDbEntity
8
0
100
AcDbLine
10
-82.874999999999943
20
75
30
0
11
-108.49999999999996
21
75
31
0
0
LINE
5
101
100
AcDbEntity
8
0
100
AcDbLine
10
-108.49999999999996
20
75
30
0
11
-108.49999999999996
21
68.750000000000142
31
0
0
LINE
5
102
100
AcDbEntity
8
0
100
AcDbLine
10
-108.49999999999996
20
68.750000000000142
30
0
11
-104.99999999999997
21
68.750000000000099
31
0
0
LINE
5
103
100
AcDbEntity
8
0
100
AcDbLine
10
-104.99999999999997
20
68.750000000000099
30
0
11
-104.99999999999993
21
56.250000000000107
31
0
0
LINE
5
104
100
AcDbEntity
8
0
100
AcDbLine
10
-104.99999999999993
20
56.250000000000107
30
0
11
-108.49999999999996
21
56.250000000000142
31
0
0
LINE
5
105
100
AcDbEntity
8
0
100
AcDbLine
10
-108.49999999999996
20
56.250000000000142
30
0
11
-108.49999999999996
21
43.750000000000142
31
0
0
LINE
5
106
100
AcDbEntity
8
0
100
AcDbLine
10
-108.49999999999996
20
43.750000000000142
30
0
11
-104.99999999999997
21
43.750000000000099
31
0
0
LINE
5
107
100
AcDbEntity
8
0
100
AcDbLine
10
-104.99999999999997
20
43.750000000000099
30
0
11
-104.99999999999993
21
31.250000000000107
31
0
0
LINE
5
108
100
AcDbEntity
8
0
100
AcDbLine
10
-104.99999999999993
20
31.250000000000107
30
0
11
-108.49999999999996
21
31.250000000000142
31
0
0
LINE
5
109
100
AcDbEntity
8
0
100
AcDbLine
10
-108.49999999999996
20
31.250000000000142
30
0
11
-108.49999999999996
21
18.750000000000142
31
0
0
LINE
5
110
100
AcDbEntity
8
0
100
AcDbLine
10
-108.49999999999996
20
18.750000000000142
30
0
11
-104.99999999999997
21
18.750000000000099
31
0
0
LINE
5
111
100
AcDbEntity
8
0
100
AcDbLine
10
-104.99999999999997
20
18.750000000000099
30
0
11
-104.99999999999993
21
6.2500000000001066
31
0
0
LINE
5
112
100
AcDbEntity
8
0
100
AcDbLine
10
-104.99999999999993
20
6.2500000000001066
30
0
11
-108.49999999999996
21
6.2500000000001421
31
0
0
LINE
5
113
100
AcDbEntity
8
0
100
AcDbLine
10
-108.49999999999996
20
6.2500000000001421
30
0
11
-108.49999999999996
21
0
31
0
0
LINE
5
114
100
AcDbEntity
8
0
100
AcDbLine
10
-108.49999999999996
20
0
30
0
11
-97.65000000000002
21
0
31
0
0
LINE
5
115
100
AcDbEntity
8
0
100
AcDbLine
10
75.949999999999989
20
37.499999999999986
30
0
11
75.949999999999989
21
0
31
0
0
LINE
5
116
100
AcDbEntity
8
0
100
AcDbLine
10
93
20
31.250000000000036
30
0
11
89.499999999999915
21
31.249999999999893
31
0
0
LINE
5
117
100
AcDbEntity
8
0
100
AcDbLine
10
89.499999999999915
20
31.249999999999893
30
0
11
89.500000000000014
21
43.749999999999893
31
0
0
LINE
5
118
100
AcDbEntity
8
0
100
AcDbLine
10
89.500000000000014
20
43.749999999999893
30
0
11
93.000000000000028
21
43.750000000000014
31
0
0
LINE
5
119
100
AcDbEntity
8
0
100
AcDbLine
10
93.000000000000028
20
43.750000000000014
30
0
11
93.000000000000043
21
75
31
0
0
LINE
5
120
100
AcDbEntity
8
0
100
AcDbLine
10
92.999999999999986
20
0
30
0
11
93
21
31.250000000000036
31
0
0
LINE
5
121
100
AcDbEntity
8
0
100
AcDbLine
10
75.949999999999989
20
0
30
0
11
92.999999999999986
21
0
31
0
0
LINE
5
122
100
AcDbEntity
8
0
100
AcDbLine
10
10.949999999999989
20
37.499999999999986
30
0
11
75.949999999999989
21
37.499999999999986
31
0
0
LINE
5
123
100
AcDbEntity
8
0
100
AcDbLine
10
10.949999999999989
20
0
30
0
11
10.949999999999989
21
37.499999999999986
31
0
0
LINE
5
124
100
AcDbEntity
8
0
100
AcDbLine
10
-10.949999999999989
20
37.499999999999986
30
0
11
-10.949999999999989
21
0
31
0
0
LINE
5
125
100
AcDbEntity
8
0
100
AcDbLine
10
-75.950000000000003
20
37.499999999999986
30
0
11
-10.949999999999989
21
37.499999999999986
31
0
0
LINE
5
126
100
AcDbEntity
8
0
100
AcDbLine
10
-75.950000000000003
20
3.4999999999999964
30
0
11
-75.950000000000003
21
37.499999999999986
31
0
0
LINE
5
127
100
AcDbEntity
8
0
100
AcDbLine
10
-97.65000000000002
20
3.4999999999999964
30
0
11
-75.950000000000003
21
3.4999999999999964
31
0
0
LINE
5
128
100
AcDbEntity
8
0
100
AcDbLine
10
-97.65000000000002
20
0
30
0
11
-97.65000000000002
21
3.4999999999999964
31
0
0
LINE
5
129
100
AcDbEntity
8
0
100
AcDbLine
10
-10.949999999999989
20
0
30
0
11
10.949999999999989
21
0
31
0
0
LINE
5
130
100
AcDbEntity
8
0
100
AcDbLine
10
-22.874999999999936
20
50
30
0
11
-82.874999999999943
21
49.999999999999986
31
0
0
LINE
5
131
100
AcDbEntity
8
0
100
AcDbLine
10
-82.874999999999943
20
49.999999999999986
30
0
11
-82.874999999999943
21
75
31
0
0
LINE
5
132
100
AcDbEntity
8
0
100
AcDbLine
10
-22.874999999999943
20
75
30
0
11
-22.874999999999936
21
50
31
0
0
LINE
5
133
100
AcDbEntity
8
0
100
AcDbLine
10
93.000000000000043
20
75
30
0
11
-22.874999999999943
21
75
31
0
0
ENDSEC
0
SECTION
2
OBJECTS
0
DICTIONARY
5
C
100
AcDbDictionary
3
ACAD_GROUP
350
D
3
ACAD_MLINESTYLE
350
17
0
DICTIONARY
5
D
100
AcDbDictionary
0
DICTIONARY
5
1A
330
C
100
AcDbDictionary
0
DICTIONARY
5
17
100
AcDbDictionary
0
ENDSEC
0
EOF
