0
SECTION
2
HEADER
9
$INSUNITS
70
4
9
$ACADVER
1
AC1014
9
$HANDSEED
5
FFFF
0
ENDSEC
0
SECTION
2
TABLES
0
TABLE
2
VPORT
5
8
100
AcDbSymbolTable
0
ENDTAB
0
TABLE
2
LTYPE
5
5
100
AcDbSymbolTable
0
LTYPE
5
14
100
AcDbSymbolTableRecord
100
AcDbLinetypeTableRecord
2
BYBLOCK
70
0
0
LTYPE
5
15
100
AcDbSymbolTableRecord
100
AcDbLinetypeTableRecord
2
BYLAYER
70
0
0
ENDTAB
0
TABLE
2
LAYER
5
2
100
AcDbSymbolTable
70
2
0
LAYER
5
50
100
AcDbSymbolTableRecord
100
AcDbLayerTableRecord
2
0
70
0
6
CONTINUOUS
0
ENDTAB
0
TABLE
2
STYLE
5
3
100
AcDbSymbolTable
70
1
0
STYLE
5
11
100
AcDbSymbolTableRecord
100
AcDbTextStyleTableRecord
2
STANDARD
70
0
0
ENDTAB
0
TABLE
2
VIEW
5
6
100
AcDbSymbolTable
70
0
0
ENDTAB
0
TABLE
2
UCS
5
7
100
AcDbSymbolTable
70
0
0
ENDTAB
0
TABLE
2
APPID
5
9
100
AcDbSymbolTable
70
2
0
APPID
5
12
100
AcDbSymbolTableRecord
100
AcDbRegAppTableRecord
2
ACAD
70
0
0
ENDTAB
0
TABLE
2
DIMSTYLE
5
A
100
AcDbSymbolTable
70
1
0
ENDTAB
0
TABLE
2
BLOCK_RECORD
5
1
100
AcDbSymbolTable
70
1
0
BLOCK_RECORD
5
1F
100
AcDbSymbolTableRecord
100
AcDbBlockTableRecord
2
*MODEL_SPACE
0
BLOCK_RECORD
5
1B
100
AcDbSymbolTableRecord
100
AcDbBlockTableRecord
2
*PAPER_SPACE
0
ENDTAB
0
ENDSEC
0
SECTION
2
BLOCKS
0
BLOCK
5
20
100
AcDbEntity
100
AcDbBlockBegin
2
*MODEL_SPACE
0
ENDBLK
5
21
100
AcDbEntity
100
AcDbBlockEnd
0
BLOCK
5
1C
100
AcDbEntity
100
AcDbBlockBegin
2
*PAPER_SPACE
0
ENDBLK
5
1D
100
AcDbEntity
100
AcDbBlockEnd
0
ENDSEC
0
SECTION
2
ENTITIES
0
LINE
5
100
100
AcDbEntity
8
0
100
AcDbLine
10
116.07142857142868
20
3.5000000000000004
30
0
11
124.99999999999991
21
3.5000000000000004
31
0
0
LINE
5
101
100
AcDbEntity
8
0
100
AcDbLine
10
124.99999999999991
20
3.5000000000000004
30
0
11
125
21
14.583333333333325
31
0
0
LINE
5
102
100
AcDbEntity
8
0
100
AcDbLine
10
125
20
14.583333333333325
30
0
11
121.5
21
14.583333333333286
31
0
0
LINE
5
103
100
AcDbEntity
8
0
100
AcDbLine
10
121.5
20
14.583333333333286
30
0
11
121.5
21
43.749999999999943
31
0
0
LINE
5
104
100
AcDbEntity
8
0
100
AcDbLine
10
121.5
20
43.749999999999943
30
0
11
125
21
43.749999999999986
31
0
0
LINE
5
105
100
AcDbEntity
8
0
100
AcDbLine
10
125
20
43.749999999999986
30
0
11
125
21
72.916666666666657
31
0
0
LINE
5
106
100
AcDbEntity
8
0
100
AcDbLine
10
125
20
72.916666666666657
30
0
11
121.5
21
72.916666666666615
31
0
0
LINE
5
107
100
AcDbEntity
8
0
100
AcDbLine
10
121.5
20
72.916666666666615
30
0
11
121.5
21
102.08333333333327
31
0
0
LINE
5
108
100
AcDbEntity
8
0
100
AcDbLine
10
121.5
20
102.08333333333327
30
0
11
125
21
102.0833333333333
31
0
0
LINE
5
109
100
AcDbEntity
8
0
100
AcDbLine
10
125
20
102.0833333333333
30
0
11
125
21
131.24999999999997
31
0
0
LINE
5
110
100
AcDbEntity
8
0
100
AcDbLine
10
125
20
131.24999999999997
30
0
11
121.5
21
131.24999999999994
31
0
0
LINE
5
111
100
AcDbEntity
8
0
100
AcDbLine
10
121.5
20
131.24999999999994
30
0
11
121.5
21
160.4166666666666
31
0
0
LINE
5
112
100
AcDbEntity
8
0
100
AcDbLine
10
121.5
20
160.4166666666666
30
0
11
125
21
160.41666666666663
31
0
0
LINE
5
113
100
AcDbEntity
8
0
100
AcDbLine
10
125
20
160.41666666666663
30
0
11
125
21
171.5
31
0
0
LINE
5
114
100
AcDbEntity
8
0
100
AcDbLine
10
116.07142857142858
20
175
30
0
11
98.214285714285722
21
175
31
0
0
LINE
5
115
100
AcDbEntity
8
0
100
AcDbLine
10
-125
20
171.5
30
0
11
-125
21
160.41666666666663
31
0
0
LINE
5
116
100
AcDbEntity
8
0
100
AcDbLine
10
-125
20
160.41666666666663
30
0
11
-121.5
21
160.4166666666666
31
0
0
LINE
5
117
100
AcDbEntity
8
0
100
AcDbLine
10
-121.5
20
160.4166666666666
30
0
11
-121.5
21
131.24999999999994
31
0
0
LINE
5
118
100
AcDbEntity
8
0
100
AcDbLine
10
-121.5
20
131.24999999999994
30
0
11
-125
21
131.24999999999997
31
0
0
LINE
5
119
100
AcDbEntity
8
0
100
AcDbLine
10
-125
20
131.24999999999997
30
0
11
-125
21
102.0833333333333
31
0
0
LINE
5
120
100
AcDbEntity
8
0
100
AcDbLine
10
-125
20
102.0833333333333
30
0
11
-121.5
21
102.08333333333329
31
0
0
LINE
5
121
100
AcDbEntity
8
0
100
AcDbLine
10
-121.5
20
102.08333333333329
30
0
11
-121.5
21
72.9166666666666
31
0
0
LINE
5
122
100
AcDbEntity
8
0
100
AcDbLine
10
-121.5
20
72.9166666666666
30
0
11
-125
21
72.916666666666643
31
0
0
LINE
5
123
100
AcDbEntity
8
0
100
AcDbLine
10
-125
20
72.916666666666643
30
0
11
-125
21
43.749999999999986
31
0
0
LINE
5
124
100
AcDbEntity
8
0
100
AcDbLine
10
-125
20
43.749999999999986
30
0
11
-121.5
21
43.749999999999943
31
0
0
LINE
5
125
100
AcDbEntity
8
0
100
AcDbLine
10
-121.5
20
43.749999999999943
30
0
11
-121.5
21
14.583333333333268
31
0
0
LINE
5
126
100
AcDbEntity
8
0
100
AcDbLine
10
-121.5
20
14.583333333333268
30
0
11
-125
21
14.583333333333311
31
0
0
LINE
5
127
100
AcDbEntity
8
0
100
AcDbLine
10
-125
20
14.583333333333311
30
0
11
-125.00000000000009
21
3.5000000000000009
31
0
0
LINE
5
128
100
AcDbEntity
8
0
100
AcDbLine
10
-125.00000000000009
20
3.5000000000000009
30
0
11
-116.07142857142848
21
3.5000000000000004
31
0
0
LINE
5
129
100
AcDbEntity
8
0
100
AcDbLine
10
-116.07142857142848
20
3.5000000000000004
30
0
11
-116.07142857142854
21
0
31
0
0
LINE
5
130
100
AcDbEntity
8
0
100
AcDbLine
10
-116.07142857142854
20
0
30
0
11
-98.214285714285694
21
0
31
0
0
LINE
5
131
100
AcDbEntity
8
0
100
AcDbLine
10
-98.214285714285694
20
0
30
0
11
-98.214285714285637
21
3.5000000000000004
31
0
0
LINE
5
132
100
AcDbEntity
8
0
100
AcDbLine
10
-98.214285714285637
20
3.5000000000000004
30
0
11
-80.357142857142762
21
3.5000000000000004
31
0
0
LINE
5
133
100
AcDbEntity
8
0
100
AcDbLine
10
-80.357142857142762
20
3.5000000000000004
30
0
11
-80.357142857142804
21
0
31
0
0
LINE
5
134
100
AcDbEntity
8
0
100
AcDbLine
10
-80.357142857142804
20
0
30
0
11
-62.499999999999964
21
0
31
0
0
LINE
5
135
100
AcDbEntity
8
0
100
AcDbLine
10
-62.499999999999964
20
0
30
0
11
-62.499999999999915
21
3.5000000000000004
31
0
0
LINE
5
136
100
AcDbEntity
8
0
100
AcDbLine
10
-62.499999999999915
20
3.5000000000000004
30
0
11
-44.642857142857068
21
3.5000000000000004
31
0
0
LINE
5
137
100
AcDbEntity
8
0
100
AcDbLine
10
-44.642857142857068
20
3.5000000000000004
30
0
11
-44.642857142857117
21
0
31
0
0
LINE
5
138
100
AcDbEntity
8
0
100
AcDbLine
10
-44.642857142857117
20
0
30
0
11
-26.785714285714253
21
0
31
0
0
LINE
5
139
100
AcDbEntity
8
0
100
AcDbLine
10
-26.785714285714253
20
0
30
0
11
-26.785714285714199
21
3.5000000000000004
31
0
0
LINE
5
140
100
AcDbEntity
8
0
100
AcDbLine
10
-26.785714285714199
20
3.5000000000000004
30
0
11
-8.9285714285713347
21
3.5000000000000004
31
0
0
LINE
5
141
100
AcDbEntity
8
0
100
AcDbLine
10
-8.9285714285713347
20
3.5000000000000004
30
0
11
-8.9285714285713951
21
0
31
0
0
LINE
5
142
100
AcDbEntity
8
0
100
AcDbLine
10
-8.9285714285713951
20
0
30
0
11
8.9285714285714608
21
0
31
0
0
LINE
5
143
100
AcDbEntity
8
0
100
AcDbLine
10
8.9285714285714608
20
0
30
0
11
8.9285714285715123
21
3.5000000000000004
31
0
0
LINE
5
144
100
AcDbEntity
8
0
100
AcDbLine
10
8.9285714285715123
20
3.5000000000000004
30
0
11
26.785714285714377
21
3.5000000000000004
31
0
0
LINE
5
145
100
AcDbEntity
8
0
100
AcDbLine
10
26.785714285714377
20
3.5000000000000004
30
0
11
26.785714285714324
21
0
31
0
0
LINE
5
146
100
AcDbEntity
8
0
100
AcDbLine
10
26.785714285714324
20
0
30
0
11
44.642857142857181
21
0
31
0
0
LINE
5
147
100
AcDbEntity
8
0
100
AcDbLine
10
44.642857142857181
20
0
30
0
11
44.642857142857238
21
3.5000000000000004
31
0
0
LINE
5
148
100
AcDbEntity
8
0
100
AcDbLine
10
44.642857142857238
20
3.5000000000000004
30
0
11
62.500000000000099
21
3.5000000000000004
31
0
0
LINE
5
149
100
AcDbEntity
8
0
100
AcDbLine
10
62.500000000000099
20
3.5000000000000004
30
0
11
62.500000000000036
21
0
31
0
0
LINE
5
150
100
AcDbEntity
8
0
100
AcDbLine
10
62.500000000000036
20
0
30
0
11
80.35714285714289
21
0
31
0
0
LINE
5
151
100
AcDbEntity
8
0
100
AcDbLine
10
80.35714285714289
20
0
30
0
11
80.357142857142946
21
3.5000000000000004
31
0
0
LINE
5
152
100
AcDbEntity
8
0
100
AcDbLine
10
80.357142857142946
20
3.5000000000000004
30
0
11
98.214285714285822
21
3.5000000000000004
31
0
0
LINE
5
153
100
AcDbEntity
8
0
100
AcDbLine
10
98.214285714285822
20
3.5000000000000004
30
0
11
98.214285714285765
21
0
31
0
0
LINE
5
154
100
AcDbEntity
8
0
100
AcDbLine
10
98.214285714285765
20
0
30
0
11
116.07142857142861
21
0
31
0
0
LINE
5
155
100
AcDbEntity
8
0
100
AcDbLine
10
116.07142857142861
20
0
30
0
11
116.07142857142868
21
3.5000000000000004
31
0
0
LWPOLYLINE
5
156
100
AcDbEntity
8
0
100
AcDbPolyline
90
4
70
1
43
0.0
10
25
20
97.5
10
-25
20
97.5
10
-25
20
77.5
10
25
20
77.5
0
LWPOLYLINE
5
157
100
AcDbEntity
8
0
100
AcDbPolyline
90
4
70
1
43
0.0
10
14.999999999999984
20
121.24999999999999
10
34.999999999999979
20
121.24999999999999
10
34.999999999999979
20
141.24999999999997
10
14.999999999999984
20
141.24999999999997
0
LWPOLYLINE
5
158
100
AcDbEntity
8
0
100
AcDbPolyline
90
4
70
1
43
0.0
10
-15.000000000000021
20
141.24999999999997
10
-35.000000000000014
20
141.24999999999997
10
-35.000000000000014
20
121.24999999999999
10
-15.000000000000021
20
121.24999999999999
0
LINE
5
159
100
AcDbEntity
8
0
100
AcDbLine
10
-116.07142857142864
20
171.5
30
0
11
-125
21
171.5
31
0
0
LINE
5
160
100
AcDbEntity
8
0
100
AcDbLine
10
125
20
171.5
30
0
11
116.0714285714285
21
171.5
31
0
0
LINE
5
161
100
AcDbEntity
8
0
100
AcDbLine
10
116.0714285714285
20
171.5
30
0
11
116.07142857142858
21
175
31
0
0
LINE
5
162
100
AcDbEntity
8
0
100
AcDbLine
10
98.214285714285722
20
175
30
0
11
98.214285714285666
21
171.5
31
0
0
LINE
5
163
100
AcDbEntity
8
0
100
AcDbLine
10
98.214285714285666
20
171.5
30
0
11
80.35714285714279
21
171.5
31
0
0
LINE
5
164
100
AcDbEntity
8
0
100
AcDbLine
10
80.35714285714279
20
171.5
30
0
11
80.357142857142861
21
175
31
0
0
LINE
5
165
100
AcDbEntity
8
0
100
AcDbLine
10
80.357142857142861
20
175
30
0
11
62.5
21
175
31
0
0
LINE
5
166
100
AcDbEntity
8
0
100
AcDbLine
10
62.5
20
175
30
0
11
62.499999999999936
21
171.5
31
0
0
LINE
5
167
100
AcDbEntity
8
0
100
AcDbLine
10
62.499999999999936
20
171.5
30
0
11
44.642857142857082
21
171.5
31
0
0
LINE
5
168
100
AcDbEntity
8
0
100
AcDbLine
10
44.642857142857082
20
171.5
30
0
11
44.642857142857146
21
175
31
0
0
LINE
5
169
100
AcDbEntity
8
0
100
AcDbLine
10
44.642857142857146
20
175
30
0
11
26.785714285714288
21
175
31
0
0
LINE
5
170
100
AcDbEntity
8
0
100
AcDbLine
10
26.785714285714288
20
175
30
0
11
26.785714285714221
21
171.5
31
0
0
LINE
5
171
100
AcDbEntity
8
0
100
AcDbLine
10
26.785714285714221
20
171.5
30
0
11
8.9285714285713667
21
171.5
31
0
0
LINE
5
172
100
AcDbEntity
8
0
100
AcDbLine
10
8.9285714285713667
20
171.5
30
0
11
8.9285714285714288
21
175
31
0
0
LINE
5
173
100
AcDbEntity
8
0
100
AcDbLine
10
8.9285714285714288
20
175
30
0
11
-8.9285714285714288
21
175
31
0
0
LINE
5
174
100
AcDbEntity
8
0
100
AcDbLine
10
-8.9285714285714288
20
175
30
0
11
-8.9285714285714928
21
171.5
31
0
0
LINE
5
175
100
AcDbEntity
8
0
100
AcDbLine
10
-8.9285714285714928
20
171.5
30
0
11
-26.785714285714356
21
171.5
31
0
0
LINE
5
176
100
AcDbEntity
8
0
100
AcDbLine
10
-26.785714285714356
20
171.5
30
0
11
-26.785714285714288
21
175
31
0
0
LINE
5
177
100
AcDbEntity
8
0
100
AcDbLine
10
-26.785714285714288
20
175
30
0
11
-44.642857142857146
21
175
31
0
0
LINE
5
178
100
AcDbEntity
8
0
100
AcDbLine
10
-44.642857142857146
20
175
30
0
11
-44.64285714285721
21
171.5
31
0
0
LINE
5
179
100
AcDbEntity
8
0
100
AcDbLine
10
-44.64285714285721
20
171.5
30
0
11
-62.500000000000064
21
171.5
31
0
0
LINE
5
180
100
AcDbEntity
8
0
100
AcDbLine
10
-62.500000000000064
20
171.5
30
0
11
-62.5
21
175
31
0
0
LINE
5
181
100
AcDbEntity
8
0
100
AcDbLine
10
-62.5
20
175
30
0
11
-80.357142857142861
21
175
31
0
0
LINE
5
182
100
AcDbEntity
8
0
100
AcDbLine
10
-80.357142857142861
20
175
30
0
11
-80.357142857142932
21
171.5
31
0
0
LINE
5
183
100
AcDbEntity
8
0
100
AcDbLine
10
-80.357142857142932
20
171.5
30
0
11
-98.214285714285808
21
171.5
31
0
0
LINE
5
184
100
AcDbEntity
8
0
100
AcDbLine
10
-98.214285714285808
20
171.5
30
0
11
-98.214285714285722
21
175
31
0
0
LINE
5
185
100
AcDbEntity
8
0
100
AcDbLine
10
-98.214285714285722
20
175
30
0
11
-116.07142857142858
21
175
31
0
0
LINE
5
186
100
AcDbEntity
8
0
100
AcDbLine
10
-116.07142857142858
20
175
30
0
11
-116.07142857142864
21
171.5
31
0
0
ENDSEC
0
SECTION
2
OBJECTS
0
DICTIONARY
5
C
100
AcDbDictionary
3
ACAD_GROUP
350
D
3
ACAD_MLINESTYLE
350
17
0
DICTIONARY
5
D
100
AcDbDictionary
0
DICTIONARY
5
1A
330
C
100
AcDbDictionary
0
DICTIONARY
5
17
100
AcDbDictionary
0
ENDSEC
0
EOF
