0
SECTION
2
HEADER
9
$INSUNITS
70
4
9
$ACADVER
1
AC1014
9
$HANDSEED
5
FFFF
0
ENDSEC
0
SECTION
2
TABLES
0
TABLE
2
VPORT
5
8
100
AcDbSymbolTable
0
ENDTAB
0
TABLE
2
LTYPE
5
5
100
AcDbSymbolTable
0
LTYPE
5
14
100
AcDbSymbolTableRecord
100
AcDbLinetypeTableRecord
2
BYBLOCK
70
0
0
LTYPE
5
15
100
AcDbSymbolTableRecord
100
AcDbLinetypeTableRecord
2
BYLAYER
70
0
0
ENDTAB
0
TABLE
2
LAYER
5
2
100
AcDbSymbolTable
70
2
0
LAYER
5
50
100
AcDbSymbolTableRecord
100
AcDbLayerTableRecord
2
0
70
0
6
CONTINUOUS
0
ENDTAB
0
TABLE
2
STYLE
5
3
100
AcDbSymbolTable
70
1
0
STYLE
5
11
100
AcDbSymbolTableRecord
100
AcDbTextStyleTableRecord
2
STANDARD
70
0
0
ENDTAB
0
TABLE
2
VIEW
5
6
100
AcDbSymbolTable
70
0
0
ENDTAB
0
TABLE
2
UCS
5
7
100
AcDbSymbolTable
70
0
0
ENDTAB
0
TABLE
2
APPID
5
9
100
AcDbSymbolTable
70
2
0
APPID
5
12
100
AcDbSymbolTableRecord
100
AcDbRegAppTableRecord
2
ACAD
70
0
0
ENDTAB
0
TABLE
2
DIMSTYLE
5
A
100
AcDbSymbolTable
70
1
0
ENDTAB
0
TABLE
2
BLOCK_RECORD
5
1
100
AcDbSymbolTable
70
1
0
BLOCK_RECORD
5
1F
100
AcDbSymbolTableRecord
100
AcDbBlockTableRecord
2
*MODEL_SPACE
0
BLOCK_RECORD
5
1B
100
AcDbSymbolTableRecord
100
AcDbBlockTableRecord
2
*PAPER_SPACE
0
ENDTAB
0
ENDSEC
0
SECTION
2
BLOCKS
0
BLOCK
5
20
100
AcDbEntity
100
AcDbBlockBegin
2
*MODEL_SPACE
0
ENDBLK
5
21
100
AcDbEntity
100
AcDbBlockEnd
0
BLOCK
5
1C
100
AcDbEntity
100
AcDbBlockBegin
2
*PAPER_SPACE
0
ENDBLK
5
1D
100
AcDbEntity
100
AcDbBlockEnd
0
ENDSEC
0
SECTION
2
ENTITIES
0
LWPOLYLINE
5
100
100
AcDbEntity
8
0
100
AcDbPolyline
90
46
70
1
43
0.0
10
84.000000000000028
20
59.583333333333371
10
80
20
59.583333333333385
10
79.999999999999972
20
48.750000000000057
10
84.000000000000028
20
48.750000000000043
10
84.000000000000028
20
37.916666666666714
10
80
20
37.916666666666721
10
79.999999999999972
20
27.083333333333389
10
84.000000000000028
20
27.083333333333385
10
84.000000000000028
20
16.250000000000053
10
80
20
16.250000000000064
10
79.999999999999972
20
5.4166666666667318
10
84.000000000000028
20
5.4166666666667229
10
84.000000000000028
20
4.0000000000000036
10
70
20
4.0000000000000036
10
70
20
0
10
50
20
0
10
50
20
4.0000000000000036
10
30
20
4.0000000000000036
10
30
20
0
10
14.999999999999998
20
9.1848509936051479e-16
42
0.99999999999999989
10
-15
20
0
10
-30
20
0
10
-30
20
4.0000000000000036
10
-50
20
4.0000000000000036
10
-50
20
0
10
-70
20
0
10
-70
20
4.0000000000000036
10
-90
20
4.0000000000000036
10
-90
20
0
10
-100
20
0
10
-100
20
5.4166666666667318
10
-95.999999999999943
20
5.4166666666667318
10
-95.999999999999972
20
16.250000000000064
10
-100
20
16.250000000000064
10
-100
20
27.083333333333389
10
-95.999999999999943
20
27.083333333333389
10
-95.999999999999972
20
37.916666666666721
10
-100
20
37.916666666666721
10
-100
20
48.750000000000057
10
-95.999999999999943
20
48.750000000000057
10
-95.999999999999972
20
59.583333333333385
10
-100
20
59.583333333333385
10
-100
20
65
10
-89.999999999999972
20
65
10
-89.999999999999972
20
61.00000000000005
10
84.000000000000028
20
61.000000000000043
0
ENDSEC
0
SECTION
2
OBJECTS
0
DICTIONARY
5
C
100
AcDbDictionary
3
ACAD_GROUP
350
D
3
ACAD_MLINESTYLE
350
17
0
DICTIONARY
5
D
100
AcDbDictionary
0
DICTIONARY
5
1A
330
C
100
AcDbDictionary
0
DICTIONARY
5
17
100
AcDbDictionary
0
ENDSEC
0
EOF
