0
SECTION
2
HEADER
9
$INSUNITS
70
4
9
$ACADVER
1
AC1014
9
$HANDSEED
5
FFFF
0
ENDSEC
0
SECTION
2
TABLES
0
TABLE
2
VPORT
5
8
100
AcDbSymbolTable
0
ENDTAB
0
TABLE
2
LTYPE
5
5
100
AcDbSymbolTable
0
LTYPE
5
14
100
AcDbSymbolTableRecord
100
AcDbLinetypeTableRecord
2
BYBLOCK
70
0
0
LTYPE
5
15
100
AcDbSymbolTableRecord
100
AcDbLinetypeTableRecord
2
BYLAYER
70
0
0
ENDTAB
0
TABLE
2
LAYER
5
2
100
AcDbSymbolTable
70
2
0
LAYER
5
50
100
AcDbSymbolTableRecord
100
AcDbLayerTableRecord
2
0
70
0
6
CONTINUOUS
0
ENDTAB
0
TABLE
2
STYLE
5
3
100
AcDbSymbolTable
70
1
0
STYLE
5
11
100
AcDbSymbolTableRecord
100
AcDbTextStyleTableRecord
2
STANDARD
70
0
0
ENDTAB
0
TABLE
2
VIEW
5
6
100
AcDbSymbolTable
70
0
0
ENDTAB
0
TABLE
2
UCS
5
7
100
AcDbSymbolTable
70
0
0
ENDTAB
0
TABLE
2
APPID
5
9
100
AcDbSymbolTable
70
2
0
APPID
5
12
100
AcDbSymbolTableRecord
100
AcDbRegAppTableRecord
2
ACAD
70
0
0
ENDTAB
0
TABLE
2
DIMSTYLE
5
A
100
AcDbSymbolTable
70
1
0
ENDTAB
0
TABLE
2
BLOCK_RECORD
5
1
100
AcDbSymbolTable
70
1
0
BLOCK_RECORD
5
1F
100
AcDbSymbolTableRecord
100
AcDbBlockTableRecord
2
*MODEL_SPACE
0
BLOCK_RECORD
5
1B
100
AcDbSymbolTableRecord
100
AcDbBlockTableRecord
2
*PAPER_SPACE
0
ENDTAB
0
ENDSEC
0
SECTION
2
BLOCKS
0
BLOCK
5
20
100
AcDbEntity
100
AcDbBlockBegin
2
*MODEL_SPACE
0
ENDBLK
5
21
100
AcDbEntity
100
AcDbBlockEnd
0
BLOCK
5
1C
100
AcDbEntity
100
AcDbBlockBegin
2
*PAPER_SPACE
0
ENDBLK
5
1D
100
AcDbEntity
100
AcDbBlockEnd
0
ENDSEC
0
SECTION
2
ENTITIES
0
LWPOLYLINE
5
100
100
AcDbEntity
8
0
100
AcDbPolyline
90
88
70
1
43
0.0
10
88.999999999999986
20
99.750000000000057
10
88.999999999999986
20
111.00000000000001
10
120.99991729732596
20
110.99999999999997
10
120.99991729732596
20
61
10
116.07134586875458
20
61.000000000000007
10
116.07134586875458
20
64.999999999999986
10
98.214203011611716
20
64.999999999999986
10
98.214203011611716
20
61.000000000000043
10
88.999999999999986
20
61.000000000000057
10
88.999999999999986
20
72.250000000000043
10
85
20
72.250000000000043
10
85
20
61.000000000000057
10
80.357060154468854
20
61
10
80.357060154468854
20
64.999999999999986
10
62.499917297326
20
64.999999999999986
10
62.499917297326
20
61
10
60
20
61.000000000000057
10
60
20
72.250000000000043
10
56
20
72.250000000000043
10
56
20
61.000000000000057
10
44.642774440183139
20
61
10
44.642774440183139
20
64.999999999999986
10
31
20
64.999999999999986
10
31
20
72.250000000000043
10
26.999999999999996
20
72.250000000000043
10
26.999999999999996
20
64.999999999999986
10
26.785631583040281
20
64.999999999999986
10
26.785631583040281
20
61
10
8.9284887258974166
20
61
10
8.9284887258974166
20
64.999999999999986
10
2.0000000000000009
20
64.999999999999986
10
2
20
72.250000000000043
10
-2
20
72.250000000000043
10
-2.0000000000000009
20
64.999999999999986
10
-8.9286541312454304
20
64.999999999999986
10
-8.9286541312454304
20
61
10
-26.785796988388295
20
61
10
-26.785796988388295
20
64.999999999999986
10
-26.999999999999996
20
64.999999999999986
10
-26.999999999999996
20
72.250000000000043
10
-31
20
72.250000000000043
10
-31
20
64.999999999999986
10
-44.64293984553116
20
64.999999999999986
10
-44.64293984553116
20
61
10
-56
20
61.000000000000057
10
-56
20
72.250000000000043
10
-60
20
72.250000000000043
10
-60
20
61.000000000000057
10
-62.500082702674007
20
61
10
-62.500082702674007
20
64.999999999999986
10
-80.357225559816854
20
64.999999999999986
10
-80.357225559816854
20
61
10
-85
20
61.000000000000057
10
-85
20
72.250000000000043
10
-88.999999999999986
20
72.250000000000043
10
-88.999999999999986
20
61
10
-98.214368416959729
20
61
10
-98.214368416959729
20
64.999999999999986
10
-116.07151127410259
20
64.999999999999986
10
-116.07151127410259
20
61
10
-121.00008270267402
20
61
10
-121.00008270267402
20
111.00000000000001
10
-88.999999999999986
20
111.00000000000001
10
-88.999999999999986
20
99.750000000000057
10
-85
20
99.750000000000057
10
-85
20
111.00000000000001
10
-60
20
111.00000000000001
10
-60
20
99.750000000000057
10
-56
20
99.750000000000057
10
-56
20
111.00000000000001
10
-30.999999999999996
20
111
10
-31
20
99.750000000000057
10
-26.999999999999996
20
99.750000000000057
10
-26.999999999999996
20
111.00000000000001
10
-1.9999999999999929
20
111
10
-2
20
99.750000000000057
10
2
20
99.750000000000057
10
2.0000000000000018
20
111.00000000000001
10
26.999999999999993
20
111
10
26.999999999999996
20
99.750000000000057
10
31
20
99.750000000000057
10
31
20
111.00000000000001
10
56.000000000000014
20
111
10
56
20
99.750000000000057
10
60
20
99.750000000000057
10
60
20
111.00000000000001
10
85
20
110.99999999999997
10
85
20
99.750000000000057
0
ENDSEC
0
SECTION
2
OBJECTS
0
DICTIONARY
5
C
100
AcDbDictionary
3
ACAD_GROUP
350
D
3
ACAD_MLINESTYLE
350
17
0
DICTIONARY
5
D
100
AcDbDictionary
0
DICTIONARY
5
1A
330
C
100
AcDbDictionary
0
DICTIONARY
5
17
100
AcDbDictionary
0
ENDSEC
0
EOF
