0
SECTION
2
HEADER
9
$INSUNITS
70
4
9
$ACADVER
1
AC1014
9
$HANDSEED
5
FFFF
0
ENDSEC
0
SECTION
2
TABLES
0
TABLE
2
VPORT
5
8
100
AcDbSymbolTable
0
ENDTAB
0
TABLE
2
LTYPE
5
5
100
AcDbSymbolTable
0
LTYPE
5
14
100
AcDbSymbolTableRecord
100
AcDbLinetypeTableRecord
2
BYBLOCK
70
0
0
LTYPE
5
15
100
AcDbSymbolTableRecord
100
AcDbLinetypeTableRecord
2
BYLAYER
70
0
0
ENDTAB
0
TABLE
2
LAYER
5
2
100
AcDbSymbolTable
70
2
0
LAYER
5
50
100
AcDbSymbolTableRecord
100
AcDbLayerTableRecord
2
0
70
0
6
CONTINUOUS
0
ENDTAB
0
TABLE
2
STYLE
5
3
100
AcDbSymbolTable
70
1
0
STYLE
5
11
100
AcDbSymbolTableRecord
100
AcDbTextStyleTableRecord
2
STANDARD
70
0
0
ENDTAB
0
TABLE
2
VIEW
5
6
100
AcDbSymbolTable
70
0
0
ENDTAB
0
TABLE
2
UCS
5
7
100
AcDbSymbolTable
70
0
0
ENDTAB
0
TABLE
2
APPID
5
9
100
AcDbSymbolTable
70
2
0
APPID
5
12
100
AcDbSymbolTableRecord
100
AcDbRegAppTableRecord
2
ACAD
70
0
0
ENDTAB
0
TABLE
2
DIMSTYLE
5
A
100
AcDbSymbolTable
70
1
0
ENDTAB
0
TABLE
2
BLOCK_RECORD
5
1
100
AcDbSymbolTable
70
1
0
BLOCK_RECORD
5
1F
100
AcDbSymbolTableRecord
100
AcDbBlockTableRecord
2
*MODEL_SPACE
0
BLOCK_RECORD
5
1B
100
AcDbSymbolTableRecord
100
AcDbBlockTableRecord
2
*PAPER_SPACE
0
ENDTAB
0
ENDSEC
0
SECTION
2
BLOCKS
0
BLOCK
5
20
100
AcDbEntity
100
AcDbBlockBegin
2
*MODEL_SPACE
0
ENDBLK
5
21
100
AcDbEntity
100
AcDbBlockEnd
0
BLOCK
5
1C
100
AcDbEntity
100
AcDbBlockBegin
2
*PAPER_SPACE
0
ENDBLK
5
1D
100
AcDbEntity
100
AcDbBlockEnd
0
ENDSEC
0
SECTION
2
ENTITIES
0
LWPOLYLINE
5
100
100
AcDbEntity
8
0
100
AcDbPolyline
90
108
70
1
43
0.0
10
-31
20
-78.000000000000128
10
-31
20
-96.000000000000298
10
-33
20
-96
10
-33
20
-89.999999999999972
10
-37
20
-89.999999999999972
10
-37
20
-96
10
-44.642774440183139
20
-96.000000000000298
10
-44.642774440183139
20
-92.000000000000298
10
-56
20
-92.000000000000298
10
-56
20
-78.000000000000128
10
-60
20
-78.000000000000128
10
-60
20
-92.000000000000298
10
-62.499917297326
20
-92.000000000000298
10
-62.499917297326
20
-96.000000000000298
10
-80.357060154468854
20
-96.000000000000298
10
-80.357060154468854
20
-92.000000000000298
10
-85
20
-92.000000000000298
10
-85
20
-78.000000000000128
10
-88.999999999999986
20
-78.000000000000128
10
-88.999999999999986
20
-92.000000000000298
10
-98.214203011611716
20
-92.000000000000298
10
-98.214203011611716
20
-96.000000000000298
10
-116.07134586875458
20
-96.000000000000298
10
-116.07134586875458
20
-92.000000000000298
10
-120.99991729732596
20
-92.000000000000298
10
-120.99991729732596
20
80.000000000000014
10
-88.999999999999986
20
79.999999999999986
10
-88.999999999999986
20
61.999999999999872
10
-85
20
61.999999999999872
10
-85
20
79.999999999999986
10
-76.499999999999929
20
80.000000000000014
42
0.99999999999999989
10
-68.499999999999929
20
80.000000000000014
10
-60
20
79.999999999999986
10
-60
20
61.999999999999872
10
-56
20
61.999999999999872
10
-56
20
79.999999999999986
10
-47.499999999999929
20
80.000000000000014
42
0.99999999999999989
10
-39.499999999999922
20
80.000000000000014
10
-31
20
79.999999999999986
10
-31
20
61.999999999999872
10
-26.999999999999996
20
61.999999999999872
10
-26.999999999999996
20
79.999999999999986
10
-18.499999999999922
20
80.000000000000014
42
0.99999999999999989
10
-10.499999999999918
20
80.000000000000014
10
-2
20
79.999999999999986
10
-2
20
61.999999999999872
10
2
20
61.999999999999872
10
1.9999999999999996
20
79.999999999999986
10
10.500000000000075
20
80.000000000000014
42
0.99999999999999989
10
18.500000000000078
20
80.000000000000014
10
26.999999999999996
20
79.999999999999986
10
26.999999999999996
20
61.999999999999872
10
31
20
61.999999999999872
10
31
20
79.999999999999986
10
39.500000000000078
20
80.000000000000014
42
0.99999999999999989
10
47.500000000000071
20
80.000000000000014
10
56
20
79.999999999999986
10
56
20
61.999999999999872
10
60
20
61.999999999999872
10
60
20
79.999999999999986
10
68.500000000000071
20
80.000000000000014
42
0.99999999999999989
10
76.500000000000071
20
80.000000000000014
10
85
20
79.999999999999986
10
85
20
61.999999999999872
10
88.999999999999986
20
61.999999999999872
10
88.999999999999986
20
79.999999999999986
10
120.99991729732596
20
80.000000000000014
10
120.99991729732596
20
-92.000000000000298
10
116.07151127410259
20
-92.000000000000298
10
116.07151127410259
20
-96.000000000000298
10
98.214368416959729
20
-96.000000000000298
10
98.214368416959729
20
-92.000000000000298
10
88.999999999999986
20
-92.000000000000298
10
88.999999999999986
20
-78.000000000000128
10
85
20
-78.000000000000128
10
85
20
-92.000000000000298
10
80.357225559816854
20
-92.000000000000298
10
80.357225559816854
20
-96.000000000000298
10
62.500082702674007
20
-96.000000000000298
10
62.500082702674007
20
-92.000000000000298
10
60
20
-92.000000000000298
10
60
20
-78.000000000000128
10
56
20
-78.000000000000128
10
56
20
-92.000000000000298
10
44.64293984553116
20
-92.000000000000298
10
44.642939845531153
20
-96.000000000000298
10
37
20
-96
10
37
20
-89.999999999999972
10
32.999999999999993
20
-89.999999999999972
10
32.999999999999986
20
-96
10
31
20
-96.000000000000298
10
31
20
-78.000000000000128
10
26.999999999999996
20
-78.000000000000128
10
26.999999999999996
20
-96.000000000000298
10
26.785796988388292
20
-96.000000000000298
10
26.785796988388295
20
-92.000000000000298
10
8.9286541312454304
20
-92.000000000000298
10
8.9286541312454339
20
-96.000000000000298
10
1.9999999999999929
20
-96
10
2
20
-78.000000000000128
10
-2
20
-78.000000000000128
10
-2.0000000000000009
20
-96.000000000000298
10
-8.9284887258974237
20
-96.000000000000298
10
-8.9284887258974166
20
-92.000000000000298
10
-26.785631583040281
20
-92.000000000000298
10
-26.785631583040281
20
-96.000000000000298
10
-26.999999999999993
20
-96
10
-26.999999999999996
20
-78.000000000000128
0
LWPOLYLINE
5
101
100
AcDbEntity
8
0
100
AcDbPolyline
90
4
70
1
43
0.0
10
-88.999999999999986
20
-18.000000000000131
10
-88.999999999999986
20
-58.000000000000128
10
-85
20
-58.000000000000128
10
-85
20
-18.000000000000131
0
LWPOLYLINE
5
102
100
AcDbEntity
8
0
100
AcDbPolyline
90
4
70
1
43
0.0
10
-88.999999999999986
20
41.999999999999872
10
-88.999999999999986
20
1.9999999999998685
10
-85
20
1.9999999999998685
10
-85
20
41.999999999999872
0
LWPOLYLINE
5
103
100
AcDbEntity
8
0
100
AcDbPolyline
90
4
70
1
43
0.0
10
-75.750000000000014
20
-41.999999999999901
10
-75.750000000000014
20
-61.999999999999901
10
-69.25
20
-61.999999999999901
10
-69.25
20
-41.999999999999901
0
LWPOLYLINE
5
104
100
AcDbEntity
8
0
100
AcDbPolyline
90
4
70
1
43
0.0
10
-31
20
-18.000000000000131
10
-31
20
-58.000000000000128
10
-26.999999999999996
20
-58.000000000000128
10
-26.999999999999996
20
-18.000000000000131
0
LWPOLYLINE
5
105
100
AcDbEntity
8
0
100
AcDbPolyline
90
4
70
1
43
0.0
10
-31
20
41.999999999999872
10
-31
20
1.9999999999998685
10
-26.999999999999996
20
1.9999999999998685
10
-26.999999999999996
20
41.999999999999872
0
LWPOLYLINE
5
106
100
AcDbEntity
8
0
100
AcDbPolyline
90
4
70
1
43
0.0
10
-17.75
20
-41.999999999999901
10
-17.75
20
-61.999999999999901
10
-11.249999999999996
20
-61.999999999999901
10
-11.249999999999996
20
-41.999999999999901
0
LWPOLYLINE
5
107
100
AcDbEntity
8
0
100
AcDbPolyline
90
4
70
1
43
0.0
10
26.999999999999996
20
-18.000000000000131
10
26.999999999999996
20
-58.000000000000128
10
31
20
-58.000000000000128
10
31
20
-18.000000000000131
0
LWPOLYLINE
5
108
100
AcDbEntity
8
0
100
AcDbPolyline
90
4
70
1
43
0.0
10
26.999999999999996
20
41.999999999999872
10
26.999999999999996
20
1.9999999999998685
10
31
20
1.9999999999998685
10
31
20
41.999999999999872
0
LWPOLYLINE
5
109
100
AcDbEntity
8
0
100
AcDbPolyline
90
4
70
1
43
0.0
10
40.249999999999993
20
-41.999999999999901
10
40.249999999999993
20
-61.999999999999901
10
46.749999999999986
20
-61.999999999999901
10
46.749999999999986
20
-41.999999999999901
0
LWPOLYLINE
5
110
100
AcDbEntity
8
0
100
AcDbPolyline
90
4
70
1
43
0.0
10
85
20
-18.000000000000131
10
85
20
-58.000000000000128
10
88.999999999999986
20
-58.000000000000128
10
88.999999999999986
20
-18.000000000000131
0
LWPOLYLINE
5
111
100
AcDbEntity
8
0
100
AcDbPolyline
90
4
70
1
43
0.0
10
85
20
41.999999999999872
10
85
20
1.9999999999998685
10
88.999999999999986
20
1.9999999999998685
10
88.999999999999986
20
41.999999999999872
0
LWPOLYLINE
5
112
100
AcDbEntity
8
0
100
AcDbPolyline
90
4
70
1
43
0.0
10
69.249999999999986
20
-61.999999999999901
10
75.75
20
-61.999999999999901
10
75.75
20
-41.999999999999901
10
69.249999999999986
20
-41.999999999999901
0
LWPOLYLINE
5
113
100
AcDbEntity
8
0
100
AcDbPolyline
90
4
70
1
43
0.0
10
56
20
41.999999999999872
10
56
20
1.9999999999998685
10
60
20
1.9999999999998685
10
60
20
41.999999999999872
0
LWPOLYLINE
5
114
100
AcDbEntity
8
0
100
AcDbPolyline
90
4
70
1
43
0.0
10
56
20
-18.000000000000131
10
56
20
-58.000000000000128
10
60
20
-58.000000000000128
10
60
20
-18.000000000000131
0
LWPOLYLINE
5
115
100
AcDbEntity
8
0
100
AcDbPolyline
90
4
70
1
43
0.0
10
11.249999999999996
20
-41.999999999999901
10
11.249999999999996
20
-61.999999999999901
10
17.75
20
-61.999999999999901
10
17.75
20
-41.999999999999901
0
LWPOLYLINE
5
116
100
AcDbEntity
8
0
100
AcDbPolyline
90
4
70
1
43
0.0
10
-2
20
41.999999999999872
10
-2
20
1.9999999999998685
10
2
20
1.9999999999998685
10
2
20
41.999999999999872
0
LWPOLYLINE
5
117
100
AcDbEntity
8
0
100
AcDbPolyline
90
4
70
1
43
0.0
10
-2
20
-18.000000000000131
10
-2
20
-58.000000000000128
10
2
20
-58.000000000000128
10
2
20
-18.000000000000131
0
LWPOLYLINE
5
118
100
AcDbEntity
8
0
100
AcDbPolyline
90
4
70
1
43
0.0
10
-46.750000000000007
20
-41.999999999999901
10
-46.750000000000007
20
-61.999999999999901
10
-40.25
20
-61.999999999999901
10
-40.25
20
-41.999999999999901
0
LWPOLYLINE
5
119
100
AcDbEntity
8
0
100
AcDbPolyline
90
4
70
1
43
0.0
10
-60
20
41.999999999999872
10
-60
20
1.9999999999998685
10
-56
20
1.9999999999998685
10
-56
20
41.999999999999872
0
LWPOLYLINE
5
120
100
AcDbEntity
8
0
100
AcDbPolyline
90
4
70
1
43
0.0
10
-60
20
-18.000000000000131
10
-60
20
-58.000000000000128
10
-56
20
-58.000000000000128
10
-56
20
-18.000000000000131
0
ENDSEC
0
SECTION
2
OBJECTS
0
DICTIONARY
5
C
100
AcDbDictionary
3
ACAD_GROUP
350
D
3
ACAD_MLINESTYLE
350
17
0
DICTIONARY
5
D
100
AcDbDictionary
0
DICTIONARY
5
1A
330
C
100
AcDbDictionary
0
DICTIONARY
5
17
100
AcDbDictionary
0
ENDSEC
0
EOF
