0
SECTION
2
HEADER
9
$INSUNITS
70
4
9
$ACADVER
1
AC1014
9
$HANDSEED
5
FFFF
0
ENDSEC
0
SECTION
2
TABLES
0
TABLE
2
VPORT
5
8
100
AcDbSymbolTable
0
ENDTAB
0
TABLE
2
LTYPE
5
5
100
AcDbSymbolTable
0
LTYPE
5
14
100
AcDbSymbolTableRecord
100
AcDbLinetypeTableRecord
2
BYBLOCK
70
0
0
LTYPE
5
15
100
AcDbSymbolTableRecord
100
AcDbLinetypeTableRecord
2
BYLAYER
70
0
0
ENDTAB
0
TABLE
2
LAYER
5
2
100
AcDbSymbolTable
70
2
0
LAYER
5
50
100
AcDbSymbolTableRecord
100
AcDbLayerTableRecord
2
0
70
0
6
CONTINUOUS
0
ENDTAB
0
TABLE
2
STYLE
5
3
100
AcDbSymbolTable
70
1
0
STYLE
5
11
100
AcDbSymbolTableRecord
100
AcDbTextStyleTableRecord
2
STANDARD
70
0
0
ENDTAB
0
TABLE
2
VIEW
5
6
100
AcDbSymbolTable
70
0
0
ENDTAB
0
TABLE
2
UCS
5
7
100
AcDbSymbolTable
70
0
0
ENDTAB
0
TABLE
2
APPID
5
9
100
AcDbSymbolTable
70
2
0
APPID
5
12
100
AcDbSymbolTableRecord
100
AcDbRegAppTableRecord
2
ACAD
70
0
0
ENDTAB
0
TABLE
2
DIMSTYLE
5
A
100
AcDbSymbolTable
70
1
0
ENDTAB
0
TABLE
2
BLOCK_RECORD
5
1
100
AcDbSymbolTable
70
1
0
BLOCK_RECORD
5
1F
100
AcDbSymbolTableRecord
100
AcDbBlockTableRecord
2
*MODEL_SPACE
0
BLOCK_RECORD
5
1B
100
AcDbSymbolTableRecord
100
AcDbBlockTableRecord
2
*PAPER_SPACE
0
ENDTAB
0
ENDSEC
0
SECTION
2
BLOCKS
0
BLOCK
5
20
100
AcDbEntity
100
AcDbBlockBegin
2
*MODEL_SPACE
0
ENDBLK
5
21
100
AcDbEntity
100
AcDbBlockEnd
0
BLOCK
5
1C
100
AcDbEntity
100
AcDbBlockBegin
2
*PAPER_SPACE
0
ENDBLK
5
1D
100
AcDbEntity
100
AcDbBlockEnd
0
ENDSEC
0
SECTION
2
ENTITIES
0
LINE
5
100
100
AcDbEntity
8
0
100
AcDbLine
10
-37
20
59.583333333333385
30
0
11
-37
21
65
31
0
0
LINE
5
101
100
AcDbEntity
8
0
100
AcDbLine
10
-33
20
59.583333333333385
30
0
11
-37
21
59.583333333333385
31
0
0
LINE
5
102
100
AcDbEntity
8
0
100
AcDbLine
10
-33
20
65
30
0
11
-33
21
59.583333333333385
31
0
0
LINE
5
103
100
AcDbEntity
8
0
100
AcDbLine
10
-37
20
65
30
0
11
-33
21
65
31
0
0
LWPOLYLINE
5
104
100
AcDbEntity
8
0
100
AcDbPolyline
90
4
70
1
43
0.0
10
-37
20
37.916666666666721
10
-33
20
37.916666666666721
10
-33
20
48.750000000000057
10
-37
20
48.750000000000057
0
LWPOLYLINE
5
105
100
AcDbEntity
8
0
100
AcDbPolyline
90
4
70
1
43
0.0
10
-37
20
16.250000000000064
10
-33
20
16.250000000000064
10
-33
20
27.083333333333389
10
-37
20
27.083333333333389
0
LWPOLYLINE
5
106
100
AcDbEntity
8
0
100
AcDbPolyline
90
68
70
1
43
0.0
10
-120.99999999999989
20
152.99999999999994
10
121
20
152.99999999999994
10
121
20
164.99999999999994
10
125
20
165
10
125
20
151.24999999999997
10
121.00000000000001
20
151.24999999999997
10
121.00000000000001
20
123.74999999999999
10
125
20
123.74999999999999
10
125
20
96.249999999999986
10
121.00000000000001
20
96.249999999999986
10
121.00000000000001
20
68.749999999999986
10
125
20
68.749999999999986
10
125
20
41.249999999999993
10
121.00000000000001
20
41.249999999999993
10
121.00000000000001
20
13.74999999999998
10
125
20
13.74999999999998
10
124.99999999999999
20
4
10
116.0714285714286
20
4
10
116.07142857142858
20
0
10
98.214285714285708
20
0
10
98.214285714285708
20
4
10
80.357142857142833
20
4
10
80.357142857142847
20
0
10
62.499999999999986
20
0
10
62.499999999999986
20
4
10
44.642857142857139
20
4
10
44.642857142857125
20
0
10
37
20
0
10
37
20
5.4166666666667282
10
33
20
5.4166666666667282
10
33
20
0
10
26.785714285714267
20
0
10
26.78571428571427
20
4
10
8.9285714285714057
20
4
10
8.9285714285714075
20
0
10
-8.9285714285714484
20
0
10
-8.9285714285714413
20
4
10
-26.785714285714306
20
4
10
-26.785714285714306
20
0
10
-33
20
0
10
-33
20
5.4166666666667318
10
-37
20
5.4166666666667318
10
-37
20
0
10
-44.64285714285716
20
0
10
-44.64285714285716
20
4
10
-62.500000000000028
20
4
10
-62.500000000000028
20
0
10
-80.35714285714289
20
0
10
-80.35714285714289
20
4
10
-98.214285714285722
20
4
10
-98.214285714285722
20
0
10
-116.0714285714286
20
0
10
-116.0714285714286
20
4
10
-125
20
4
10
-125
20
13.749999999999996
10
-121.00000000000001
20
13.749999999999996
10
-121.00000000000001
20
41.249999999999993
10
-125
20
41.249999999999993
10
-125
20
68.75
10
-121.00000000000001
20
68.75
10
-121.00000000000001
20
96.249999999999986
10
-125
20
96.249999999999986
10
-125
20
123.75
10
-121.00000000000001
20
123.75
10
-121.00000000000001
20
151.24999999999997
10
-125
20
151.24999999999997
10
-125
20
165
10
-121
20
165
0
LINE
5
107
100
AcDbEntity
8
0
100
AcDbLine
10
37
20
65
30
0
11
37
21
59.583333333333385
31
0
0
LINE
5
108
100
AcDbEntity
8
0
100
AcDbLine
10
33
20
59.583333333333385
30
0
11
33
21
65
31
0
0
LWPOLYLINE
5
109
100
AcDbEntity
8
0
100
AcDbPolyline
90
4
70
1
43
0.0
10
37
20
27.083333333333389
10
32.999999999999993
20
27.083333333333389
10
32.999999999999993
20
16.250000000000064
10
37
20
16.250000000000064
0
LWPOLYLINE
5
110
100
AcDbEntity
8
0
100
AcDbPolyline
90
4
70
1
43
0.0
10
37
20
48.750000000000057
10
32.999999999999993
20
48.750000000000057
10
32.999999999999993
20
37.916666666666721
10
37
20
37.916666666666721
0
LINE
5
111
100
AcDbEntity
8
0
100
AcDbLine
10
32.999999999999993
20
65
30
0
11
37
21
65
31
0
0
LINE
5
112
100
AcDbEntity
8
0
100
AcDbLine
10
37
20
59.583333333333385
30
0
11
32.999999999999993
21
59.583333333333385
31
0
0
LWPOLYLINE
5
113
100
AcDbEntity
8
0
100
AcDbPolyline
90
4
70
1
43
0.0
10
69.000000000000014
20
37.000000000000014
10
69.000000000000014
20
25.000000000000007
10
101.00000000000001
20
25.000000000000007
10
101.00000000000001
20
37.000000000000014
0
CIRCLE
5
114
100
AcDbEntity
8
0
100
AcDbCircle
10
0
20
16
30
0
40
4
210
0
220
0
230
1
0
CIRCLE
5
115
100
AcDbEntity
8
0
100
AcDbCircle
10
-53.571428571428577
20
16
30
0
40
4.0000000000000036
210
0
220
0
230
1
0
CIRCLE
5
116
100
AcDbEntity
8
0
100
AcDbCircle
10
53.571428571428577
20
16
30
0
40
4.0000000000000036
210
0
220
0
230
1
0
CIRCLE
5
117
100
AcDbEntity
8
0
100
AcDbCircle
10
-107.14285714285715
20
16
30
0
40
4.0000000000000036
210
0
220
0
230
1
0
CIRCLE
5
118
100
AcDbEntity
8
0
100
AcDbCircle
10
107.14285714285715
20
16
30
0
40
4.0000000000000036
210
0
220
0
230
1
0
CIRCLE
5
119
100
AcDbEntity
8
0
100
AcDbCircle
10
61.571428571428577
20
16
30
0
40
2.0000000000000018
210
0
220
0
230
1
0
CIRCLE
5
120
100
AcDbEntity
8
0
100
AcDbCircle
10
45.571428571428577
20
15.999999999999996
30
0
40
2.0000000000000018
210
0
220
0
230
1
0
CIRCLE
5
121
100
AcDbEntity
8
0
100
AcDbCircle
10
47.914574321936186
20
21.656854249492376
30
0
40
2.0000000000000018
210
0
220
0
230
1
0
CIRCLE
5
122
100
AcDbEntity
8
0
100
AcDbCircle
10
59.228282820920953
20
10.343145750507624
30
0
40
2.0000000000000018
210
0
220
0
230
1
0
CIRCLE
5
123
100
AcDbEntity
8
0
100
AcDbCircle
10
47.9145743219362
20
10.343145750507619
30
0
40
2.0000000000000018
210
0
220
0
230
1
0
CIRCLE
5
124
100
AcDbEntity
8
0
100
AcDbCircle
10
59.228282820920953
20
21.65685424949238
30
0
40
2.0000000000000018
210
0
220
0
230
1
0
CIRCLE
5
125
100
AcDbEntity
8
0
100
AcDbCircle
10
53.571428571428577
20
24
30
0
40
2.0000000000000018
210
0
220
0
230
1
0
CIRCLE
5
126
100
AcDbEntity
8
0
100
AcDbCircle
10
53.571428571428577
20
8
30
0
40
2.0000000000000018
210
0
220
0
230
1
0
ENDSEC
0
SECTION
2
OBJECTS
0
DICTIONARY
5
C
100
AcDbDictionary
3
ACAD_GROUP
350
D
3
ACAD_MLINESTYLE
350
17
0
DICTIONARY
5
D
100
AcDbDictionary
0
DICTIONARY
5
1A
330
C
100
AcDbDictionary
0
DICTIONARY
5
17
100
AcDbDictionary
0
ENDSEC
0
EOF
