0
SECTION
2
HEADER
9
$INSUNITS
70
4
9
$ACADVER
1
AC1014
9
$HANDSEED
5
FFFF
0
ENDSEC
0
SECTION
2
TABLES
0
TABLE
2
VPORT
5
8
100
AcDbSymbolTable
0
ENDTAB
0
TABLE
2
LTYPE
5
5
100
AcDbSymbolTable
0
LTYPE
5
14
100
AcDbSymbolTableRecord
100
AcDbLinetypeTableRecord
2
BYBLOCK
70
0
0
LTYPE
5
15
100
AcDbSymbolTableRecord
100
AcDbLinetypeTableRecord
2
BYLAYER
70
0
0
ENDTAB
0
TABLE
2
LAYER
5
2
100
AcDbSymbolTable
70
2
0
LAYER
5
50
100
AcDbSymbolTableRecord
100
AcDbLayerTableRecord
2
0
70
0
6
CONTINUOUS
0
ENDTAB
0
TABLE
2
STYLE
5
3
100
AcDbSymbolTable
70
1
0
STYLE
5
11
100
AcDbSymbolTableRecord
100
AcDbTextStyleTableRecord
2
STANDARD
70
0
0
ENDTAB
0
TABLE
2
VIEW
5
6
100
AcDbSymbolTable
70
0
0
ENDTAB
0
TABLE
2
UCS
5
7
100
AcDbSymbolTable
70
0
0
ENDTAB
0
TABLE
2
APPID
5
9
100
AcDbSymbolTable
70
2
0
APPID
5
12
100
AcDbSymbolTableRecord
100
AcDbRegAppTableRecord
2
ACAD
70
0
0
ENDTAB
0
TABLE
2
DIMSTYLE
5
A
100
AcDbSymbolTable
70
1
0
ENDTAB
0
TABLE
2
BLOCK_RECORD
5
1
100
AcDbSymbolTable
70
1
0
BLOCK_RECORD
5
1F
100
AcDbSymbolTableRecord
100
AcDbBlockTableRecord
2
*MODEL_SPACE
0
BLOCK_RECORD
5
1B
100
AcDbSymbolTableRecord
100
AcDbBlockTableRecord
2
*PAPER_SPACE
0
ENDTAB
0
ENDSEC
0
SECTION
2
BLOCKS
0
BLOCK
5
20
100
AcDbEntity
100
AcDbBlockBegin
2
*MODEL_SPACE
0
ENDBLK
5
21
100
AcDbEntity
100
AcDbBlockEnd
0
BLOCK
5
1C
100
AcDbEntity
100
AcDbBlockBegin
2
*PAPER_SPACE
0
ENDBLK
5
1D
100
AcDbEntity
100
AcDbBlockEnd
0
ENDSEC
0
SECTION
2
ENTITIES
0
LINE
5
100
100
AcDbEntity
8
0
100
AcDbLine
10
37
20
-89.999999999999986
30
0
11
37
21
-96
31
0
0
LINE
5
101
100
AcDbEntity
8
0
100
AcDbLine
10
33
20
-96
30
0
11
33
21
-89.999999999999986
31
0
0
LINE
5
102
100
AcDbEntity
8
0
100
AcDbLine
10
119.99999999999999
20
-92.000000000000298
30
0
11
119.99999999999997
21
79
31
0
0
LINE
5
103
100
AcDbEntity
8
0
100
AcDbLine
10
-119.99999999999997
20
79.000000000000028
30
0
11
-120
21
-92.000000000000284
31
0
0
LINE
5
104
100
AcDbEntity
8
0
100
AcDbLine
10
-33
20
-89.999999999999986
30
0
11
-33
21
-96
31
0
0
LINE
5
105
100
AcDbEntity
8
0
100
AcDbLine
10
-37
20
-96
30
0
11
-37
21
-89.999999999999986
31
0
0
LWPOLYLINE
5
106
100
AcDbEntity
8
0
100
AcDbPolyline
90
4
70
1
43
0.0
10
-75.750000000000014
20
-42.250000000000213
10
-75.750000000000014
20
-62.250000000000213
10
-69.250000000000028
20
-62.250000000000213
10
-69.250000000000028
20
-42.250000000000213
0
LWPOLYLINE
5
107
100
AcDbEntity
8
0
100
AcDbPolyline
90
4
70
1
43
0.0
10
-17.750000000000014
20
-42.250000000000213
10
-17.750000000000014
20
-62.250000000000213
10
-11.250000000000018
20
-62.250000000000213
10
-11.250000000000018
20
-42.250000000000213
0
LWPOLYLINE
5
108
100
AcDbEntity
8
0
100
AcDbPolyline
90
4
70
1
43
0.0
10
40.249999999999993
20
-42.250000000000213
10
40.249999999999993
20
-62.250000000000213
10
46.749999999999986
20
-62.250000000000213
10
46.749999999999986
20
-42.250000000000213
0
LWPOLYLINE
5
109
100
AcDbEntity
8
0
100
AcDbPolyline
90
4
70
1
43
0.0
10
69.25
20
-62.250000000000213
10
75.75
20
-62.250000000000213
10
75.75
20
-42.250000000000213
10
69.25
20
-42.250000000000213
0
LWPOLYLINE
5
110
100
AcDbEntity
8
0
100
AcDbPolyline
90
4
70
1
43
0.0
10
11.249999999999991
20
-42.250000000000213
10
11.249999999999991
20
-62.250000000000213
10
17.749999999999986
20
-62.250000000000213
10
17.749999999999986
20
-42.250000000000213
0
LWPOLYLINE
5
111
100
AcDbEntity
8
0
100
AcDbPolyline
90
4
70
1
43
0.0
10
-46.750000000000014
20
-42.250000000000213
10
-46.750000000000014
20
-62.250000000000213
10
-40.250000000000021
20
-62.250000000000213
10
-40.250000000000021
20
-42.250000000000213
0
LINE
5
112
100
AcDbEntity
8
0
100
AcDbLine
10
-31
20
-96.000000000000298
30
0
11
-31
21
-78.000000000000128
31
0
0
LINE
5
113
100
AcDbEntity
8
0
100
AcDbLine
10
-31
20
-78.000000000000128
30
0
11
-26.999999999999996
21
-78.000000000000128
31
0
0
LINE
5
114
100
AcDbEntity
8
0
100
AcDbLine
10
-26.999999999999996
20
-78.000000000000128
30
0
11
-26.999999999999996
21
-92.000000000000298
31
0
0
LINE
5
115
100
AcDbEntity
8
0
100
AcDbLine
10
-26.999999999999996
20
-92.000000000000298
30
0
11
-9.9285714285714555
21
-92.000000000000298
31
0
0
LINE
5
116
100
AcDbEntity
8
0
100
AcDbLine
10
-9.9285714285714555
20
-92.000000000000298
30
0
11
-9.9285714285714537
21
-96.000000000000298
31
0
0
LINE
5
117
100
AcDbEntity
8
0
100
AcDbLine
10
-9.9285714285714537
20
-96.000000000000298
30
0
11
-2.0000000000000009
21
-96.000000000000298
31
0
0
LINE
5
118
100
AcDbEntity
8
0
100
AcDbLine
10
-2.0000000000000009
20
-96.000000000000298
30
0
11
-2
21
-78.000000000000128
31
0
0
LINE
5
119
100
AcDbEntity
8
0
100
AcDbLine
10
-2
20
-78.000000000000128
30
0
11
2
21
-78.000000000000128
31
0
0
LINE
5
120
100
AcDbEntity
8
0
100
AcDbLine
10
2
20
-78.000000000000128
30
0
11
1.9999999999999929
21
-96
31
0
0
LINE
5
121
100
AcDbEntity
8
0
100
AcDbLine
10
1.9999999999999929
20
-96
30
0
11
7.9285714285714022
21
-96.000000000000298
31
0
0
LINE
5
122
100
AcDbEntity
8
0
100
AcDbLine
10
7.9285714285714022
20
-96.000000000000298
30
0
11
7.9285714285714048
21
-92.000000000000298
31
0
0
LINE
5
123
100
AcDbEntity
8
0
100
AcDbLine
10
7.9285714285714048
20
-92.000000000000298
30
0
11
25.78571428571426
21
-92.000000000000298
31
0
0
LINE
5
124
100
AcDbEntity
8
0
100
AcDbLine
10
25.78571428571426
20
-92.000000000000298
30
0
11
25.78571428571426
21
-96.000000000000298
31
0
0
LINE
5
125
100
AcDbEntity
8
0
100
AcDbLine
10
25.78571428571426
20
-96.000000000000298
30
0
11
26.999999999999996
21
-96.000000000000298
31
0
0
LINE
5
126
100
AcDbEntity
8
0
100
AcDbLine
10
26.999999999999996
20
-96.000000000000298
30
0
11
26.999999999999996
21
-78.000000000000128
31
0
0
LINE
5
127
100
AcDbEntity
8
0
100
AcDbLine
10
26.999999999999996
20
-78.000000000000128
30
0
11
31
21
-78.000000000000128
31
0
0
LINE
5
128
100
AcDbEntity
8
0
100
AcDbLine
10
31
20
-78.000000000000128
30
0
11
31
21
-96.000000000000298
31
0
0
LINE
5
129
100
AcDbEntity
8
0
100
AcDbLine
10
31
20
-96.000000000000298
30
0
11
33
21
-96
31
0
0
LINE
5
130
100
AcDbEntity
8
0
100
AcDbLine
10
37
20
-96
30
0
11
43.642857142857125
21
-96.000000000000298
31
0
0
LINE
5
131
100
AcDbEntity
8
0
100
AcDbLine
10
43.642857142857125
20
-96.000000000000298
30
0
11
43.642857142857125
21
-92.000000000000298
31
0
0
LINE
5
132
100
AcDbEntity
8
0
100
AcDbLine
10
43.642857142857125
20
-92.000000000000298
30
0
11
56
21
-92.000000000000298
31
0
0
LINE
5
133
100
AcDbEntity
8
0
100
AcDbLine
10
56
20
-92.000000000000298
30
0
11
56
21
-78.000000000000128
31
0
0
LINE
5
134
100
AcDbEntity
8
0
100
AcDbLine
10
56
20
-78.000000000000128
30
0
11
60
21
-78.000000000000128
31
0
0
LINE
5
135
100
AcDbEntity
8
0
100
AcDbLine
10
60
20
-78.000000000000128
30
0
11
60
21
-92.000000000000298
31
0
0
LINE
5
136
100
AcDbEntity
8
0
100
AcDbLine
10
60
20
-92.000000000000298
30
0
11
61.499999999999979
21
-92.000000000000298
31
0
0
LINE
5
137
100
AcDbEntity
8
0
100
AcDbLine
10
61.499999999999979
20
-92.000000000000298
30
0
11
61.499999999999979
21
-96.000000000000298
31
0
0
LINE
5
138
100
AcDbEntity
8
0
100
AcDbLine
10
61.499999999999979
20
-96.000000000000298
30
0
11
79.357142857142833
21
-96.000000000000298
31
0
0
LINE
5
139
100
AcDbEntity
8
0
100
AcDbLine
10
79.357142857142833
20
-96.000000000000298
30
0
11
79.357142857142833
21
-92.000000000000298
31
0
0
LINE
5
140
100
AcDbEntity
8
0
100
AcDbLine
10
79.357142857142833
20
-92.000000000000298
30
0
11
85
21
-92.000000000000298
31
0
0
LINE
5
141
100
AcDbEntity
8
0
100
AcDbLine
10
85
20
-92.000000000000298
30
0
11
85
21
-78.000000000000128
31
0
0
LINE
5
142
100
AcDbEntity
8
0
100
AcDbLine
10
85
20
-78.000000000000128
30
0
11
88.999999999999986
21
-78.000000000000128
31
0
0
LINE
5
143
100
AcDbEntity
8
0
100
AcDbLine
10
88.999999999999986
20
-78.000000000000128
30
0
11
88.999999999999986
21
-92.000000000000298
31
0
0
LINE
5
144
100
AcDbEntity
8
0
100
AcDbLine
10
88.999999999999986
20
-92.000000000000298
30
0
11
97.214285714285694
21
-92.000000000000298
31
0
0
LINE
5
145
100
AcDbEntity
8
0
100
AcDbLine
10
97.214285714285694
20
-92.000000000000298
30
0
11
97.214285714285694
21
-96.000000000000298
31
0
0
LINE
5
146
100
AcDbEntity
8
0
100
AcDbLine
10
97.214285714285694
20
-96.000000000000298
30
0
11
115.07142857142856
21
-96.000000000000298
31
0
0
LINE
5
147
100
AcDbEntity
8
0
100
AcDbLine
10
115.07142857142856
20
-96.000000000000298
30
0
11
115.07142857142856
21
-92.000000000000298
31
0
0
LINE
5
148
100
AcDbEntity
8
0
100
AcDbLine
10
115.07142857142856
20
-92.000000000000298
30
0
11
119.99999999999999
21
-92.000000000000298
31
0
0
LINE
5
149
100
AcDbEntity
8
0
100
AcDbLine
10
-16
20
79
30
0
11
-119.99999999999997
21
79.000000000000028
31
0
0
LINE
5
150
100
AcDbEntity
8
0
100
AcDbLine
10
-120
20
-92.000000000000284
30
0
11
-117.07142857142861
21
-92.000000000000298
31
0
0
LINE
5
151
100
AcDbEntity
8
0
100
AcDbLine
10
-117.07142857142861
20
-92.000000000000298
30
0
11
-117.07142857142861
21
-96.000000000000298
31
0
0
LINE
5
152
100
AcDbEntity
8
0
100
AcDbLine
10
-117.07142857142861
20
-96.000000000000298
30
0
11
-99.214285714285751
21
-96.000000000000298
31
0
0
LINE
5
153
100
AcDbEntity
8
0
100
AcDbLine
10
-99.214285714285751
20
-96.000000000000298
30
0
11
-99.214285714285751
21
-92.000000000000298
31
0
0
LINE
5
154
100
AcDbEntity
8
0
100
AcDbLine
10
-99.214285714285751
20
-92.000000000000298
30
0
11
-88.999999999999986
21
-92.000000000000298
31
0
0
LINE
5
155
100
AcDbEntity
8
0
100
AcDbLine
10
-88.999999999999986
20
-92.000000000000298
30
0
11
-88.999999999999986
21
-78.000000000000128
31
0
0
LINE
5
156
100
AcDbEntity
8
0
100
AcDbLine
10
-88.999999999999986
20
-78.000000000000128
30
0
11
-85
21
-78.000000000000128
31
0
0
LINE
5
157
100
AcDbEntity
8
0
100
AcDbLine
10
-85
20
-78.000000000000128
30
0
11
-85
21
-92.000000000000298
31
0
0
LINE
5
158
100
AcDbEntity
8
0
100
AcDbLine
10
-85
20
-92.000000000000298
30
0
11
-81.357142857142875
21
-92.000000000000298
31
0
0
LINE
5
159
100
AcDbEntity
8
0
100
AcDbLine
10
-81.357142857142875
20
-92.000000000000298
30
0
11
-81.357142857142875
21
-96.000000000000298
31
0
0
LINE
5
160
100
AcDbEntity
8
0
100
AcDbLine
10
-81.357142857142875
20
-96.000000000000298
30
0
11
-63.500000000000028
21
-96.000000000000298
31
0
0
LINE
5
161
100
AcDbEntity
8
0
100
AcDbLine
10
-63.500000000000028
20
-96.000000000000298
30
0
11
-63.500000000000028
21
-92.000000000000298
31
0
0
LINE
5
162
100
AcDbEntity
8
0
100
AcDbLine
10
-63.500000000000028
20
-92.000000000000298
30
0
11
-60
21
-92.000000000000298
31
0
0
LINE
5
163
100
AcDbEntity
8
0
100
AcDbLine
10
-60
20
-92.000000000000298
30
0
11
-60
21
-78.000000000000128
31
0
0
LINE
5
164
100
AcDbEntity
8
0
100
AcDbLine
10
-60
20
-78.000000000000128
30
0
11
-56
21
-78.000000000000128
31
0
0
LINE
5
165
100
AcDbEntity
8
0
100
AcDbLine
10
-56
20
-78.000000000000128
30
0
11
-56
21
-92.000000000000298
31
0
0
LINE
5
166
100
AcDbEntity
8
0
100
AcDbLine
10
-56
20
-92.000000000000298
30
0
11
-45.642857142857167
21
-92.000000000000298
31
0
0
LINE
5
167
100
AcDbEntity
8
0
100
AcDbLine
10
-45.642857142857167
20
-92.000000000000298
30
0
11
-45.642857142857167
21
-96.000000000000298
31
0
0
LINE
5
168
100
AcDbEntity
8
0
100
AcDbLine
10
-45.642857142857167
20
-96.000000000000298
30
0
11
-37
21
-96
31
0
0
LINE
5
169
100
AcDbEntity
8
0
100
AcDbLine
10
-33
20
-96
30
0
11
-31
21
-96.000000000000298
31
0
0
LWPOLYLINE
5
170
100
AcDbEntity
8
0
100
AcDbPolyline
90
4
70
1
43
0.0
10
-88.999999999999986
20
-18.000000000000131
10
-88.999999999999986
20
-58.000000000000128
10
-85
20
-58.000000000000128
10
-85
20
-18.000000000000131
0
LWPOLYLINE
5
171
100
AcDbEntity
8
0
100
AcDbPolyline
90
4
70
1
43
0.0
10
-88.999999999999986
20
41.999999999999872
10
-88.999999999999986
20
1.9999999999998685
10
-85
20
1.9999999999998685
10
-85
20
41.999999999999872
0
LWPOLYLINE
5
172
100
AcDbEntity
8
0
100
AcDbPolyline
90
4
70
1
43
0.0
10
-31
20
-18.000000000000131
10
-31
20
-58.000000000000128
10
-26.999999999999996
20
-58.000000000000128
10
-26.999999999999996
20
-18.000000000000131
0
LWPOLYLINE
5
173
100
AcDbEntity
8
0
100
AcDbPolyline
90
4
70
1
43
0.0
10
-31
20
41.999999999999872
10
-31
20
1.9999999999998685
10
-26.999999999999996
20
1.9999999999998685
10
-26.999999999999996
20
41.999999999999872
0
LWPOLYLINE
5
174
100
AcDbEntity
8
0
100
AcDbPolyline
90
4
70
1
43
0.0
10
26.999999999999996
20
-18.000000000000131
10
26.999999999999996
20
-58.000000000000128
10
31
20
-58.000000000000128
10
31
20
-18.000000000000131
0
LWPOLYLINE
5
175
100
AcDbEntity
8
0
100
AcDbPolyline
90
4
70
1
43
0.0
10
26.999999999999996
20
41.999999999999872
10
26.999999999999996
20
1.9999999999998685
10
31
20
1.9999999999998685
10
31
20
41.999999999999872
0
LWPOLYLINE
5
176
100
AcDbEntity
8
0
100
AcDbPolyline
90
4
70
1
43
0.0
10
85
20
-18.000000000000131
10
85
20
-58.000000000000128
10
88.999999999999986
20
-58.000000000000128
10
88.999999999999986
20
-18.000000000000131
0
LWPOLYLINE
5
177
100
AcDbEntity
8
0
100
AcDbPolyline
90
4
70
1
43
0.0
10
85
20
41.999999999999872
10
85
20
1.9999999999998685
10
88.999999999999986
20
1.9999999999998685
10
88.999999999999986
20
41.999999999999872
0
LWPOLYLINE
5
178
100
AcDbEntity
8
0
100
AcDbPolyline
90
4
70
1
43
0.0
10
56
20
41.999999999999872
10
56
20
1.9999999999998685
10
60
20
1.9999999999998685
10
60
20
41.999999999999872
0
LWPOLYLINE
5
179
100
AcDbEntity
8
0
100
AcDbPolyline
90
4
70
1
43
0.0
10
56
20
-18.000000000000131
10
56
20
-58.000000000000128
10
60
20
-58.000000000000128
10
60
20
-18.000000000000131
0
LWPOLYLINE
5
180
100
AcDbEntity
8
0
100
AcDbPolyline
90
4
70
1
43
0.0
10
-2
20
41.999999999999872
10
-2
20
1.9999999999998685
10
2
20
1.9999999999998685
10
2
20
41.999999999999872
0
LWPOLYLINE
5
181
100
AcDbEntity
8
0
100
AcDbPolyline
90
4
70
1
43
0.0
10
-2
20
-18.000000000000131
10
-2
20
-58.000000000000128
10
2
20
-58.000000000000128
10
2
20
-18.000000000000131
0
LWPOLYLINE
5
182
100
AcDbEntity
8
0
100
AcDbPolyline
90
4
70
1
43
0.0
10
-60
20
41.999999999999872
10
-60
20
1.9999999999998685
10
-56
20
1.9999999999998685
10
-56
20
41.999999999999872
0
LWPOLYLINE
5
183
100
AcDbEntity
8
0
100
AcDbPolyline
90
4
70
1
43
0.0
10
-60
20
-18.000000000000131
10
-60
20
-58.000000000000128
10
-56
20
-58.000000000000128
10
-56
20
-18.000000000000131
0
LINE
5
184
100
AcDbEntity
8
0
100
AcDbLine
10
33
20
-89.999999999999986
30
0
11
37
21
-89.999999999999986
31
0
0
LINE
5
185
100
AcDbEntity
8
0
100
AcDbLine
10
-37
20
-89.999999999999986
30
0
11
-33
21
-89.999999999999986
31
0
0
LINE
5
186
100
AcDbEntity
8
0
100
AcDbLine
10
119.99999999999997
20
79
30
0
11
15.999999999999996
21
79
31
0
0
ARC
5
187
100
AcDbEntity
8
0
100
AcDbCircle
10
0
20
79
30
0
40
16
210
0
220
0
230
1
100
AcDbArc
50
-180
51
0
0
CIRCLE
5
188
100
AcDbEntity
8
0
100
AcDbCircle
10
99.999999999999986
20
27.499999999999893
30
0
40
1.9999999999999929
210
0
220
-0
230
1
0
CIRCLE
5
189
100
AcDbEntity
8
0
100
AcDbCircle
10
111.99999999999997
20
63.499999999999908
30
0
40
1.9999999999999929
210
0
220
-0
230
1
0
CIRCLE
5
190
100
AcDbEntity
8
0
100
AcDbCircle
10
-99.999999999999986
20
39.499999999999879
30
0
40
1.9999999999999929
210
0
220
-0
230
1
0
CIRCLE
5
191
100
AcDbEntity
8
0
100
AcDbCircle
10
-111.99999999999997
20
39.499999999999879
30
0
40
1.9999999999999929
210
0
220
-0
230
1
0
CIRCLE
5
192
100
AcDbEntity
8
0
100
AcDbCircle
10
111.99999999999997
20
27.499999999999893
30
0
40
1.9999999999999929
210
0
220
-0
230
1
0
CIRCLE
5
193
100
AcDbEntity
8
0
100
AcDbCircle
10
-111.99999999999997
20
63.499999999999886
30
0
40
1.9999999999999929
210
0
220
-0
230
1
0
CIRCLE
5
194
100
AcDbEntity
8
0
100
AcDbCircle
10
99.999999999999986
20
63.499999999999908
30
0
40
1.9999999999999929
210
0
220
-0
230
1
0
CIRCLE
5
195
100
AcDbEntity
8
0
100
AcDbCircle
10
-99.999999999999986
20
51.499999999999879
30
0
40
1.9999999999999929
210
0
220
-0
230
1
0
CIRCLE
5
196
100
AcDbEntity
8
0
100
AcDbCircle
10
111.99999999999997
20
15.499999999999885
30
0
40
1.9999999999999929
210
0
220
-0
230
1
0
CIRCLE
5
197
100
AcDbEntity
8
0
100
AcDbCircle
10
-99.999999999999986
20
-8.5000000000001368
30
0
40
1.9999999999999929
210
0
220
-0
230
1
0
CIRCLE
5
198
100
AcDbEntity
8
0
100
AcDbCircle
10
-111.99999999999997
20
27.499999999999876
30
0
40
1.9999999999999929
210
0
220
-0
230
1
0
CIRCLE
5
199
100
AcDbEntity
8
0
100
AcDbCircle
10
-99.999999999999986
20
15.499999999999872
30
0
40
1.9999999999999929
210
0
220
-0
230
1
0
CIRCLE
5
200
100
AcDbEntity
8
0
100
AcDbCircle
10
99.999999999999986
20
15.499999999999885
30
0
40
1.9999999999999929
210
0
220
-0
230
1
0
CIRCLE
5
201
100
AcDbEntity
8
0
100
AcDbCircle
10
111.99999999999997
20
3.4999999999998814
30
0
40
1.9999999999999929
210
0
220
-0
230
1
0
CIRCLE
5
202
100
AcDbEntity
8
0
100
AcDbCircle
10
-111.99999999999997
20
3.4999999999998677
30
0
40
1.9999999999999929
210
0
220
-0
230
1
0
CIRCLE
5
203
100
AcDbEntity
8
0
100
AcDbCircle
10
111.99999999999997
20
-8.5000000000001226
30
0
40
1.9999999999999929
210
0
220
-0
230
1
0
CIRCLE
5
204
100
AcDbEntity
8
0
100
AcDbCircle
10
-111.99999999999997
20
15.499999999999872
30
0
40
1.9999999999999929
210
0
220
-0
230
1
0
CIRCLE
5
205
100
AcDbEntity
8
0
100
AcDbCircle
10
-99.999999999999986
20
63.499999999999886
30
0
40
1.9999999999999929
210
0
220
-0
230
1
0
CIRCLE
5
206
100
AcDbEntity
8
0
100
AcDbCircle
10
-99.999999999999986
20
3.4999999999998677
30
0
40
1.9999999999999929
210
0
220
-0
230
1
0
CIRCLE
5
207
100
AcDbEntity
8
0
100
AcDbCircle
10
-111.99999999999997
20
-8.5000000000001368
30
0
40
1.9999999999999929
210
0
220
-0
230
1
0
CIRCLE
5
208
100
AcDbEntity
8
0
100
AcDbCircle
10
99.999999999999986
20
-80.500000000000142
30
0
40
1.9999999999999929
210
0
220
-0
230
1
0
CIRCLE
5
209
100
AcDbEntity
8
0
100
AcDbCircle
10
111.99999999999997
20
-80.500000000000142
30
0
40
1.9999999999999929
210
0
220
-0
230
1
0
CIRCLE
5
210
100
AcDbEntity
8
0
100
AcDbCircle
10
-111.99999999999997
20
-80.500000000000142
30
0
40
1.9999999999999929
210
0
220
-0
230
1
0
CIRCLE
5
211
100
AcDbEntity
8
0
100
AcDbCircle
10
99.999999999999986
20
-68.500000000000142
30
0
40
1.9999999999999929
210
0
220
-0
230
1
0
CIRCLE
5
212
100
AcDbEntity
8
0
100
AcDbCircle
10
99.999999999999986
20
-44.500000000000135
30
0
40
1.9999999999999929
210
0
220
-0
230
1
0
CIRCLE
5
213
100
AcDbEntity
8
0
100
AcDbCircle
10
-99.999999999999986
20
-80.500000000000142
30
0
40
1.9999999999999929
210
0
220
-0
230
1
0
CIRCLE
5
214
100
AcDbEntity
8
0
100
AcDbCircle
10
111.99999999999997
20
-44.500000000000135
30
0
40
1.9999999999999929
210
0
220
-0
230
1
0
CIRCLE
5
215
100
AcDbEntity
8
0
100
AcDbCircle
10
99.999999999999986
20
-8.5000000000001226
30
0
40
1.9999999999999929
210
0
220
-0
230
1
0
CIRCLE
5
216
100
AcDbEntity
8
0
100
AcDbCircle
10
111.99999999999997
20
-68.500000000000142
30
0
40
1.9999999999999929
210
0
220
-0
230
1
0
CIRCLE
5
217
100
AcDbEntity
8
0
100
AcDbCircle
10
-111.99999999999997
20
-68.500000000000156
30
0
40
1.9999999999999929
210
0
220
-0
230
1
0
CIRCLE
5
218
100
AcDbEntity
8
0
100
AcDbCircle
10
-99.999999999999986
20
-68.500000000000156
30
0
40
1.9999999999999929
210
0
220
-0
230
1
0
CIRCLE
5
219
100
AcDbEntity
8
0
100
AcDbCircle
10
99.999999999999986
20
-56.500000000000135
30
0
40
1.9999999999999929
210
0
220
-0
230
1
0
CIRCLE
5
220
100
AcDbEntity
8
0
100
AcDbCircle
10
99.999999999999986
20
39.499999999999893
30
0
40
1.9999999999999929
210
0
220
-0
230
1
0
CIRCLE
5
221
100
AcDbEntity
8
0
100
AcDbCircle
10
111.99999999999997
20
51.499999999999901
30
0
40
1.9999999999999929
210
0
220
-0
230
1
0
CIRCLE
5
222
100
AcDbEntity
8
0
100
AcDbCircle
10
-99.999999999999986
20
-32.500000000000142
30
0
40
1.9999999999999929
210
0
220
-0
230
1
0
CIRCLE
5
223
100
AcDbEntity
8
0
100
AcDbCircle
10
-111.99999999999997
20
51.499999999999879
30
0
40
1.9999999999999929
210
0
220
-0
230
1
0
CIRCLE
5
224
100
AcDbEntity
8
0
100
AcDbCircle
10
99.999999999999986
20
51.499999999999901
30
0
40
1.9999999999999929
210
0
220
-0
230
1
0
CIRCLE
5
225
100
AcDbEntity
8
0
100
AcDbCircle
10
-111.99999999999997
20
-44.500000000000156
30
0
40
1.9999999999999929
210
0
220
-0
230
1
0
CIRCLE
5
226
100
AcDbEntity
8
0
100
AcDbCircle
10
-99.999999999999986
20
-44.500000000000156
30
0
40
1.9999999999999929
210
0
220
-0
230
1
0
CIRCLE
5
227
100
AcDbEntity
8
0
100
AcDbCircle
10
-111.99999999999997
20
-56.500000000000156
30
0
40
1.9999999999999929
210
0
220
-0
230
1
0
CIRCLE
5
228
100
AcDbEntity
8
0
100
AcDbCircle
10
-99.999999999999986
20
-56.500000000000156
30
0
40
1.9999999999999929
210
0
220
-0
230
1
0
CIRCLE
5
229
100
AcDbEntity
8
0
100
AcDbCircle
10
-111.99999999999997
20
-20.500000000000142
30
0
40
1.9999999999999929
210
0
220
-0
230
1
0
CIRCLE
5
230
100
AcDbEntity
8
0
100
AcDbCircle
10
-99.999999999999986
20
27.499999999999876
30
0
40
1.9999999999999929
210
0
220
-0
230
1
0
CIRCLE
5
231
100
AcDbEntity
8
0
100
AcDbCircle
10
111.99999999999997
20
-32.500000000000128
30
0
40
1.9999999999999929
210
0
220
-0
230
1
0
CIRCLE
5
232
100
AcDbEntity
8
0
100
AcDbCircle
10
111.99999999999997
20
39.499999999999893
30
0
40
1.9999999999999929
210
0
220
-0
230
1
0
CIRCLE
5
233
100
AcDbEntity
8
0
100
AcDbCircle
10
99.999999999999986
20
-20.500000000000121
30
0
40
1.9999999999999929
210
0
220
-0
230
1
0
CIRCLE
5
234
100
AcDbEntity
8
0
100
AcDbCircle
10
111.99999999999997
20
-56.500000000000135
30
0
40
1.9999999999999929
210
0
220
-0
230
1
0
CIRCLE
5
235
100
AcDbEntity
8
0
100
AcDbCircle
10
99.999999999999986
20
3.4999999999998814
30
0
40
1.9999999999999929
210
0
220
-0
230
1
0
CIRCLE
5
236
100
AcDbEntity
8
0
100
AcDbCircle
10
-111.99999999999997
20
-32.500000000000142
30
0
40
1.9999999999999929
210
0
220
-0
230
1
0
CIRCLE
5
237
100
AcDbEntity
8
0
100
AcDbCircle
10
99.999999999999986
20
-32.500000000000128
30
0
40
1.9999999999999929
210
0
220
-0
230
1
0
CIRCLE
5
238
100
AcDbEntity
8
0
100
AcDbCircle
10
111.99999999999997
20
-20.500000000000121
30
0
40
1.9999999999999929
210
0
220
-0
230
1
0
CIRCLE
5
239
100
AcDbEntity
8
0
100
AcDbCircle
10
-99.999999999999986
20
-20.500000000000142
30
0
40
1.9999999999999929
210
0
220
-0
230
1
0
ENDSEC
0
SECTION
2
OBJECTS
0
DICTIONARY
5
C
100
AcDbDictionary
3
ACAD_GROUP
350
D
3
ACAD_MLINESTYLE
350
17
0
DICTIONARY
5
D
100
AcDbDictionary
0
DICTIONARY
5
1A
330
C
100
AcDbDictionary
0
DICTIONARY
5
17
100
AcDbDictionary
0
ENDSEC
0
EOF
