0
SECTION
2
HEADER
9
$INSUNITS
70
4
9
$ACADVER
1
AC1014
9
$HANDSEED
5
FFFF
0
ENDSEC
0
SECTION
2
TABLES
0
TABLE
2
VPORT
5
8
100
AcDbSymbolTable
0
ENDTAB
0
TABLE
2
LTYPE
5
5
100
AcDbSymbolTable
0
LTYPE
5
14
100
AcDbSymbolTableRecord
100
AcDbLinetypeTableRecord
2
BYBLOCK
70
0
0
LTYPE
5
15
100
AcDbSymbolTableRecord
100
AcDbLinetypeTableRecord
2
BYLAYER
70
0
0
ENDTAB
0
TABLE
2
LAYER
5
2
100
AcDbSymbolTable
70
2
0
LAYER
5
50
100
AcDbSymbolTableRecord
100
AcDbLayerTableRecord
2
0
70
0
6
CONTINUOUS
0
ENDTAB
0
TABLE
2
STYLE
5
3
100
AcDbSymbolTable
70
1
0
STYLE
5
11
100
AcDbSymbolTableRecord
100
AcDbTextStyleTableRecord
2
STANDARD
70
0
0
ENDTAB
0
TABLE
2
VIEW
5
6
100
AcDbSymbolTable
70
0
0
ENDTAB
0
TABLE
2
UCS
5
7
100
AcDbSymbolTable
70
0
0
ENDTAB
0
TABLE
2
APPID
5
9
100
AcDbSymbolTable
70
2
0
APPID
5
12
100
AcDbSymbolTableRecord
100
AcDbRegAppTableRecord
2
ACAD
70
0
0
ENDTAB
0
TABLE
2
DIMSTYLE
5
A
100
AcDbSymbolTable
70
1
0
ENDTAB
0
TABLE
2
BLOCK_RECORD
5
1
100
AcDbSymbolTable
70
1
0
BLOCK_RECORD
5
1F
100
AcDbSymbolTableRecord
100
AcDbBlockTableRecord
2
*MODEL_SPACE
0
BLOCK_RECORD
5
1B
100
AcDbSymbolTableRecord
100
AcDbBlockTableRecord
2
*PAPER_SPACE
0
ENDTAB
0
ENDSEC
0
SECTION
2
BLOCKS
0
BLOCK
5
20
100
AcDbEntity
100
AcDbBlockBegin
2
*MODEL_SPACE
0
ENDBLK
5
21
100
AcDbEntity
100
AcDbBlockEnd
0
BLOCK
5
1C
100
AcDbEntity
100
AcDbBlockBegin
2
*PAPER_SPACE
0
ENDBLK
5
1D
100
AcDbEntity
100
AcDbBlockEnd
0
ENDSEC
0
SECTION
2
ENTITIES
0
LWPOLYLINE
5
100
100
AcDbEntity
8
0
100
AcDbPolyline
90
86
70
1
43
0.0
10
88.999999999999986
20
99.750000000000057
10
88.999999999999986
20
111.00000000000001
10
122.00000000000001
20
110.99999999999997
10
122.00000000000001
20
61
10
117.07142857142861
20
61
10
117.07142857142861
20
64.999999999999986
10
99.214285714285751
20
64.999999999999986
10
99.214285714285751
20
61
10
88.999999999999986
20
61.000000000000057
10
88.999999999999986
20
72.250000000000043
10
85
20
72.250000000000043
10
85
20
61.000000000000057
10
81.357142857142875
20
61
10
81.357142857142875
20
64.999999999999986
10
63.500000000000028
20
64.999999999999986
10
63.500000000000028
20
61
10
60
20
61.000000000000057
10
60
20
72.250000000000043
10
56
20
72.250000000000043
10
56
20
61.000000000000057
10
45.642857142857167
20
61
10
45.642857142857167
20
64.999999999999986
10
31
20
64.999999999999986
10
31
20
72.250000000000043
10
26.999999999999996
20
72.250000000000043
10
26.999999999999996
20
61
10
9.9285714285714555
20
61
10
9.9285714285714555
20
64.999999999999986
10
2.0000000000000009
20
64.999999999999986
10
2
20
72.250000000000043
10
-2
20
72.250000000000043
10
-2.0000000000000009
20
64.999999999999986
10
-7.9285714285714048
20
64.999999999999986
10
-7.9285714285714048
20
61
10
-25.78571428571426
20
61
10
-25.78571428571426
20
64.999999999999986
10
-26.999999999999996
20
64.999999999999986
10
-26.999999999999996
20
72.250000000000043
10
-31
20
72.250000000000043
10
-31
20
64.999999999999986
10
-43.642857142857125
20
64.999999999999986
10
-43.642857142857125
20
61
10
-56
20
61.000000000000057
10
-56
20
72.250000000000043
10
-60
20
72.250000000000043
10
-60
20
61.000000000000057
10
-61.499999999999979
20
61
10
-61.499999999999979
20
64.999999999999986
10
-79.357142857142833
20
64.999999999999986
10
-79.357142857142833
20
61
10
-85
20
61.000000000000057
10
-85
20
72.250000000000043
10
-88.999999999999986
20
72.250000000000043
10
-88.999999999999986
20
61
10
-97.214285714285694
20
61.000000000000043
10
-97.214285714285694
20
64.999999999999986
10
-115.07142857142856
20
64.999999999999986
10
-115.07142857142856
20
61.000000000000007
10
-119.99999999999999
20
61
10
-119.99999999999999
20
111.00000000000001
10
-88.999999999999986
20
111.00000000000001
10
-88.999999999999986
20
99.750000000000057
10
-85
20
99.750000000000057
10
-85
20
111.00000000000001
10
-60
20
111.00000000000001
10
-60
20
99.750000000000057
10
-56
20
99.750000000000057
10
-56
20
111.00000000000001
10
-30.999999999999996
20
111
10
-31
20
99.750000000000057
10
-26.999999999999996
20
99.750000000000057
10
-26.999999999999996
20
111.00000000000001
10
-1.9999999999999929
20
111
10
-2
20
99.750000000000057
10
2
20
99.750000000000057
10
2.0000000000000018
20
111.00000000000001
10
26.999999999999993
20
111
10
26.999999999999996
20
99.750000000000057
10
31
20
99.750000000000057
10
31
20
111.00000000000001
10
56.000000000000014
20
111
10
56
20
99.750000000000057
10
60
20
99.750000000000057
10
60
20
111.00000000000001
10
85
20
110.99999999999997
10
85
20
99.750000000000057
0
ENDSEC
0
SECTION
2
OBJECTS
0
DICTIONARY
5
C
100
AcDbDictionary
3
ACAD_GROUP
350
D
3
ACAD_MLINESTYLE
350
17
0
DICTIONARY
5
D
100
AcDbDictionary
0
DICTIONARY
5
1A
330
C
100
AcDbDictionary
0
DICTIONARY
5
17
100
AcDbDictionary
0
ENDSEC
0
EOF
