0
SECTION
2
HEADER
9
$INSUNITS
70
4
9
$ACADVER
1
AC1014
9
$HANDSEED
5
FFFF
0
ENDSEC
0
SECTION
2
TABLES
0
TABLE
2
VPORT
5
8
100
AcDbSymbolTable
0
ENDTAB
0
TABLE
2
LTYPE
5
5
100
AcDbSymbolTable
0
LTYPE
5
14
100
AcDbSymbolTableRecord
100
AcDbLinetypeTableRecord
2
BYBLOCK
70
0
0
LTYPE
5
15
100
AcDbSymbolTableRecord
100
AcDbLinetypeTableRecord
2
BYLAYER
70
0
0
ENDTAB
0
TABLE
2
LAYER
5
2
100
AcDbSymbolTable
70
2
0
LAYER
5
50
100
AcDbSymbolTableRecord
100
AcDbLayerTableRecord
2
0
70
0
6
CONTINUOUS
0
ENDTAB
0
TABLE
2
STYLE
5
3
100
AcDbSymbolTable
70
1
0
STYLE
5
11
100
AcDbSymbolTableRecord
100
AcDbTextStyleTableRecord
2
STANDARD
70
0
0
ENDTAB
0
TABLE
2
VIEW
5
6
100
AcDbSymbolTable
70
0
0
ENDTAB
0
TABLE
2
UCS
5
7
100
AcDbSymbolTable
70
0
0
ENDTAB
0
TABLE
2
APPID
5
9
100
AcDbSymbolTable
70
2
0
APPID
5
12
100
AcDbSymbolTableRecord
100
AcDbRegAppTableRecord
2
ACAD
70
0
0
ENDTAB
0
TABLE
2
DIMSTYLE
5
A
100
AcDbSymbolTable
70
1
0
ENDTAB
0
TABLE
2
BLOCK_RECORD
5
1
100
AcDbSymbolTable
70
1
0
BLOCK_RECORD
5
1F
100
AcDbSymbolTableRecord
100
AcDbBlockTableRecord
2
*MODEL_SPACE
0
BLOCK_RECORD
5
1B
100
AcDbSymbolTableRecord
100
AcDbBlockTableRecord
2
*PAPER_SPACE
0
ENDTAB
0
ENDSEC
0
SECTION
2
BLOCKS
0
BLOCK
5
20
100
AcDbEntity
100
AcDbBlockBegin
2
*MODEL_SPACE
0
ENDBLK
5
21
100
AcDbEntity
100
AcDbBlockEnd
0
BLOCK
5
1C
100
AcDbEntity
100
AcDbBlockBegin
2
*PAPER_SPACE
0
ENDBLK
5
1D
100
AcDbEntity
100
AcDbBlockEnd
0
ENDSEC
0
SECTION
2
ENTITIES
0
LINE
5
100
100
AcDbEntity
8
0
100
AcDbLine
10
33
20
3.9999999999999991
30
0
11
33
21
5.4166666666667282
31
0
0
LWPOLYLINE
5
101
100
AcDbEntity
8
0
100
AcDbPolyline
90
4
70
1
43
0.0
10
33
20
37.916666666666721
10
37
20
37.916666666666721
10
37
20
48.750000000000057
10
33
20
48.750000000000057
0
LINE
5
102
100
AcDbEntity
8
0
100
AcDbLine
10
37
20
5.4166666666667282
30
0
11
37
21
3.9999999999999991
31
0
0
LWPOLYLINE
5
103
100
AcDbEntity
8
0
100
AcDbPolyline
90
4
70
1
43
0.0
10
32.999999999999993
20
16.250000000000064
10
37
20
16.250000000000064
10
37
20
27.083333333333389
10
32.999999999999993
20
27.083333333333389
0
LINE
5
104
100
AcDbEntity
8
0
100
AcDbLine
10
26.785714285714288
20
4.0000000000000009
30
0
11
33
21
3.9999999999999991
31
0
0
LINE
5
105
100
AcDbEntity
8
0
100
AcDbLine
10
44.642857142857146
20
4.0000000000000009
30
0
11
44.642857142857146
21
0
31
0
0
LINE
5
106
100
AcDbEntity
8
0
100
AcDbLine
10
44.642857142857146
20
0
30
0
11
62.500000000000007
21
0
31
0
0
LINE
5
107
100
AcDbEntity
8
0
100
AcDbLine
10
62.500000000000007
20
0
30
0
11
62.5
21
4.0000000000000053
31
0
0
ARC
5
108
100
AcDbEntity
8
0
100
AcDbCircle
10
71.428571428571431
20
3.9999999999999996
30
0
40
8.9285714285714324
210
0
220
-0
230
1
100
AcDbArc
50
0
51
180
0
LINE
5
109
100
AcDbEntity
8
0
100
AcDbLine
10
80.357142857142861
20
4.0000000000000062
30
0
11
80.357142857142861
21
0
31
0
0
LINE
5
110
100
AcDbEntity
8
0
100
AcDbLine
10
80.357142857142861
20
0
30
0
11
98.214285714285722
21
0
31
0
0
LINE
5
111
100
AcDbEntity
8
0
100
AcDbLine
10
98.214285714285722
20
0
30
0
11
98.214285714285722
21
4.0000000000000009
31
0
0
LINE
5
112
100
AcDbEntity
8
0
100
AcDbLine
10
98.214285714285722
20
4.0000000000000009
30
0
11
116.07142857142858
21
4.0000000000000009
31
0
0
LINE
5
113
100
AcDbEntity
8
0
100
AcDbLine
10
116.07142857142858
20
4.0000000000000009
30
0
11
116.07142857142858
21
0
31
0
0
LINE
5
114
100
AcDbEntity
8
0
100
AcDbLine
10
116.07142857142858
20
0
30
0
11
125
21
0
31
0
0
LINE
5
115
100
AcDbEntity
8
0
100
AcDbLine
10
125
20
0
30
0
11
125
21
13.750000000000002
31
0
0
LINE
5
116
100
AcDbEntity
8
0
100
AcDbLine
10
125
20
13.750000000000002
30
0
11
121.00000000000001
21
13.750000000000002
31
0
0
LINE
5
117
100
AcDbEntity
8
0
100
AcDbLine
10
121.00000000000001
20
13.750000000000002
30
0
11
121.00000000000001
21
41.250000000000014
31
0
0
LINE
5
118
100
AcDbEntity
8
0
100
AcDbLine
10
121.00000000000001
20
41.250000000000014
30
0
11
125
21
41.250000000000014
31
0
0
LINE
5
119
100
AcDbEntity
8
0
100
AcDbLine
10
125
20
41.250000000000014
30
0
11
125
21
68.75
31
0
0
LINE
5
120
100
AcDbEntity
8
0
100
AcDbLine
10
125
20
68.75
30
0
11
121.00000000000001
21
68.75
31
0
0
LINE
5
121
100
AcDbEntity
8
0
100
AcDbLine
10
121.00000000000001
20
68.75
30
0
11
121.00000000000001
21
96.250000000000014
31
0
0
LINE
5
122
100
AcDbEntity
8
0
100
AcDbLine
10
121.00000000000001
20
96.250000000000014
30
0
11
125
21
96.250000000000014
31
0
0
LINE
5
123
100
AcDbEntity
8
0
100
AcDbLine
10
125
20
96.250000000000014
30
0
11
125
21
123.75
31
0
0
LINE
5
124
100
AcDbEntity
8
0
100
AcDbLine
10
125
20
123.75
30
0
11
121.00000000000001
21
123.75
31
0
0
LINE
5
125
100
AcDbEntity
8
0
100
AcDbLine
10
121.00000000000001
20
123.75
30
0
11
121.00000000000001
21
151.25000000000003
31
0
0
LINE
5
126
100
AcDbEntity
8
0
100
AcDbLine
10
121.00000000000001
20
151.25000000000003
30
0
11
125
21
151.25000000000003
31
0
0
LINE
5
127
100
AcDbEntity
8
0
100
AcDbLine
10
125
20
151.25000000000003
30
0
11
125
21
161
31
0
0
LINE
5
128
100
AcDbEntity
8
0
100
AcDbLine
10
116.07142857142858
20
165
30
0
11
98.214285714285722
21
165
31
0
0
LINE
5
129
100
AcDbEntity
8
0
100
AcDbLine
10
-125
20
161
30
0
11
-125
21
151.25000000000003
31
0
0
LINE
5
130
100
AcDbEntity
8
0
100
AcDbLine
10
-125
20
151.25000000000003
30
0
11
-121.00000000000001
21
151.25000000000003
31
0
0
LINE
5
131
100
AcDbEntity
8
0
100
AcDbLine
10
-121.00000000000001
20
151.25000000000003
30
0
11
-121.00000000000001
21
123.75000000000001
31
0
0
LINE
5
132
100
AcDbEntity
8
0
100
AcDbLine
10
-121.00000000000001
20
123.75000000000001
30
0
11
-125
21
123.75000000000001
31
0
0
LINE
5
133
100
AcDbEntity
8
0
100
AcDbLine
10
-125
20
123.75000000000001
30
0
11
-125
21
96.250000000000014
31
0
0
LINE
5
134
100
AcDbEntity
8
0
100
AcDbLine
10
-125
20
96.250000000000014
30
0
11
-121.00000000000001
21
96.250000000000014
31
0
0
LINE
5
135
100
AcDbEntity
8
0
100
AcDbLine
10
-121.00000000000001
20
96.250000000000014
30
0
11
-121.00000000000001
21
68.750000000000014
31
0
0
LINE
5
136
100
AcDbEntity
8
0
100
AcDbLine
10
-121.00000000000001
20
68.750000000000014
30
0
11
-125
21
68.750000000000014
31
0
0
LINE
5
137
100
AcDbEntity
8
0
100
AcDbLine
10
-125
20
68.750000000000014
30
0
11
-125
21
41.250000000000014
31
0
0
LINE
5
138
100
AcDbEntity
8
0
100
AcDbLine
10
-125
20
41.250000000000014
30
0
11
-121.00000000000001
21
41.250000000000014
31
0
0
LINE
5
139
100
AcDbEntity
8
0
100
AcDbLine
10
-121.00000000000001
20
41.250000000000014
30
0
11
-121.00000000000001
21
13.750000000000018
31
0
0
LINE
5
140
100
AcDbEntity
8
0
100
AcDbLine
10
-121.00000000000001
20
13.750000000000018
30
0
11
-125
21
13.750000000000018
31
0
0
LINE
5
141
100
AcDbEntity
8
0
100
AcDbLine
10
-125
20
13.750000000000018
30
0
11
-125
21
0
31
0
0
LINE
5
142
100
AcDbEntity
8
0
100
AcDbLine
10
-125
20
0
30
0
11
-116.07142857142858
21
0
31
0
0
LINE
5
143
100
AcDbEntity
8
0
100
AcDbLine
10
-116.07142857142858
20
0
30
0
11
-116.07142857142858
21
4.0000000000000009
31
0
0
LINE
5
144
100
AcDbEntity
8
0
100
AcDbLine
10
-116.07142857142858
20
4.0000000000000009
30
0
11
-98.214285714285722
21
4.0000000000000009
31
0
0
LINE
5
145
100
AcDbEntity
8
0
100
AcDbLine
10
-98.214285714285722
20
4.0000000000000009
30
0
11
-98.214285714285722
21
0
31
0
0
LINE
5
146
100
AcDbEntity
8
0
100
AcDbLine
10
-98.214285714285722
20
0
30
0
11
-80.357142857142861
21
0
31
0
0
LINE
5
147
100
AcDbEntity
8
0
100
AcDbLine
10
-80.357142857142861
20
0
30
0
11
-80.357142857142861
21
3.999999999995846
31
0
0
ARC
5
148
100
AcDbEntity
8
0
100
AcDbCircle
10
-71.428571428571431
20
3.9999999999958376
30
0
40
8.9285714285714324
210
0
220
-0
230
1
100
AcDbArc
50
0
51
180
0
LINE
5
149
100
AcDbEntity
8
0
100
AcDbLine
10
-62.5
20
3.9999999999958464
30
0
11
-62.5
21
0
31
0
0
LINE
5
150
100
AcDbEntity
8
0
100
AcDbLine
10
-62.5
20
0
30
0
11
-44.642857142857146
21
0
31
0
0
LINE
5
151
100
AcDbEntity
8
0
100
AcDbLine
10
-44.642857142857146
20
0
30
0
11
-44.642857142857146
21
4.0000000000000009
31
0
0
LINE
5
152
100
AcDbEntity
8
0
100
AcDbLine
10
-44.642857142857146
20
4.0000000000000009
30
0
11
-37
21
4.0000000000000009
31
0
0
LINE
5
153
100
AcDbEntity
8
0
100
AcDbLine
10
-33
20
5.4166666666667282
30
0
11
-33
21
4.0000000000000009
31
0
0
LINE
5
154
100
AcDbEntity
8
0
100
AcDbLine
10
-37
20
5.4166666666667318
30
0
11
-33
21
5.4166666666667282
31
0
0
LINE
5
155
100
AcDbEntity
8
0
100
AcDbLine
10
-37
20
4.0000000000000009
30
0
11
-37
21
5.4166666666667282
31
0
0
LINE
5
156
100
AcDbEntity
8
0
100
AcDbLine
10
-33
20
4.0000000000000009
30
0
11
-26.785714285714285
21
4.0000000000000009
31
0
0
LINE
5
157
100
AcDbEntity
8
0
100
AcDbLine
10
-26.785714285714285
20
4.0000000000000009
30
0
11
-26.785714285714285
21
0
31
0
0
LINE
5
158
100
AcDbEntity
8
0
100
AcDbLine
10
-26.785714285714285
20
0
30
0
11
-8.928571428571427
21
0
31
0
0
LINE
5
159
100
AcDbEntity
8
0
100
AcDbLine
10
-8.928571428571427
20
0
30
0
11
-8.928571428571427
21
4.0000000000000018
31
0
0
ARC
5
160
100
AcDbEntity
8
0
100
AcDbCircle
10
0
20
4.0000000000000009
30
0
40
8.928571428571427
210
0
220
-0
230
1
100
AcDbArc
50
0
51
180
0
LINE
5
161
100
AcDbEntity
8
0
100
AcDbLine
10
8.928571428571427
20
4.0000000000000018
30
0
11
8.9285714285714306
21
0
31
0
0
LINE
5
162
100
AcDbEntity
8
0
100
AcDbLine
10
8.9285714285714306
20
0
30
0
11
26.785714285714288
21
0
31
0
0
LINE
5
163
100
AcDbEntity
8
0
100
AcDbLine
10
26.785714285714288
20
0
30
0
11
26.785714285714288
21
4.0000000000000009
31
0
0
LINE
5
164
100
AcDbEntity
8
0
100
AcDbLine
10
32.999999999999993
20
5.4166666666667318
30
0
11
37
21
5.4166666666667318
31
0
0
LWPOLYLINE
5
165
100
AcDbEntity
8
0
100
AcDbPolyline
90
4
70
1
43
0.0
10
32.999999999999993
20
59.583333333333385
10
37
20
59.583333333333385
10
37
20
60.999999999999908
10
33
20
60.999999999999979
0
LWPOLYLINE
5
166
100
AcDbEntity
8
0
100
AcDbPolyline
90
4
70
1
43
0.0
10
-33
20
27.083333333333389
10
-37
20
27.083333333333389
10
-37
20
16.250000000000064
10
-33
20
16.250000000000064
0
LWPOLYLINE
5
167
100
AcDbEntity
8
0
100
AcDbPolyline
90
4
70
1
43
0.0
10
-33
20
48.750000000000057
10
-37
20
48.750000000000057
10
-37
20
37.916666666666721
10
-33
20
37.916666666666721
0
LWPOLYLINE
5
168
100
AcDbEntity
8
0
100
AcDbPolyline
90
4
70
1
43
0.0
10
-37
20
59.583333333333385
10
-33
20
59.583333333333385
10
-33
20
60.999999999999901
10
-37
20
60.999999999999986
0
CIRCLE
5
169
100
AcDbEntity
8
0
100
AcDbCircle
10
-72.5
20
123.75000000000003
30
0
40
2.5
210
0
220
0
230
1
0
CIRCLE
5
170
100
AcDbEntity
8
0
100
AcDbCircle
10
14.500000000000002
20
123.75000000000003
30
0
40
2.5
210
0
220
0
230
1
0
CIRCLE
5
171
100
AcDbEntity
8
0
100
AcDbCircle
10
-14.499999999999993
20
123.75000000000003
30
0
40
2.5
210
0
220
0
230
1
0
CIRCLE
5
172
100
AcDbEntity
8
0
100
AcDbCircle
10
43.5
20
123.75000000000003
30
0
40
2.5
210
0
220
0
230
1
0
CIRCLE
5
173
100
AcDbEntity
8
0
100
AcDbCircle
10
-43.5
20
123.75000000000003
30
0
40
2.5
210
0
220
0
230
1
0
CIRCLE
5
174
100
AcDbEntity
8
0
100
AcDbCircle
10
72.5
20
123.75000000000003
30
0
40
2.5
210
0
220
0
230
1
0
LINE
5
175
100
AcDbEntity
8
0
100
AcDbLine
10
-116.07142857142858
20
161
30
0
11
-125
21
161
31
0
0
LINE
5
176
100
AcDbEntity
8
0
100
AcDbLine
10
125
20
161
30
0
11
116.07142857142858
21
161
31
0
0
LINE
5
177
100
AcDbEntity
8
0
100
AcDbLine
10
116.07142857142858
20
161
30
0
11
116.07142857142858
21
165
31
0
0
LINE
5
178
100
AcDbEntity
8
0
100
AcDbLine
10
98.214285714285722
20
165
30
0
11
98.214285714285722
21
161
31
0
0
LINE
5
179
100
AcDbEntity
8
0
100
AcDbLine
10
98.214285714285722
20
161
30
0
11
80.357142857142847
21
161
31
0
0
LINE
5
180
100
AcDbEntity
8
0
100
AcDbLine
10
80.357142857142847
20
161
30
0
11
80.357142857142847
21
165
31
0
0
LINE
5
181
100
AcDbEntity
8
0
100
AcDbLine
10
80.357142857142847
20
165
30
0
11
62.500000000000007
21
165
31
0
0
LINE
5
182
100
AcDbEntity
8
0
100
AcDbLine
10
62.500000000000007
20
165
30
0
11
62.500000000000007
21
161
31
0
0
LINE
5
183
100
AcDbEntity
8
0
100
AcDbLine
10
62.500000000000007
20
161
30
0
11
44.642857142857139
21
161
31
0
0
LINE
5
184
100
AcDbEntity
8
0
100
AcDbLine
10
44.642857142857139
20
161
30
0
11
44.642857142857139
21
165
31
0
0
LINE
5
185
100
AcDbEntity
8
0
100
AcDbLine
10
44.642857142857139
20
165
30
0
11
26.785714285714292
21
165
31
0
0
LINE
5
186
100
AcDbEntity
8
0
100
AcDbLine
10
26.785714285714292
20
165
30
0
11
26.785714285714288
21
161
31
0
0
LINE
5
187
100
AcDbEntity
8
0
100
AcDbLine
10
26.785714285714288
20
161
30
0
11
8.9285714285714235
21
161
31
0
0
LINE
5
188
100
AcDbEntity
8
0
100
AcDbLine
10
8.9285714285714235
20
161
30
0
11
8.9285714285714235
21
165
31
0
0
LINE
5
189
100
AcDbEntity
8
0
100
AcDbLine
10
8.9285714285714235
20
165
30
0
11
-8.9285714285714235
21
165
31
0
0
LINE
5
190
100
AcDbEntity
8
0
100
AcDbLine
10
-8.9285714285714235
20
165
30
0
11
-8.9285714285714235
21
161
31
0
0
LINE
5
191
100
AcDbEntity
8
0
100
AcDbLine
10
-8.9285714285714235
20
161
30
0
11
-26.785714285714288
21
161
31
0
0
LINE
5
192
100
AcDbEntity
8
0
100
AcDbLine
10
-26.785714285714288
20
161
30
0
11
-26.785714285714292
21
165
31
0
0
LINE
5
193
100
AcDbEntity
8
0
100
AcDbLine
10
-26.785714285714292
20
165
30
0
11
-44.642857142857139
21
165
31
0
0
LINE
5
194
100
AcDbEntity
8
0
100
AcDbLine
10
-44.642857142857139
20
165
30
0
11
-44.642857142857139
21
161
31
0
0
LINE
5
195
100
AcDbEntity
8
0
100
AcDbLine
10
-44.642857142857139
20
161
30
0
11
-62.5
21
161
31
0
0
LINE
5
196
100
AcDbEntity
8
0
100
AcDbLine
10
-62.5
20
161
30
0
11
-62.500000000000007
21
165
31
0
0
LINE
5
197
100
AcDbEntity
8
0
100
AcDbLine
10
-62.500000000000007
20
165
30
0
11
-80.357142857142847
21
165
31
0
0
LINE
5
198
100
AcDbEntity
8
0
100
AcDbLine
10
-80.357142857142847
20
165
30
0
11
-80.357142857142847
21
161
31
0
0
LINE
5
199
100
AcDbEntity
8
0
100
AcDbLine
10
-80.357142857142847
20
161
30
0
11
-98.214285714285722
21
161
31
0
0
LINE
5
200
100
AcDbEntity
8
0
100
AcDbLine
10
-98.214285714285722
20
161
30
0
11
-98.214285714285722
21
165
31
0
0
LINE
5
201
100
AcDbEntity
8
0
100
AcDbLine
10
-98.214285714285722
20
165
30
0
11
-116.07142857142858
21
165
31
0
0
LINE
5
202
100
AcDbEntity
8
0
100
AcDbLine
10
-116.07142857142858
20
165
30
0
11
-116.07142857142858
21
161
31
0
0
LINE
5
203
100
AcDbEntity
8
0
100
AcDbLine
10
37
20
3.9999999999999991
30
0
11
44.642857142857146
21
4.0000000000000009
31
0
0
ENDSEC
0
SECTION
2
OBJECTS
0
DICTIONARY
5
C
100
AcDbDictionary
3
ACAD_GROUP
350
D
3
ACAD_MLINESTYLE
350
17
0
DICTIONARY
5
D
100
AcDbDictionary
0
DICTIONARY
5
1A
330
C
100
AcDbDictionary
0
DICTIONARY
5
17
100
AcDbDictionary
0
ENDSEC
0
EOF
