0
SECTION
2
HEADER
9
$INSUNITS
70
4
9
$ACADVER
1
AC1014
9
$HANDSEED
5
FFFF
0
ENDSEC
0
SECTION
2
TABLES
0
TABLE
2
VPORT
5
8
100
AcDbSymbolTable
0
ENDTAB
0
TABLE
2
LTYPE
5
5
100
AcDbSymbolTable
0
LTYPE
5
14
100
AcDbSymbolTableRecord
100
AcDbLinetypeTableRecord
2
BYBLOCK
70
0
0
LTYPE
5
15
100
AcDbSymbolTableRecord
100
AcDbLinetypeTableRecord
2
BYLAYER
70
0
0
ENDTAB
0
TABLE
2
LAYER
5
2
100
AcDbSymbolTable
70
2
0
LAYER
5
50
100
AcDbSymbolTableRecord
100
AcDbLayerTableRecord
2
0
70
0
6
CONTINUOUS
0
ENDTAB
0
TABLE
2
STYLE
5
3
100
AcDbSymbolTable
70
1
0
STYLE
5
11
100
AcDbSymbolTableRecord
100
AcDbTextStyleTableRecord
2
STANDARD
70
0
0
ENDTAB
0
TABLE
2
VIEW
5
6
100
AcDbSymbolTable
70
0
0
ENDTAB
0
TABLE
2
UCS
5
7
100
AcDbSymbolTable
70
0
0
ENDTAB
0
TABLE
2
APPID
5
9
100
AcDbSymbolTable
70
2
0
APPID
5
12
100
AcDbSymbolTableRecord
100
AcDbRegAppTableRecord
2
ACAD
70
0
0
ENDTAB
0
TABLE
2
DIMSTYLE
5
A
100
AcDbSymbolTable
70
1
0
ENDTAB
0
TABLE
2
BLOCK_RECORD
5
1
100
AcDbSymbolTable
70
1
0
BLOCK_RECORD
5
1F
100
AcDbSymbolTableRecord
100
AcDbBlockTableRecord
2
*MODEL_SPACE
0
BLOCK_RECORD
5
1B
100
AcDbSymbolTableRecord
100
AcDbBlockTableRecord
2
*PAPER_SPACE
0
ENDTAB
0
ENDSEC
0
SECTION
2
BLOCKS
0
BLOCK
5
20
100
AcDbEntity
100
AcDbBlockBegin
2
*MODEL_SPACE
0
ENDBLK
5
21
100
AcDbEntity
100
AcDbBlockEnd
0
BLOCK
5
1C
100
AcDbEntity
100
AcDbBlockBegin
2
*PAPER_SPACE
0
ENDBLK
5
1D
100
AcDbEntity
100
AcDbBlockEnd
0
ENDSEC
0
SECTION
2
ENTITIES
0
LWPOLYLINE
5
100
100
AcDbEntity
8
0
100
AcDbPolyline
90
52
70
1
43
0.0
10
72
20
72
10
72
20
53.571428571428569
10
75
20
53.571428571428569
10
75
20
32.142857142857146
10
72
20
32.142857142857146
10
72
20
10.714285714285712
10
75
20
10.714285714285714
10
75
20
-10.714285714285714
10
72
20
-10.714285714285712
10
72
20
-32.142857142857139
10
75
20
-32.142857142857146
10
75
20
-53.571428571428569
10
72
20
-53.571428571428555
10
72
20
-72.000000000000014
10
53.571428571428555
20
-72
10
53.571428571428548
20
-75
10
32.142857142857125
20
-75
10
32.142857142857139
20
-72
10
10.714285714285712
20
-72
10
10.714285714285714
20
-75
10
-10.714285714285714
20
-75
10
-10.714285714285712
20
-72
10
-32.142857142857125
20
-72
10
-32.142857142857125
20
-75
10
-53.571428571428548
20
-75
10
-53.571428571428548
20
-72
10
-72
20
-72
10
-72
20
-53.571428571428612
10
-75
20
-53.571428571428612
10
-75
20
-32.142857142857189
10
-72
20
-32.142857142857189
10
-72
20
-10.714285714274503
10
-75
20
-10.714285714274503
10
-75
20
10.714285714296924
10
-72
20
10.714285714296921
10
-72
20
32.142857142879606
10
-75
20
32.142857142879606
10
-75
20
53.571428571451023
10
-72
20
53.571428571451023
10
-72
20
72
10
-53.571428571433614
20
72
10
-53.571428571433614
20
75
10
-32.142857142862184
20
75
10
-32.142857142862184
20
72
10
-10.714285714285197
20
72
10
-10.7142857142852
20
75
10
10.714285714286227
20
75
10
10.714285714286227
20
72
10
32.142857142863207
20
72
10
32.142857142863207
20
75
10
53.571428571434645
20
75
10
53.571428571434652
20
72
0
ENDSEC
0
SECTION
2
OBJECTS
0
DICTIONARY
5
C
100
AcDbDictionary
3
ACAD_GROUP
350
D
3
ACAD_MLINESTYLE
350
17
0
DICTIONARY
5
D
100
AcDbDictionary
0
DICTIONARY
5
1A
330
C
100
AcDbDictionary
0
DICTIONARY
5
17
100
AcDbDictionary
0
ENDSEC
0
EOF
