0
SECTION
2
HEADER
9
$INSUNITS
70
4
9
$ACADVER
1
AC1014
9
$HANDSEED
5
FFFF
0
ENDSEC
0
SECTION
2
TABLES
0
TABLE
2
VPORT
5
8
100
AcDbSymbolTable
0
ENDTAB
0
TABLE
2
LTYPE
5
5
100
AcDbSymbolTable
0
LTYPE
5
14
100
AcDbSymbolTableRecord
100
AcDbLinetypeTableRecord
2
BYBLOCK
70
0
0
LTYPE
5
15
100
AcDbSymbolTableRecord
100
AcDbLinetypeTableRecord
2
BYLAYER
70
0
0
ENDTAB
0
TABLE
2
LAYER
5
2
100
AcDbSymbolTable
70
2
0
LAYER
5
50
100
AcDbSymbolTableRecord
100
AcDbLayerTableRecord
2
0
70
0
6
CONTINUOUS
0
ENDTAB
0
TABLE
2
STYLE
5
3
100
AcDbSymbolTable
70
1
0
STYLE
5
11
100
AcDbSymbolTableRecord
100
AcDbTextStyleTableRecord
2
STANDARD
70
0
0
ENDTAB
0
TABLE
2
VIEW
5
6
100
AcDbSymbolTable
70
0
0
ENDTAB
0
TABLE
2
UCS
5
7
100
AcDbSymbolTable
70
0
0
ENDTAB
0
TABLE
2
APPID
5
9
100
AcDbSymbolTable
70
2
0
APPID
5
12
100
AcDbSymbolTableRecord
100
AcDbRegAppTableRecord
2
ACAD
70
0
0
ENDTAB
0
TABLE
2
DIMSTYLE
5
A
100
AcDbSymbolTable
70
1
0
ENDTAB
0
TABLE
2
BLOCK_RECORD
5
1
100
AcDbSymbolTable
70
1
0
BLOCK_RECORD
5
1F
100
AcDbSymbolTableRecord
100
AcDbBlockTableRecord
2
*MODEL_SPACE
0
BLOCK_RECORD
5
1B
100
AcDbSymbolTableRecord
100
AcDbBlockTableRecord
2
*PAPER_SPACE
0
ENDTAB
0
ENDSEC
0
SECTION
2
BLOCKS
0
BLOCK
5
20
100
AcDbEntity
100
AcDbBlockBegin
2
*MODEL_SPACE
0
ENDBLK
5
21
100
AcDbEntity
100
AcDbBlockEnd
0
BLOCK
5
1C
100
AcDbEntity
100
AcDbBlockBegin
2
*PAPER_SPACE
0
ENDBLK
5
1D
100
AcDbEntity
100
AcDbBlockEnd
0
ENDSEC
0
SECTION
2
ENTITIES
0
LWPOLYLINE
5
100
100
AcDbEntity
8
0
100
AcDbPolyline
90
4
70
1
43
0.0
10
40
20
-65
10
40.000000000000014
20
-8.9999999999999858
10
-39.999999999999986
20
-8.9999999999999858
10
-40
20
-64.999999999999986
0
LWPOLYLINE
5
101
100
AcDbEntity
8
0
100
AcDbPolyline
90
52
70
1
43
0.0
10
-72
20
72
10
-53.571428571434687
20
72
10
-53.57142857143468
20
75
10
-32.142857142863207
20
75
10
-32.142857142863207
20
72
10
-10.714285714286227
20
72
10
-10.714285714286227
20
75
10
10.714285714285197
20
75
10
10.714285714285197
20
72
10
32.142857142862184
20
72
10
32.142857142862184
20
75
10
53.571428571433586
20
75
10
53.571428571433586
20
72
10
72
20
72
10
72
20
53.571428571429358
10
75
20
53.571428571429358
10
75
20
32.142857142857942
10
72
20
32.142857142857942
10
72
20
10.714285714275249
10
75
20
10.714285714275253
10
75
20
-10.714285714296178
10
72
20
-10.714285714296174
10
72
20
-32.142857142878839
10
75
20
-32.142857142878839
10
75
20
-53.571428571450276
10
72
20
-53.571428571450284
10
72
20
-72
10
53.57142857142621
20
-72
10
53.57142857142621
20
-75
10
32.142857142857096
20
-75
10
32.142857142857096
20
-72
10
10.714285714285721
20
-72
10
10.714285714285722
20
-75
10
-10.714285714285705
20
-75
10
-10.714285714285703
20
-72
10
-32.142857142857153
20
-72
10
-32.142857142857146
20
-75
10
-53.571428571428577
20
-75
10
-53.571428571428577
20
-72
10
-72
20
-72
10
-72
20
-53.571428571428598
10
-75
20
-53.571428571428584
10
-75
20
-32.142857142857167
10
-72
20
-32.142857142857167
10
-72
20
-10.71428571428573
10
-75
20
-10.714285714285722
10
-75
20
10.714285714285705
10
-72
20
10.714285714285703
10
-72
20
32.142857142857139
10
-75
20
32.142857142857132
10
-75
20
53.571428571428548
10
-72
20
53.571428571428548
0
LINE
5
102
100
AcDbEntity
8
0
100
AcDbLine
10
40
20
-65
30
0
11
-39.999999999999986
21
-8.9999999999999858
31
0
0
ENDSEC
0
SECTION
2
OBJECTS
0
DICTIONARY
5
C
100
AcDbDictionary
3
ACAD_GROUP
350
D
3
ACAD_MLINESTYLE
350
17
0
DICTIONARY
5
D
100
AcDbDictionary
0
DICTIONARY
5
1A
330
C
100
AcDbDictionary
0
DICTIONARY
5
17
100
AcDbDictionary
0
ENDSEC
0
EOF
