0
SECTION
2
HEADER
9
$INSUNITS
70
4
9
$ACADVER
1
AC1014
9
$HANDSEED
5
FFFF
0
ENDSEC
0
SECTION
2
TABLES
0
TABLE
2
VPORT
5
8
100
AcDbSymbolTable
0
ENDTAB
0
TABLE
2
LTYPE
5
5
100
AcDbSymbolTable
0
LTYPE
5
14
100
AcDbSymbolTableRecord
100
AcDbLinetypeTableRecord
2
BYBLOCK
70
0
0
LTYPE
5
15
100
AcDbSymbolTableRecord
100
AcDbLinetypeTableRecord
2
BYLAYER
70
0
0
ENDTAB
0
TABLE
2
LAYER
5
2
100
AcDbSymbolTable
70
2
0
LAYER
5
50
100
AcDbSymbolTableRecord
100
AcDbLayerTableRecord
2
0
70
0
6
CONTINUOUS
0
ENDTAB
0
TABLE
2
STYLE
5
3
100
AcDbSymbolTable
70
1
0
STYLE
5
11
100
AcDbSymbolTableRecord
100
AcDbTextStyleTableRecord
2
STANDARD
70
0
0
ENDTAB
0
TABLE
2
VIEW
5
6
100
AcDbSymbolTable
70
0
0
ENDTAB
0
TABLE
2
UCS
5
7
100
AcDbSymbolTable
70
0
0
ENDTAB
0
TABLE
2
APPID
5
9
100
AcDbSymbolTable
70
2
0
APPID
5
12
100
AcDbSymbolTableRecord
100
AcDbRegAppTableRecord
2
ACAD
70
0
0
ENDTAB
0
TABLE
2
DIMSTYLE
5
A
100
AcDbSymbolTable
70
1
0
ENDTAB
0
TABLE
2
BLOCK_RECORD
5
1
100
AcDbSymbolTable
70
1
0
BLOCK_RECORD
5
1F
100
AcDbSymbolTableRecord
100
AcDbBlockTableRecord
2
*MODEL_SPACE
0
BLOCK_RECORD
5
1B
100
AcDbSymbolTableRecord
100
AcDbBlockTableRecord
2
*PAPER_SPACE
0
ENDTAB
0
ENDSEC
0
SECTION
2
BLOCKS
0
BLOCK
5
20
100
AcDbEntity
100
AcDbBlockBegin
2
*MODEL_SPACE
0
ENDBLK
5
21
100
AcDbEntity
100
AcDbBlockEnd
0
BLOCK
5
1C
100
AcDbEntity
100
AcDbBlockBegin
2
*PAPER_SPACE
0
ENDBLK
5
1D
100
AcDbEntity
100
AcDbBlockEnd
0
ENDSEC
0
SECTION
2
ENTITIES
0
LINE
5
100
100
AcDbEntity
8
0
100
AcDbLine
10
87.250000000000014
20
124.99999999999993
30
0
11
87.250000000000014
21
114.58333333333255
31
0
0
LINE
5
101
100
AcDbEntity
8
0
100
AcDbLine
10
87.250000000000014
20
114.58333333333255
30
0
11
83.75
21
114.58333333333255
31
0
0
LINE
5
102
100
AcDbEntity
8
0
100
AcDbLine
10
83.75
20
114.58333333333255
30
0
11
83.75
21
125
31
0
0
LINE
5
103
100
AcDbEntity
8
0
100
AcDbLine
10
83.75
20
125
30
0
11
58.75
21
124.99999999999993
31
0
0
LINE
5
104
100
AcDbEntity
8
0
100
AcDbLine
10
58.75
20
124.99999999999993
30
0
11
58.75
21
114.58333333333255
31
0
0
LINE
5
105
100
AcDbEntity
8
0
100
AcDbLine
10
58.75
20
114.58333333333255
30
0
11
55.25
21
114.58333333333255
31
0
0
LINE
5
106
100
AcDbEntity
8
0
100
AcDbLine
10
55.25
20
114.58333333333255
30
0
11
55.249999999999986
21
125.00000000000001
31
0
0
LINE
5
107
100
AcDbEntity
8
0
100
AcDbLine
10
55.249999999999986
20
125.00000000000001
30
0
11
30.25
21
124.99999999999993
31
0
0
LINE
5
108
100
AcDbEntity
8
0
100
AcDbLine
10
30.25
20
124.99999999999993
30
0
11
30.25
21
114.58333333333255
31
0
0
LINE
5
109
100
AcDbEntity
8
0
100
AcDbLine
10
30.25
20
114.58333333333255
30
0
11
26.750000000000004
21
114.58333333333255
31
0
0
LINE
5
110
100
AcDbEntity
8
0
100
AcDbLine
10
26.750000000000004
20
114.58333333333255
30
0
11
26.750000000000007
21
125.00000000000001
31
0
0
LINE
5
111
100
AcDbEntity
8
0
100
AcDbLine
10
26.750000000000007
20
125.00000000000001
30
0
11
1.7499999999999982
21
124.99999999999993
31
0
0
LINE
5
112
100
AcDbEntity
8
0
100
AcDbLine
10
1.7499999999999982
20
124.99999999999993
30
0
11
1.7500000000000002
21
114.58333333333255
31
0
0
LINE
5
113
100
AcDbEntity
8
0
100
AcDbLine
10
1.7500000000000002
20
114.58333333333255
30
0
11
-1.7500000000000002
21
114.58333333333255
31
0
0
LINE
5
114
100
AcDbEntity
8
0
100
AcDbLine
10
-1.7500000000000002
20
114.58333333333255
30
0
11
-1.7500000000000071
21
125.00000000000001
31
0
0
LINE
5
115
100
AcDbEntity
8
0
100
AcDbLine
10
-1.7500000000000071
20
125.00000000000001
30
0
11
-26.750000000000004
21
124.99999999999993
31
0
0
LINE
5
116
100
AcDbEntity
8
0
100
AcDbLine
10
-26.750000000000004
20
124.99999999999993
30
0
11
-26.750000000000004
21
114.58333333333255
31
0
0
LINE
5
117
100
AcDbEntity
8
0
100
AcDbLine
10
-26.750000000000004
20
114.58333333333255
30
0
11
-30.25
21
114.58333333333255
31
0
0
LINE
5
118
100
AcDbEntity
8
0
100
AcDbLine
10
-30.25
20
114.58333333333255
30
0
11
-30.250000000000004
21
125.00000000000001
31
0
0
LINE
5
119
100
AcDbEntity
8
0
100
AcDbLine
10
-30.250000000000004
20
125.00000000000001
30
0
11
-55.25
21
124.99999999999993
31
0
0
LINE
5
120
100
AcDbEntity
8
0
100
AcDbLine
10
-55.25
20
124.99999999999993
30
0
11
-55.25
21
114.58333333333255
31
0
0
LINE
5
121
100
AcDbEntity
8
0
100
AcDbLine
10
-55.25
20
114.58333333333255
30
0
11
-58.75
21
114.58333333333255
31
0
0
LINE
5
122
100
AcDbEntity
8
0
100
AcDbLine
10
-58.75
20
114.58333333333255
30
0
11
-58.75
21
124.99999999999993
31
0
0
LINE
5
123
100
AcDbEntity
8
0
100
AcDbLine
10
-58.75
20
124.99999999999993
30
0
11
-83.75
21
124.99999999999993
31
0
0
LINE
5
124
100
AcDbEntity
8
0
100
AcDbLine
10
-83.75
20
124.99999999999993
30
0
11
-83.75
21
114.58333333333255
31
0
0
LINE
5
125
100
AcDbEntity
8
0
100
AcDbLine
10
-83.75
20
114.58333333333255
30
0
11
-87.250000000000014
21
114.58333333333255
31
0
0
LINE
5
126
100
AcDbEntity
8
0
100
AcDbLine
10
-87.250000000000014
20
114.58333333333255
30
0
11
-87.250000000000014
21
125.00000000000003
31
0
0
LINE
5
127
100
AcDbEntity
8
0
100
AcDbLine
10
-87.250000000000014
20
125.00000000000003
30
0
11
-121.00000000000001
21
125.00000000000003
31
0
0
LINE
5
128
100
AcDbEntity
8
0
100
AcDbLine
10
-121.00000000000001
20
125.00000000000003
30
0
11
-121.00000000000001
21
75
31
0
0
LINE
5
129
100
AcDbEntity
8
0
100
AcDbLine
10
-121.00000000000001
20
75
30
0
11
-116.57142857142856
21
75
31
0
0
LINE
5
130
100
AcDbEntity
8
0
100
AcDbLine
10
-116.57142857142856
20
75
30
0
11
-116.57142857142857
21
78.5
31
0
0
LINE
5
131
100
AcDbEntity
8
0
100
AcDbLine
10
-116.57142857142857
20
78.5
30
0
11
-98.714285714285694
21
78.5
31
0
0
LINE
5
132
100
AcDbEntity
8
0
100
AcDbLine
10
-98.714285714285694
20
78.5
30
0
11
-98.714285714285694
21
75
31
0
0
LINE
5
133
100
AcDbEntity
8
0
100
AcDbLine
10
-98.714285714285694
20
75
30
0
11
-87.250000000000014
21
75
31
0
0
LINE
5
134
100
AcDbEntity
8
0
100
AcDbLine
10
-87.250000000000014
20
75
30
0
11
-87.250000000000014
21
85.416666666665876
31
0
0
LINE
5
135
100
AcDbEntity
8
0
100
AcDbLine
10
-87.250000000000014
20
85.416666666665876
30
0
11
-83.75
21
85.416666666665876
31
0
0
LINE
5
136
100
AcDbEntity
8
0
100
AcDbLine
10
-83.75
20
85.416666666665876
30
0
11
-83.75
21
75
31
0
0
LINE
5
137
100
AcDbEntity
8
0
100
AcDbLine
10
-83.75
20
75
30
0
11
-80.857142857142833
21
75
31
0
0
LINE
5
138
100
AcDbEntity
8
0
100
AcDbLine
10
-80.857142857142833
20
75
30
0
11
-80.857142857142833
21
78.5
31
0
0
LINE
5
139
100
AcDbEntity
8
0
100
AcDbLine
10
-80.857142857142833
20
78.5
30
0
11
-62.999999999999979
21
78.5
31
0
0
LINE
5
140
100
AcDbEntity
8
0
100
AcDbLine
10
-58.75
20
85.416666666665876
30
0
11
-55.25
21
85.416666666665876
31
0
0
LINE
5
141
100
AcDbEntity
8
0
100
AcDbLine
10
-55.25
20
85.416666666665876
30
0
11
-55.25
21
75
31
0
0
LINE
5
142
100
AcDbEntity
8
0
100
AcDbLine
10
-62.999999999999979
20
75
30
0
11
-58.75
21
75
31
0
0
LINE
5
143
100
AcDbEntity
8
0
100
AcDbLine
10
-45.142857142857117
20
75
30
0
11
-45.142857142857125
21
78.5
31
0
0
LINE
5
144
100
AcDbEntity
8
0
100
AcDbLine
10
-45.142857142857125
20
78.5
30
0
11
-30.25
21
78.5
31
0
0
LINE
5
145
100
AcDbEntity
8
0
100
AcDbLine
10
-30.25
20
78.5
30
0
11
-30.25
21
85.416666666665876
31
0
0
LINE
5
146
100
AcDbEntity
8
0
100
AcDbLine
10
-30.25
20
85.416666666665876
30
0
11
-26.750000000000004
21
85.416666666665876
31
0
0
LINE
5
147
100
AcDbEntity
8
0
100
AcDbLine
10
-26.750000000000004
20
85.416666666665876
30
0
11
-26.750000000000004
21
75
31
0
0
LINE
5
148
100
AcDbEntity
8
0
100
AcDbLine
10
-26.750000000000004
20
75
30
0
11
-9.4285714285713951
21
75
31
0
0
LINE
5
149
100
AcDbEntity
8
0
100
AcDbLine
10
-9.4285714285713951
20
75
30
0
11
-9.428571428571404
21
78.5
31
0
0
LINE
5
150
100
AcDbEntity
8
0
100
AcDbLine
10
-9.428571428571404
20
78.5
30
0
11
-1.7500000000000004
21
78.5
31
0
0
LINE
5
151
100
AcDbEntity
8
0
100
AcDbLine
10
-1.7500000000000004
20
78.5
30
0
11
-1.7500000000000002
21
85.416666666665876
31
0
0
LINE
5
152
100
AcDbEntity
8
0
100
AcDbLine
10
-1.7500000000000002
20
85.416666666665876
30
0
11
1.7500000000000002
21
85.416666666665876
31
0
0
LINE
5
153
100
AcDbEntity
8
0
100
AcDbLine
10
1.7500000000000002
20
85.416666666665876
30
0
11
1.7500000000000004
21
78.5
31
0
0
LINE
5
154
100
AcDbEntity
8
0
100
AcDbLine
10
1.7500000000000004
20
78.5
30
0
11
8.4285714285714519
21
78.5
31
0
0
LINE
5
155
100
AcDbEntity
8
0
100
AcDbLine
10
8.4285714285714519
20
78.5
30
0
11
8.4285714285714608
21
75
31
0
0
LINE
5
156
100
AcDbEntity
8
0
100
AcDbLine
10
8.4285714285714608
20
75
30
0
11
26.285714285714317
21
75
31
0
0
LINE
5
157
100
AcDbEntity
8
0
100
AcDbLine
10
26.750000000000004
20
85.416666666665876
30
0
11
30.25
21
85.416666666665876
31
0
0
LINE
5
158
100
AcDbEntity
8
0
100
AcDbLine
10
30.25
20
85.416666666665876
30
0
11
30.25
21
78.5
31
0
0
LINE
5
159
100
AcDbEntity
8
0
100
AcDbLine
10
26.285714285714317
20
78.5
30
0
11
26.750000000000004
21
78.5
31
0
0
LINE
5
160
100
AcDbEntity
8
0
100
AcDbLine
10
44.142857142857167
20
78.5
30
0
11
44.142857142857167
21
75
31
0
0
LINE
5
161
100
AcDbEntity
8
0
100
AcDbLine
10
44.142857142857167
20
75
30
0
11
55.25
21
75
31
0
0
LINE
5
162
100
AcDbEntity
8
0
100
AcDbLine
10
55.25
20
75
30
0
11
55.25
21
85.416666666665876
31
0
0
LINE
5
163
100
AcDbEntity
8
0
100
AcDbLine
10
55.25
20
85.416666666665876
30
0
11
58.75
21
85.416666666665876
31
0
0
LINE
5
164
100
AcDbEntity
8
0
100
AcDbLine
10
58.75
20
85.416666666665876
30
0
11
58.75
21
75
31
0
0
LINE
5
165
100
AcDbEntity
8
0
100
AcDbLine
10
62.000000000000028
20
78.5
30
0
11
79.857142857142875
21
78.5
31
0
0
LINE
5
166
100
AcDbEntity
8
0
100
AcDbLine
10
79.857142857142875
20
78.5
30
0
11
79.85714285714289
21
75
31
0
0
LINE
5
167
100
AcDbEntity
8
0
100
AcDbLine
10
79.85714285714289
20
75
30
0
11
83.75
21
75
31
0
0
LINE
5
168
100
AcDbEntity
8
0
100
AcDbLine
10
83.75
20
75
30
0
11
83.75
21
85.416666666665876
31
0
0
LINE
5
169
100
AcDbEntity
8
0
100
AcDbLine
10
83.75
20
85.416666666665876
30
0
11
87.250000000000014
21
85.416666666665876
31
0
0
LINE
5
170
100
AcDbEntity
8
0
100
AcDbLine
10
87.250000000000014
20
85.416666666665876
30
0
11
87.250000000000014
21
75
31
0
0
LINE
5
171
100
AcDbEntity
8
0
100
AcDbLine
10
87.250000000000014
20
75
30
0
11
97.714285714285751
21
75
31
0
0
LINE
5
172
100
AcDbEntity
8
0
100
AcDbLine
10
97.714285714285751
20
75
30
0
11
97.714285714285737
21
78.5
31
0
0
LINE
5
173
100
AcDbEntity
8
0
100
AcDbLine
10
97.714285714285737
20
78.5
30
0
11
115.57142857142861
21
78.5
31
0
0
LINE
5
174
100
AcDbEntity
8
0
100
AcDbLine
10
115.57142857142861
20
78.5
30
0
11
115.57142857142858
21
75
31
0
0
LINE
5
175
100
AcDbEntity
8
0
100
AcDbLine
10
115.57142857142858
20
75
30
0
11
120
21
75
31
0
0
LINE
5
176
100
AcDbEntity
8
0
100
AcDbLine
10
120
20
75
30
0
11
120
21
125
31
0
0
LINE
5
177
100
AcDbEntity
8
0
100
AcDbLine
10
120
20
125
30
0
11
87.250000000000014
21
124.99999999999993
31
0
0
LINE
5
178
100
AcDbEntity
8
0
100
AcDbLine
10
-62.999999999999979
20
78.5
30
0
11
-62.999999999999979
21
75
31
0
0
LINE
5
179
100
AcDbEntity
8
0
100
AcDbLine
10
-58.75
20
75
30
0
11
-58.75
21
85.416666666665876
31
0
0
LINE
5
180
100
AcDbEntity
8
0
100
AcDbLine
10
58.75
20
75
30
0
11
62.000000000000043
21
75
31
0
0
LINE
5
181
100
AcDbEntity
8
0
100
AcDbLine
10
62.000000000000043
20
75
30
0
11
62.000000000000028
21
78.5
31
0
0
LINE
5
182
100
AcDbEntity
8
0
100
AcDbLine
10
26.285714285714317
20
75
30
0
11
26.285714285714317
21
78.5
31
0
0
LINE
5
183
100
AcDbEntity
8
0
100
AcDbLine
10
26.750000000000004
20
78.5
30
0
11
26.750000000000004
21
85.416666666665876
31
0
0
LINE
5
184
100
AcDbEntity
8
0
100
AcDbLine
10
-55.25
20
75
30
0
11
-45.142857142857117
21
75
31
0
0
LINE
5
185
100
AcDbEntity
8
0
100
AcDbLine
10
30.25
20
78.5
30
0
11
44.142857142857167
21
78.5
31
0
0
ENDSEC
0
SECTION
2
OBJECTS
0
DICTIONARY
5
C
100
AcDbDictionary
3
ACAD_GROUP
350
D
3
ACAD_MLINESTYLE
350
17
0
DICTIONARY
5
D
100
AcDbDictionary
0
DICTIONARY
5
1A
330
C
100
AcDbDictionary
0
DICTIONARY
5
17
100
AcDbDictionary
0
ENDSEC
0
EOF
