<?xml version="1.0" encoding="utf-8"?>
<!-- Generator: Adobe Illustrator 23.0.3, SVG Export Plug-In . SVG Version: 6.00 Build 0)  -->
<svg version="1.1" id="_x30_" xmlns="http://www.w3.org/2000/svg" xmlns:xlink="http://www.w3.org/1999/xlink" x="0px" y="0px"
	 viewBox="0 0 1920 1080" style="enable-background:new 0 0 1920 1080;" xml:space="preserve">
<style type="text/css">
	.st0{fill:none;stroke:#000000;stroke-width:0.7087;stroke-linecap:round;stroke-linejoin:round;stroke-miterlimit:10;}
	.st1{fill:#040302;}
	.st2{fill:#FFFFFF;stroke:#000000;stroke-width:5;stroke-linejoin:bevel;stroke-miterlimit:10;}
</style>
<g id="LWPOLYLINE">
	<polygon class="st0" points="1570.22,1080.2 349.78,1080.2 349.78,1047.18 334.77,1047.18 334.77,993.16 349.78,993.16 
		349.78,960.15 334.77,960.15 334.77,-0.2 1585.23,-0.2 1585.23,960.15 1570.22,960.15 1570.22,993.16 1585.23,993.16 
		1585.23,1047.18 1570.22,1047.18 	"/>
</g>
<g>
	<path d="M1343.95,73.86l170.98,187.9L960,998.67L405.07,261.76l170.98-187.9H1343.95 M1361.64,33.86H558.36L353.18,259.35
		L960,1065.16l606.82-805.81L1361.64,33.86L1361.64,33.86z"/>
</g>
<g transform="translate(0,-952.36218)">
	<path d="M878.4,1056.61c-27.12,0-48.96,21.84-48.96,48.96v359.05c0,27.12,21.84,48.96,48.96,48.96h163.21
		c27.12,0,48.96-21.84,48.96-48.96v-359.05c0-27.12-21.84-48.96-48.96-48.96H878.4z M856.64,1111.01h206.73v326.41H856.64V1111.01z
		 M960,1453.74c12.02,0,21.76,9.74,21.76,21.76c0,12.02-9.74,21.76-21.76,21.76c-12.02,0-21.76-9.74-21.76-21.76
		C938.24,1463.49,947.98,1453.74,960,1453.74z"/>
</g>
<g>
	<g>
		<path d="M968.27,475.13v-50.72h30.69V342.3h-29.7v-50.72h29.7V168.24h53.9v306.89H968.27z"/>
	</g>
	<g>
		<path d="M951.88,168.24v50.72h-30.69v72.21h29.7v50.72h-29.7v133.24h-53.9V168.24H951.88z"/>
	</g>
</g>
<g>
	<g>
		<path d="M879.01,866.41c-5.78-9.24-11.67-18.43-17.52-27.6c-5.31-8.34-10.03-16.12-13.64-23.32c-3.61-7.19-6.3-14.11-7.53-20.84
			c-1.23-6.72-1.19-13.52,0.69-20.51c1.64-6.31,2.82-9.6,5.9-16.45c2.28-4.37,4.19-8.72,5.42-12.93c1.23-4.21,1.95-8.64,2.04-13.2
			c0.08-4.57-0.51-9.68-1.86-15.27c-1.35-5.59-3.29-12.06-5.69-19.27c-6.21-18.69-19.14-35.32-40.33-35.88
			c-7.13-0.19-12.04,1-14.68,3.55c-2.64,2.56-3.79,6.1-3.48,10.62c0.31,4.53,1.84,9.81,4.52,15.89c2.68,6.08,5.92,12.58,9.67,19.49
			c-13.09-1.79-26.17-3.62-39.23-5.63c-2.71-3.69-4.05-5.54-6.72-9.21c-9.18-13.4-25.1-33.66-18.22-50.59
			c7.45-18.34,39.32-18.57,55.19-19.17c25.69-0.96,55.75,2.79,77.35,18.66c19.89,14.61,30.25,37.62,34.03,61.56
			c1.56,9.88,2.27,19.13,2.22,27.57c-0.05,8.45-0.9,16.39-2.38,23.72c-1.47,7.33-3.66,14.19-6.35,20.46
			c-2.69,6.27-5.9,12.36-9.33,18.12c-5.39,9.56,25.38,77.34,42.5,88.77c1.87,16.25,3.54,32.52,5.03,48.81
			C917.07,911.88,895.17,891.04,879.01,866.41z"/>
		<path d="M964.03,945.59c-5.04,7.39-10.8,8.21-17.1,0.37l-4.87-60.22h25.51L964.03,945.59z"/>
		<path d="M1011.04,735.13c5.36-19.38,12.3-38.16,22.35-55.28c8.91-15.17,22.86-28.86,38.27-37.86c17.25-10.08,39.34-14.33,59-14.44
			c13.51-0.07,28.06-0.13,40.55,5.76c8.45,3.98,12.82,11.12,12.41,20.42c-0.6,13.5-7.67,25.9-14.25,37.26
			c-11.69,20.18-26.97,39.24-41.65,57.76c-14.15,17.85-129.86,163.63-138.69,173.45c-6.18,6.87-10.27,10.35-12.64,9.98
			c-2.37-0.37-2.95-5.45-2.09-15.28c1.28-14.64,3.82-29.28,6.37-43.73c4.27-24.19,9.33-48.5,14.64-72.51
			C1000.16,778.78,1005.12,756.56,1011.04,735.13z M1013.77,847.88c-3.43,8.97-6.92,18.05-9.68,27.28
			c-1.85,6.19,0.58,7.48,3.33,5.28c2.87-2.3,62.64-87.05,72.22-102.47c6.29-10.18,12.54-20.38,18.73-30.61
			c8.41-14.07,16.79-28.2,24.11-42.84c5.45-10.89,8.6-19.39,9.68-25.5c1.07-6.1,0.17-10.16-2.57-12.18
			c-2.74-2.02-7.18-2.83-13.31-2.36c-6.4,0.49-12.35,2.42-17.62,5.87c-5.27,3.45-10.49,9.08-15.54,16.93
			c-6.37,9.9-11.51,20.68-16.28,31.44c-7.15,16.13-13.8,32.56-20.46,48.94c-4.5,11.1-9.05,22.17-13.63,33.23
			C1026.3,816.49,1019.77,832.15,1013.77,847.88z"/>
	</g>
</g>
<path class="st1" d="M599.62,94.84c0.25,0.35,0.26,1.06,0.19,1.56c-0.53,4.01-0.94,8.01,0.61,11.87c0.1,0.24,0.11,0.56,0.09,0.84
	c-0.21,3.19,0.83,5.76,2.74,7.97c0.3,0.35,0.47,1.45,0.24,1.77c-2.47,3.57-2.6,8.05-2.86,12.15c-0.36,5.59,0.36,11.25,2.04,16.64
	c1.49,4.75,4.55,7.99,7.57,11.31c1.98,2.17,3.88,4.44,5.72,6.76c1.72,2.16,2.69,4.76,3.32,7.64c0.85,3.92,1.71,7.95,4.39,10.81
	c1.95,2.09,4.09,3.94,6.22,5.79c0.9,0.78,1.14,1.54,1.07,2.88c-0.3,6.42,0.13,12.84,2.26,18.76c1.04,2.88,3.12,5.31,4.96,7.69
	c1.11,1.44,1.82,2.78,1.66,4.77c-0.31,3.83,0.77,7.32,2.38,10.53c0.72,1.44,1.89,2.63,2.99,3.75c3.34,3.4,3.4,4.55,1.64,9.13
	c-2.48,6.46-3.65,13.05-0.04,19.64c1.5,2.73,2.71,5.68,4.1,8.51c0.6,1.22,0.71,2.32,0.57,3.81c-0.83,8.63-1.36,17.29,0.43,25.89
	c2.02,9.76,4.59,19.25,9.56,27.57c0.97,1.63,2.26,3.06,3.58,4.33c5.12,4.96,10.82,8.81,16.93,11.84c0.68,0.34,1.34,0.74,2,1.14
	c0.14,0.09,0.22,0.31,0.51,0.74c-2.17,0.38-4.15,0.91-6.15,1.06c-7.62,0.56-15.26,0.89-22.88,1.53c-4.47,0.38-8.72,1.74-12.21,5.39
	c-0.37,0.39-1,0.57-1.52,0.59c-5.76,0.3-10.12,3.52-13.63,8.72c-3.54,5.25-6.14,10.95-7.19,17.61c-0.25,1.6-1.04,3.27-1.97,4.5
	c-4.16,5.52-7.12,11.81-8.97,18.79c-0.38,1.45-0.2,3.15-0.08,4.72c0.32,4.34,0.48,8.61-0.44,12.93c-1.29,6.04-0.54,12.14,0.54,18.08
	c0.43,2.38,2.05,4.42,2.91,6.73c0.57,1.53,0.93,3.24,1.04,4.9c0.36,5.25,0.08,10.63,0.95,15.74c0.83,4.82,2.12,9.93,4.46,13.9
	c2.52,4.3,5.34,8.9,10.03,10.82c0.7,0.28,1.4,1.43,1.6,2.33c0.84,3.78,1.64,7.58,2.19,11.43c0.89,6.25,3.88,10.89,7.54,15.28
	c3.37,4.04,7.64,6,11.86,8.18c0.62,0.32,1.23,0.69,1.87,0.93c1.76,0.65,2.65,1.97,3.03,4.14c0.88,5.07,4.18,8.17,7.42,10.98
	c5.57,4.83,11.49,9.18,18.42,10.72c4.34,0.96,8.8,1.63,13.21,1.63c5.15,0,9.78,1.76,14.51,3.77c3.01,1.28,6.31,1.98,9.52,2.16
	c7.58,0.43,15.03-0.57,22.01-4.49c2.51-1.4,4.93-0.38,7.37,0.54c2.05,0.78,4.14,1.39,6.23,2c4.04,1.16,7.94,0.3,11.82-1.16
	c6.04-2.28,11.71-5.54,16.95-9.6c3.2-2.48,5.8-6.03,8.66-9.11c13.6-14.65,25.3-31.26,36.43-48.41v-20.96
	c-3.73,5.77-7.39,11.62-11.17,17.34c-0.67,1.02-1.91,1.82-3.01,2.09c-1.96,0.5-4.02,0.43-6.01,0.77c-1.47,0.25-2.74,0.05-3.57-1.5
	c-0.85-1.6-0.33-3.2,0.54-4.43c3.12-4.4,4.35-9.63,5.25-15.09c0.34-2.08,1.2-4.07,1.97-6.02c0.51-1.31,1.51-1.73,2.78-1.54
	c2.69,0.39,5.4,0.66,8.1,0.95c2.92,0.32,3,0.21,4.01-2.99c0.36-1.13,0.67-2.33,1.1-3.43v-10.59c-0.61,0.4-1.24,0.78-1.91,1.09
	c-5.32,2.41-8.52,0.72-9.82-5.65c-0.37-1.82-0.46-3.72-0.67-5.59c0.08-0.72,0.08-1.46,0.25-2.15c0.83-3.39,1.8-6.74,2.53-10.17
	c1.49-7.07,4.37-13.18,8.3-18.85c0.46-0.66,0.89-1.33,1.34-2v-18.26c-0.49,0.6-0.97,1.2-1.44,1.82c-3.11,4.09-6.08,8.34-9.03,12.6
	c-5.65,8.19-11.99,15.52-19.37,21.53c-1.6,1.31-3.63,2.63-5.47,2.66c-3.29,0.05-6.61-0.79-9.89-1.43c-3.41-0.67-6.8-1.61-10.25-0.44
	c-2.53,0.86-5.07,1.73-7.54,2.79c-10.35,4.45-20.71,8.86-31,13.5c-5.63,2.54,2.59-12.26-3.32-11.04c-4.03-0.66-5.63-1.48-7.7-5.99
	c-2.09-4.56-17.22,6.31-15.53,2c3.04-7.74,7.94-13.79,13.34-19.33c7.06-7.25,14.65-13.69,22.81-19.08
	c11.74-7.76,23.74-14.97,35.43-22.84c9.68-6.52,24.78,45.32,35.84,42.78c6.12-1.41,7.02-60.25,13.12-61.79v-18.14
	c-10.46-1.16-20.9-2.46-31.2-5.12c-8.49-2.19-17.04-4.05-25.57-5.98c-4.11-0.93-8.25-2.27-12.39-2.37
	c-5.03-0.12-10.14,0.44-15.09,1.5c-9.06,1.96-18.14,3.46-27.37,3.59c-5.09,0.09-10.23,0.98-15.22-1.16
	c-1.26-0.54-2.66-0.61-3.99-0.92c-5.82-1.36-10.82-4.3-14.18-10.28c-2.66-4.73-4.24-9.93-4.45-15.64
	c-0.35-9.18,2.09-13.81,10.75-15.69c5.05-1.09,8.63,8.7,13.77,8.92c13.93,0.6,29.53-8.4,43.45-7.55c2.95,0.18,5.95,0.68,8.86,0.3
	c5.8-0.76,11.88,17.75,17.64,16.66c7.58-1.44,14.81-22.5,22.33-19.25c3.86,1.66,11.22,0.49,11.66,4.69
	c10.81,103.3,14.25,9.49,20.99,14.9v-6.55c-1.11-1.13-2.22-2.27-3.35-3.38c-8.76-8.53-2.55-51.32-10.73-60.62
	c-7.33-8.34,7.53,8.09,0,0c-9.34-10.04-55.99-10.37-65.52-20.16c-8.06-8.29-14.68-17.86-19.3-29.23c-2.45-6.03-4.1-12.39-4.23-19.13
	c-0.09-4.53,1.4-6.68,5.21-7.11c3.91-0.44,7.92-0.86,11.78-0.3c6.4,0.93,12.78,2.34,19.05,4.13c5.66,1.61,11.17,3.98,16.36,7.22
	c2.5,1.55,5.36,2.48,7.56,4.45c6.39,5.73,12.77,11.53,18.68,17.9c4.68,5.05,8.7,10.95,12.94,16.56c4.27,5.64,8.06,11.69,11.55,17.97
	v-16.28c-2.61-4.45-5.32-8.83-8.23-13.05c-8.18-11.92-17.03-23.07-26.31-33.82c-7.67-8.88-16.12-16.6-24.34-24.69
	c-3.64-3.58-6.4-8.36-9.69-12.46c-1.46-1.82-3.07-3.61-4.88-4.86c-9.74-6.69-19.43-13.51-29.4-19.71
	c-11.61-7.22-23.52-13.78-35.24-20.74c-3.29-1.95-6.33-4.51-9.63-6.44c-5.51-3.23-11.09-6.33-16.74-9.23
	c-8.19-4.21-16.41-8.34-24.73-12.2c-3.19-1.48-6.68-2.05-10.01-3.15c-3.08-1.01-6.14-2.14-9.2-3.27c-5.6-2.08-10.76-1.14-15.21,3.4
	c-1.13,1.15-2.06,2.99-2.4,4.7c-0.75,3.72-0.98,7.58-1.62,11.34c-0.19,1.15-0.78,2.6-1.58,3.15c-5.3,3.64-6.67,9.3-6.29,15.93
	C594.93,84.1,596.14,89.93,599.62,94.84z M752.06,130.54c0.85-0.78,2.66-0.85,3.77-0.37c4.49,1.94,7.93,5.43,9.96,10.64
	c1.09,2.79,0.5,3.92-2.44,3.96c-0.13-0.02-0.64-0.02-1.1-0.2c-4.35-1.68-8.02-4.35-10.04-9.48
	C751.6,133.53,750.81,131.68,752.06,130.54z M688.1,405.04c-5.26,1.81-10.5,3.73-15.79,5.39c-5.05,1.59-10.06,3.54-15.46,3.59
	c-2.54-0.45-5.17-0.56-7.61-1.41c-6.2-2.15-8.3-11.27-3.86-16.74c1.62-2,3.6-3.86,5.72-4.99c14.42-7.64,29.44-13.11,45-16.52
	c11.79-2.58,23.05-7.29,34.33-11.88c7.9-3.22,15.64-6.98,23.52-10.27c3.88-1.62,8.02-2.38,11.85-4.12c4.94-2.25,9.75-2.7,14.79-0.77
	c2.5,0.96,3.24,2.5,1.84,5.08c-0.67,1.24-1.61,2.43-2.66,3.21c-10.73,8-21.39,16.15-32.32,23.75c-5.27,3.66-11.04,6.36-16.67,9.25
	c-4.61,2.37-9.28,4.68-14.07,6.46C707.24,398.6,697.65,401.75,688.1,405.04z M692.01,438.63c-4.57,2.59-9.58,4.11-14.37,6.17
	c-6.01,2.59-11.99,5.25-18.01,7.84c-1.88,0.81-3.81,1.46-5.72,2.18c-3.21-0.34-5.94-1.35-8.24-3.86c-3.98-4.34-6.23-9.68-6.46-16.05
	c-0.23-6.49,2.17-10.83,7.17-12.6c3.16-1.12,6.47-2.03,9.75-2.26c12.99-0.9,25.42-4.41,37.57-9.73c3.12-1.37,6.55-2.13,9.88-2.4
	c4.51-0.36,5.77,1.82,5.05,6.96C707,426.6,700.56,433.78,692.01,438.63z M629.8,415.91c-0.07-2.91,2.25-5.47,5.1-5.61
	c2.45-0.13,3.9,1.4,3.96,4.17c0.06,2.72-2.17,4.91-5.07,5.01C631.27,419.56,629.86,418.29,629.8,415.91z M631.08,430.5
	c0.05,1.68-1.28,2.78-3.35,2.77c-1.72-0.01-2.94-1.19-2.93-2.82c0.01-1.81,1.4-3.24,3.11-3.2
	C629.54,427.29,631.03,428.81,631.08,430.5z M640.08,462.56c0.35,1.04-1.88,3.65-2.84,3.29c-0.8-0.29-1.39-1.34-1.74-1.7
	c0.03-2.64,1.26-4.33,2.61-3.9C638.91,460.5,639.76,461.6,640.08,462.56z M780.19,536.9c5.34-6.07,10.74-12.07,16.21-17.98
	c0.74-0.8,1.99-0.97,3.43-1.62c1.02,0.91,2.29,1.69,3.04,2.9c0.23,0.37-0.85,2.06-1.52,2.93c-1.49,1.91-3.15,3.62-4.65,5.52
	c-2.34,2.97-4.56,6.07-6.9,9.03c-1.57,1.99-3.17,3.99-4.95,5.71c-1.67,1.62-4.62,0.65-5.74-1.52
	C777.99,539.74,779.07,538.18,780.19,536.9z M758.7,545.87c0-0.96,0.62-2.37,1.32-2.8c3.26-2.03,6.78-2.48,10.38-1.5
	c1.37,0.37,2.39,1.31,2.34,3.13c-0.05,1.76-0.99,2.84-2.4,3.09c-2.61,0.46-5.24,0.76-8.23,1.18c-0.43-0.13-1.34-0.15-1.93-0.66
	C759.51,547.73,758.7,546.7,758.7,545.87z M757.34,522.98c-0.03-4.92,2.7-13.71,5.25-17.77c2.39-3.82,4.72-7.72,6.77-11.79
	c5.44-10.81,10.72-21.73,16.04-32.62c3.1-6.34,7.43-11.45,11.84-16.47c1.84-2.09,3.79-4.16,5.95-5.74c2.44-1.79,4.3-0.57,4.77,2.81
	c0.19,1.34,0.22,2.77,0.03,4.1c-1.14,7.69-16.72-1.38-18.17,6.23c-1.21,6.39,7.66,36.35,6.29,42.71c-1.42,6.54-0.17,5.37-3.39,10.92
	c-6.7,11.56-15.21,20.26-26.57,24.99C761.72,532.18,756.68,529.46,757.34,522.98z M741.07,540.95c0.04-1.87,1.75-3.68,3.5-3.7
	c2.08-0.02,4.39,2.42,4.39,4.65c0,1.96-1.41,3.33-3.41,3.3C742.94,545.17,741.02,543.34,741.07,540.95z M731.25,554.52
	c-0.08-1.97,1.93-3.81,4.38-3.99c1.69-0.13,2.79,1.05,2.87,3.08c0.1,2.35-1.27,3.97-3.43,4.09
	C733.12,557.81,731.32,556.31,731.25,554.52z M725.56,547.34c-2.37-0.03-4.09-1.72-4.08-4c0-2.21,2.03-3.94,4.59-3.93
	c2.29,0.02,3.8,1.61,3.77,4C729.81,545.82,728.12,547.37,725.56,547.34z M716.3,555.17c0.06-2.05,1.35-3.43,3.17-3.37
	c2.62,0.08,5.14,2.61,5.12,5.16c-0.02,1.99-1.23,3.1-3.32,3.05C718.37,559.95,716.22,557.85,716.3,555.17z M716.21,518.53
	c-0.14-5.64,1.35-10.68,3.69-15.03c3.03-5.65,6.63-10.93,10.36-15.99c4.91-6.66,10.34-12.79,15.27-19.43
	c8.41-11.34,29.64-6.86,40.48-14.72c1.5-1.09-8.19-15.69-6.5-16.2c1.98-0.59,4.21-1.37,5.88,0.91c1.44,1.96,1.18,4.27,0.25,6.33
	c-1.94,4.26-3.81,8.61-6.11,12.59c-4.35,7.52-9.12,14.71-13.45,22.25c-3.6,6.28-6.61,13.03-10.23,19.3
	c-5.04,8.72-10.26,17.3-15.68,25.69c-2.38,3.69-5.82,6.01-9.9,6.52c-2.29,0.28-4.69,0.94-6.88,0.46
	C719.51,530.36,715.8,524.88,716.21,518.53z M704.75,550.85c-0.05-1.68,1.19-2.78,3.53-2.92c1.13,0,2.35,0.4,2.62,2.27
	c0.2,1.4-1.54,3.34-3,3.48C706.32,553.83,704.79,552.46,704.75,550.85z M695.99,540.3c0.55-1.02,0.76-1.76,1.19-2.15
	c1.88-1.66,5.87-0.01,6.41,2.67c0.13,0.66-0.02,1.72-0.4,2.12c-0.45,0.47-1.32,0.64-1.96,0.53c-1.07-0.18-2.16-0.53-3.13-1.09
	C697.33,541.94,696.74,541.07,695.99,540.3z M682.98,544.97c3.76-0.74,7.24,0.22,10.2,3.12c1.19,1.16,1.34,2.91,0.62,4.35
	c-0.54,1.09-1.64,1.8-2.12,2.3c-4.62-0.44-7.43-3.2-10.09-6.07C680.43,547.43,681.25,545.31,682.98,544.97z M675.31,533.54
	c0.04-1.7,1.14-2.71,2.98-2.73c2.21-0.02,4.45,1.83,4.43,3.65c-0.02,1.57-1.64,2.82-3.66,2.83
	C676.81,537.31,675.26,535.76,675.31,533.54z M674.68,504.65c0.05-6.28,0.53-8.65,3.96-12.3c6.64-7.07,13.24-14.29,20.44-20.53
	c9.01-7.8,41.9-17.3,52.55-21.74c4.21-1.76-14.96,1.08-10.95,3.48c2.07,1.24,2.3,3.14,0.68,4.98c-5.78,6.56-11.89,12.79-17.19,19.86
	c-8.93,11.91-17.34,24.35-25.94,36.6c-2.19,3.12-4.16,6.44-7.29,8.46c-3.34,2.16-6.38,1.6-9.38-1.16
	C676.43,517.57,674.84,511.19,674.68,504.65z M660.78,531.02c0.02-1.1,0.83-2.62,1.66-3.13c1.06-0.65,2.56-0.84,3.73-0.52
	c0.83,0.22,1.88,1.52,2.01,2.5c0.1,0.74-0.95,2.02-1.74,2.51c-0.87,0.54-2.02,0.46-2.77,0.59
	C662.12,533,660.74,532.68,660.78,531.02z M660.47,518.26c-0.03-1.57,1.46-2.99,3.12-2.96c1.5,0.03,2.69,1.21,2.66,2.66
	c-0.03,1.57-1.36,2.83-3,2.84C661.75,520.81,660.5,519.67,660.47,518.26z M650.37,488.27c-1.94-4.27-2.36-9.49-3.47-14.28
	c0.16-0.04,0.33-0.09,0.49-0.13c-0.17-4.22,1.02-7.49,4.53-9.25c1.24-0.62,2.31-1.68,3.55-2.3c12.34-6.16,24.7-12.25,37.04-18.42
	c2.56-1.28,5-0.62,7.32,0.58c0.76,0.39,1.56,1.83,1.6,2.82c0.27,6.61-1.22,12.72-5.22,17.48c-3.09,3.68-6.61,6.89-10.06,10.12
	c-6.49,6.07-12.84,12.39-19.67,17.88C659.64,498.28,653.89,496.03,650.37,488.27z M651.84,509.87c-0.04-2.02,1.21-3.08,3.67-3.09
	c1.95-0.01,3.08,0.99,3.13,2.78c0.06,2.1-1.62,3.89-3.65,3.91C653.02,513.48,651.89,512.17,651.84,509.87z M645.56,518.05
	c0.64-0.56,1.58-0.66,2.58-1.03c1.13,0.44,2.4,0.77,3.52,1.43c1.48,0.87,1.68,2.34,0.74,3.95c-0.95,1.64-2.26,2.6-3.92,1.99
	c-1.77-0.66-3.45-1.79-3.94-4.1C644.42,519.65,645.02,518.52,645.56,518.05z M639.07,504.18c-0.02-2.12,1.33-3.89,2.99-3.95
	c1.68-0.06,3.23,2.07,3.26,4.48c0.02,1.88-1.13,3.18-2.84,3.18C640.64,507.9,639.1,506.23,639.07,504.18z M633.54,476.27
	c-0.01-2.18,1.36-3.72,3.32-3.72c1.93-0.01,3.08,1.12,3.13,3.06c0.06,2.26-1.49,4.04-3.54,4.07
	C634.8,479.7,633.55,478.24,633.54,476.27z M630.83,456.38c-2.18-0.02-3.91-1.78-3.89-3.96c0.03-2.56,2-4.67,4.3-4.61
	c1.91,0.06,3.54,1.9,3.47,3.94C634.63,454.25,632.83,456.39,630.83,456.38z M630.84,467.86c0.01,2.01-2.02,4.4-3.73,4.39
	c-1.51-0.01-2.64-1.5-2.63-3.48c0.01-2.01,1.74-4.07,3.43-4.09C629.47,464.66,630.83,466.14,630.84,467.86z M624.39,482.36
	c-0.02-2.12,1.37-3.85,3.07-3.84c1.47,0.01,2.72,1.31,2.76,2.88c0.05,1.9-1.68,3.82-3.41,3.79
	C625.25,485.16,624.41,484.17,624.39,482.36z M620.09,457.16c0.15-1.36,0.84-2.33,2.24-2.32c2.22,0.01,4.29,1.89,4.28,3.81
	c-0.01,1.43-1.52,2.75-3.07,2.67C621.67,461.23,620.02,459.35,620.09,457.16z M618.92,443.62c-0.14-1.71,1.35-2.99,3.39-3.04
	c1.38-0.03,2.43,1.1,2.41,2.59c-0.02,1.63-1.51,2.98-3.54,2.99C620.02,446.09,619.06,445.32,618.92,443.62z M617.76,429.29
	c1.36-0.1,2.09,0.93,2.09,2.41c0,1.58-0.86,2.47-2.78,2.76c-0.39-0.64-1.28-1.48-1.39-2.44
	C615.51,430.51,616.38,429.39,617.76,429.29z M623.41,411.44c1.3,1.94,1.37,3.7,0.31,5.8c-0.66,1.3-1.09,2.8-1.89,3.95
	c-0.6,0.85-1.62,1.74-2.47,1.76c-0.73,0.01-1.8-1.01-2.16-1.88c-0.75-1.84-1.13-3.89-1.66-5.85c0.12-0.05,0.24-0.09,0.37-0.14
	c0-0.36,0.01-0.72,0-1.09c-0.07-2.28,0.52-4.19,2.4-5.17C619.7,408.08,621.98,409.32,623.41,411.44z M627.84,401.11
	c0.02,1.9-1.65,3.58-3.55,3.55c-1.33-0.02-2.41-1.35-2.4-2.96c0.01-1.91,1.68-4.35,2.98-4.36
	C626.35,397.34,627.82,399.2,627.84,401.11z M635.61,383.57c-0.76,1.28-1.83,2.31-2.81,3.39c-0.72,0.78-1.43,1.78-2.3,2.08
	c-0.93,0.32-2.46,0.37-2.94-0.27c-0.49-0.65-0.36-2.54,0.11-3.45c0.91-1.77,2.15-3.36,3.44-4.78c0.81-0.88,1.97-1.31,3.22-2.09
	c0.82,0.66,2.02,1.14,2.11,1.82C636.58,381.31,636.15,382.65,635.61,383.57z M638.78,396.43c0.01,1.78-0.72,2.67-2.23,2.71
	c-1.34-0.34-3.04-0.07-3.2-2.43c-0.12-1.75,1.76-4.34,2.99-4.32C637.99,392.41,638.77,393.74,638.78,396.43z M642.72,366.63
	c-0.06,1.76-1.24,3.61-2.31,3.28c-0.8-0.24-1.44-1.23-1.83-1.6c0.07-2.67,1.05-4.15,2.31-4.09
	C642.15,364.29,642.77,365.17,642.72,366.63z M647.36,370.43c0.15,0.91,0.59,1.93,0.38,2.72c-0.6,2.34-3.55,4.58-5.6,4.53
	c-1.76-0.04-3.44-1.45-3.18-2.8c0.42-2.14,1.95-1.97,3.27-1.67c1.49,0.35,2.42-0.15,3.25-1.61
	C645.84,370.99,646.72,370.81,647.36,370.43z M656.15,363.19c-1.87,1.44-3.72,2.93-5.65,4.24c-0.49,0.33-1.34,0.33-1.86,0.05
	c-0.45-0.24-0.66-1.08-0.93-1.59c0.4-1.74,0.63-3.33,1.16-4.76c0.28-0.75,1.04-1.43,1.71-1.74c1.05-0.49,2.21-0.63,3.33-0.93
	c1.49-0.4,2.28,0.58,2.9,1.96C657.34,361.61,657.04,362.5,656.15,363.19z M703.53,356.31c4.94-0.81,9.87-1.72,14.8-2.59
	c1.32,0.14,2.6,0.31,2.92,2.11c0.33,1.89-0.74,2.79-2.1,3.23c-1.18,0.38-2.5,0.35-3.57,0.97c-3.5,2.01-7.14,3.35-10.97,4.27
	c-8.5,2.04-16.94,4.41-25.41,6.6c-8.48,2.19-16.97,4.3-25.44,6.5c-1.36,0.35-2.65,0.57-3.49-0.95c-0.82-1.49-0.38-3.05,0.59-4.16
	c2.45-2.81,4.8-5.88,7.61-8.09c2.27-1.79,5.1-3.14,7.81-3.52c5.74-0.81,11.57-0.62,17.33-1.29
	C690.27,358.63,696.89,357.4,703.53,356.31z M634.08,72.95c2.69,0.2,5.04,2.47,4.95,4.79c-0.09,2.38-1.99,3.9-4.97,3.98
	c-0.06,0-0.12,0-0.19,0c-3.19,0.03-5.37-1.88-5.24-4.61C628.75,74.51,631.09,72.72,634.08,72.95z M639.74,70.87
	c-2.26-0.23-3.1-0.3-6.68-3.86c-1.18-1.17-2.06-2.66-1.59-4.53c0.5-2.01,1.79-3.23,3.6-3.56c3.13-0.56,7.08,1.99,8.36,5.4
	C644.69,67.69,642.87,70.92,639.74,70.87z M657.66,72.32c-2.16,0.6-7.09-1.49-8.32-3.58c-0.27-0.46-0.4-1.03-0.74-1.93
	c0.55-0.86,1-2.05,1.78-2.69c2.39-1.95,7.84-0.39,9.33,2.52C660.95,69.07,660.02,71.66,657.66,72.32z M666.84,133.07
	c-1.09,2.37-3.22,2.36-5.5,2.25c-2.17,0.36-4.15-0.62-5.94-2.58c-2.29-2.49-4.58-5.04-7.12-7.15c-5.07-4.2-10.33-8.09-15.49-12.14
	c-3.33-2.61-3.32-8.7,0.09-10.92c2.82-1.83,5.95-2.68,9.12-1.87c5.96,1.52,11.4,4.74,15.4,10.05c3.42,4.54,5.93,10.03,8.78,15.15
	C667.41,128.09,667.96,130.64,666.84,133.07z M649.93,159.62c1.41,0.07,2.15,1.15,2.2,2.66c0.07,1.98-1.17,2.28-2.94,2.65
	c-0.55-0.75-1.4-1.42-1.58-2.27C647.33,161.28,648.78,159.56,649.93,159.62z M671.74,150.94c-3.51,2.18-7.34,2.99-11.26,2.99
	c-2.08,0-3.89-1.09-4.72-3.52c-2.08-6.08,0.49-11.36,5.94-12.34c0.73-0.13,1.47-0.15,2.4-0.24c1.24,0.15,2.65,0.49,4.05,0.46
	c3.3-0.08,4.86,2.26,5.86,5.47C674.97,146.79,674.16,149.43,671.74,150.94z M676.9,276.23c0.06,1.58-1.12,2.92-2.61,2.96
	c-1.64,0.04-2.64-1.31-2.65-3.79c0.13-1.34,0.51-2.7,2.06-2.83C674.92,272.47,676.84,274.75,676.9,276.23z M671.13,221.33
	c-1.74-0.01-3.39-1.88-3.35-3.8c0.05-2.26,2.16-4.41,4.3-4.4c2,0.01,4.27,2.27,4.26,4.24C676.33,219.51,673.91,221.34,671.13,221.33
	z M671.14,261.72c-1.52-1.02-3.1-1.95-4.55-3.09c-1.38-1.09-1.56-2.77-0.86-4.43c0.71-1.7,1.99-2.27,3.57-1.91
	c2.27,0.53,4.35,3.46,4.39,6.2C673.72,260.37,672.92,261.33,671.14,261.72z M664.58,241.03c0.31-2.24,1.72-3.5,3.38-4.24
	c1.6-0.71,3.2-0.37,4.49,1.01c1.46,1.57,1.22,4.67-0.49,5.84c-0.93,0.64-2.05,0.92-2.62,1.16
	C666.09,244.83,664.28,243.26,664.58,241.03z M662.04,207.38c-1.71,0.06-2.26-1.12-1.78-3.02c0.7-2.77,2.6-4.28,5.41-4.48
	c0.95,0.27,2.06,0.26,2.8,0.88c0.76,0.62,1.66,1.91,1.59,2.8c-0.08,1.04-1.01,2.54-1.83,2.82
	C666.24,207.05,664.11,207.31,662.04,207.38z M660.07,192.22c-1.44-1.13-2.84-2.08-4.06-3.29c-0.33-0.33-0.35-1.63-0.06-2.11
	c0.29-0.49,1.28-0.91,1.72-0.7c1.35,0.66,2.63,1.56,3.82,2.57c0.35,0.3,0.53,1.4,0.34,1.89C661.6,191.17,660.89,191.5,660.07,192.22
	z M698.46,104.1c3.23,1.27,6.92,7.43,6.38,11.03c-0.68,4.51-2.24,8.66-5.53,11.42c-0.94,0.78-2.43,1.19-3.57,0.99
	c-2.42-0.44-4.76-1.49-7.16-2.13c-4.98-1.33-8.15-5.16-10.38-10.26c-0.47-1.07-0.64-2.32-0.98-3.61c0.35-1.15,0.47-2.51,1.08-3.4
	c2.14-3.11,4.76-5.57,8.31-5.88C690.65,101.9,694.62,102.59,698.46,104.1z M707.15,98.18c-0.26,1.93-1.61,3.2-3.11,3.18
	c-4.21-0.06-8.22-1.15-11.05-5.23c-0.56-0.8-0.87-2.36-0.58-3.27c0.23-0.73,1.52-1,2.58-1.61c3.34,1.02,6.69,1.91,9.96,3.11
	C706.35,94.86,707.41,96.26,707.15,98.18z M714.38,147.24c2.44,1.1,2.55,3.79,0.35,5.44c-2.22,1.67-4.61,2.79-7.34,2.45
	c-0.04,0.21-0.09,0.43-0.13,0.64c-4.86-1.56-9.72-3.08-14.56-4.73c-0.91-0.31-1.74-1.1-2.5-1.81c-2.02-1.88-2.59-4.81-1.59-7.63
	c0.75-2.11,2.75-3.2,5.35-2.64c1.56,0.33,3.09,0.97,4.6,1.6C703.85,142.75,709.15,144.89,714.38,147.24z M731.4,117.09
	c-1.42-0.06-2.72-0.78-3.61-2.51c-0.56-1.1-1.29-2.08-1.9-3.15c-0.54-0.96-1.16-1.9-1.51-2.96c-0.65-1.98,0.42-3.73,2.16-3.3
	c2.4,0.59,4.8,1.38,7.07,2.46c2.01,0.96,2.67,3.13,2.17,5.6C735.32,115.54,733.71,117.04,731.4,117.09z M726.59,141.3
	c-6.04,2.84-10.71-3.4-11.44-9.89c0.21-1.04,0.41-2.47,0.78-3.83c0.78-2.87,2.03-4.2,4.5-3.59c2.71,0.68,5.34,2.05,7.87,3.44
	c1.58,0.87,3.09,2.15,4.34,3.59c1.86,2.14,1.6,5.19-0.56,6.9C730.37,139.26,728.5,140.4,726.59,141.3z M684.11,228.4
	c1.09-4.73,3.34-7.94,8.62-8.12c6.08-0.2,12,0.82,17.88,2.69c7.3,2.33,14.67,4.4,22.05,6.38c6.78,1.82,13.61,3.41,20.43,5.05
	c7.52,1.81,14.6,4.82,21.35,9.26c7.6,5,12.42,12.74,16.57,21.26c1.37,2.82,0.14,5.26-2.63,5.49c-2.2,0.19-4.44,0.07-6.65-0.08
	c-4.86-0.34-6.68-10.08-11.54-10.21c-7.53-0.2-18.08,9.01-25.61,9.01c0-0.12,0-0.24,0-0.37c-10.12,0-20.24,0.23-30.35-0.1
	c-5.18-0.17,23.24-36.26,18.43-39.3c-2.86-1.81-38.02,25.38-40.07,22.69C685.73,243.07,681.39,240.17,684.11,228.4z M670.66,195.22
	c-6.74-5.32-11.85-12.08-13.7-21.7c-0.49-2.58-0.8-5.09,0.75-7.22c1.94-2.66,4.19-5.05,7.19-5.81c3.77-0.95,7.61-1.52,9.93-1.96
	c9.15,0.67,16.74,1.26,23.85,4.69c4.66,2.25,9.19,4.89,13.69,7.54c2.69,1.58,5.58,3.05,7.76,5.38c6.19,6.62,12.31,13.47,16.95,21.67
	c3.9,6.88,7.04,14.36,10.35,21.67c1.28,2.84,0.1,4.72-2.69,4.96c-5.21,0.45-10.18-1.07-15.07-2.84
	c-9.11-3.29-18.17-6.79-27.26-10.15c-4.11-1.52-8.23-2.98-12.38-4.35C682.87,204.72,676.74,200.02,670.66,195.22z M672.96,320.13
	c0.05-2.21,1.51-3.68,3.62-3.65c1.88,0.02,3.05,1.34,3.06,3.46c0.01,2.46-1.34,4.31-3.11,4.27
	C674.49,324.16,672.92,322.36,672.96,320.13z M671.46,295.25c-2,0.02-4.01-1.65-3.83-3.43c0.1-0.96,0.87-1.83,1.17-2.41
	c2.69-0.03,4.96,1.87,4.88,3.58C673.6,294.6,672.73,295.24,671.46,295.25z M664.13,303.68c-0.04-1.93,1.61-3.45,3.64-3.37
	c1.71,0.06,3.37,2.26,3.36,4.46c-0.01,1.75-0.98,2.71-2.72,2.7C666.06,307.46,664.17,305.78,664.13,303.68z M663.62,270.63
	c0.37,0.29,1.21,0.69,1.71,1.41c1.2,1.7,0.85,5.93-0.51,7.49c-0.82,0.94-1.77,0.93-2.35-0.19c-0.81-1.59-1.58-3.27-2.01-5.04
	C659.99,272.36,661.46,270.56,663.62,270.63z M657.37,255.8c-0.11-2.05,1.03-3.86,2.48-3.9c1.37-0.04,2.68,1.82,2.79,3.97
	c0.11,2.11-0.98,3.69-2.58,3.73C658.72,259.63,657.48,257.88,657.37,255.8z M655.52,240.68c0.03-1.75,1.21-3.03,2.79-3
	c1.65,0.03,2.62,1.21,2.58,3.14c-0.04,2.06-1.23,3.26-3.21,3.24C656.41,244.03,655.48,242.59,655.52,240.68z M654.44,221.39
	c-0.01-1.86,1.27-3.22,3.05-3.21c1.73,0,3.45,1.41,2.92,2.65c-0.67,1.54-2,2.95-3.34,3.72
	C656.02,225.15,654.45,222.99,654.44,221.39z M651.39,203.87c0.12-0.77,1.1-1.36,1.71-2.03c0.55,0.73,1.5,1.43,1.54,2.2
	c0.04,0.72-0.87,1.51-1.76,2.87C652.12,205.46,651.28,204.56,651.39,203.87z M646.27,176.8c-0.02-2.12,1.89-4.05,4.05-4.07
	c2.28-0.02,3.93,2.04,3.96,4.92c0.02,2.01-1.62,3.66-3.65,3.66C648.27,181.32,646.3,179.28,646.27,176.8z M640.82,188.19
	c0.08-1.74,1.23-2.25,2.63-2.35c2.05-0.14,3.52,0.86,3.6,2.39c0.1,1.78-1.65,3.78-3.38,3.87
	C642.42,192.17,640.88,190.18,640.82,188.19z M635.3,149.14c-0.85-0.11-1.74-0.08-2.55-0.36c-1.81-0.62-2.68-2.17-2.73-4.36
	c-0.06-2.34,0.72-3.93,2.53-4.45c2.75-0.8,5.42-0.23,7.75,1.64c1.7,1.36,1.64,3.43,0.16,5.15
	C639.01,148.43,637.38,149.39,635.3,149.14z M634.38,175.49c0.61-0.81,1.23-1.61,2.25-2.96c0.94,1.38,1.94,2.21,1.96,3.06
	c0.01,0.7-1.27,2.12-1.76,2C635.92,177.36,635.19,176.24,634.38,175.49z M629.77,161.88c0.03-1.59,2.84-4.61,4.14-4.34
	c1.14,0.24,1.98,1.35,1.37,2.48c-0.81,1.5-2.01,2.87-3.3,3.79C630.92,164.56,629.74,163.33,629.77,161.88z M628.51,125.32
	c0-2.41,0.5-4.14,2.19-4.53c0.91-0.21,2.56,0.2,2.85,0.9c0.73,1.81,1.18,3.95,1.19,5.95c0.01,1.76-1.21,3.01-2.81,3.18
	c-1.47,0.16-2.26-0.96-2.69-2.45C628.91,127.22,628.67,126.03,628.51,125.32z M622.26,82.47c-1.83-0.35-3.68-1.05-5.31-2.06
	c-1.24-0.77-2.15-2.31-1.62-4.2c0.55-1.94,2.04-1.78,3.6-2.3c1.57,0.85,3.37,1.38,4.63,2.66c0.75,0.76,0.94,2.72,0.79,4.06
	C624.26,81.37,622.89,82.6,622.26,82.47z M614.03,100.81c0.02-2.81,2.3-5.82,4.4-5.82c2.2,0,4.64,3.21,4.65,6.12
	c0.01,3.47-1.64,5.96-3.98,5.98C616.52,107.1,614,103.99,614.03,100.81z"/>
<g>
	<path class="st2" d="M815.99,453.99h-56.56c-41.47,0-58.02-19.57-58.02-59.22v-18.06c0-31.64,15.41-40.06,25.89-44.38
		c-10.72-4.08-22.16-13.74-22.16-44.5v-9.02c0-35.09,18.63-51.78,57.2-51.78h53.66V453.99z M773.65,316.37v-54.95h-8.19
		c-13.84,0-18.51,6.58-18.51,21.13v11.73c0,17.37,5.07,22.09,19.79,22.09H773.65z M773.65,349.97h-5.93
		c-17.91,0-22.07,7.51-22.07,25.12v20.82c0,16.82,3.69,24.03,19.27,24.03h8.74V349.97z"/>
</g>
<path class="st1" d="M1325.87,79.46c0.38-6.63-0.99-12.3-6.29-15.93c-0.79-0.54-1.38-2-1.58-3.15c-0.63-3.76-0.86-7.62-1.62-11.34
	c-0.35-1.71-1.28-3.55-2.4-4.7c-4.45-4.54-9.61-5.48-15.21-3.4c-3.05,1.13-6.11,2.26-9.2,3.27c-3.33,1.09-6.82,1.67-10.01,3.15
	c-8.31,3.86-16.54,7.99-24.73,12.2c-5.65,2.9-11.23,5.99-16.74,9.23c-3.3,1.93-6.34,4.49-9.63,6.44
	c-11.73,6.96-23.63,13.53-35.24,20.74c-9.97,6.2-19.66,13.01-29.4,19.71c-1.82,1.25-3.43,3.04-4.88,4.86
	c-3.29,4.1-6.05,8.88-9.69,12.46c-8.22,8.09-16.68,15.8-24.34,24.69c-9.28,10.75-18.13,21.9-26.31,33.82
	c-2.9,4.23-5.61,8.6-8.23,13.05v16.28c3.49-6.28,7.28-12.33,11.55-17.97c4.24-5.6,8.26-11.5,12.94-16.56
	c5.91-6.38,12.29-12.18,18.68-17.9c2.2-1.97,5.07-2.9,7.56-4.45c5.19-3.23,10.7-5.6,16.36-7.22c6.27-1.79,12.65-3.2,19.05-4.13
	c3.86-0.56,7.87-0.14,11.78,0.3c3.8,0.43,5.3,2.58,5.21,7.11c-0.13,6.74-1.78,13.1-4.23,19.13c-4.62,11.37-11.24,20.94-19.3,29.23
	c-9.53,9.79-56.19,10.12-65.52,20.16c-7.53,8.09,7.33-8.34,0,0c-8.18,9.31-1.97,52.1-10.73,60.62c-1.13,1.1-2.24,2.24-3.35,3.38
	v6.55c6.74-5.4,10.18,88.4,20.99-14.9c0.44-4.2,7.8-3.02,11.66-4.69c7.52-3.24,14.75,17.82,22.33,19.25
	c5.77,1.09,11.84-17.42,17.64-16.66c2.91,0.38,5.91-0.12,8.86-0.3c13.92-0.85,29.52,8.14,43.45,7.55
	c5.14-0.22,8.73-10.02,13.77-8.92c8.66,1.87,11.1,6.5,10.75,15.69c-0.22,5.71-1.79,10.91-4.45,15.64
	c-3.36,5.97-8.37,8.92-14.18,10.28c-1.33,0.31-2.73,0.38-3.99,0.92c-4.99,2.14-10.12,1.25-15.22,1.16
	c-9.23-0.13-18.3-1.63-27.36-3.59c-4.95-1.07-10.07-1.62-15.09-1.5c-4.14,0.1-8.28,1.44-12.39,2.37
	c-8.53,1.93-17.08,3.79-25.57,5.98c-10.3,2.66-20.74,3.96-31.2,5.12v18.14c6.1,1.54,7,60.38,13.12,61.79
	c11.06,2.54,26.16-49.3,35.84-42.78c11.68,7.87,23.69,15.08,35.43,22.84c8.16,5.39,15.75,11.83,22.81,19.08
	c5.4,5.54,10.3,11.59,13.34,19.33c1.69,4.3-13.44-6.57-15.53-2c-2.06,4.5-3.67,5.33-7.7,5.99c-5.91-1.22,2.31,13.58-3.32,11.04
	c-10.29-4.64-20.65-9.06-31-13.5c-2.47-1.06-5.01-1.93-7.54-2.79c-3.45-1.18-6.84-0.24-10.25,0.44c-3.28,0.65-6.59,1.48-9.89,1.43
	c-1.84-0.03-3.86-1.35-5.47-2.66c-7.38-6.01-13.72-13.34-19.37-21.53c-2.94-4.26-5.92-8.51-9.03-12.6
	c-0.47-0.62-0.96-1.22-1.44-1.82v18.26c0.45,0.66,0.88,1.34,1.34,2c3.92,5.67,6.8,11.77,8.3,18.85c0.72,3.42,1.7,6.77,2.53,10.17
	c0.17,0.69,0.17,1.43,0.25,2.15c-0.22,1.87-0.3,3.77-0.67,5.59c-1.3,6.37-4.51,8.06-9.82,5.65c-0.68-0.31-1.31-0.68-1.91-1.09v10.59
	c0.43,1.1,0.74,2.3,1.1,3.43c1.02,3.2,1.09,3.31,4.01,2.99c2.7-0.29,5.41-0.56,8.1-0.95c1.27-0.18,2.27,0.24,2.78,1.54
	c0.77,1.95,1.63,3.94,1.97,6.02c0.9,5.47,2.13,10.69,5.25,15.09c0.87,1.23,1.39,2.84,0.54,4.43c-0.82,1.55-2.1,1.75-3.57,1.5
	c-2-0.34-4.05-0.27-6.01-0.77c-1.09-0.28-2.34-1.07-3.01-2.09c-3.78-5.73-7.44-11.57-11.17-17.34v20.96
	c11.13,17.15,22.83,33.75,36.43,48.41c2.86,3.08,5.46,6.62,8.66,9.11c5.24,4.06,10.91,7.32,16.95,9.6
	c3.88,1.46,7.77,2.33,11.82,1.16c2.09-0.6,4.18-1.22,6.23-2c2.44-0.92,4.86-1.95,7.37-0.54c6.99,3.91,14.43,4.92,22.01,4.49
	c3.2-0.18,6.51-0.88,9.52-2.16c4.73-2,9.35-3.77,14.51-3.77c4.41,0,8.87-0.67,13.21-1.63c6.94-1.54,12.86-5.89,18.42-10.72
	c3.24-2.81,6.54-5.92,7.42-10.98c0.38-2.17,1.27-3.5,3.03-4.14c0.64-0.24,1.25-0.61,1.87-0.93c4.23-2.18,8.49-4.15,11.86-8.18
	c3.67-4.39,6.65-9.03,7.54-15.28c0.55-3.85,1.35-7.65,2.19-11.43c0.2-0.9,0.91-2.04,1.6-2.33c4.69-1.91,7.51-6.52,10.03-10.82
	c2.33-3.98,3.63-9.08,4.46-13.9c0.88-5.11,0.59-10.49,0.95-15.74c0.11-1.66,0.48-3.37,1.04-4.9c0.86-2.31,2.48-4.36,2.91-6.73
	c1.08-5.94,1.83-12.05,0.54-18.08c-0.92-4.32-0.76-8.59-0.44-12.93c0.12-1.57,0.3-3.28-0.08-4.72c-1.85-6.99-4.81-13.28-8.97-18.79
	c-0.93-1.23-1.71-2.9-1.97-4.5c-1.05-6.66-3.66-12.37-7.19-17.61c-3.5-5.2-7.86-8.42-13.63-8.72c-0.52-0.03-1.15-0.21-1.52-0.59
	c-3.49-3.64-7.74-5.01-12.21-5.39c-7.62-0.64-15.26-0.97-22.88-1.53c-2-0.15-3.99-0.67-6.15-1.06c0.29-0.43,0.37-0.65,0.51-0.74
	c0.66-0.4,1.31-0.8,2-1.14c6.11-3.03,11.81-6.88,16.93-11.84c1.32-1.27,2.61-2.7,3.58-4.33c4.97-8.32,7.54-17.81,9.56-27.57
	c1.78-8.61,1.25-17.26,0.43-25.89c-0.14-1.5-0.03-2.6,0.57-3.81c1.39-2.82,2.6-5.77,4.1-8.51c3.62-6.6,2.44-13.19-0.04-19.64
	c-1.76-4.59-1.7-5.73,1.64-9.13c1.1-1.12,2.27-2.31,2.99-3.75c1.61-3.21,2.69-6.7,2.38-10.53c-0.16-1.99,0.55-3.32,1.66-4.77
	c1.84-2.38,3.93-4.81,4.96-7.69c2.13-5.93,2.56-12.35,2.26-18.76c-0.06-1.34,0.17-2.1,1.07-2.88c2.13-1.85,4.27-3.7,6.22-5.79
	c2.68-2.86,3.54-6.89,4.39-10.81c0.62-2.88,1.6-5.49,3.32-7.64c1.85-2.32,3.75-4.59,5.72-6.76c3.02-3.32,6.09-6.56,7.57-11.31
	c1.69-5.39,2.4-11.06,2.04-16.64c-0.26-4.1-0.39-8.58-2.86-12.15c-0.22-0.32-0.06-1.42,0.24-1.77c1.91-2.22,2.95-4.78,2.74-7.97
	c-0.02-0.28,0-0.6,0.09-0.84c1.55-3.87,1.15-7.86,0.61-11.87c-0.07-0.51-0.05-1.21,0.19-1.56
	C1324.31,91.46,1325.52,85.63,1325.87,79.46z M1168.23,136.63c-2.02,5.13-5.68,7.8-10.04,9.48c-0.46,0.18-0.96,0.17-1.1,0.2
	c-2.94-0.04-3.52-1.17-2.44-3.96c2.03-5.21,5.46-8.7,9.96-10.64c1.11-0.48,2.92-0.41,3.77,0.37
	C1169.64,133.21,1168.84,135.06,1168.23,136.63z M1203.72,396.61c-4.79-1.78-9.46-4.1-14.07-6.46c-5.63-2.89-11.4-5.59-16.67-9.25
	c-10.94-7.6-21.59-15.75-32.32-23.75c-1.05-0.78-1.99-1.97-2.66-3.21c-1.4-2.58-0.66-4.12,1.84-5.08c5.04-1.93,9.85-1.47,14.79,0.77
	c3.83,1.74,7.97,2.5,11.85,4.12c7.88,3.29,15.62,7.05,23.52,10.27c11.28,4.59,22.54,9.31,34.33,11.88c15.56,3.4,30.58,8.88,45,16.52
	c2.12,1.13,4.1,2.99,5.72,4.99c4.44,5.47,2.33,14.59-3.86,16.74c-2.44,0.85-5.07,0.96-7.61,1.41c-5.39-0.05-10.41-2-15.46-3.59
	c-5.29-1.67-10.53-3.58-15.79-5.39C1222.8,403.27,1213.21,400.13,1203.72,396.61z M1211.79,416.42c-0.72-5.14,0.53-7.32,5.05-6.96
	c3.33,0.26,6.75,1.03,9.88,2.4c12.15,5.32,24.59,8.83,37.57,9.73c3.28,0.23,6.59,1.14,9.75,2.26c5.01,1.77,7.41,6.11,7.17,12.6
	c-0.23,6.36-2.48,11.7-6.46,16.05c-2.3,2.51-5.03,3.52-8.24,3.86c-1.91-0.72-3.84-1.37-5.72-2.18c-6.01-2.58-12-5.25-18.01-7.84
	c-4.79-2.06-9.8-3.58-14.37-6.17C1219.89,435.31,1213.44,428.13,1211.79,416.42z M1286.66,421.01c-2.91-0.1-5.13-2.29-5.07-5.01
	c0.06-2.77,1.5-4.3,3.96-4.17c2.85,0.15,5.17,2.71,5.1,5.61C1290.59,419.82,1289.17,421.09,1286.66,421.01z M1292.53,428.78
	c1.71-0.04,3.11,1.39,3.11,3.2c0.01,1.64-1.21,2.81-2.93,2.82c-2.07,0.01-3.4-1.09-3.35-2.77
	C1289.42,430.34,1290.91,428.82,1292.53,428.78z M1282.33,461.78c1.35-0.43,2.58,1.26,2.61,3.9c-0.35,0.36-0.94,1.41-1.74,1.7
	c-0.96,0.35-3.19-2.25-2.84-3.29C1280.68,463.13,1281.53,462.03,1282.33,461.78z M1141.34,543.41c-1.12,2.18-4.07,3.14-5.74,1.52
	c-1.78-1.72-3.37-3.72-4.95-5.71c-2.34-2.96-4.56-6.06-6.9-9.03c-1.5-1.9-3.16-3.61-4.65-5.52c-0.68-0.87-1.75-2.57-1.52-2.93
	c0.75-1.21,2.01-1.99,3.04-2.9c1.44,0.65,2.69,0.82,3.43,1.62c5.47,5.91,10.86,11.91,16.21,17.98
	C1141.37,539.71,1142.45,541.27,1141.34,543.41z M1160.25,549.84c-0.59,0.51-1.5,0.53-1.93,0.66c-2.99-0.42-5.62-0.72-8.23-1.18
	c-1.42-0.25-2.36-1.33-2.4-3.09c-0.05-1.83,0.97-2.76,2.34-3.13c3.61-0.98,7.12-0.53,10.38,1.5c0.7,0.44,1.32,1.84,1.32,2.8
	C1161.74,548.23,1160.93,549.26,1160.25,549.84z M1154.28,531.86c-11.36-4.73-19.87-13.43-26.57-24.99
	c-3.22-5.55-1.97-4.38-3.39-10.92c-1.38-6.35,7.5-36.32,6.29-42.71c-1.44-7.61-17.03,1.46-18.17-6.23c-0.2-1.33-0.16-2.76,0.03-4.1
	c0.47-3.37,2.33-4.59,4.77-2.81c2.16,1.58,4.11,3.65,5.95,5.74c4.41,5.02,8.75,10.13,11.84,16.47c5.32,10.89,10.6,21.81,16.04,32.62
	c2.05,4.08,4.38,7.98,6.77,11.79c2.54,4.07,5.28,12.85,5.25,17.77C1163.77,530.99,1158.72,533.71,1154.28,531.86z M1174.9,546.73
	c-2,0.02-3.41-1.34-3.41-3.3c0-2.23,2.31-4.68,4.39-4.65c1.75,0.02,3.46,1.83,3.5,3.7C1179.43,544.87,1177.5,546.7,1174.9,546.73z
	 M1185.38,559.23c-2.16-0.12-3.52-1.75-3.43-4.09c0.08-2.03,1.18-3.2,2.87-3.08c2.45,0.18,4.46,2.02,4.38,3.99
	C1189.12,557.84,1187.32,559.34,1185.38,559.23z M1190.6,544.95c-0.03-2.39,1.48-3.99,3.77-4c2.56-0.02,4.59,1.72,4.59,3.93
	c0,2.29-1.71,3.97-4.08,4C1192.33,548.9,1190.63,547.35,1190.6,544.95z M1199.18,561.54c-2.09,0.05-3.3-1.07-3.32-3.05
	c-0.03-2.55,2.49-5.08,5.12-5.16c1.81-0.05,3.1,1.32,3.17,3.37C1204.23,559.38,1202.08,561.48,1199.18,561.54z M1197.06,532.73
	c-2.2,0.48-4.59-0.18-6.88-0.46c-4.08-0.5-7.52-2.83-9.91-6.52c-5.42-8.39-10.64-16.97-15.68-25.69
	c-3.62-6.27-6.63-13.02-10.23-19.3c-4.32-7.54-9.1-14.72-13.45-22.25c-2.3-3.99-4.18-8.33-6.11-12.59
	c-0.94-2.07-1.19-4.37,0.25-6.33c1.67-2.27,3.9-1.5,5.88-0.91c1.7,0.51-7.99,15.11-6.5,16.2c10.83,7.86,32.07,3.39,40.48,14.72
	c4.93,6.64,10.36,12.77,15.27,19.43c3.73,5.06,7.33,10.34,10.36,15.99c2.34,4.36,3.84,9.39,3.69,15.03
	C1204.65,526.4,1200.93,531.89,1197.06,532.73z M1212.55,555.21c-1.46-0.14-3.2-2.08-3-3.48c0.27-1.86,1.49-2.26,2.62-2.27
	c2.34,0.14,3.58,1.24,3.53,2.92C1215.65,553.99,1214.12,555.36,1212.55,555.21z M1222.35,543.92c-0.96,0.56-2.06,0.91-3.13,1.09
	c-0.64,0.11-1.51-0.07-1.96-0.53c-0.38-0.4-0.53-1.46-0.4-2.12c0.54-2.68,4.53-4.32,6.41-2.67c0.43,0.38,0.64,1.12,1.19,2.15
	C1223.7,542.6,1223.11,543.47,1222.35,543.92z M1238.86,550.2c-2.67,2.87-5.48,5.63-10.09,6.07c-0.48-0.5-1.58-1.21-2.12-2.3
	c-0.72-1.45-0.57-3.19,0.62-4.35c2.96-2.9,6.44-3.86,10.2-3.12C1239.2,546.84,1240.01,548.96,1238.86,550.2z M1241.39,538.83
	c-2.02-0.01-3.64-1.26-3.66-2.83c-0.02-1.83,2.22-3.68,4.43-3.65c1.84,0.02,2.95,1.03,2.98,2.73
	C1245.18,537.29,1243.64,538.84,1241.39,538.83z M1238.88,523.82c-3,2.76-6.03,3.32-9.38,1.16c-3.13-2.02-5.1-5.34-7.29-8.46
	c-8.6-12.25-17.01-24.69-25.94-36.6c-5.3-7.07-11.41-13.29-17.19-19.86c-1.62-1.84-1.38-3.74,0.68-4.98
	c4.01-2.4-15.16-5.24-10.95-3.48c10.65,4.44,43.54,13.94,52.55,21.74c7.2,6.23,13.79,13.46,20.44,20.53
	c3.43,3.66,3.91,6.03,3.96,12.3C1245.6,512.72,1244.01,519.1,1238.88,523.82z M1256.79,534.5c-0.75-0.14-1.9-0.05-2.77-0.59
	c-0.79-0.49-1.84-1.77-1.74-2.51c0.13-0.97,1.18-2.27,2.01-2.5c1.17-0.31,2.67-0.13,3.73,0.52c0.83,0.51,1.63,2.03,1.66,3.13
	C1259.7,534.21,1258.33,534.52,1256.79,534.5z M1257.19,522.33c-1.63-0.01-2.97-1.27-3-2.84c-0.02-1.45,1.16-2.63,2.66-2.66
	c1.66-0.03,3.15,1.39,3.12,2.96C1259.95,521.2,1258.7,522.34,1257.19,522.33z M1253.96,494.3c-6.83-5.49-13.18-11.82-19.67-17.88
	c-3.45-3.23-6.97-6.44-10.06-10.12c-4-4.76-5.49-10.87-5.22-17.48c0.04-1,0.84-2.43,1.6-2.82c2.32-1.2,4.75-1.86,7.32-0.58
	c12.34,6.17,24.7,12.26,37.04,18.42c1.24,0.62,2.31,1.68,3.55,2.3c3.51,1.77,4.7,5.03,4.53,9.25c0.16,0.04,0.33,0.09,0.49,0.13
	c-1.11,4.79-1.53,10.01-3.47,14.28C1266.55,497.56,1260.81,499.81,1253.96,494.3z M1265.47,514.99c-2.04-0.02-3.71-1.81-3.65-3.91
	c0.05-1.79,1.18-2.79,3.13-2.78c2.45,0.02,3.71,1.08,3.67,3.09C1268.56,513.7,1267.42,515.01,1265.47,514.99z M1275.89,521.82
	c-0.49,2.31-2.17,3.44-3.94,4.1c-1.66,0.62-2.97-0.35-3.92-1.99c-0.93-1.61-0.73-3.08,0.74-3.95c1.12-0.66,2.4-0.99,3.52-1.43
	c1,0.37,1.94,0.47,2.58,1.03C1275.42,520.05,1276.02,521.18,1275.89,521.82z M1277.96,509.43c-1.71-0.01-2.86-1.3-2.84-3.18
	c0.03-2.41,1.58-4.54,3.26-4.48c1.67,0.06,3.01,1.83,2.99,3.95C1281.35,507.76,1279.81,509.43,1277.96,509.43z M1283.99,481.2
	c-2.04-0.03-3.59-1.81-3.54-4.07c0.05-1.94,1.2-3.07,3.13-3.06c1.97,0.01,3.34,1.55,3.32,3.72
	C1286.89,479.77,1285.64,481.23,1283.99,481.2z M1285.72,453.28c-0.07-2.03,1.56-3.88,3.47-3.94c2.3-0.07,4.28,2.05,4.3,4.61
	c0.02,2.18-1.71,3.95-3.89,3.96C1287.61,457.92,1285.81,455.78,1285.72,453.28z M1292.54,466.21c1.69,0.02,3.42,2.08,3.43,4.09
	c0.01,1.98-1.12,3.48-2.63,3.48c-1.71,0.01-3.73-2.38-3.73-4.39C1289.61,467.67,1290.98,466.19,1292.54,466.21z M1293.63,486.71
	c-1.73,0.03-3.45-1.88-3.41-3.79c0.04-1.57,1.29-2.87,2.76-2.88c1.71-0.01,3.09,1.72,3.07,3.84
	C1296.04,485.7,1295.19,486.69,1293.63,486.71z M1296.9,462.85c-1.55,0.08-3.06-1.24-3.07-2.67c-0.01-1.92,2.06-3.8,4.28-3.81
	c1.4-0.01,2.09,0.96,2.24,2.32C1300.42,460.88,1298.77,462.76,1296.9,462.85z M1299.27,447.69c-2.03-0.01-3.52-1.36-3.54-2.99
	c-0.02-1.49,1.04-2.63,2.41-2.59c2.04,0.05,3.53,1.34,3.39,3.04C1301.38,446.85,1300.42,447.62,1299.27,447.69z M1304.76,433.54
	c-0.11,0.96-1,1.8-1.39,2.44c-1.91-0.29-2.78-1.18-2.78-2.76c0-1.48,0.73-2.51,2.09-2.41
	C1304.06,430.91,1304.93,432.04,1304.76,433.54z M1302.15,410.34c1.88,0.98,2.47,2.89,2.4,5.17c-0.01,0.36,0,0.72,0,1.09
	c0.12,0.05,0.24,0.09,0.37,0.14c-0.53,1.96-0.91,4.01-1.66,5.85c-0.36,0.88-1.42,1.9-2.16,1.88c-0.85-0.01-1.87-0.91-2.47-1.76
	c-0.8-1.15-1.23-2.65-1.89-3.95c-1.06-2.1-0.99-3.87,0.31-5.8C1298.46,410.85,1300.74,409.61,1302.15,410.34z M1295.57,398.87
	c1.3,0.01,2.97,2.45,2.98,4.36c0.01,1.61-1.07,2.94-2.4,2.96c-1.89,0.02-3.57-1.65-3.55-3.55
	C1292.62,400.73,1294.09,398.86,1295.57,398.87z M1284,381.8c0.09-0.68,1.29-1.16,2.11-1.82c1.24,0.78,2.41,1.21,3.22,2.09
	c1.3,1.42,2.53,3.01,3.44,4.78c0.47,0.91,0.6,2.8,0.11,3.45c-0.48,0.64-2.01,0.59-2.94,0.27c-0.87-0.3-1.59-1.3-2.3-2.08
	c-0.99-1.07-2.05-2.11-2.81-3.39C1284.29,384.18,1283.86,382.84,1284,381.8z M1284.1,393.92c1.24-0.02,3.11,2.57,2.99,4.32
	c-0.16,2.35-1.86,2.09-3.2,2.43c-1.51-0.04-2.24-0.93-2.23-2.71C1281.67,395.27,1282.46,393.94,1284.1,393.92z M1279.55,365.76
	c1.26-0.06,2.25,1.42,2.31,4.09c-0.4,0.37-1.03,1.35-1.83,1.6c-1.07,0.33-2.25-1.53-2.31-3.28
	C1277.68,366.7,1278.29,365.82,1279.55,365.76z M1274.95,373.12c0.84,1.46,1.77,1.96,3.25,1.61c1.32-0.31,2.84-0.47,3.27,1.67
	c0.27,1.35-1.42,2.75-3.18,2.8c-2.05,0.05-5-2.19-5.6-4.53c-0.2-0.79,0.24-1.8,0.38-2.72
	C1273.72,372.34,1274.61,372.52,1274.95,373.12z M1263.64,361.94c0.62-1.38,1.41-2.36,2.9-1.96c1.11,0.3,2.28,0.44,3.33,0.93
	c0.68,0.31,1.43,1,1.71,1.74c0.54,1.43,0.76,3.02,1.16,4.76c-0.28,0.51-0.49,1.36-0.93,1.59c-0.52,0.28-1.38,0.28-1.86-0.05
	c-1.93-1.32-3.78-2.8-5.65-4.24C1263.4,364.03,1263.1,363.14,1263.64,361.94z M1236.84,360.93c5.76,0.67,11.59,0.48,17.33,1.29
	c2.7,0.38,5.53,1.73,7.81,3.52c2.82,2.21,5.16,5.28,7.61,8.09c0.97,1.11,1.41,2.68,0.59,4.16c-0.84,1.52-2.13,1.3-3.49,0.95
	c-8.47-2.21-16.96-4.31-25.44-6.5c-8.47-2.19-16.91-4.57-25.41-6.6c-3.83-0.92-7.47-2.25-10.97-4.27c-1.07-0.61-2.39-0.59-3.57-0.97
	c-1.36-0.44-2.42-1.34-2.1-3.23c0.31-1.8,1.6-1.98,2.92-2.11c4.93,0.87,9.86,1.78,14.8,2.59
	C1223.55,358.93,1230.18,360.15,1236.84,360.93z M1291.81,78.63c0.13,2.73-2.05,4.65-5.24,4.61c-0.06,0-0.12,0-0.19,0
	c-2.99-0.07-4.88-1.59-4.97-3.98c-0.08-2.32,2.26-4.58,4.95-4.79C1289.35,74.25,1291.69,76.03,1291.81,78.63z M1277.02,65.85
	c1.28-3.41,5.23-5.96,8.36-5.4c1.81,0.33,3.1,1.55,3.6,3.56c0.47,1.87-0.41,3.36-1.59,4.53c-3.58,3.56-4.43,3.62-6.68,3.86
	C1277.57,72.45,1275.75,69.22,1277.02,65.85z M1260.74,68.17c1.49-2.9,6.94-4.46,9.33-2.52c0.78,0.63,1.23,1.83,1.78,2.69
	c-0.34,0.9-0.47,1.47-0.74,1.93c-1.24,2.09-6.17,4.19-8.32,3.58C1260.43,73.19,1259.49,70.6,1260.74,68.17z M1254.27,127.4
	c2.85-5.12,5.36-10.61,8.78-15.15c4-5.31,9.44-8.53,15.4-10.05c3.16-0.81,6.29,0.04,9.12,1.87c3.41,2.21,3.42,8.31,0.09,10.92
	c-5.16,4.04-10.42,7.94-15.49,12.14c-2.54,2.1-4.83,4.65-7.12,7.15c-1.79,1.95-3.77,2.94-5.94,2.58c-2.28,0.11-4.41,0.12-5.5-2.25
	C1252.48,132.17,1253.03,129.62,1254.27,127.4z M1272.83,164.18c-0.18,0.86-1.03,1.52-1.58,2.27c-1.77-0.37-3.01-0.67-2.94-2.65
	c0.05-1.5,0.79-2.58,2.2-2.66C1271.66,161.09,1273.11,162.81,1272.83,164.18z M1246.42,145.28c1-3.21,2.56-5.55,5.86-5.47
	c1.41,0.03,2.82-0.31,4.05-0.46c0.92,0.09,1.67,0.11,2.4,0.24c5.46,0.99,8.02,6.26,5.94,12.34c-0.83,2.43-2.64,3.52-4.72,3.52
	c-3.92,0-7.75-0.81-11.26-2.99C1246.28,150.96,1245.47,148.32,1246.42,145.28z M1246.74,274.1c1.55,0.13,1.93,1.49,2.06,2.83
	c-0.02,2.48-1.02,3.84-2.65,3.79c-1.48-0.04-2.67-1.38-2.61-2.96C1243.6,276.28,1245.52,274,1246.74,274.1z M1244.1,218.9
	c-0.01-1.96,2.26-4.22,4.26-4.24c2.14-0.02,4.25,2.14,4.3,4.4c0.04,1.92-1.61,3.79-3.35,3.8
	C1246.53,222.87,1244.12,221.04,1244.1,218.9z M1246.75,260.02c0.04-2.73,2.12-5.67,4.39-6.2c1.58-0.37,2.86,0.21,3.57,1.91
	c0.69,1.66,0.51,3.34-0.86,4.43c-1.45,1.15-3.03,2.07-4.55,3.09C1247.53,262.86,1246.73,261.89,1246.75,260.02z M1251.09,246.34
	c-0.57-0.24-1.68-0.52-2.61-1.16c-1.71-1.17-1.95-4.28-0.49-5.84c1.29-1.38,2.89-1.72,4.49-1.01c1.66,0.74,3.07,2,3.38,4.24
	C1256.17,244.79,1254.36,246.36,1251.09,246.34z M1252.22,207.9c-0.82-0.28-1.75-1.78-1.83-2.82c-0.07-0.89,0.83-2.17,1.59-2.8
	c0.74-0.61,1.85-0.61,2.8-0.88c2.81,0.2,4.71,1.71,5.41,4.48c0.48,1.9-0.07,3.08-1.78,3.02
	C1256.33,208.84,1254.2,208.58,1252.22,207.9z M1258.61,192.11c-0.19-0.49-0.01-1.59,0.34-1.89c1.19-1.01,2.47-1.9,3.82-2.57
	c0.44-0.22,1.43,0.2,1.72,0.7c0.29,0.48,0.27,1.78-0.06,2.11c-1.22,1.21-2.62,2.16-4.06,3.29
	C1259.56,193.03,1258.84,192.7,1258.61,192.11z M1233.83,103.79c3.54,0.32,6.17,2.77,8.31,5.88c0.61,0.89,0.73,2.25,1.08,3.4
	c-0.34,1.3-0.51,2.54-0.98,3.61c-2.23,5.1-5.4,8.92-10.38,10.26c-2.4,0.64-4.74,1.69-7.16,2.13c-1.14,0.21-2.63-0.2-3.57-0.99
	c-3.29-2.76-4.84-6.91-5.53-11.42c-0.55-3.59,3.15-9.76,6.38-11.03C1225.82,104.12,1229.8,103.43,1233.83,103.79z M1215.49,95.88
	c3.27-1.19,6.62-2.09,9.96-3.11c1.06,0.61,2.35,0.88,2.58,1.61c0.28,0.9-0.03,2.47-0.58,3.27c-2.83,4.08-6.84,5.17-11.05,5.23
	c-1.5,0.02-2.84-1.25-3.11-3.18C1213.03,97.79,1214.1,96.39,1215.49,95.88z M1221.88,142.09c1.51-0.62,3.03-1.26,4.6-1.6
	c2.6-0.55,4.6,0.54,5.35,2.64c1.01,2.82,0.43,5.75-1.59,7.63c-0.77,0.71-1.59,1.5-2.5,1.81c-4.83,1.65-9.7,3.17-14.56,4.73
	c-0.04-0.21-0.09-0.43-0.13-0.64c-2.73,0.34-5.12-0.79-7.34-2.45c-2.2-1.65-2.09-4.35,0.35-5.44
	C1211.29,146.42,1216.59,144.27,1221.88,142.09z M1184.65,114.74c-0.5-2.46,0.16-4.64,2.17-5.6c2.27-1.08,4.67-1.87,7.07-2.46
	c1.74-0.43,2.82,1.32,2.16,3.3c-0.35,1.06-0.97,2-1.51,2.96c-0.61,1.07-1.33,2.05-1.9,3.15c-0.89,1.73-2.19,2.46-3.61,2.51
	C1186.73,118.56,1185.12,117.07,1184.65,114.74z M1188.37,139.45c-2.16-1.7-2.42-4.75-0.56-6.9c1.25-1.44,2.76-2.72,4.34-3.59
	c2.53-1.39,5.16-2.76,7.87-3.44c2.47-0.62,3.73,0.71,4.5,3.59c0.37,1.37,0.57,2.8,0.78,3.83c-0.73,6.49-5.4,12.72-11.44,9.89
	C1191.95,141.93,1190.08,140.79,1188.37,139.45z M1227.87,253.58c-2.05,2.69-37.21-24.5-40.07-22.69
	c-4.81,3.04,23.62,39.14,18.43,39.3c-10.11,0.32-20.24,0.1-30.35,0.1c0,0.12,0,0.24,0,0.37c-7.53,0-18.09-9.2-25.61-9.01
	c-4.86,0.13-6.68,9.87-11.54,10.21c-2.21,0.16-4.45,0.27-6.65,0.08c-2.77-0.23-4.01-2.67-2.63-5.49
	c4.16-8.52,8.97-16.26,16.57-21.26c6.75-4.44,13.83-7.45,21.35-9.26c6.82-1.64,13.65-3.22,20.43-5.05
	c7.38-1.98,14.74-4.06,22.05-6.38c5.88-1.87,11.8-2.89,17.88-2.69c5.28,0.17,7.53,3.39,8.62,8.12
	C1239.05,241.7,1234.72,244.6,1227.87,253.58z M1230.39,208.62c-4.15,1.37-8.27,2.83-12.38,4.35c-9.09,3.36-18.15,6.86-27.26,10.15
	c-4.89,1.77-9.85,3.29-15.07,2.84c-2.79-0.24-3.97-2.12-2.69-4.96c3.31-7.32,6.45-14.8,10.35-21.67
	c4.65-8.2,10.77-15.05,16.95-21.67c2.17-2.33,5.07-3.8,7.76-5.38c4.51-2.65,9.03-5.3,13.69-7.54c7.12-3.43,14.71-4.03,23.85-4.69
	c2.32,0.45,6.16,1.01,9.93,1.96c2.99,0.76,5.25,3.15,7.19,5.81c1.56,2.13,1.25,4.65,0.75,7.22c-1.84,9.63-6.95,16.39-13.7,21.7
	C1243.7,201.54,1237.57,206.25,1230.39,208.62z M1243.91,325.73c-1.77,0.04-3.12-1.81-3.11-4.27c0.01-2.12,1.17-3.43,3.06-3.46
	c2.11-0.03,3.57,1.45,3.62,3.65C1247.53,323.89,1245.95,325.69,1243.91,325.73z M1246.77,294.53c-0.08-1.71,2.19-3.6,4.88-3.58
	c0.29,0.57,1.07,1.44,1.17,2.41c0.18,1.78-1.83,3.45-3.83,3.43C1247.71,296.77,1246.85,296.13,1246.77,294.53z M1252.04,309
	c-1.74,0.01-2.71-0.96-2.72-2.7c-0.01-2.19,1.65-4.39,3.36-4.46c2.03-0.08,3.68,1.45,3.64,3.37
	C1256.27,307.31,1254.38,308.99,1252.04,309z M1259.98,275.82c-0.43,1.76-1.2,3.45-2.01,5.04c-0.57,1.12-1.52,1.13-2.34,0.19
	c-1.36-1.55-1.71-5.79-0.51-7.49c0.5-0.72,1.34-1.11,1.71-1.41C1258.98,272.09,1260.45,273.89,1259.98,275.82z M1260.38,261.12
	c-1.6-0.04-2.69-1.62-2.58-3.73c0.11-2.15,1.42-4.01,2.79-3.97c1.45,0.05,2.59,1.85,2.48,3.9
	C1262.96,259.41,1261.72,261.16,1260.38,261.12z M1262.77,245.57c-1.98,0.03-3.17-1.17-3.21-3.24c-0.04-1.92,0.93-3.11,2.58-3.14
	c1.57-0.03,2.76,1.25,2.79,3C1264.96,244.12,1264.04,245.56,1262.77,245.57z M1263.38,226.08c-1.34-0.77-2.67-2.18-3.34-3.72
	c-0.54-1.24,1.18-2.65,2.92-2.65c1.78,0,3.06,1.35,3.05,3.21C1266,224.52,1264.42,226.68,1263.38,226.08z M1267.56,208.44
	c-0.88-1.36-1.8-2.15-1.76-2.87c0.04-0.77,0.99-1.47,1.54-2.2c0.61,0.67,1.6,1.26,1.71,2.03
	C1269.16,206.09,1268.32,206.99,1267.56,208.44z M1269.81,182.84c-2.02-0.01-3.66-1.66-3.64-3.66c0.02-2.88,1.68-4.94,3.96-4.92
	c2.16,0.02,4.07,1.95,4.05,4.07C1274.15,180.81,1272.18,182.85,1269.81,182.84z M1276.77,193.63c-1.73-0.09-3.47-2.09-3.38-3.87
	c0.08-1.53,1.55-2.53,3.6-2.39c1.4,0.1,2.55,0.61,2.63,2.35C1279.57,191.71,1278.02,193.7,1276.77,193.63z M1279.99,148.29
	c-1.48-1.72-1.54-3.79,0.16-5.15c2.33-1.87,5-2.44,7.75-1.64c1.81,0.52,2.58,2.12,2.53,4.45c-0.05,2.19-0.92,3.74-2.73,4.36
	c-0.81,0.28-1.7,0.25-2.55,0.36C1283.06,150.92,1281.43,149.96,1279.99,148.29z M1283.62,179.11c-0.49,0.12-1.77-1.3-1.76-2
	c0.02-0.85,1.02-1.68,1.96-3.06c1.02,1.35,1.63,2.15,2.25,2.96C1285.26,177.76,1284.52,178.88,1283.62,179.11z M1288.47,165.33
	c-1.29-0.92-2.49-2.29-3.3-3.79c-0.61-1.13,0.23-2.23,1.37-2.48c1.3-0.28,4.11,2.75,4.14,4.34
	C1290.7,164.86,1289.53,166.09,1288.47,165.33z M1291.2,129.91c-0.42,1.49-1.22,2.61-2.69,2.45c-1.6-0.18-2.82-1.42-2.81-3.18
	c0.01-2.01,0.46-4.14,1.19-5.95c0.28-0.7,1.94-1.11,2.85-0.9c1.68,0.39,2.19,2.12,2.19,4.53
	C1291.77,127.55,1291.53,128.75,1291.2,129.91z M1296.1,82.15c-0.15-1.33,0.04-3.3,0.79-4.06c1.26-1.28,3.06-1.81,4.63-2.66
	c1.56,0.52,3.05,0.36,3.6,2.3c0.53,1.89-0.37,3.43-1.62,4.2c-1.64,1.01-3.49,1.71-5.31,2.06
	C1297.55,84.13,1296.18,82.9,1296.1,82.15z M1301.34,108.61c-2.33-0.01-3.99-2.5-3.98-5.98c0.01-2.91,2.45-6.11,4.65-6.12
	c2.1,0,4.38,3.01,4.4,5.82C1306.44,105.52,1303.93,108.63,1301.34,108.61z"/>
<g>
	<path class="st2" d="M1099.45,228.55h53.66c38.57,0,57.2,16.7,57.2,51.78v9.02c0,30.76-11.44,40.42-22.16,44.5
		c10.48,4.32,25.89,12.74,25.89,44.38v18.06c0,39.65-16.55,59.22-58.02,59.22h-56.56V228.55z M1148.7,317.9
		c14.73,0,19.79-4.72,19.79-22.09v-11.73c0-14.54-4.67-21.13-18.51-21.13h-8.19v54.95H1148.7z M1141.8,421.46h8.74
		c15.58,0,19.27-7.21,19.27-24.03v-20.82c0-17.61-4.16-25.12-22.07-25.12h-5.93V421.46z"/>
</g>
</svg>
