<svg xmlns="http://www.w3.org/2000/svg" viewBox="0 0 1213.6 1031.3"><defs><style>.a{fill:#040302;}.b{fill:#fff;stroke:#000;stroke-linejoin:bevel;stroke-width:5px;}</style></defs><title>logoBFFB</title><path d="M1344,73.9l170.9,187.9L960,998.7,405.1,261.8,576,73.9h768m17.6-40H558.4L353.2,259.4,960,1065.2l606.8-805.8L1361.6,33.9Z" transform="translate(-353.2 -33.9)"/><path d="M878.4,104.2a49,49,0,0,0-49,49V512.3a48.9,48.9,0,0,0,49,48.9h163.2a48.9,48.9,0,0,0,49-48.9V153.2a49,49,0,0,0-49-49Zm-21.8,54.4h206.8V485.1H856.6ZM960,501.4a21.8,21.8,0,1,1-21.8,21.7A21.8,21.8,0,0,1,960,501.4Z" transform="translate(-353.2 -33.9)"/><path d="M968.3,475.1V424.4H999V342.3H969.3V291.6H999V168.2h53.9V475.1Z" transform="translate(-353.2 -33.9)"/><path d="M951.9,168.2V219H921.2v72.2h29.7v50.7H921.2V475.1H867.3V168.2Z" transform="translate(-353.2 -33.9)"/><path d="M879,866.4l-17.5-27.6a265,265,0,0,1-13.6-23.3,78.1,78.1,0,0,1-7.6-20.9,46,46,0,0,1,.7-20.5,88.3,88.3,0,0,1,5.9-16.4,69.6,69.6,0,0,0,5.4-12.9,49.2,49.2,0,0,0,2.1-13.2,58.1,58.1,0,0,0-1.9-15.3c-1.3-5.6-3.3-12.1-5.7-19.3-6.2-18.7-19.1-35.3-40.3-35.9-7.1-.2-12.1,1-14.7,3.6s-3.8,6.1-3.5,10.6,1.9,9.8,4.5,15.9,6,12.6,9.7,19.5c-13.1-1.8-26.2-3.6-39.2-5.6l-6.7-9.3c-9.2-13.4-25.1-33.6-18.2-50.6s39.3-18.5,55.1-19.1c25.7-1,55.8,2.8,77.4,18.6,19.9,14.7,30.2,37.7,34,61.6a161.4,161.4,0,0,1,2.2,27.6,126.2,126.2,0,0,1-2.3,23.7,103.6,103.6,0,0,1-6.4,20.4,163.8,163.8,0,0,1-9.3,18.2c-5.4,9.5,25.4,77.3,42.5,88.7,1.9,16.3,3.5,32.6,5,48.9C917.1,911.9,895.2,891,879,866.4Z" transform="translate(-353.2 -33.9)"/><path d="M964,945.6c-5,7.4-10.8,8.2-17.1.4l-4.8-60.3h25.5Z" transform="translate(-353.2 -33.9)"/><path d="M1011,735.1c5.4-19.3,12.3-38.1,22.4-55.2a109.5,109.5,0,0,1,38.3-37.9c17.2-10.1,39.3-14.3,59-14.4,13.5-.1,28-.2,40.5,5.7,8.5,4,12.8,11.1,12.4,20.4-.6,13.5-7.6,25.9-14.2,37.3-11.7,20.2-27,39.2-41.7,57.8S997.9,912.4,989,922.2c-6.1,6.9-10.2,10.4-12.6,10s-2.9-5.5-2.1-15.3c1.3-14.6,3.8-29.3,6.4-43.7,4.2-24.2,9.3-48.5,14.6-72.5C1000.2,778.8,1005.1,756.6,1011,735.1Zm2.8,112.8c-3.5,9-7,18-9.7,27.3-1.9,6.1.6,7.4,3.3,5.2s62.7-87,72.2-102.4c6.3-10.2,12.6-20.4,18.8-30.7,8.4-14,16.8-28.2,24.1-42.8,5.4-10.9,8.6-19.4,9.7-25.5s.1-10.2-2.6-12.2-7.2-2.8-13.3-2.3a37.2,37.2,0,0,0-17.6,5.8c-5.3,3.5-10.5,9.1-15.6,17-6.4,9.9-11.5,20.6-16.3,31.4-7.1,16.1-13.8,32.6-20.4,48.9-4.5,11.1-9.1,22.2-13.7,33.3C1026.3,816.5,1019.8,832.2,1013.8,847.9Z" transform="translate(-353.2 -33.9)"/><path class="a" d="M599.6,94.8a2.2,2.2,0,0,1,.2,1.6c-.5,4-.9,8,.6,11.9a1.9,1.9,0,0,1,.1.8,10.8,10.8,0,0,0,2.8,8,2.2,2.2,0,0,1,.2,1.8c-2.5,3.5-2.6,8-2.9,12.1a47.4,47.4,0,0,0,2.1,16.7c1.5,4.7,4.5,7.9,7.6,11.3s3.8,4.4,5.7,6.7a18.4,18.4,0,0,1,3.3,7.7c.8,3.9,1.7,7.9,4.4,10.8s4.1,3.9,6.2,5.8a3,3,0,0,1,1.1,2.8c-.3,6.5.1,12.9,2.2,18.8,1.1,2.9,3.2,5.3,5,7.7a6.7,6.7,0,0,1,1.7,4.8,19.8,19.8,0,0,0,2.3,10.5,21.8,21.8,0,0,0,3,3.8c3.4,3.4,3.4,4.5,1.7,9.1-2.5,6.4-3.7,13-.1,19.6,1.5,2.8,2.8,5.7,4.1,8.5a7.1,7.1,0,0,1,.6,3.8c-.8,8.7-1.4,17.3.4,25.9s4.6,19.3,9.6,27.6a21.6,21.6,0,0,0,3.6,4.3A64.8,64.8,0,0,0,682,349.1l2,1.1.5.8c-2.2.3-4.1.9-6.1,1-7.7.6-15.3.9-22.9,1.6a17.9,17.9,0,0,0-12.2,5.3,2.2,2.2,0,0,1-1.5.6c-5.8.3-10.2,3.6-13.7,8.8a43.7,43.7,0,0,0-7.2,17.6,10.6,10.6,0,0,1-1.9,4.5,52,52,0,0,0-9,18.8,14.7,14.7,0,0,0-.1,4.7,46.5,46.5,0,0,1-.4,12.9c-1.3,6.1-.6,12.2.5,18.1.5,2.4,2.1,4.4,2.9,6.7a17.3,17.3,0,0,1,1.1,4.9c.3,5.3.1,10.7.9,15.8s2.2,9.9,4.5,13.9,5.3,8.9,10,10.8a3.6,3.6,0,0,1,1.6,2.3,114.5,114.5,0,0,1,2.2,11.4c.9,6.3,3.9,10.9,7.6,15.3s7.6,6,11.8,8.2a11.1,11.1,0,0,0,1.9.9c1.8.7,2.6,2,3,4.2.9,5,4.2,8.2,7.4,11,5.6,4.8,11.5,9.1,18.5,10.7a65.3,65.3,0,0,0,13.2,1.6c5.1,0,9.8,1.8,14.5,3.8a26.2,26.2,0,0,0,9.5,2.1c7.6.5,15-.5,22-4.4,2.5-1.4,4.9-.4,7.4.5a64,64,0,0,0,6.2,2c4.1,1.2,8,.3,11.8-1.2a62.4,62.4,0,0,0,17-9.6c3.2-2.4,5.8-6,8.6-9.1,13.6-14.6,25.3-31.2,36.5-48.4V477.4c-3.8,5.7-7.4,11.6-11.2,17.3a5.7,5.7,0,0,1-3,2.1c-2,.5-4,.4-6,.8s-2.8,0-3.6-1.5a4.3,4.3,0,0,1,.6-4.5c3.1-4.4,4.3-9.6,5.2-15.1a28.2,28.2,0,0,1,2-6,2.3,2.3,0,0,1,2.8-1.5l8.1.9c2.9.4,3,.2,4-3a22.4,22.4,0,0,1,1.1-3.4V452.9l-1.9,1.1c-5.4,2.4-8.6.7-9.9-5.6-.3-1.9-.4-3.8-.6-5.6a8.2,8.2,0,0,1,.2-2.2c.8-3.4,1.8-6.7,2.5-10.1a52,52,0,0,1,8.3-18.9c.5-.6.9-1.3,1.4-2V391.4l-1.5,1.8q-4.6,6.2-9,12.6a100,100,0,0,1-19.4,21.5c-1.6,1.3-3.6,2.6-5.4,2.7a48.4,48.4,0,0,1-9.9-1.5c-3.4-.6-6.8-1.6-10.3-.4s-5,1.7-7.5,2.8c-10.4,4.4-20.7,8.9-31,13.5-5.6,2.5,2.6-12.3-3.3-11.1-4.1-.6-5.7-1.4-7.7-5.9s-17.3,6.3-15.6,2c3.1-7.8,8-13.8,13.4-19.4a137.5,137.5,0,0,1,22.8-19.1c11.7-7.7,23.7-14.9,35.4-22.8,9.7-6.5,24.8,45.3,35.9,42.8,6.1-1.4,7-60.3,13.1-61.8V331c-10.5-1.2-20.9-2.5-31.2-5.2-8.5-2.2-17.1-4-25.6-5.9-4.1-1-8.2-2.3-12.4-2.4a64.5,64.5,0,0,0-15.1,1.5,148,148,0,0,1-27.3,3.6c-5.1.1-10.3,1-15.3-1.2a24.6,24.6,0,0,0-3.9-.9c-5.9-1.4-10.9-4.3-14.2-10.3a33.3,33.3,0,0,1-4.5-15.6c-.3-9.2,2.1-13.8,10.8-15.7,5-1.1,8.6,8.7,13.7,8.9,14,.6,29.6-8.4,43.5-7.5,2.9.2,5.9.7,8.9.3,5.8-.8,11.8,17.7,17.6,16.6,7.6-1.4,14.8-22.5,22.3-19.2,3.9,1.6,11.2.5,11.7,4.7,10.8,103.3,14.2,9.5,21,14.9V291l-3.4-3.4c-8.7-8.5-2.5-51.3-10.7-60.6s7.5,8.1,0,0c-9.3-10-56-10.3-65.5-20.1a89.5,89.5,0,0,1-19.3-29.3,53.7,53.7,0,0,1-4.3-19.1c-.1-4.5,1.4-6.7,5.2-7.1s8-.9,11.8-.3a141.4,141.4,0,0,1,19.1,4.1,65.4,65.4,0,0,1,16.3,7.2c2.5,1.6,5.4,2.5,7.6,4.5,6.4,5.7,12.8,11.5,18.7,17.9s8.7,10.9,12.9,16.5a153.4,153.4,0,0,1,11.6,18V203c-2.6-4.4-5.3-8.8-8.3-13a363.4,363.4,0,0,0-26.3-33.8c-7.6-8.9-16.1-16.6-24.3-24.7-3.6-3.6-6.4-8.4-9.7-12.5a24.7,24.7,0,0,0-4.9-4.8c-9.7-6.7-19.4-13.6-29.4-19.8-11.6-7.2-23.5-13.7-35.2-20.7-3.3-1.9-6.4-4.5-9.7-6.4-5.5-3.3-11.1-6.4-16.7-9.3-8.2-4.2-16.4-8.3-24.7-12.2-3.2-1.4-6.7-2-10-3.1s-6.2-2.2-9.2-3.3c-5.6-2.1-10.8-1.1-15.2,3.4a9.2,9.2,0,0,0-2.4,4.7c-.8,3.7-1,7.6-1.7,11.3-.2,1.2-.7,2.7-1.5,3.2-5.3,3.6-6.7,9.3-6.3,15.9S596.1,89.9,599.6,94.8Zm152.5,35.7a4,4,0,0,1,3.7-.3,18.1,18.1,0,0,1,10,10.6c1.1,2.8.5,3.9-2.4,4a2.6,2.6,0,0,1-1.1-.2c-4.4-1.7-8.1-4.4-10.1-9.5C751.6,133.5,750.8,131.7,752.1,130.5ZM688.1,405c-5.3,1.9-10.5,3.8-15.8,5.4s-10.1,3.6-15.4,3.6c-2.6-.4-5.2-.5-7.7-1.4-6.2-2.1-8.3-11.3-3.8-16.7a19.2,19.2,0,0,1,5.7-5,172.9,172.9,0,0,1,45-16.5c11.8-2.6,23.1-7.3,34.3-11.9,7.9-3.2,15.7-7,23.6-10.3,3.8-1.6,8-2.4,11.8-4.1s9.8-2.7,14.8-.8c2.5,1,3.2,2.5,1.8,5.1a10.2,10.2,0,0,1-2.6,3.2c-10.7,8-21.4,16.2-32.3,23.8-5.3,3.6-11.1,6.3-16.7,9.2a127.9,127.9,0,0,1-14.1,6.5C707.2,398.6,697.6,401.7,688.1,405Zm3.9,33.6c-4.6,2.6-9.6,4.1-14.4,6.2s-12,5.3-18,7.8c-1.8.8-3.8,1.5-5.7,2.2a11.9,11.9,0,0,1-8.2-3.8,24.8,24.8,0,0,1-6.5-16.1c-.2-6.5,2.2-10.8,7.2-12.6a37.5,37.5,0,0,1,9.8-2.2c12.9-.9,25.4-4.5,37.5-9.8a34.1,34.1,0,0,1,9.9-2.4c4.5-.3,5.8,1.8,5,7C707,426.6,700.6,433.8,692,438.6Zm-62.2-22.7a5.5,5.5,0,0,1,5.1-5.6c2.5-.1,3.9,1.4,4,4.2a5.1,5.1,0,0,1-5.1,5C631.3,419.6,629.9,418.3,629.8,415.9Zm1.3,14.6c0,1.7-1.3,2.8-3.4,2.8a2.8,2.8,0,0,1-2.9-2.8,3.2,3.2,0,0,1,3.1-3.3A3.6,3.6,0,0,1,631.1,430.5Zm9,32.1c.3,1-1.9,3.6-2.9,3.3s-1.3-1.4-1.7-1.8c0-2.6,1.3-4.3,2.6-3.9A4.1,4.1,0,0,1,640.1,462.6Zm140.1,74.3q7.9-9.1,16.2-18c.7-.8,2-.9,3.4-1.6a14.2,14.2,0,0,1,3.1,2.9c.2.4-.9,2.1-1.6,2.9s-3.1,3.7-4.6,5.6-4.6,6-6.9,9a55.1,55.1,0,0,1-5,5.7c-1.6,1.6-4.6.7-5.7-1.5S779.1,538.2,780.2,536.9Zm-21.5,9a3.7,3.7,0,0,1,1.3-2.8,12.4,12.4,0,0,1,10.4-1.5,2.9,2.9,0,0,1,2.4,3.1,3,3,0,0,1-2.5,3.1c-2.6.5-5.2.8-8.2,1.2-.4-.2-1.3-.2-1.9-.7A3.9,3.9,0,0,1,758.7,545.9ZM757.3,523c0-4.9,2.7-13.7,5.3-17.8s4.7-7.7,6.8-11.8c5.4-10.8,10.7-21.7,16-32.6,3.1-6.3,7.4-11.5,11.8-16.5a40.2,40.2,0,0,1,6-5.7c2.4-1.8,4.3-.6,4.8,2.8a14.1,14.1,0,0,1,0,4.1c-1.1,7.7-16.7-1.4-18.2,6.2s7.7,36.4,6.3,42.7-.1,5.4-3.4,10.9c-6.7,11.6-15.2,20.3-26.5,25C761.7,532.2,756.7,529.5,757.3,523Zm-16.2,17.9a4,4,0,0,1,3.5-3.7c2,0,4.4,2.5,4.4,4.7a3.3,3.3,0,0,1-3.5,3.3A4.2,4.2,0,0,1,741.1,540.9Zm-9.9,13.6c0-2,2-3.8,4.4-4s2.8,1.1,2.9,3.1-1.3,4-3.4,4.1A3.7,3.7,0,0,1,731.2,554.5Zm-5.6-7.2a3.9,3.9,0,0,1-4.1-4c0-2.2,2-3.9,4.6-3.9a3.6,3.6,0,0,1,3.7,4A3.8,3.8,0,0,1,725.6,547.3Zm-9.3,7.9c.1-2.1,1.4-3.5,3.2-3.4a5.6,5.6,0,0,1,5.1,5.2,2.8,2.8,0,0,1-3.3,3C718.4,559.9,716.2,557.8,716.3,555.2Zm-.1-36.7a30.9,30.9,0,0,1,3.7-15,121.8,121.8,0,0,1,10.4-16c4.9-6.7,10.3-12.8,15.2-19.4,8.4-11.4,29.7-6.9,40.5-14.8,1.5-1-8.2-15.6-6.5-16.1s4.2-1.4,5.9.9,1.2,4.2.2,6.3a133.2,133.2,0,0,1-6.1,12.6c-4.3,7.5-9.1,14.7-13.4,22.2s-6.6,13.1-10.3,19.3c-5,8.7-10.2,17.3-15.6,25.7a13.8,13.8,0,0,1-9.9,6.5c-2.3.3-4.7,1-6.9.5C719.5,530.4,715.8,524.9,716.2,518.5Zm-11.5,32.4c0-1.7,1.2-2.8,3.6-3a2.4,2.4,0,0,1,2.6,2.3c.2,1.4-1.5,3.3-3,3.5A3.1,3.1,0,0,1,704.7,550.9ZM696,540.3c.5-1,.7-1.8,1.2-2.1s5.9-.1,6.4,2.6a2.9,2.9,0,0,1-.4,2.1,2.4,2.4,0,0,1-2,.6,12.8,12.8,0,0,1-3.1-1.1A10.4,10.4,0,0,1,696,540.3ZM683,545a10.8,10.8,0,0,1,10.2,3.1,3.6,3.6,0,0,1,.6,4.3,8,8,0,0,1-2.1,2.3c-4.6-.4-7.4-3.2-10.1-6A2.2,2.2,0,0,1,683,545Zm-7.7-11.5c0-1.7,1.1-2.7,3-2.7s4.4,1.8,4.4,3.7-1.6,2.8-3.6,2.8A3.6,3.6,0,0,1,675.3,533.5Zm-.6-28.9c0-6.2.5-8.6,3.9-12.3,6.7-7,13.3-14.2,20.5-20.5,9-7.8,41.9-17.3,52.5-21.7,4.2-1.8-14.9,1.1-10.9,3.5,2,1.2,2.3,3.1.7,4.9-5.8,6.6-11.9,12.8-17.2,19.9-9,11.9-17.4,24.3-26,36.6-2.2,3.1-4.1,6.4-7.3,8.5s-6.3,1.6-9.3-1.2C676.4,517.6,674.8,511.2,674.7,504.6ZM660.8,531a4.3,4.3,0,0,1,1.6-3.1,5.1,5.1,0,0,1,3.8-.5,3.7,3.7,0,0,1,2,2.5c.1.7-1,2-1.8,2.5s-2,.4-2.7.6S660.7,532.7,660.8,531Zm-.3-12.7a3,3,0,0,1,3.1-3,2.5,2.5,0,0,1,2.6,2.7,2.9,2.9,0,0,1-2.9,2.8A2.6,2.6,0,0,1,660.5,518.3Zm-10.1-30c-2-4.3-2.4-9.5-3.5-14.3h.5c-.2-4.3,1-7.5,4.5-9.3,1.3-.6,2.3-1.7,3.6-2.3l37-18.4c2.6-1.3,5-.6,7.3.6a3.7,3.7,0,0,1,1.6,2.8c.3,6.6-1.2,12.7-5.2,17.5a136.2,136.2,0,0,1-10,10.1c-6.5,6.1-12.9,12.4-19.7,17.9S653.9,496,650.4,488.3Zm1.4,21.6c0-2,1.3-3.1,3.7-3.1s3.1,1,3.1,2.8a3.8,3.8,0,0,1-3.6,3.9C653,513.5,651.9,512.2,651.8,509.9Zm-6.2,8.1a10,10,0,0,1,2.5-1c1.2.5,2.4.8,3.6,1.4s1.6,2.4.7,4-2.2,2.6-3.9,2-3.5-1.8-3.9-4.1A2.8,2.8,0,0,1,645.6,518Zm-6.5-13.8c0-2.1,1.3-3.9,3-4s3.2,2.1,3.2,4.5a2.8,2.8,0,0,1-2.8,3.2A3.6,3.6,0,0,1,639.1,504.2Zm-5.6-27.9c0-2.2,1.4-3.8,3.4-3.8a2.9,2.9,0,0,1,3.1,3.1,3.8,3.8,0,0,1-3.5,4.1C634.8,479.7,633.6,478.2,633.5,476.3Zm-2.7-19.9a4,4,0,0,1-3.9-4c.1-2.5,2-4.7,4.3-4.6a3.8,3.8,0,0,1,3.5,3.9C634.6,454.3,632.8,456.4,630.8,456.4Zm0,11.5c0,2-2,4.4-3.7,4.4s-2.6-1.5-2.6-3.5,1.7-4.1,3.4-4.1A3,3,0,0,1,630.8,467.9Zm-6.4,14.5c0-2.2,1.4-3.9,3.1-3.9a2.9,2.9,0,0,1,2.7,2.9,3.8,3.8,0,0,1-3.4,3.8C625.3,485.2,624.4,484.2,624.4,482.4Zm-4.3-25.2c.1-1.4.8-2.4,2.2-2.4a4.3,4.3,0,0,1,4.3,3.9,2.9,2.9,0,0,1-3.1,2.6A4,4,0,0,1,620.1,457.2Zm-1.2-13.6c-.1-1.7,1.4-3,3.4-3a2.4,2.4,0,0,1,2.4,2.6c0,1.6-1.5,2.9-3.5,3S619.1,445.3,618.9,443.6Zm-1.1-14.3c1.3-.1,2.1.9,2.1,2.4s-.9,2.5-2.8,2.8c-.4-.7-1.3-1.5-1.4-2.5A2.2,2.2,0,0,1,617.8,429.3Zm5.6-17.9a5.1,5.1,0,0,1,.3,5.8,29.3,29.3,0,0,1-1.9,4c-.6.8-1.6,1.7-2.4,1.7s-1.8-1-2.2-1.8a57.2,57.2,0,0,1-1.7-5.9h.4V414c-.1-2.3.5-4.2,2.4-5.2S622,409.3,623.4,411.4Zm4.4-10.3a3.6,3.6,0,0,1-3.5,3.6,2.9,2.9,0,0,1-2.4-3c0-1.9,1.7-4.4,3-4.4S627.8,399.2,627.8,401.1Zm7.8-17.5a29.7,29.7,0,0,1-2.8,3.4c-.7.7-1.4,1.7-2.3,2s-2.5.4-2.9-.2a4.3,4.3,0,0,1,.1-3.5,26.2,26.2,0,0,1,3.4-4.8,16,16,0,0,1,3.2-2c.9.6,2.1,1.1,2.1,1.8A4.9,4.9,0,0,1,635.6,383.6Zm3.2,12.8c0,1.8-.7,2.7-2.3,2.7s-3,0-3.1-2.4,1.7-4.3,2.9-4.3S638.8,393.7,638.8,396.4Zm3.9-29.8c0,1.8-1.2,3.6-2.3,3.3s-1.4-1.2-1.8-1.6c.1-2.6,1-4.1,2.3-4.1S642.8,365.2,642.7,366.6Zm4.7,3.8a8.9,8.9,0,0,1,.3,2.7c-.6,2.4-3.5,4.6-5.6,4.6s-3.4-1.5-3.1-2.8,1.9-2,3.2-1.7,2.5-.1,3.3-1.6S646.7,370.8,647.4,370.4Zm8.7-7.2c-1.8,1.4-3.7,2.9-5.6,4.2a1.8,1.8,0,0,1-1.9.1c-.4-.3-.6-1.1-.9-1.6a30.6,30.6,0,0,1,1.2-4.8,3.1,3.1,0,0,1,1.7-1.7,12.4,12.4,0,0,1,3.3-.9c1.5-.4,2.3.5,2.9,1.9A2.2,2.2,0,0,1,656.1,363.2Zm47.4-6.9,14.8-2.6c1.4.2,2.6.3,3,2.1a2.8,2.8,0,0,1-2.1,3.3c-1.2.3-2.6.3-3.6.9a41.2,41.2,0,0,1-11,4.3c-8.5,2-16.9,4.4-25.4,6.6l-25.4,6.5c-1.4.4-2.7.6-3.5-.9a3.5,3.5,0,0,1,.6-4.2c2.4-2.8,4.8-5.9,7.6-8.1a16.7,16.7,0,0,1,7.8-3.5c5.7-.8,11.5-.6,17.3-1.3S696.9,357.4,703.5,356.3ZM634.1,72.9c2.7.2,5,2.5,4.9,4.8s-2,3.9-4.9,4h-.2c-3.2,0-5.4-1.9-5.3-4.6S631.1,72.7,634.1,72.9Zm5.6-2c-2.2-.3-3.1-.3-6.6-3.9-1.2-1.2-2.1-2.7-1.6-4.5a4.5,4.5,0,0,1,3.6-3.6c3.1-.5,7,2,8.3,5.4S642.9,70.9,639.7,70.9Zm18,1.4c-2.2.6-7.1-1.5-8.4-3.6a16.7,16.7,0,0,1-.7-1.9,9.8,9.8,0,0,1,1.8-2.7c2.4-1.9,7.8-.4,9.3,2.5S660,71.7,657.7,72.3Zm9.1,60.8c-1.1,2.3-3.2,2.3-5.5,2.2s-4.1-.6-5.9-2.6a95.1,95.1,0,0,0-7.1-7.1c-5.1-4.2-10.3-8.1-15.5-12.1-3.3-2.6-3.3-8.7.1-10.9a11.1,11.1,0,0,1,9.1-1.9,27.1,27.1,0,0,1,15.4,10c3.4,4.6,5.9,10.1,8.8,15.2C667.4,128.1,668,130.6,666.8,133.1Zm-16.9,26.5a2.4,2.4,0,0,1,2.2,2.7c.1,2-1.1,2.3-2.9,2.6a6.5,6.5,0,0,1-1.6-2.2A2.9,2.9,0,0,1,649.9,159.6Zm21.8-8.7a20.5,20.5,0,0,1-11.2,3,4.7,4.7,0,0,1-4.7-3.5c-2.1-6.1.5-11.3,5.9-12.3a15.7,15.7,0,0,1,2.4-.3,25.5,25.5,0,0,0,4.1.5c3.3-.1,4.8,2.2,5.8,5.5S674.2,149.4,671.7,150.9Zm5.2,125.3a2.8,2.8,0,0,1-2.6,3c-1.6,0-2.6-1.3-2.7-3.8s.5-2.7,2.1-2.8S676.8,274.8,676.9,276.2Zm-5.8-54.9a3.7,3.7,0,0,1-3.3-3.8,4.6,4.6,0,0,1,4.3-4.4c2,.1,4.3,2.3,4.2,4.3S673.9,221.3,671.1,221.3Zm0,40.4a45,45,0,0,1-4.5-3.1,3.5,3.5,0,0,1-.9-4.4,2.9,2.9,0,0,1,3.6-1.9c2.3.5,4.3,3.5,4.4,6.2A2.9,2.9,0,0,1,671.1,261.7ZM664.6,241a5.2,5.2,0,0,1,3.4-4.2,3.7,3.7,0,0,1,4.5,1c1.4,1.6,1.2,4.7-.5,5.8a10.9,10.9,0,0,1-2.6,1.2C666.1,244.8,664.3,243.3,664.6,241ZM662,207.4c-1.7,0-2.2-1.1-1.7-3a5.6,5.6,0,0,1,5.4-4.5,5.8,5.8,0,0,1,2.8.9,4.7,4.7,0,0,1,1.6,2.8,4.1,4.1,0,0,1-1.9,2.8A25.9,25.9,0,0,1,662,207.4Zm-1.9-15.2a34.7,34.7,0,0,1-4.1-3.3,2.6,2.6,0,0,1,0-2.1,1.6,1.6,0,0,1,1.7-.7,23.3,23.3,0,0,1,3.8,2.6,2.4,2.4,0,0,1,.3,1.9C661.6,191.2,660.9,191.5,660.1,192.2Zm38.4-88.1c3.2,1.3,6.9,7.4,6.3,11s-2.2,8.7-5.5,11.5a5,5,0,0,1-3.6.9,63.6,63.6,0,0,1-7.1-2.1c-5-1.3-8.2-5.1-10.4-10.2a32.9,32.9,0,0,1-1-3.7c.4-1.1.5-2.5,1.1-3.4,2.1-3.1,4.8-5.5,8.3-5.8A25.9,25.9,0,0,1,698.5,104.1Zm8.7-5.9a3.5,3.5,0,0,1-3.2,3.2c-4.2-.1-8.2-1.2-11-5.3a4.1,4.1,0,0,1-.6-3.2c.2-.8,1.5-1,2.6-1.7,3.3,1.1,6.7,2,10,3.2A3.6,3.6,0,0,1,707.2,98.2Zm7.2,49c2.4,1.1,2.5,3.8.3,5.5s-4.6,2.8-7.3,2.4a2,2,0,0,0-.1.7c-4.9-1.6-9.8-3.1-14.6-4.8a6.9,6.9,0,0,1-2.5-1.8,7,7,0,0,1-1.6-7.6c.8-2.1,2.8-3.2,5.4-2.6a21,21,0,0,1,4.6,1.6C703.8,142.7,709.2,144.9,714.4,147.2Zm17-30.1a4.3,4.3,0,0,1-3.6-2.5l-1.9-3.2a15.9,15.9,0,0,1-1.5-2.9c-.7-2,.4-3.8,2.1-3.3a37.1,37.1,0,0,1,7.1,2.4c2,1,2.7,3.2,2.2,5.6A4.6,4.6,0,0,1,731.4,117.1Zm-4.8,24.2c-6.1,2.8-10.7-3.4-11.5-9.9.3-1,.5-2.5.8-3.8.8-2.9,2.1-4.2,4.5-3.6a34.3,34.3,0,0,1,7.9,3.4,16.5,16.5,0,0,1,4.3,3.6,4.7,4.7,0,0,1-.5,6.9A26.4,26.4,0,0,1,726.6,141.3Zm-42.5,87.1c1.1-4.7,3.3-7.9,8.6-8.1a52.3,52.3,0,0,1,17.9,2.7c7.3,2.3,14.7,4.4,22,6.4s13.7,3.4,20.5,5a64.9,64.9,0,0,1,21.3,9.3c7.6,5,12.4,12.7,16.6,21.2,1.4,2.8.1,5.3-2.6,5.5a37.5,37.5,0,0,1-6.7-.1c-4.8-.3-6.7-10.1-11.5-10.2-7.5-.2-18.1,9-25.6,9v-.3c-10.1,0-20.3.2-30.4-.1-5.2-.2,23.3-36.3,18.4-39.3-2.8-1.8-38,25.3-40,22.7C685.7,243.1,681.4,240.2,684.1,228.4Zm-13.4-33.2c-6.8-5.3-11.9-12.1-13.7-21.7-.5-2.6-.8-5.1.7-7.2s4.2-5.1,7.2-5.8,7.6-1.5,9.9-2c9.2.7,16.8,1.3,23.9,4.7,4.7,2.3,9.2,4.9,13.7,7.6,2.7,1.5,5.6,3,7.7,5.3,6.2,6.7,12.4,13.5,17,21.7s7,14.4,10.3,21.7c1.3,2.8.2,4.7-2.6,4.9-5.3.5-10.2-1-15.1-2.8-9.1-3.3-18.2-6.8-27.3-10.2l-12.3-4.3C682.9,204.7,676.7,200,670.7,195.2ZM673,320.1a3.4,3.4,0,0,1,3.6-3.6c1.9,0,3,1.3,3,3.4s-1.3,4.3-3.1,4.3A3.7,3.7,0,0,1,673,320.1Zm-1.5-24.8c-2,0-4.1-1.7-3.9-3.5a7.7,7.7,0,0,1,1.2-2.4c2.7,0,5,1.9,4.9,3.6A2.2,2.2,0,0,1,671.5,295.3Zm-7.4,8.4a3.4,3.4,0,0,1,3.7-3.4c1.7.1,3.3,2.3,3.3,4.5a2.5,2.5,0,0,1-2.7,2.7A4.2,4.2,0,0,1,664.1,303.7Zm-.5-33.1a6.6,6.6,0,0,1,1.7,1.4c1.2,1.7.9,6-.5,7.5s-1.8.9-2.3-.2a21.8,21.8,0,0,1-2-5A3,3,0,0,1,663.6,270.6Zm-6.2-14.8c-.1-2.1,1-3.9,2.4-3.9s2.7,1.8,2.8,4-.9,3.7-2.5,3.7S657.5,257.9,657.4,255.8Zm-1.9-15.1a2.7,2.7,0,0,1,2.8-3c1.7,0,2.6,1.2,2.6,3.1s-1.2,3.3-3.2,3.2S655.5,242.6,655.5,240.7Zm-1.1-19.3a3,3,0,0,1,3.1-3.2c1.7,0,3.4,1.4,2.9,2.6a8.8,8.8,0,0,1-3.3,3.8C656,225.2,654.4,223,654.4,221.4Zm-3-17.5c.1-.8,1.1-1.4,1.7-2.1s1.5,1.5,1.5,2.2-.8,1.6-1.7,2.9C652.1,205.5,651.3,204.6,651.4,203.9Zm-5.1-27.1a4.2,4.2,0,0,1,4-4.1c2.3,0,4,2.1,4,4.9a3.6,3.6,0,0,1-3.7,3.7A4.4,4.4,0,0,1,646.3,176.8Zm-5.5,11.4c.1-1.8,1.2-2.3,2.6-2.4s3.6.9,3.7,2.4a4.2,4.2,0,0,1-3.4,3.9C642.4,192.2,640.9,190.2,640.8,188.2Zm-5.5-39.1a11.5,11.5,0,0,1-2.6-.3c-1.8-.6-2.6-2.2-2.7-4.4s.7-3.9,2.5-4.4a8.2,8.2,0,0,1,7.8,1.6c1.7,1.4,1.6,3.4.2,5.2S637.4,149.4,635.3,149.1Zm-.9,26.4,2.2-3c1,1.4,2,2.2,2,3.1s-1.3,2.1-1.8,2S635.2,176.2,634.4,175.5Zm-4.6-13.6c0-1.6,2.8-4.6,4.1-4.4a1.8,1.8,0,0,1,1.4,2.5,11.1,11.1,0,0,1-3.3,3.8C630.9,164.6,629.7,163.3,629.8,161.9Zm-1.3-36.6c0-2.4.5-4.1,2.2-4.5s2.6.2,2.8.9a14.8,14.8,0,0,1,1.2,5.9,3,3,0,0,1-2.8,3.2c-1.4.2-2.2-.9-2.7-2.4S628.7,126,628.5,125.3Zm-6.2-42.8a17.8,17.8,0,0,1-5.4-2.1,3.8,3.8,0,0,1-1.6-4.2c.6-1.9,2.1-1.8,3.6-2.3s3.4,1.4,4.7,2.7.9,2.7.7,4S622.9,82.6,622.3,82.5ZM614,100.8c.1-2.8,2.3-5.8,4.4-5.8s4.7,3.2,4.7,6.1-1.7,6-4,6S614,104,614,100.8Z" transform="translate(-353.2 -33.9)"/><path class="b" d="M816,454H759.4c-41.4,0-58-19.6-58-59.2V376.7c0-31.6,15.4-40.1,25.9-44.4-10.7-4.1-22.2-13.7-22.2-44.5v-9c0-35.1,18.7-51.8,57.2-51.8H816ZM773.6,316.4v-55h-8.1c-13.9,0-18.6,6.6-18.6,21.1v11.8c0,17.3,5.1,22.1,19.8,22.1Zm0,33.6h-5.9c-17.9,0-22.1,7.5-22.1,25.1v20.8c0,16.8,3.7,24,19.3,24h8.7Z" transform="translate(-353.2 -33.9)"/><path class="a" d="M1325.9,79.5c.3-6.7-1-12.3-6.3-16a5.2,5.2,0,0,1-1.6-3.1c-.6-3.8-.9-7.6-1.6-11.4a11.1,11.1,0,0,0-2.4-4.7c-4.5-4.5-9.6-5.4-15.2-3.4-3.1,1.2-6.1,2.3-9.2,3.3s-6.8,1.7-10,3.2c-8.3,3.8-16.6,8-24.8,12.2-5.6,2.9-11.2,6-16.7,9.2-3.3,1.9-6.3,4.5-9.6,6.4-11.8,7-23.7,13.6-35.3,20.8-9.9,6.2-19.6,13-29.4,19.7a24.7,24.7,0,0,0-4.9,4.8c-3.2,4.1-6,8.9-9.6,12.5-8.3,8.1-16.7,15.8-24.4,24.7a381.2,381.2,0,0,0-26.3,33.8c-2.9,4.2-5.6,8.6-8.2,13.1v16.2a151.5,151.5,0,0,1,11.5-17.9c4.3-5.6,8.3-11.5,13-16.6s12.3-12.2,18.6-17.9c2.2-2,5.1-2.9,7.6-4.4a64.8,64.8,0,0,1,16.4-7.3,153,153,0,0,1,19-4.1,51.8,51.8,0,0,1,11.8.3c3.8.5,5.3,2.6,5.2,7.1a54.2,54.2,0,0,1-4.2,19.2,91.8,91.8,0,0,1-19.3,29.2c-9.6,9.8-56.2,10.1-65.5,20.1-7.6,8.1,7.3-8.3,0,0s-2,52.1-10.8,60.7l-3.3,3.3v6.6c6.7-5.4,10.2,88.4,21-14.9.4-4.2,7.8-3,11.6-4.7,7.5-3.2,14.8,17.8,22.3,19.3,5.8,1.1,11.9-17.5,17.7-16.7,2.9.4,5.9-.1,8.9-.3,13.9-.9,29.5,8.1,43.4,7.6,5.1-.3,8.7-10.1,13.8-9,8.6,1.9,11.1,6.5,10.7,15.7a34.4,34.4,0,0,1-4.4,15.6,20.6,20.6,0,0,1-14.2,10.3,28.8,28.8,0,0,0-4,.9c-5,2.2-10.1,1.3-15.2,1.2a134.6,134.6,0,0,1-27.4-3.6,63.5,63.5,0,0,0-15.1-1.5c-4.1.1-8.2,1.5-12.4,2.4-8.5,1.9-17,3.8-25.5,6-10.3,2.6-20.8,3.9-31.2,5.1v18.1c6.1,1.6,7,60.4,13.1,61.8,11,2.6,26.1-49.3,35.8-42.8,11.7,7.9,23.7,15.1,35.5,22.9a140.9,140.9,0,0,1,22.8,19.1c5.4,5.5,10.3,11.5,13.3,19.3,1.7,4.3-13.4-6.6-15.5-2s-3.7,5.3-7.7,6c-5.9-1.2,2.3,13.6-3.3,11-10.3-4.6-20.7-9-31-13.5l-7.6-2.8c-3.4-1.2-6.8-.2-10.2.5a56.2,56.2,0,0,1-9.9,1.4c-1.9,0-3.9-1.4-5.5-2.7a102.7,102.7,0,0,1-19.4-21.5q-4.3-6.4-9-12.6l-1.4-1.8v18.2l1.3,2A52,52,0,0,1,1100,432c.7,3.4,1.7,6.8,2.5,10.2a13.3,13.3,0,0,1,.3,2.1,50.4,50.4,0,0,1-.7,5.6c-1.3,6.4-4.5,8-9.8,5.6l-1.9-1V465c.4,1.1.7,2.3,1.1,3.5,1,3.2,1.1,3.3,4,3l8.1-1a2.3,2.3,0,0,1,2.8,1.6,30,30,0,0,1,1.9,6c.9,5.4,2.2,10.7,5.3,15.1a3.9,3.9,0,0,1,.5,4.4,3,3,0,0,1-3.5,1.5c-2-.3-4.1-.3-6.1-.8a5.1,5.1,0,0,1-3-2.1l-11.1-17.3v20.9c11.1,17.2,22.8,33.8,36.4,48.5,2.9,3,5.5,6.6,8.7,9.1a67.6,67.6,0,0,0,16.9,9.6c3.9,1.4,7.8,2.3,11.8,1.1,2.1-.6,4.2-1.2,6.3-2s4.8-1.9,7.3-.5c7,3.9,14.5,4.9,22,4.5a29.2,29.2,0,0,0,9.6-2.2c4.7-2,9.3-3.7,14.5-3.8a59.5,59.5,0,0,0,13.2-1.6c6.9-1.5,12.8-5.9,18.4-10.7,3.2-2.8,6.5-5.9,7.4-11,.4-2.2,1.3-3.5,3.1-4.1l1.8-1c4.3-2.1,8.5-4.1,11.9-8.1s6.6-9.1,7.5-15.3c.6-3.9,1.4-7.7,2.2-11.5a3.6,3.6,0,0,1,1.6-2.3c4.7-1.9,7.5-6.5,10.1-10.8s3.6-9.1,4.4-13.9.6-10.5,1-15.7a15.8,15.8,0,0,1,1-4.9c.9-2.4,2.5-4.4,2.9-6.8,1.1-5.9,1.8-12,.6-18.1-1-4.3-.8-8.5-.5-12.9a14.7,14.7,0,0,0-.1-4.7,53.5,53.5,0,0,0-8.9-18.8,10.2,10.2,0,0,1-2-4.5,41.1,41.1,0,0,0-7.2-17.6c-3.5-5.2-7.8-8.4-13.6-8.7-.5-.1-1.2-.2-1.5-.6-3.5-3.7-7.8-5-12.2-5.4-7.6-.7-15.3-1-22.9-1.6a49.7,49.7,0,0,1-6.2-1c.3-.4.4-.7.5-.7l2-1.2a65.6,65.6,0,0,0,17-11.8,22.3,22.3,0,0,0,3.6-4.4c4.9-8.3,7.5-17.8,9.5-27.5s1.3-17.3.4-25.9a6.8,6.8,0,0,1,.6-3.8c1.4-2.9,2.6-5.8,4.1-8.5,3.6-6.6,2.4-13.2,0-19.7-1.8-4.6-1.7-5.7,1.6-9.1a14,14,0,0,0,3-3.8,19.8,19.8,0,0,0,2.4-10.5,6.4,6.4,0,0,1,1.6-4.8c1.9-2.3,4-4.8,5-7.7a48.9,48.9,0,0,0,2.3-18.7,3,3,0,0,1,1-2.9,68.7,68.7,0,0,0,6.3-5.8c2.6-2.9,3.5-6.9,4.3-10.8a17.6,17.6,0,0,1,3.4-7.6c1.8-2.4,3.7-4.6,5.7-6.8s6.1-6.6,7.6-11.3a45.1,45.1,0,0,0,2-16.7c-.3-4.1-.4-8.5-2.9-12.1a2.4,2.4,0,0,1,.3-1.8,10.7,10.7,0,0,0,2.7-8,2.2,2.2,0,0,1,.1-.8c1.6-3.9,1.2-7.9.6-11.9a3.4,3.4,0,0,1,.2-1.5C1324.3,91.5,1325.5,85.6,1325.9,79.5Zm-157.7,57.1c-2,5.2-5.7,7.8-10,9.5a3.1,3.1,0,0,1-1.1.2c-2.9,0-3.5-1.2-2.4-4a17.9,17.9,0,0,1,9.9-10.6,4,4,0,0,1,3.8.4C1169.6,133.2,1168.8,135.1,1168.2,136.6Zm35.5,260a126.5,126.5,0,0,1-14-6.5c-5.7-2.8-11.5-5.5-16.7-9.2-11-7.6-21.6-15.8-32.3-23.8a8.6,8.6,0,0,1-2.7-3.2c-1.4-2.5-.7-4.1,1.8-5,5.1-2,9.9-1.5,14.8.7s8,2.5,11.9,4.2c7.9,3.2,15.6,7,23.5,10.2,11.3,4.6,22.5,9.3,34.3,11.9a176.6,176.6,0,0,1,45,16.5,19.6,19.6,0,0,1,5.8,5c4.4,5.5,2.3,14.6-3.9,16.7-2.4.9-5.1,1-7.6,1.5-5.4-.1-10.4-2-15.5-3.6s-10.5-3.6-15.8-5.4C1222.8,403.3,1213.2,400.1,1203.7,396.6Zm8.1,19.8c-.7-5.1.5-7.3,5-6.9a28.2,28.2,0,0,1,9.9,2.4c12.2,5.3,24.6,8.8,37.6,9.7a35.9,35.9,0,0,1,9.7,2.2c5.1,1.8,7.5,6.2,7.2,12.6a24.7,24.7,0,0,1-6.4,16.1,12.1,12.1,0,0,1-8.3,3.8l-5.7-2.1-18-7.9c-4.8-2-9.8-3.6-14.4-6.1C1219.9,435.3,1213.4,428.1,1211.8,416.4Zm74.9,4.6a5,5,0,0,1-5.1-5c0-2.8,1.5-4.3,3.9-4.2a5.5,5.5,0,0,1,5.1,5.6C1290.6,419.8,1289.2,421.1,1286.7,421Zm5.8,7.8a3.1,3.1,0,0,1,3.1,3.2,2.8,2.8,0,0,1-2.9,2.8c-2.1,0-3.4-1.1-3.3-2.8A3.3,3.3,0,0,1,1292.5,428.8Zm-10.2,33c1.4-.5,2.6,1.2,2.6,3.9-.3.3-.9,1.4-1.7,1.7s-3.2-2.3-2.8-3.3A3.5,3.5,0,0,1,1282.3,461.8Zm-141,81.6c-1.1,2.2-4,3.1-5.7,1.5a44.6,44.6,0,0,1-4.9-5.7c-2.4-2.9-4.6-6-7-9s-3.1-3.6-4.6-5.5-1.8-2.6-1.5-3a13.8,13.8,0,0,1,3-2.9c1.5.7,2.7.8,3.4,1.7,5.5,5.9,10.9,11.9,16.2,17.9C1141.4,539.7,1142.4,541.3,1141.3,543.4Zm19,6.4a3.5,3.5,0,0,1-2,.7c-3-.4-5.6-.7-8.2-1.2a2.8,2.8,0,0,1-2.4-3.1,2.9,2.9,0,0,1,2.3-3.1,12.7,12.7,0,0,1,10.4,1.5,3.7,3.7,0,0,1,1.3,2.8A4,4,0,0,1,1160.3,549.8Zm-6-17.9c-11.4-4.8-19.9-13.5-26.6-25-3.2-5.6-2-4.4-3.4-11s7.5-36.3,6.3-42.7-17,1.5-18.2-6.2a14.2,14.2,0,0,1,.1-4.1c.4-3.4,2.3-4.6,4.7-2.8a36.5,36.5,0,0,1,6,5.8c4.4,5,8.7,10.1,11.8,16.4,5.4,10.9,10.6,21.8,16.1,32.6a124.7,124.7,0,0,0,6.8,11.8c2.5,4.1,5.2,12.9,5.2,17.8C1163.8,531,1158.7,533.7,1154.3,531.9Zm20.6,14.8a3.1,3.1,0,0,1-3.4-3.3c0-2.2,2.3-4.6,4.4-4.6a4,4,0,0,1,3.5,3.7A4.2,4.2,0,0,1,1174.9,546.7Zm10.5,12.5c-2.2-.1-3.5-1.7-3.5-4.1s1.2-3.2,2.9-3,4.5,2,4.4,4A3.6,3.6,0,0,1,1185.4,559.2Zm5.2-14.3a3.8,3.8,0,0,1,3.8-4c2.5,0,4.6,1.8,4.6,4a4,4,0,0,1-4.1,4C1192.3,548.9,1190.6,547.3,1190.6,544.9Zm8.6,16.6c-2.1.1-3.3-1-3.3-3s2.5-5.1,5.1-5.2a3.1,3.1,0,0,1,3.1,3.4A4.6,4.6,0,0,1,1199.2,561.5Zm-2.1-28.8c-2.2.5-4.6-.2-6.9-.4a13.8,13.8,0,0,1-9.9-6.6c-5.4-8.3-10.7-16.9-15.7-25.6-3.6-6.3-6.6-13.1-10.2-19.3s-9.1-14.8-13.5-22.3a133.2,133.2,0,0,1-6.1-12.6c-.9-2-1.2-4.4.2-6.3s3.9-1.5,5.9-.9-8,15.1-6.5,16.2c10.9,7.8,32.1,3.4,40.5,14.7,4.9,6.6,10.4,12.8,15.3,19.4a140.6,140.6,0,0,1,10.3,16,28.9,28.9,0,0,1,3.7,15.1C1204.6,526.4,1200.9,531.9,1197.1,532.7Zm15.4,22.5c-1.4-.1-3.2-2.1-3-3.5a2.4,2.4,0,0,1,2.7-2.2c2.3.1,3.5,1.2,3.5,2.9A3,3,0,0,1,1212.5,555.2Zm9.8-11.3a8.2,8.2,0,0,1-3.1,1.1,2.5,2.5,0,0,1-1.9-.5,2.5,2.5,0,0,1-.4-2.1c.5-2.7,4.5-4.4,6.4-2.7a15.2,15.2,0,0,1,1.2,2.1A10.7,10.7,0,0,1,1222.3,543.9Zm16.6,6.3c-2.7,2.9-5.5,5.6-10.1,6.1a9.8,9.8,0,0,1-2.2-2.3,3.8,3.8,0,0,1,.7-4.4,10.9,10.9,0,0,1,10.2-3.1A2.3,2.3,0,0,1,1238.9,550.2Zm2.5-11.4c-2,0-3.7-1.2-3.7-2.8s2.2-3.7,4.5-3.7,2.9,1.1,2.9,2.8A3.5,3.5,0,0,1,1241.4,538.8Zm-2.5-15c-3,2.8-6.1,3.3-9.4,1.2s-5.1-5.4-7.3-8.5c-8.6-12.2-17-24.7-25.9-36.6-5.3-7-11.4-13.3-17.2-19.8-1.6-1.9-1.4-3.8.7-5,4-2.4-15.2-5.3-11-3.5,10.7,4.4,43.6,13.9,52.6,21.7,7.2,6.3,13.8,13.5,20.4,20.6,3.4,3.6,3.9,6,4,12.3S1244,519.1,1238.9,523.8Zm17.9,10.7a7.4,7.4,0,0,1-2.8-.6c-.8-.5-1.8-1.8-1.7-2.5a3.5,3.5,0,0,1,2-2.5,5.2,5.2,0,0,1,3.7.5,5,5,0,0,1,1.7,3.2C1259.7,534.2,1258.3,534.5,1256.8,534.5Zm.4-12.2a2.9,2.9,0,0,1-3-2.8,2.8,2.8,0,0,1,2.7-2.7,3.2,3.2,0,0,1,3.1,3A2.7,2.7,0,0,1,1257.2,522.3Zm-3.2-28c-6.9-5.5-13.2-11.8-19.7-17.9a107,107,0,0,1-10.1-10.1c-4-4.8-5.5-10.9-5.2-17.5a4,4,0,0,1,1.6-2.8c2.3-1.2,4.8-1.9,7.3-.6l37.1,18.4c1.2.7,2.3,1.7,3.5,2.3,3.5,1.8,4.7,5.1,4.6,9.3h.4c-1.1,4.8-1.5,10-3.4,14.3C1266.6,497.6,1260.8,499.8,1254,494.3Zm11.5,20.7a3.8,3.8,0,0,1-3.7-3.9,2.8,2.8,0,0,1,3.1-2.8c2.5,0,3.7,1.1,3.7,3.1S1267.4,515,1265.5,515Zm10.4,6.8a5.6,5.6,0,0,1-3.9,4.1c-1.7.6-3-.3-4-2s-.7-3.1.8-3.9a26.3,26.3,0,0,1,3.5-1.5,8.9,8.9,0,0,1,2.6,1.1A3.4,3.4,0,0,1,1275.9,521.8Zm2.1-12.4c-1.8,0-2.9-1.3-2.9-3.2s1.6-4.5,3.3-4.4,3,1.8,3,3.9A3.6,3.6,0,0,1,1278,509.4Zm6-28.2a3.6,3.6,0,0,1-3.5-4.1,2.8,2.8,0,0,1,3.1-3c1.9,0,3.3,1.5,3.3,3.7A3.1,3.1,0,0,1,1284,481.2Zm1.7-27.9a3.9,3.9,0,0,1,3.5-4,4.5,4.5,0,0,1,4.3,4.6,3.9,3.9,0,0,1-3.9,4C1287.6,457.9,1285.8,455.8,1285.7,453.3Zm6.8,12.9c1.7,0,3.5,2.1,3.5,4.1s-1.2,3.5-2.7,3.5-3.7-2.4-3.7-4.4A3.2,3.2,0,0,1,1292.5,466.2Zm1.1,20.5c-1.7,0-3.4-1.9-3.4-3.8a3.1,3.1,0,0,1,2.8-2.9c1.7,0,3.1,1.8,3.1,3.9S1295.2,486.7,1293.6,486.7Zm3.3-23.8a3.1,3.1,0,0,1-3.1-2.7c0-1.9,2.1-3.8,4.3-3.8s2.1.9,2.3,2.3A4.1,4.1,0,0,1,1296.9,462.9Zm2.4-15.2c-2.1,0-3.6-1.4-3.6-3a2.5,2.5,0,0,1,2.4-2.6c2.1.1,3.6,1.3,3.4,3.1A2.4,2.4,0,0,1,1299.3,447.7Zm5.5-14.2a8.6,8.6,0,0,1-1.4,2.5c-1.9-.3-2.8-1.2-2.8-2.8s.7-2.5,2.1-2.4A2.3,2.3,0,0,1,1304.8,433.5Zm-2.7-23.2c1.9,1,2.5,2.9,2.4,5.2v1.1h.4a36.6,36.6,0,0,1-1.7,5.9,3,3,0,0,1-2.1,1.9,3.6,3.6,0,0,1-2.5-1.8,35.4,35.4,0,0,1-1.9-3.9,5.3,5.3,0,0,1,.3-5.8C1298.5,410.9,1300.7,409.6,1302.1,410.3Zm-6.5-11.4c1.3,0,2.9,2.4,3,4.3s-1.1,3-2.4,3a3.7,3.7,0,0,1-3.6-3.6C1292.6,400.7,1294.1,398.9,1295.6,398.9ZM1284,381.8c.1-.7,1.3-1.2,2.1-1.8a13.6,13.6,0,0,1,3.2,2.1,21.2,21.2,0,0,1,3.5,4.8c.4.9.6,2.7.1,3.4s-2,.6-2.9.3-1.6-1.3-2.3-2.1a23.7,23.7,0,0,1-2.9-3.4A6.4,6.4,0,0,1,1284,381.8Zm.1,12.1c1.2,0,3.1,2.6,3,4.3s-1.9,2.1-3.2,2.5-2.2-1-2.2-2.7S1282.5,393.9,1284.1,393.9Zm-4.6-28.1c1.3-.1,2.3,1.4,2.4,4-.4.4-1.1,1.4-1.9,1.6s-2.2-1.5-2.3-3.2S1278.3,365.8,1279.5,365.8Zm-4.5,7.3c.8,1.5,1.7,2,3.2,1.6s2.9-.4,3.3,1.7-1.4,2.8-3.2,2.8-5-2.2-5.6-4.5a6.6,6.6,0,0,1,.4-2.7C1273.7,372.3,1274.6,372.5,1275,373.1Zm-11.4-11.2c.7-1.3,1.5-2.3,2.9-1.9a18.9,18.9,0,0,1,3.4.9,3.7,3.7,0,0,1,1.7,1.8,46.8,46.8,0,0,1,1.1,4.7c-.2.5-.4,1.4-.9,1.6a1.9,1.9,0,0,1-1.8,0c-2-1.4-3.8-2.8-5.7-4.3A2.2,2.2,0,0,1,1263.6,361.9Zm-26.8-1c5.8.7,11.6.5,17.4,1.3a18.3,18.3,0,0,1,7.8,3.5c2.8,2.3,5.1,5.3,7.6,8.1a3.6,3.6,0,0,1,.6,4.2c-.9,1.5-2.2,1.3-3.5.9l-25.5-6.5c-8.4-2.2-16.9-4.5-25.4-6.6a40.3,40.3,0,0,1-10.9-4.2c-1.1-.7-2.4-.6-3.6-1a2.6,2.6,0,0,1-2.1-3.2c.3-1.8,1.6-2,2.9-2.1l14.8,2.5C1223.5,358.9,1230.2,360.2,1236.8,360.9Zm55-282.3c.1,2.8-2,4.7-5.2,4.6h-.2c-3,0-4.9-1.6-5-3.9s2.3-4.6,5-4.8S1291.7,76,1291.8,78.6ZM1277,65.8c1.3-3.4,5.2-5.9,8.4-5.4a4.6,4.6,0,0,1,2,8.1c-3.6,3.6-4.4,3.7-6.7,3.9S1275.7,69.2,1277,65.8Zm-16.3,2.4c1.5-2.9,7-4.5,9.4-2.5.8.6,1.2,1.8,1.8,2.6s-.5,1.5-.8,2c-1.2,2.1-6.2,4.2-8.3,3.6S1259.5,70.6,1260.7,68.2Zm-6.4,59.2c2.8-5.1,5.3-10.6,8.7-15.1a27.1,27.1,0,0,1,15.4-10.1,11.4,11.4,0,0,1,9.2,1.9c3.4,2.2,3.4,8.3.1,10.9-5.2,4-10.5,7.9-15.5,12.1a69.9,69.9,0,0,0-7.2,7.2c-1.7,1.9-3.7,2.9-5.9,2.6s-4.4.1-5.5-2.3A7.7,7.7,0,0,1,1254.3,127.4Zm18.5,36.8c-.1.8-1,1.5-1.5,2.3s-3.1-.7-3-2.7.8-2.6,2.2-2.6S1273.1,162.8,1272.8,164.2Zm-26.4-18.9c1-3.2,2.6-5.6,5.9-5.5,1.4,0,2.8-.3,4-.4l2.4.2c5.5,1,8.1,6.3,6,12.3a4.9,4.9,0,0,1-4.7,3.6,20.6,20.6,0,0,1-11.3-3C1246.3,151,1245.5,148.3,1246.4,145.3Zm.3,128.8c1.6.1,2,1.5,2.1,2.8s-1,3.9-2.6,3.8a2.9,2.9,0,0,1-2.7-2.9C1243.6,276.3,1245.5,274,1246.7,274.1Zm-2.6-55.2a4.8,4.8,0,0,1,4.3-4.2,4.7,4.7,0,0,1,4.3,4.4c0,1.9-1.7,3.8-3.4,3.8S1244.1,221,1244.1,218.9Zm2.7,41.1c0-2.7,2.1-5.6,4.3-6.2a2.9,2.9,0,0,1,3.6,1.9,3.7,3.7,0,0,1-.8,4.5l-4.6,3.1A2.8,2.8,0,0,1,1246.8,260Zm4.3-13.7a10.5,10.5,0,0,1-2.6-1.1,4.2,4.2,0,0,1-.5-5.9,3.7,3.7,0,0,1,4.5-1,5.5,5.5,0,0,1,3.4,4.3C1256.2,244.8,1254.4,246.4,1251.1,246.3Zm1.1-38.4a4,4,0,0,1-1.8-2.8,3.9,3.9,0,0,1,1.6-2.8c.7-.6,1.8-.6,2.8-.9a5.6,5.6,0,0,1,5.4,4.5c.5,1.9-.1,3.1-1.8,3A21.7,21.7,0,0,1,1252.2,207.9Zm6.4-15.8a2.1,2.1,0,0,1,.4-1.9,13.9,13.9,0,0,1,3.8-2.5c.4-.3,1.4.2,1.7.7a2.2,2.2,0,0,1-.1,2.1,43.1,43.1,0,0,1-4,3.2C1259.6,193,1258.8,192.7,1258.6,192.1Zm-24.8-88.3c3.6.3,6.2,2.8,8.3,5.9a9.1,9.1,0,0,1,1.1,3.4,18.9,18.9,0,0,1-1,3.6c-2.2,5.1-5.4,8.9-10.3,10.2-2.4.7-4.8,1.7-7.2,2.2a4.9,4.9,0,0,1-3.6-1c-3.3-2.8-4.8-6.9-5.5-11.4s3.2-9.8,6.4-11.1A25.2,25.2,0,0,1,1233.8,103.8Zm-18.3-7.9c3.3-1.2,6.6-2.1,9.9-3.1,1.1.6,2.4.9,2.6,1.6a4.3,4.3,0,0,1-.6,3.3c-2.8,4-6.8,5.1-11,5.2-1.5,0-2.8-1.3-3.1-3.2A3.4,3.4,0,0,1,1215.5,95.9Zm6.4,46.2a25.1,25.1,0,0,1,4.6-1.6c2.6-.6,4.6.5,5.3,2.6s.5,5.8-1.6,7.7a6.4,6.4,0,0,1-2.5,1.8l-14.5,4.7a1.3,1.3,0,0,1-.1-.6,10.1,10.1,0,0,1-7.4-2.5c-2.2-1.6-2.1-4.3.4-5.4C1211.3,146.4,1216.6,144.3,1221.9,142.1Zm-37.2-27.4c-.5-2.4.1-4.6,2.1-5.6a45.6,45.6,0,0,1,7.1-2.4c1.7-.4,2.8,1.3,2.2,3.3a16.4,16.4,0,0,1-1.6,2.9c-.6,1.1-1.3,2.1-1.8,3.2a4.1,4.1,0,0,1-3.7,2.5A4.2,4.2,0,0,1,1184.7,114.7Zm3.7,24.7a4.5,4.5,0,0,1-.6-6.8,15.9,15.9,0,0,1,4.3-3.6,36.7,36.7,0,0,1,7.9-3.5c2.5-.6,3.7.7,4.5,3.6s.6,2.8.8,3.8c-.7,6.5-5.4,12.8-11.4,9.9A24,24,0,0,1,1188.4,139.4Zm39.5,114.2c-2.1,2.7-37.2-24.5-40.1-22.7-4.8,3,23.6,39.1,18.4,39.3-10.1.3-20.2.1-30.3.1v.4c-7.6,0-18.1-9.3-25.6-9.1-4.9.2-6.7,9.9-11.6,10.3a48.5,48.5,0,0,1-6.6,0c-2.8-.2-4-2.6-2.7-5.5,4.2-8.5,9-16.2,16.6-21.2a67.6,67.6,0,0,1,21.4-9.3c6.8-1.6,13.6-3.2,20.4-5s14.7-4.1,22-6.4a52.3,52.3,0,0,1,17.9-2.7c5.3.2,7.5,3.4,8.6,8.1C1239.1,241.7,1234.7,244.6,1227.9,253.6Zm2.5-45L1218,213l-27.2,10.1c-4.9,1.8-9.9,3.3-15.1,2.9-2.8-.3-4-2.2-2.7-5,3.3-7.3,6.4-14.8,10.3-21.7s10.8-15,17-21.6c2.2-2.4,5.1-3.8,7.8-5.4,4.5-2.7,9-5.3,13.7-7.6,7.1-3.4,14.7-4,23.8-4.6,2.3.4,6.2,1,9.9,1.9s5.3,3.2,7.2,5.8,1.3,4.7.8,7.2c-1.9,9.7-7,16.4-13.7,21.7S1237.6,206.2,1230.4,208.6Zm13.5,117.1c-1.8.1-3.1-1.8-3.1-4.2s1.2-3.5,3.1-3.5a3.5,3.5,0,0,1,3.6,3.7A3.7,3.7,0,0,1,1243.9,325.7Zm2.9-31.2c-.1-1.7,2.2-3.6,4.8-3.6a7.3,7.3,0,0,1,1.2,2.5c.2,1.7-1.8,3.4-3.8,3.4A2,2,0,0,1,1246.8,294.5ZM1252,309a2.5,2.5,0,0,1-2.7-2.7c0-2.2,1.7-4.4,3.4-4.5a3.5,3.5,0,0,1,3.6,3.4A4.1,4.1,0,0,1,1252,309Zm8-33.2a28.5,28.5,0,0,1-2,5.1c-.6,1.1-1.6,1.1-2.4.2s-1.7-5.8-.5-7.5a4.7,4.7,0,0,1,1.7-1.4A2.9,2.9,0,0,1,1260,275.8Zm.4-14.7c-1.6,0-2.7-1.6-2.6-3.7s1.4-4,2.8-4,2.6,1.9,2.5,3.9S1261.7,261.2,1260.4,261.1Zm2.4-15.5a3,3,0,0,1-3.2-3.3c-.1-1.9.9-3.1,2.5-3.1a2.8,2.8,0,0,1,2.8,3C1265,244.1,1264,245.6,1262.8,245.6Zm.6-19.5a8.7,8.7,0,0,1-3.4-3.7c-.5-1.3,1.2-2.7,3-2.7a3.1,3.1,0,0,1,3,3.2C1266,224.5,1264.4,226.7,1263.4,226.1Zm4.2-17.7c-.9-1.3-1.8-2.1-1.8-2.8s1-1.5,1.5-2.2,1.6,1.2,1.8,2S1268.3,207,1267.6,208.4Zm2.2-25.6a3.5,3.5,0,0,1-3.6-3.6c0-2.9,1.6-5,3.9-4.9a4.2,4.2,0,0,1,4.1,4A4.5,4.5,0,0,1,1269.8,182.8Zm7,10.8a4,4,0,0,1-3.4-3.8c.1-1.6,1.5-2.6,3.6-2.4s2.5.6,2.6,2.3S1278,193.7,1276.8,193.6Zm3.2-45.3c-1.5-1.7-1.5-3.8.2-5.2a8.3,8.3,0,0,1,7.7-1.6c1.8.5,2.6,2.1,2.5,4.5s-.9,3.7-2.7,4.3a10.9,10.9,0,0,1-2.6.4A5.7,5.7,0,0,1,1280,148.3Zm3.6,30.8c-.5.1-1.8-1.3-1.7-2s1-1.7,1.9-3l2.3,2.9C1285.3,177.8,1284.5,178.9,1283.6,179.1Zm4.9-13.8a11.1,11.1,0,0,1-3.3-3.8,1.7,1.7,0,0,1,1.3-2.4c1.3-.3,4.1,2.7,4.2,4.3S1289.5,166.1,1288.5,165.3Zm2.7-35.4c-.4,1.5-1.2,2.6-2.7,2.5a3.2,3.2,0,0,1-2.8-3.2,17.3,17.3,0,0,1,1.2-6c.3-.7,1.9-1.1,2.8-.9s2.2,2.1,2.2,4.6A30.1,30.1,0,0,1,1291.2,129.9Zm4.9-47.8c-.2-1.3,0-3.3.8-4s3-1.8,4.6-2.7,3.1.4,3.6,2.3a3.7,3.7,0,0,1-1.6,4.2,15.1,15.1,0,0,1-5.3,2.1C1297.6,84.1,1296.2,82.9,1296.1,82.1Zm5.2,26.5c-2.3,0-4-2.5-3.9-6s2.4-6.1,4.6-6.1,4.4,3,4.4,5.8S1303.9,108.6,1301.3,108.6Z" transform="translate(-353.2 -33.9)"/><path class="b" d="M1099.5,228.5h53.6c38.6,0,57.2,16.7,57.2,51.8v9.1c0,30.7-11.4,40.4-22.2,44.5,10.5,4.3,25.9,12.7,25.9,44.3v18.1c0,39.7-16.5,59.2-58,59.2h-56.5Zm49.2,89.4c14.7,0,19.8-4.7,19.8-22.1V284.1c0-14.6-4.7-21.2-18.5-21.2h-8.2v55Zm-6.9,103.6h8.7c15.6,0,19.3-7.2,19.3-24.1V376.6c0-17.6-4.2-25.1-22.1-25.1h-5.9Z" transform="translate(-353.2 -33.9)"/></svg>