0
SECTION
2
HEADER
9
$INSUNITS
70
4
9
$ACADVER
1
AC1014
9
$HANDSEED
5
FFFF
0
ENDSEC
0
SECTION
2
TABLES
0
TABLE
2
VPORT
5
8
100
AcDbSymbolTable
0
ENDTAB
0
TABLE
2
LTYPE
5
5
100
AcDbSymbolTable
0
LTYPE
5
14
100
AcDbSymbolTableRecord
100
AcDbLinetypeTableRecord
2
BYBLOCK
70
0
0
LTYPE
5
15
100
AcDbSymbolTableRecord
100
AcDbLinetypeTableRecord
2
BYLAYER
70
0
0
ENDTAB
0
TABLE
2
LAYER
5
2
100
AcDbSymbolTable
70
2
0
LAYER
5
50
100
AcDbSymbolTableRecord
100
AcDbLayerTableRecord
2
0
70
0
6
CONTINUOUS
0
ENDTAB
0
TABLE
2
STYLE
5
3
100
AcDbSymbolTable
70
1
0
STYLE
5
11
100
AcDbSymbolTableRecord
100
AcDbTextStyleTableRecord
2
STANDARD
70
0
0
ENDTAB
0
TABLE
2
VIEW
5
6
100
AcDbSymbolTable
70
0
0
ENDTAB
0
TABLE
2
UCS
5
7
100
AcDbSymbolTable
70
0
0
ENDTAB
0
TABLE
2
APPID
5
9
100
AcDbSymbolTable
70
2
0
APPID
5
12
100
AcDbSymbolTableRecord
100
AcDbRegAppTableRecord
2
ACAD
70
0
0
ENDTAB
0
TABLE
2
DIMSTYLE
5
A
100
AcDbSymbolTable
70
1
0
ENDTAB
0
TABLE
2
BLOCK_RECORD
5
1
100
AcDbSymbolTable
70
1
0
BLOCK_RECORD
5
1F
100
AcDbSymbolTableRecord
100
AcDbBlockTableRecord
2
*MODEL_SPACE
0
BLOCK_RECORD
5
1B
100
AcDbSymbolTableRecord
100
AcDbBlockTableRecord
2
*PAPER_SPACE
0
ENDTAB
0
ENDSEC
0
SECTION
2
BLOCKS
0
BLOCK
5
20
100
AcDbEntity
100
AcDbBlockBegin
2
*MODEL_SPACE
0
ENDBLK
5
21
100
AcDbEntity
100
AcDbBlockEnd
0
BLOCK
5
1C
100
AcDbEntity
100
AcDbBlockBegin
2
*PAPER_SPACE
0
ENDBLK
5
1D
100
AcDbEntity
100
AcDbBlockEnd
0
ENDSEC
0
SECTION
2
ENTITIES
0
LINE
5
100
100
AcDbEntity
8
0
100
AcDbLine
10
-31
20
-96.000000000000298
30
0
11
-31
21
-78.000000000000128
31
0
0
LINE
5
101
100
AcDbEntity
8
0
100
AcDbLine
10
-31
20
-78.000000000000128
30
0
11
-26.999999999999996
21
-78.000000000000128
31
0
0
LINE
5
102
100
AcDbEntity
8
0
100
AcDbLine
10
-26.999999999999996
20
-78.000000000000128
30
0
11
-26.999999999999993
21
-96
31
0
0
LINE
5
103
100
AcDbEntity
8
0
100
AcDbLine
10
-26.999999999999993
20
-96
30
0
11
-26.785714285714288
21
-96.000000000000298
31
0
0
LINE
5
104
100
AcDbEntity
8
0
100
AcDbLine
10
-26.785714285714288
20
-96.000000000000298
30
0
11
-26.785714285714288
21
-92.000000000000298
31
0
0
LINE
5
105
100
AcDbEntity
8
0
100
AcDbLine
10
-26.785714285714288
20
-92.000000000000298
30
0
11
-8.9285714285714324
21
-92.000000000000298
31
0
0
LINE
5
106
100
AcDbEntity
8
0
100
AcDbLine
10
-8.9285714285714324
20
-92.000000000000298
30
0
11
-8.9285714285714306
21
-96.000000000000298
31
0
0
LINE
5
107
100
AcDbEntity
8
0
100
AcDbLine
10
-8.9285714285714306
20
-96.000000000000298
30
0
11
-2.0000000000000009
21
-96.000000000000298
31
0
0
LINE
5
108
100
AcDbEntity
8
0
100
AcDbLine
10
-2.0000000000000009
20
-96.000000000000298
30
0
11
-2
21
-78.000000000000128
31
0
0
LINE
5
109
100
AcDbEntity
8
0
100
AcDbLine
10
-2
20
-78.000000000000128
30
0
11
2
21
-78.000000000000128
31
0
0
LINE
5
110
100
AcDbEntity
8
0
100
AcDbLine
10
2
20
-78.000000000000128
30
0
11
1.9999999999999929
21
-96
31
0
0
LINE
5
111
100
AcDbEntity
8
0
100
AcDbLine
10
1.9999999999999929
20
-96
30
0
11
8.928571428571427
21
-96.000000000000298
31
0
0
LINE
5
112
100
AcDbEntity
8
0
100
AcDbLine
10
8.928571428571427
20
-96.000000000000298
30
0
11
8.928571428571427
21
-92.000000000000298
31
0
0
LINE
5
113
100
AcDbEntity
8
0
100
AcDbLine
10
8.928571428571427
20
-92.000000000000298
30
0
11
26.785714285714285
21
-92.000000000000298
31
0
0
LINE
5
114
100
AcDbEntity
8
0
100
AcDbLine
10
26.785714285714285
20
-92.000000000000298
30
0
11
26.785714285714285
21
-96.000000000000298
31
0
0
LINE
5
115
100
AcDbEntity
8
0
100
AcDbLine
10
26.785714285714285
20
-96.000000000000298
30
0
11
26.999999999999996
21
-96.000000000000298
31
0
0
LINE
5
116
100
AcDbEntity
8
0
100
AcDbLine
10
26.999999999999996
20
-96.000000000000298
30
0
11
26.999999999999996
21
-78.000000000000128
31
0
0
LINE
5
117
100
AcDbEntity
8
0
100
AcDbLine
10
26.999999999999996
20
-78.000000000000128
30
0
11
31
21
-78.000000000000128
31
0
0
LINE
5
118
100
AcDbEntity
8
0
100
AcDbLine
10
31
20
-78.000000000000128
30
0
11
31
21
-96.000000000000298
31
0
0
LINE
5
119
100
AcDbEntity
8
0
100
AcDbLine
10
31
20
-96.000000000000298
30
0
11
32.999999999999986
21
-96
31
0
0
LINE
5
120
100
AcDbEntity
8
0
100
AcDbLine
10
37
20
-89.999999999999986
30
0
11
37
21
-96
31
0
0
LINE
5
121
100
AcDbEntity
8
0
100
AcDbLine
10
32.999999999999993
20
-89.999999999999972
30
0
11
37
21
-89.999999999999986
31
0
0
LINE
5
122
100
AcDbEntity
8
0
100
AcDbLine
10
33
20
-96
30
0
11
33
21
-89.999999999999986
31
0
0
LINE
5
123
100
AcDbEntity
8
0
100
AcDbLine
10
44.642857142857146
20
-96.000000000000298
30
0
11
44.642857142857146
21
-92.000000000000298
31
0
0
LINE
5
124
100
AcDbEntity
8
0
100
AcDbLine
10
44.642857142857146
20
-92.000000000000298
30
0
11
56
21
-92.000000000000298
31
0
0
LINE
5
125
100
AcDbEntity
8
0
100
AcDbLine
10
56
20
-92.000000000000298
30
0
11
56
21
-78.000000000000128
31
0
0
LINE
5
126
100
AcDbEntity
8
0
100
AcDbLine
10
56
20
-78.000000000000128
30
0
11
60
21
-78.000000000000128
31
0
0
LINE
5
127
100
AcDbEntity
8
0
100
AcDbLine
10
60
20
-78.000000000000128
30
0
11
60
21
-92.000000000000298
31
0
0
LINE
5
128
100
AcDbEntity
8
0
100
AcDbLine
10
60
20
-92.000000000000298
30
0
11
62.5
21
-92.000000000000298
31
0
0
LINE
5
129
100
AcDbEntity
8
0
100
AcDbLine
10
62.5
20
-92.000000000000298
30
0
11
62.5
21
-96.000000000000298
31
0
0
LINE
5
130
100
AcDbEntity
8
0
100
AcDbLine
10
62.5
20
-96.000000000000298
30
0
11
80.357142857142861
21
-96.000000000000298
31
0
0
LINE
5
131
100
AcDbEntity
8
0
100
AcDbLine
10
80.357142857142861
20
-96.000000000000298
30
0
11
80.357142857142861
21
-92.000000000000298
31
0
0
LINE
5
132
100
AcDbEntity
8
0
100
AcDbLine
10
80.357142857142861
20
-92.000000000000298
30
0
11
85
21
-92.000000000000298
31
0
0
LINE
5
133
100
AcDbEntity
8
0
100
AcDbLine
10
85
20
-92.000000000000298
30
0
11
85
21
-78.000000000000128
31
0
0
LINE
5
134
100
AcDbEntity
8
0
100
AcDbLine
10
85
20
-78.000000000000128
30
0
11
88.999999999999986
21
-78.000000000000128
31
0
0
LINE
5
135
100
AcDbEntity
8
0
100
AcDbLine
10
88.999999999999986
20
-78.000000000000128
30
0
11
88.999999999999986
21
-92.000000000000298
31
0
0
LINE
5
136
100
AcDbEntity
8
0
100
AcDbLine
10
88.999999999999986
20
-92.000000000000298
30
0
11
98.214285714285722
21
-92.000000000000298
31
0
0
LINE
5
137
100
AcDbEntity
8
0
100
AcDbLine
10
98.214285714285722
20
-92.000000000000298
30
0
11
98.214285714285722
21
-96.000000000000298
31
0
0
LINE
5
138
100
AcDbEntity
8
0
100
AcDbLine
10
98.214285714285722
20
-96.000000000000298
30
0
11
116.07142857142858
21
-96.000000000000298
31
0
0
LINE
5
139
100
AcDbEntity
8
0
100
AcDbLine
10
116.07142857142858
20
-96.000000000000298
30
0
11
116.07142857142858
21
-92.000000000000298
31
0
0
LINE
5
140
100
AcDbEntity
8
0
100
AcDbLine
10
116.07142857142858
20
-92.000000000000298
30
0
11
121.00000000000001
21
-92.000000000000298
31
0
0
LINE
5
141
100
AcDbEntity
8
0
100
AcDbLine
10
121.00000000000001
20
-92.000000000000298
30
0
11
121
21
80.000000000000014
31
0
0
LINE
5
142
100
AcDbEntity
8
0
100
AcDbLine
10
121
20
80.000000000000014
30
0
11
88.999999999999986
21
79.999999999999986
31
0
0
LINE
5
143
100
AcDbEntity
8
0
100
AcDbLine
10
88.999999999999986
20
79.999999999999986
30
0
11
88.999999999999986
21
61.999999999999872
31
0
0
LINE
5
144
100
AcDbEntity
8
0
100
AcDbLine
10
88.999999999999986
20
61.999999999999872
30
0
11
85
21
61.999999999999872
31
0
0
LINE
5
145
100
AcDbEntity
8
0
100
AcDbLine
10
85
20
61.999999999999872
30
0
11
85
21
79.999999999999986
31
0
0
LINE
5
146
100
AcDbEntity
8
0
100
AcDbLine
10
85
20
79.999999999999986
30
0
11
76.500000000000071
21
80.000000000000014
31
0
0
ARC
5
147
100
AcDbEntity
8
0
100
AcDbCircle
10
72.500000000000071
20
80.000000000000014
30
0
40
4.0000000000000036
210
0
220
0
230
1
100
AcDbArc
50
-180
51
0
0
LINE
5
148
100
AcDbEntity
8
0
100
AcDbLine
10
68.500000000000071
20
80.000000000000014
30
0
11
60
21
79.999999999999986
31
0
0
LINE
5
149
100
AcDbEntity
8
0
100
AcDbLine
10
60
20
79.999999999999986
30
0
11
60
21
61.999999999999872
31
0
0
LINE
5
150
100
AcDbEntity
8
0
100
AcDbLine
10
60
20
61.999999999999872
30
0
11
56
21
61.999999999999872
31
0
0
LINE
5
151
100
AcDbEntity
8
0
100
AcDbLine
10
56
20
61.999999999999872
30
0
11
56
21
79.999999999999986
31
0
0
LINE
5
152
100
AcDbEntity
8
0
100
AcDbLine
10
56
20
79.999999999999986
30
0
11
47.500000000000071
21
80.000000000000014
31
0
0
ARC
5
153
100
AcDbEntity
8
0
100
AcDbCircle
10
43.500000000000078
20
80.000000000000014
30
0
40
3.9999999999999991
210
0
220
0
230
1
100
AcDbArc
50
-180
51
0
0
LINE
5
154
100
AcDbEntity
8
0
100
AcDbLine
10
39.500000000000078
20
80.000000000000014
30
0
11
31
21
79.999999999999986
31
0
0
LINE
5
155
100
AcDbEntity
8
0
100
AcDbLine
10
31
20
79.999999999999986
30
0
11
31
21
61.999999999999872
31
0
0
LINE
5
156
100
AcDbEntity
8
0
100
AcDbLine
10
31
20
61.999999999999872
30
0
11
26.999999999999996
21
61.999999999999872
31
0
0
LINE
5
157
100
AcDbEntity
8
0
100
AcDbLine
10
26.999999999999996
20
61.999999999999872
30
0
11
26.999999999999996
21
79.999999999999986
31
0
0
LINE
5
158
100
AcDbEntity
8
0
100
AcDbLine
10
26.999999999999996
20
79.999999999999986
30
0
11
18.500000000000078
21
80.000000000000014
31
0
0
ARC
5
159
100
AcDbEntity
8
0
100
AcDbCircle
10
14.500000000000075
20
80.000000000000014
30
0
40
4.0000000000000018
210
0
220
0
230
1
100
AcDbArc
50
-180
51
0
0
LINE
5
160
100
AcDbEntity
8
0
100
AcDbLine
10
10.500000000000075
20
80.000000000000014
30
0
11
1.9999999999999996
21
79.999999999999986
31
0
0
LINE
5
161
100
AcDbEntity
8
0
100
AcDbLine
10
1.9999999999999996
20
79.999999999999986
30
0
11
2
21
61.999999999999872
31
0
0
LINE
5
162
100
AcDbEntity
8
0
100
AcDbLine
10
2
20
61.999999999999872
30
0
11
-2
21
61.999999999999872
31
0
0
LINE
5
163
100
AcDbEntity
8
0
100
AcDbLine
10
-2
20
61.999999999999872
30
0
11
-2
21
79.999999999999986
31
0
0
LINE
5
164
100
AcDbEntity
8
0
100
AcDbLine
10
-2
20
79.999999999999986
30
0
11
-10.499999999999918
21
80.000000000000014
31
0
0
ARC
5
165
100
AcDbEntity
8
0
100
AcDbCircle
10
-14.49999999999992
20
80.000000000000014
30
0
40
4.0000000000000018
210
0
220
0
230
1
100
AcDbArc
50
-180
51
0
0
LINE
5
166
100
AcDbEntity
8
0
100
AcDbLine
10
-18.499999999999922
20
80.000000000000014
30
0
11
-26.999999999999996
21
79.999999999999986
31
0
0
LINE
5
167
100
AcDbEntity
8
0
100
AcDbLine
10
-26.999999999999996
20
79.999999999999986
30
0
11
-26.999999999999996
21
61.999999999999872
31
0
0
LINE
5
168
100
AcDbEntity
8
0
100
AcDbLine
10
-26.999999999999996
20
61.999999999999872
30
0
11
-31
21
61.999999999999872
31
0
0
LINE
5
169
100
AcDbEntity
8
0
100
AcDbLine
10
-31
20
61.999999999999872
30
0
11
-31
21
79.999999999999986
31
0
0
LINE
5
170
100
AcDbEntity
8
0
100
AcDbLine
10
-31
20
79.999999999999986
30
0
11
-39.499999999999922
21
80.000000000000014
31
0
0
ARC
5
171
100
AcDbEntity
8
0
100
AcDbCircle
10
-43.499999999999929
20
80.000000000000014
30
0
40
4.0000000000000036
210
0
220
0
230
1
100
AcDbArc
50
-180
51
0
0
LINE
5
172
100
AcDbEntity
8
0
100
AcDbLine
10
-47.499999999999929
20
80.000000000000014
30
0
11
-56
21
79.999999999999986
31
0
0
LINE
5
173
100
AcDbEntity
8
0
100
AcDbLine
10
-56
20
79.999999999999986
30
0
11
-56
21
61.999999999999872
31
0
0
LINE
5
174
100
AcDbEntity
8
0
100
AcDbLine
10
-56
20
61.999999999999872
30
0
11
-60
21
61.999999999999872
31
0
0
LINE
5
175
100
AcDbEntity
8
0
100
AcDbLine
10
-60
20
61.999999999999872
30
0
11
-60
21
79.999999999999986
31
0
0
LINE
5
176
100
AcDbEntity
8
0
100
AcDbLine
10
-60
20
79.999999999999986
30
0
11
-68.499999999999929
21
80.000000000000014
31
0
0
ARC
5
177
100
AcDbEntity
8
0
100
AcDbCircle
10
-72.499999999999929
20
80.000000000000014
30
0
40
4.0000000000000036
210
0
220
0
230
1
100
AcDbArc
50
-180
51
0
0
LINE
5
178
100
AcDbEntity
8
0
100
AcDbLine
10
-76.499999999999929
20
80.000000000000014
30
0
11
-85
21
79.999999999999986
31
0
0
LINE
5
179
100
AcDbEntity
8
0
100
AcDbLine
10
-85
20
79.999999999999986
30
0
11
-85
21
61.999999999999872
31
0
0
LINE
5
180
100
AcDbEntity
8
0
100
AcDbLine
10
-85
20
61.999999999999872
30
0
11
-88.999999999999986
21
61.999999999999872
31
0
0
LINE
5
181
100
AcDbEntity
8
0
100
AcDbLine
10
-88.999999999999986
20
61.999999999999872
30
0
11
-88.999999999999986
21
79.999999999999986
31
0
0
LINE
5
182
100
AcDbEntity
8
0
100
AcDbLine
10
-88.999999999999986
20
79.999999999999986
30
0
11
-121
21
80.000000000000014
31
0
0
LINE
5
183
100
AcDbEntity
8
0
100
AcDbLine
10
-121
20
80.000000000000014
30
0
11
-120.99999999999997
21
-92.000000000000298
31
0
0
LINE
5
184
100
AcDbEntity
8
0
100
AcDbLine
10
-120.99999999999997
20
-92.000000000000298
30
0
11
-116.07142857142858
21
-92.000000000000298
31
0
0
LINE
5
185
100
AcDbEntity
8
0
100
AcDbLine
10
-116.07142857142858
20
-92.000000000000298
30
0
11
-116.07142857142858
21
-96.000000000000298
31
0
0
LINE
5
186
100
AcDbEntity
8
0
100
AcDbLine
10
-116.07142857142858
20
-96.000000000000298
30
0
11
-98.214285714285722
21
-96.000000000000298
31
0
0
LINE
5
187
100
AcDbEntity
8
0
100
AcDbLine
10
-98.214285714285722
20
-96.000000000000298
30
0
11
-98.214285714285722
21
-92.000000000000298
31
0
0
LINE
5
188
100
AcDbEntity
8
0
100
AcDbLine
10
-98.214285714285722
20
-92.000000000000298
30
0
11
-88.999999999999986
21
-92.000000000000298
31
0
0
LINE
5
189
100
AcDbEntity
8
0
100
AcDbLine
10
-88.999999999999986
20
-92.000000000000298
30
0
11
-88.999999999999986
21
-78.000000000000128
31
0
0
LINE
5
190
100
AcDbEntity
8
0
100
AcDbLine
10
-88.999999999999986
20
-78.000000000000128
30
0
11
-85
21
-78.000000000000128
31
0
0
LINE
5
191
100
AcDbEntity
8
0
100
AcDbLine
10
-85
20
-78.000000000000128
30
0
11
-85
21
-92.000000000000298
31
0
0
LINE
5
192
100
AcDbEntity
8
0
100
AcDbLine
10
-85
20
-92.000000000000298
30
0
11
-80.357142857142847
21
-92.000000000000298
31
0
0
LINE
5
193
100
AcDbEntity
8
0
100
AcDbLine
10
-80.357142857142847
20
-92.000000000000298
30
0
11
-80.357142857142861
21
-96.000000000000298
31
0
0
LINE
5
194
100
AcDbEntity
8
0
100
AcDbLine
10
-80.357142857142861
20
-96.000000000000298
30
0
11
-62.500000000000007
21
-96.000000000000298
31
0
0
LINE
5
195
100
AcDbEntity
8
0
100
AcDbLine
10
-62.500000000000007
20
-96.000000000000298
30
0
11
-62.500000000000007
21
-92.000000000000298
31
0
0
LINE
5
196
100
AcDbEntity
8
0
100
AcDbLine
10
-62.500000000000007
20
-92.000000000000298
30
0
11
-60
21
-92.000000000000298
31
0
0
LINE
5
197
100
AcDbEntity
8
0
100
AcDbLine
10
-60
20
-92.000000000000298
30
0
11
-60
21
-78.000000000000128
31
0
0
LINE
5
198
100
AcDbEntity
8
0
100
AcDbLine
10
-60
20
-78.000000000000128
30
0
11
-56
21
-78.000000000000128
31
0
0
LINE
5
199
100
AcDbEntity
8
0
100
AcDbLine
10
-56
20
-78.000000000000128
30
0
11
-56
21
-92.000000000000298
31
0
0
LINE
5
200
100
AcDbEntity
8
0
100
AcDbLine
10
-56
20
-92.000000000000298
30
0
11
-44.642857142857146
21
-92.000000000000298
31
0
0
LINE
5
201
100
AcDbEntity
8
0
100
AcDbLine
10
-44.642857142857146
20
-92.000000000000298
30
0
11
-44.642857142857146
21
-96.000000000000298
31
0
0
LINE
5
202
100
AcDbEntity
8
0
100
AcDbLine
10
-44.642857142857146
20
-96.000000000000298
30
0
11
-37
21
-96
31
0
0
LINE
5
203
100
AcDbEntity
8
0
100
AcDbLine
10
-33
20
-89.999999999999986
30
0
11
-33
21
-96
31
0
0
LINE
5
204
100
AcDbEntity
8
0
100
AcDbLine
10
-37
20
-89.999999999999972
30
0
11
-33
21
-89.999999999999986
31
0
0
LINE
5
205
100
AcDbEntity
8
0
100
AcDbLine
10
-37
20
-96
30
0
11
-37
21
-89.999999999999986
31
0
0
LWPOLYLINE
5
206
100
AcDbEntity
8
0
100
AcDbPolyline
90
4
70
1
43
0.0
10
-88.999999999999986
20
-18.000000000000131
10
-88.999999999999986
20
-58.000000000000128
10
-85
20
-58.000000000000128
10
-85
20
-18.000000000000131
0
LWPOLYLINE
5
207
100
AcDbEntity
8
0
100
AcDbPolyline
90
4
70
1
43
0.0
10
-88.999999999999986
20
41.999999999999872
10
-88.999999999999986
20
1.9999999999998685
10
-85
20
1.9999999999998685
10
-85
20
41.999999999999872
0
LWPOLYLINE
5
208
100
AcDbEntity
8
0
100
AcDbPolyline
90
4
70
1
43
0.0
10
-75.750000000000014
20
-41.999999999999901
10
-75.750000000000014
20
-61.999999999999901
10
-69.25
20
-61.999999999999901
10
-69.25
20
-41.999999999999901
0
LWPOLYLINE
5
209
100
AcDbEntity
8
0
100
AcDbPolyline
90
4
70
1
43
0.0
10
-31
20
-18.000000000000131
10
-31
20
-58.000000000000128
10
-26.999999999999996
20
-58.000000000000128
10
-26.999999999999996
20
-18.000000000000131
0
LWPOLYLINE
5
210
100
AcDbEntity
8
0
100
AcDbPolyline
90
4
70
1
43
0.0
10
-31
20
41.999999999999872
10
-31
20
1.9999999999998685
10
-26.999999999999996
20
1.9999999999998685
10
-26.999999999999996
20
41.999999999999872
0
LWPOLYLINE
5
211
100
AcDbEntity
8
0
100
AcDbPolyline
90
4
70
1
43
0.0
10
-17.75
20
-41.999999999999901
10
-17.75
20
-61.999999999999901
10
-11.249999999999996
20
-61.999999999999901
10
-11.249999999999996
20
-41.999999999999901
0
LWPOLYLINE
5
212
100
AcDbEntity
8
0
100
AcDbPolyline
90
4
70
1
43
0.0
10
26.999999999999996
20
-18.000000000000131
10
26.999999999999996
20
-58.000000000000128
10
31
20
-58.000000000000128
10
31
20
-18.000000000000131
0
LWPOLYLINE
5
213
100
AcDbEntity
8
0
100
AcDbPolyline
90
4
70
1
43
0.0
10
26.999999999999996
20
41.999999999999872
10
26.999999999999996
20
1.9999999999998685
10
31
20
1.9999999999998685
10
31
20
41.999999999999872
0
LWPOLYLINE
5
214
100
AcDbEntity
8
0
100
AcDbPolyline
90
4
70
1
43
0.0
10
40.249999999999993
20
-41.999999999999901
10
40.249999999999993
20
-61.999999999999901
10
46.749999999999986
20
-61.999999999999901
10
46.749999999999986
20
-41.999999999999901
0
LWPOLYLINE
5
215
100
AcDbEntity
8
0
100
AcDbPolyline
90
4
70
1
43
0.0
10
85
20
-18.000000000000131
10
85
20
-58.000000000000128
10
88.999999999999986
20
-58.000000000000128
10
88.999999999999986
20
-18.000000000000131
0
LWPOLYLINE
5
216
100
AcDbEntity
8
0
100
AcDbPolyline
90
4
70
1
43
0.0
10
85
20
41.999999999999872
10
85
20
1.9999999999998685
10
88.999999999999986
20
1.9999999999998685
10
88.999999999999986
20
41.999999999999872
0
LWPOLYLINE
5
217
100
AcDbEntity
8
0
100
AcDbPolyline
90
4
70
1
43
0.0
10
69.249999999999986
20
-61.999999999999901
10
75.75
20
-61.999999999999901
10
75.75
20
-41.999999999999901
10
69.249999999999986
20
-41.999999999999901
0
LWPOLYLINE
5
218
100
AcDbEntity
8
0
100
AcDbPolyline
90
4
70
1
43
0.0
10
56
20
41.999999999999872
10
56
20
1.9999999999998685
10
60
20
1.9999999999998685
10
60
20
41.999999999999872
0
LWPOLYLINE
5
219
100
AcDbEntity
8
0
100
AcDbPolyline
90
4
70
1
43
0.0
10
56
20
-18.000000000000131
10
56
20
-58.000000000000128
10
60
20
-58.000000000000128
10
60
20
-18.000000000000131
0
LWPOLYLINE
5
220
100
AcDbEntity
8
0
100
AcDbPolyline
90
4
70
1
43
0.0
10
11.249999999999996
20
-41.999999999999901
10
11.249999999999996
20
-61.999999999999901
10
17.75
20
-61.999999999999901
10
17.75
20
-41.999999999999901
0
LWPOLYLINE
5
221
100
AcDbEntity
8
0
100
AcDbPolyline
90
4
70
1
43
0.0
10
-2
20
41.999999999999872
10
-2
20
1.9999999999998685
10
2
20
1.9999999999998685
10
2
20
41.999999999999872
0
LWPOLYLINE
5
222
100
AcDbEntity
8
0
100
AcDbPolyline
90
4
70
1
43
0.0
10
-2
20
-18.000000000000131
10
-2
20
-58.000000000000128
10
2
20
-58.000000000000128
10
2
20
-18.000000000000131
0
LWPOLYLINE
5
223
100
AcDbEntity
8
0
100
AcDbPolyline
90
4
70
1
43
0.0
10
-46.750000000000007
20
-41.999999999999901
10
-46.750000000000007
20
-61.999999999999901
10
-40.25
20
-61.999999999999901
10
-40.25
20
-41.999999999999901
0
LWPOLYLINE
5
224
100
AcDbEntity
8
0
100
AcDbPolyline
90
4
70
1
43
0.0
10
-60
20
41.999999999999872
10
-60
20
1.9999999999998685
10
-56
20
1.9999999999998685
10
-56
20
41.999999999999872
0
LWPOLYLINE
5
225
100
AcDbEntity
8
0
100
AcDbPolyline
90
4
70
1
43
0.0
10
-60
20
-18.000000000000131
10
-60
20
-58.000000000000128
10
-56
20
-58.000000000000128
10
-56
20
-18.000000000000131
0
LINE
5
226
100
AcDbEntity
8
0
100
AcDbLine
10
37
20
-96
30
0
11
44.642857142857146
21
-96.000000000000298
31
0
0
LINE
5
227
100
AcDbEntity
8
0
100
AcDbLine
10
-33
20
-96
30
0
11
-31
21
-96.000000000000298
31
0
0
CIRCLE
5
228
100
AcDbEntity
8
0
100
AcDbCircle
10
-72.500000000000028
20
-74.000000000000028
30
0
40
1.9999999999999929
210
0
220
-0
230
1
0
CIRCLE
5
229
100
AcDbEntity
8
0
100
AcDbCircle
10
-14.50000000000002
20
-74.000000000000028
30
0
40
1.9999999999999973
210
0
220
-0
230
1
0
CIRCLE
5
230
100
AcDbEntity
8
0
100
AcDbCircle
10
43.499999999999986
20
-74.000000000000028
30
0
40
1.9999999999999929
210
0
220
-0
230
1
0
CIRCLE
5
231
100
AcDbEntity
8
0
100
AcDbCircle
10
72.499999999999986
20
-74.000000000000028
30
0
40
1.9999999999999929
210
0
220
-0
230
1
0
CIRCLE
5
232
100
AcDbEntity
8
0
100
AcDbCircle
10
14.499999999999984
20
-74.000000000000028
30
0
40
1.9999999999999973
210
0
220
-0
230
1
0
CIRCLE
5
233
100
AcDbEntity
8
0
100
AcDbCircle
10
-43.500000000000021
20
-74.000000000000028
30
0
40
1.9999999999999929
210
0
220
-0
230
1
0
ENDSEC
0
SECTION
2
OBJECTS
0
DICTIONARY
5
C
100
AcDbDictionary
3
ACAD_GROUP
350
D
3
ACAD_MLINESTYLE
350
17
0
DICTIONARY
5
D
100
AcDbDictionary
0
DICTIONARY
5
1A
330
C
100
AcDbDictionary
0
DICTIONARY
5
17
100
AcDbDictionary
0
ENDSEC
0
EOF
