0
SECTION
2
HEADER
9
$INSUNITS
70
4
9
$ACADVER
1
AC1014
9
$HANDSEED
5
FFFF
0
ENDSEC
0
SECTION
2
TABLES
0
TABLE
2
VPORT
5
8
100
AcDbSymbolTable
0
ENDTAB
0
TABLE
2
LTYPE
5
5
100
AcDbSymbolTable
0
LTYPE
5
14
100
AcDbSymbolTableRecord
100
AcDbLinetypeTableRecord
2
BYBLOCK
70
0
0
LTYPE
5
15
100
AcDbSymbolTableRecord
100
AcDbLinetypeTableRecord
2
BYLAYER
70
0
0
ENDTAB
0
TABLE
2
LAYER
5
2
100
AcDbSymbolTable
70
2
0
LAYER
5
50
100
AcDbSymbolTableRecord
100
AcDbLayerTableRecord
2
0
70
0
6
CONTINUOUS
0
ENDTAB
0
TABLE
2
STYLE
5
3
100
AcDbSymbolTable
70
1
0
STYLE
5
11
100
AcDbSymbolTableRecord
100
AcDbTextStyleTableRecord
2
STANDARD
70
0
0
ENDTAB
0
TABLE
2
VIEW
5
6
100
AcDbSymbolTable
70
0
0
ENDTAB
0
TABLE
2
UCS
5
7
100
AcDbSymbolTable
70
0
0
ENDTAB
0
TABLE
2
APPID
5
9
100
AcDbSymbolTable
70
2
0
APPID
5
12
100
AcDbSymbolTableRecord
100
AcDbRegAppTableRecord
2
ACAD
70
0
0
ENDTAB
0
TABLE
2
DIMSTYLE
5
A
100
AcDbSymbolTable
70
1
0
ENDTAB
0
TABLE
2
BLOCK_RECORD
5
1
100
AcDbSymbolTable
70
1
0
BLOCK_RECORD
5
1F
100
AcDbSymbolTableRecord
100
AcDbBlockTableRecord
2
*MODEL_SPACE
0
BLOCK_RECORD
5
1B
100
AcDbSymbolTableRecord
100
AcDbBlockTableRecord
2
*PAPER_SPACE
0
ENDTAB
0
ENDSEC
0
SECTION
2
BLOCKS
0
BLOCK
5
20
100
AcDbEntity
100
AcDbBlockBegin
2
*MODEL_SPACE
0
ENDBLK
5
21
100
AcDbEntity
100
AcDbBlockEnd
0
BLOCK
5
1C
100
AcDbEntity
100
AcDbBlockBegin
2
*PAPER_SPACE
0
ENDBLK
5
1D
100
AcDbEntity
100
AcDbBlockEnd
0
ENDSEC
0
SECTION
2
ENTITIES
0
LINE
5
100
100
AcDbEntity
8
0
100
AcDbLine
10
84.000000000000028
20
-59.583333333333371
30
0
11
80
21
-59.583333333333385
31
0
0
LINE
5
101
100
AcDbEntity
8
0
100
AcDbLine
10
84.000000000000028
20
-61.000000000000043
30
0
11
84.000000000000028
21
-59.583333333333371
31
0
0
LINE
5
102
100
AcDbEntity
8
0
100
AcDbLine
10
-26.999999999999904
20
-60.999999999999986
30
0
11
84.000000000000028
21
-61.000000000000043
31
0
0
LINE
5
103
100
AcDbEntity
8
0
100
AcDbLine
10
-89.999999999999986
20
-65
30
0
11
-89.999999999999986
21
-61.00000000000005
31
0
0
LINE
5
104
100
AcDbEntity
8
0
100
AcDbLine
10
-100
20
-65
30
0
11
-89.999999999999986
21
-65
31
0
0
LINE
5
105
100
AcDbEntity
8
0
100
AcDbLine
10
-100
20
-59.583333333333385
30
0
11
-100
21
-65
31
0
0
LINE
5
106
100
AcDbEntity
8
0
100
AcDbLine
10
-95.999999999999972
20
-59.583333333333385
30
0
11
-100
21
-59.583333333333385
31
0
0
LINE
5
107
100
AcDbEntity
8
0
100
AcDbLine
10
-95.999999999999943
20
-48.750000000000057
30
0
11
-95.999999999999972
21
-59.583333333333385
31
0
0
LINE
5
108
100
AcDbEntity
8
0
100
AcDbLine
10
-100
20
-48.750000000000057
30
0
11
-95.999999999999943
21
-48.750000000000057
31
0
0
LINE
5
109
100
AcDbEntity
8
0
100
AcDbLine
10
-100
20
-37.916666666666721
30
0
11
-100
21
-48.750000000000057
31
0
0
LINE
5
110
100
AcDbEntity
8
0
100
AcDbLine
10
-95.999999999999972
20
-37.916666666666721
30
0
11
-100
21
-37.916666666666721
31
0
0
LINE
5
111
100
AcDbEntity
8
0
100
AcDbLine
10
-95.999999999999943
20
-27.083333333333389
30
0
11
-95.999999999999972
21
-37.916666666666721
31
0
0
LINE
5
112
100
AcDbEntity
8
0
100
AcDbLine
10
-100
20
-27.083333333333389
30
0
11
-95.999999999999943
21
-27.083333333333389
31
0
0
LINE
5
113
100
AcDbEntity
8
0
100
AcDbLine
10
-100
20
-16.250000000000057
30
0
11
-100
21
-27.083333333333389
31
0
0
LINE
5
114
100
AcDbEntity
8
0
100
AcDbLine
10
-95.999999999999972
20
-16.250000000000057
30
0
11
-100
21
-16.250000000000057
31
0
0
LINE
5
115
100
AcDbEntity
8
0
100
AcDbLine
10
-95.999999999999943
20
-5.4166666666667282
30
0
11
-95.999999999999972
21
-16.250000000000057
31
0
0
LINE
5
116
100
AcDbEntity
8
0
100
AcDbLine
10
-100
20
-5.4166666666667282
30
0
11
-95.999999999999943
21
-5.4166666666667282
31
0
0
LINE
5
117
100
AcDbEntity
8
0
100
AcDbLine
10
-100
20
0
30
0
11
-100
21
-5.4166666666667282
31
0
0
LINE
5
118
100
AcDbEntity
8
0
100
AcDbLine
10
-15
20
0
30
0
11
-30
21
0
31
0
0
LINE
5
119
100
AcDbEntity
8
0
100
AcDbLine
10
-90
20
-4.0000000000000009
30
0
11
-90
21
0
31
0
0
LINE
5
120
100
AcDbEntity
8
0
100
AcDbLine
10
-70
20
-4.0000000000000009
30
0
11
-90
21
-4.0000000000000009
31
0
0
LINE
5
121
100
AcDbEntity
8
0
100
AcDbLine
10
-70
20
0
30
0
11
-70
21
-4.0000000000000009
31
0
0
LINE
5
122
100
AcDbEntity
8
0
100
AcDbLine
10
-30
20
-4.0000000000000009
30
0
11
-35.543167705199039
21
-4.0000000000000018
31
0
0
LINE
5
123
100
AcDbEntity
8
0
100
AcDbLine
10
-30
20
0
30
0
11
-30
21
-4.0000000000000009
31
0
0
ARC
5
124
100
AcDbEntity
8
0
100
AcDbCircle
10
-2.2204460492503131e-15
20
1.1102230246251565e-15
30
0
40
14.999999999999996
210
0
220
0
230
1
100
AcDbArc
50
180
51
360
0
LINE
5
125
100
AcDbEntity
8
0
100
AcDbLine
10
30
20
0
30
0
11
15
21
-2.2204460492503131e-15
31
0
0
LINE
5
126
100
AcDbEntity
8
0
100
AcDbLine
10
30
20
-4.0000000000000009
30
0
11
30
21
0
31
0
0
LINE
5
127
100
AcDbEntity
8
0
100
AcDbLine
10
35.543167705199039
20
-4
30
0
11
30
21
-4.0000000000000009
31
0
0
LINE
5
128
100
AcDbEntity
8
0
100
AcDbLine
10
70
20
0
30
0
11
65
21
-2.2204460492503131e-15
31
0
0
LINE
5
129
100
AcDbEntity
8
0
100
AcDbLine
10
70
20
-4.0000000000000009
30
0
11
70
21
0
31
0
0
LINE
5
130
100
AcDbEntity
8
0
100
AcDbLine
10
84.000000000000028
20
-4.0000000000000009
30
0
11
70
21
-4.0000000000000009
31
0
0
LINE
5
131
100
AcDbEntity
8
0
100
AcDbLine
10
84.000000000000028
20
-5.4166666666667247
30
0
11
84.000000000000028
21
-4.0000000000000009
31
0
0
LINE
5
132
100
AcDbEntity
8
0
100
AcDbLine
10
79.999999999999972
20
-5.4166666666667282
30
0
11
84.000000000000028
21
-5.4166666666667247
31
0
0
LINE
5
133
100
AcDbEntity
8
0
100
AcDbLine
10
80
20
-16.250000000000057
30
0
11
79.999999999999972
21
-5.4166666666667274
31
0
0
LINE
5
134
100
AcDbEntity
8
0
100
AcDbLine
10
84.000000000000028
20
-16.250000000000053
30
0
11
80
21
-16.250000000000057
31
0
0
LINE
5
135
100
AcDbEntity
8
0
100
AcDbLine
10
84.000000000000028
20
-27.083333333333385
30
0
11
84.000000000000028
21
-16.250000000000053
31
0
0
LINE
5
136
100
AcDbEntity
8
0
100
AcDbLine
10
79.999999999999972
20
-27.083333333333389
30
0
11
84.000000000000028
21
-27.083333333333385
31
0
0
LINE
5
137
100
AcDbEntity
8
0
100
AcDbLine
10
80
20
-37.916666666666721
30
0
11
79.999999999999972
21
-27.083333333333389
31
0
0
LINE
5
138
100
AcDbEntity
8
0
100
AcDbLine
10
84.000000000000028
20
-37.916666666666714
30
0
11
80
21
-37.916666666666721
31
0
0
LINE
5
139
100
AcDbEntity
8
0
100
AcDbLine
10
84.000000000000028
20
-48.750000000000043
30
0
11
84.000000000000028
21
-37.916666666666714
31
0
0
LINE
5
140
100
AcDbEntity
8
0
100
AcDbLine
10
79.999999999999972
20
-48.750000000000057
30
0
11
84.000000000000028
21
-48.750000000000043
31
0
0
LINE
5
141
100
AcDbEntity
8
0
100
AcDbLine
10
80
20
-59.583333333333385
30
0
11
79.999999999999972
21
-48.750000000000057
31
0
0
LINE
5
142
100
AcDbEntity
8
0
100
AcDbLine
10
-76.999999999999901
20
-60.999999999999986
30
0
11
-76.999999999999901
21
-52.999999999999979
31
0
0
LINE
5
143
100
AcDbEntity
8
0
100
AcDbLine
10
-26.999999999999904
20
-52.999999999999986
30
0
11
-26.999999999999904
21
-60.999999999999986
31
0
0
LINE
5
144
100
AcDbEntity
8
0
100
AcDbLine
10
-76.999999999999901
20
-52.999999999999979
30
0
11
-26.999999999999904
21
-52.999999999999986
31
0
0
ARC
5
145
100
AcDbEntity
8
0
100
AcDbCircle
10
50
20
3.3306690738754696e-15
30
0
40
15.000000000000002
210
0
220
0
230
1
100
AcDbArc
50
195.46600995342055
51
360
0
ARC
5
146
100
AcDbEntity
8
0
100
AcDbCircle
10
-50
20
-1.1102230246251565e-15
30
0
40
15
210
0
220
0
230
1
100
AcDbArc
50
180
51
344.53399004657945
0
LINE
5
147
100
AcDbEntity
8
0
100
AcDbLine
10
-65
20
1.1102230246251565e-15
30
0
11
-70
21
0
31
0
0
LINE
5
148
100
AcDbEntity
8
0
100
AcDbLine
10
-90
20
0
30
0
11
-100
21
0
31
0
0
LINE
5
149
100
AcDbEntity
8
0
100
AcDbLine
10
-89.999999999999986
20
-61.00000000000005
30
0
11
-76.999999999999901
21
-60.999999999999986
31
0
0
ENDSEC
0
SECTION
2
OBJECTS
0
DICTIONARY
5
C
100
AcDbDictionary
3
ACAD_GROUP
350
D
3
ACAD_MLINESTYLE
350
17
0
DICTIONARY
5
D
100
AcDbDictionary
0
DICTIONARY
5
1A
330
C
100
AcDbDictionary
0
DICTIONARY
5
17
100
AcDbDictionary
0
ENDSEC
0
EOF
